       <svg width="192" height="44" viewBox="0 0 192 44" xmlns="http://www.w3.org/2000/svg">
            <path d="M179.317 12.634h4.022l-.024 6.495h.873l2.295-6.495h4.352l-3.123 8.582 3.573 9.498h-4.708l-2.316-7.27h-.946l.024 7.27h-4.022zM165.77 12.634h3.996v6.521h2.861v-6.52h3.995v18.079h-3.995v-7.246h-2.861v7.246h-3.997zM151.84 30.738h4.162l.498-3.126h2.858l.499 3.126h4.16l-3.499-18.077h-5.156l-3.522 18.077zm6.1-12.603l.757 5.502h-1.538l.78-5.502zM140.676 30.714h4.871c1.064 0 5.487-.462 5.51-5.94 0-4.598-3.427-5.4-5.65-5.4h-.734v-2.4h5.416v-4.339h-9.413v18.08zm3.997-3.636v-4.094h.591c.496 0 1.775.023 1.775 1.89 0 1.892-1.279 2.204-1.775 2.204h-.59zM124.809 12.634h3.477l3.07 4.266 3.102-4.266h3.452v18.08h-4.094V19.687l-2.46 3.15-2.457-3.15v11.027h-4.09zM116.365 30.933c4.848 0 6.478-4.655 6.478-9.282s-1.63-9.282-6.478-9.282-6.478 4.655-6.478 9.282 1.63 9.282 6.478 9.282m0-4.388c-1.445 0-2.175-1.718-2.175-4.894s.73-4.896 2.175-4.896c1.445 0 2.174 1.72 2.174 4.896s-.73 4.894-2.174 4.894M98.036 30.714h4.092v-5.96h1.373c4.042 0 5.297-3.734 5.297-6.112 0-2.325-1.445-6.008-5.297-6.008h-5.465v18.08zm4.092-14.105h.97c.922 0 1.514.582 1.514 2.084 0 1.94-.995 2.082-1.514 2.082h-.97V16.61zM84.533 12.634h11.162v18.08h-4.092V16.997h-2.979v13.717h-4.091zM76.137 19.64c.661 0 1.869-.437 1.869-1.77 0-1.573-1.395-1.673-1.799-1.673-.472 0-1.37.075-2.246.511l-.046-3.929c1.394-.362 2.388-.46 3.569-.46 3.36 0 4.85 2.401 4.85 4.75 0 2.28-1.278 3.658-2.53 4.192v.17c1.206.391 2.813 1.575 2.813 4.339 0 3.419-2.316 5.307-5.297 5.307-1.585-.022-2.626-.24-3.88-.943l.073-3.759c1.158.511 1.938.558 2.72.558 1.324 0 1.843-.995 1.843-1.719 0-1.02-.638-1.697-2.033-1.697h-1.656V19.64h1.75zM60.058 30.714h4.137l.521-3.128h2.862l.496 3.128h4.137l-3.5-18.08h-5.155l-3.498 18.08zm6.076-12.626l.78 5.526h-1.561l.78-5.526zM52.136 12.634h8.392v4.507h-4.232v13.573h-4.16z"></path>
            <path d="M1.038 21.879c0 11.125 8.85 20.181 19.728 20.181 10.857 0 19.701-9.06 19.701-20.181 0-11.143-8.84-20.205-19.701-20.205-10.883 0-19.728 9.059-19.728 20.205zm-1.038 0C0 10.145 9.311.61 20.766.61c11.43 0 20.739 9.534 20.739 21.268 0 11.71-9.31 21.244-20.74 21.244C9.312 43.123 0 33.588 0 21.88z"></path>
            <path d="M14.574 8.45a11.24 11.24 0 0 0-2.035 1.183c4.941-2.254 10.974-2.107 14.211-.628 1.018.484 1.702.778 2.012 1.356-3.36-.922-4.803-1.089-7.615-1.018-4 .074-9.32 1.695-11.354 2.934l-.894 1.14c2.928-1.774 8.392-2.933 11.421-3.031 3.382-.047 6.005.268 8.419 1.164-.144.629-.451.944-.971 1.261-9.649-1.722-15.35.312-20.504 3.753l-.377 1.138c5.747-4.044 12.792-5.157 19.581-3.947-2.435.873-5.344 1.066-7.78 1.644-2.08.486-3.192.633-5.962 1.58-2.81.945-4.47 1.913-5.508 3.15-.497.584-.876 1.26-.972 1.985-.044.434-.021.826.122 1.214.114.34.375.678.66 1.017-.33.58-.617 1.335-.141 2.207.212.41.756.822 1.279 1.213l-.147.432c-.07.512-.14 1.116.192 1.624.565.921 1.251 1.529 2.34 2.11.166.752.424 1.356.992 1.892 1.206 1.137 3.904 3.318 8.703 3.658 3.596.244 6.173-.872 7.144-1.358l1.182-.628c-2.01.822-5.39 1.307-8.16 1.065-4.02-.34-7.612-3.029-8.062-3.805.14.095.33.169.493.242 4.708 2.326 10.785 3.588 18.566.34l.642-.63c-7.075 2.253-13.268 2.181-19.916-1.38.073-.34.215-.635.52-.872 1.701.77 3.335 1.405 5.322 1.814 2.318.438 4.965.536 7.143.438 2.2-.097 6.55-1.212 8.608-2.326.188-.17.282-.458.471-.654-4.017 1.498-8.797 2.204-11.68 1.984-2.815-.216-5.32-.557-8.632-2.107.637-.265 1.3-.484 1.961-.68 2.176.68 4.398 1.09 7.023 1.213 2.604.12 8.68-.87 12.51-3.244.121-.34.238-.706.238-.706s-5.321 2.91-11.35 2.91c-2.815 0-4.541-.413-5.817-.728 2.836-.533 6.408-.97 10.426-2.011 2.033-.535 4.541-1.748 5.677-2.764.969-.899 1.727-2.062 1.468-3.245-.051-.319-.475-1.066-.996-1.335.497-.654.45-1.212.381-1.693-.05-.37-.215-.778-.425-1.14-.332-.441-.642-.782-1.281-1.167a2.44 2.44 0 0 0-.189-1.503c-.496-.872-1.393-1.622-2.93-2.422-.071-.316-.263-.728-.591-1.139-1.938-1.963-5.109-2.908-7.782-2.958-.15-.003-.299-.004-.445-.004-3.127 0-5.637.72-7.191 1.462zm15.134 4.846c.238-.267.59-.679.683-1.019.665.437 1.421 1.091 1.514 1.77-.707-.27-1.464-.556-2.197-.75zm.59 2.955c-1.133-.317-2.126-.705-3.454-.944.807-.318 1.348-.655 1.824-1.044 1.06.289 2.054.655 2.863 1.017-.14.211-.95.979-1.196.979a.074.074 0 0 1-.037-.008zm2.058.848c.306-.243.591-.507.852-.824.637.557.826.945.52 1.551-.424-.314-.877-.485-1.372-.727zM8.071 23.11c-1.753-2.472 4.324-4.24 5.485-4.605 2.955-.9 6.41-1.574 9.532-1.962 2.147-.268 3.286-.023 5.321.533-5.227 1.43-10.385 1.887-15.304 3.367-3.966 1.18-5.018 2.667-5.034 2.667zm1.297 1.186c1.845-1.601 5.607-2.496 6.98-2.811 4.373-.97 8.441-1.575 10.12-2.01 2.035-.512 3.454-.994 4.443-1.478.048-.073 1.656.725 1.822.917-.543.463-1.297.852-2.127 1.14-2.483.922-7 1.89-9.387 2.26-2.413.409-4.427.722-7.095 1.446-1.54.415-2.581.9-3.338 1.41-.567-.34-.898-.436-1.418-.874zm3.432 1.939c.778-.34 1.63-.607 2.455-.821 4.164-1.048 7.833-1.239 12.893-2.643 2.435-.657 4.208-1.361 5.321-2.23.164-.148.33-.268.496-.412 1.466 2.325-4.043 4.119-7.806 4.947a300.58 300.58 0 0 1-5.913 1.136c-2.456.412-3.264.631-4.966 1.14-.85-.34-1.702-.704-2.48-1.117zm-4.426-.727c.38.245.662.44 1.113.679-.166.145-.38.292-.544.46-.376-.22-.758-.7-.569-1.14zm1.965 2.23c.237-.218.543-.435.874-.652.71.34 1.442.651 2.128.968a7.226 7.226 0 0 0-1.322.655 64.425 64.425 0 0 1-1.68-.972zm-.616 1.186c.402.268.804.485 1.208.705-.166.243-.286.434-.355.679-.592-.51-.878-.922-.853-1.384z"></path>
          </svg>