<svg width="666" height="357" viewBox="0 0 666 357" fill="none" xmlns="http://www.w3.org/2000/svg">
<rect x="5.5" y="0.5" width="655" height="57" rx="4.5" fill="white" stroke="#D7DEE9"/>
<path d="M39.892 38.336C37.0547 38.336 34.684 37.44 32.78 35.648C30.8947 33.8373 29.952 31.5133 29.952 28.676C29.952 25.8387 30.8947 23.524 32.78 21.732C34.684 19.9213 37.0547 19.016 39.892 19.016C43.3827 19.016 45.9867 20.5373 47.704 23.58L44.288 25.26C43.8773 24.476 43.2707 23.832 42.468 23.328C41.684 22.8053 40.8253 22.544 39.892 22.544C38.1933 22.544 36.7933 23.1227 35.692 24.28C34.5907 25.4373 34.04 26.9027 34.04 28.676C34.04 30.4493 34.5907 31.9147 35.692 33.072C36.7933 34.2293 38.1933 34.808 39.892 34.808C40.8253 34.808 41.684 34.556 42.468 34.052C43.2707 33.548 43.8773 32.8947 44.288 32.092L47.704 33.744C45.9307 36.8053 43.3267 38.336 39.892 38.336ZM61.4667 36.292C60.16 37.6547 58.424 38.336 56.2587 38.336C54.0933 38.336 52.3573 37.6547 51.0507 36.292C49.7627 34.9107 49.1187 33.2213 49.1187 31.224C49.1187 29.2267 49.7627 27.5467 51.0507 26.184C52.3573 24.8213 54.0933 24.14 56.2587 24.14C58.424 24.14 60.16 24.8213 61.4667 26.184C62.7733 27.5467 63.4267 29.2267 63.4267 31.224C63.4267 33.2213 62.7733 34.9107 61.4667 36.292ZM53.7387 34.052C54.3547 34.7987 55.1947 35.172 56.2587 35.172C57.3227 35.172 58.1627 34.7987 58.7787 34.052C59.4133 33.2867 59.7307 32.344 59.7307 31.224C59.7307 30.1227 59.4133 29.1987 58.7787 28.452C58.1627 27.6867 57.3227 27.304 56.2587 27.304C55.1947 27.304 54.3547 27.6867 53.7387 28.452C53.1227 29.1987 52.8147 30.1227 52.8147 31.224C52.8147 32.344 53.1227 33.2867 53.7387 34.052ZM70.9928 38.336C68.2674 38.336 66.1674 37.6173 64.6928 36.18L66.3168 33.968C67.5301 34.9947 69.0888 35.508 70.9928 35.508C71.8888 35.508 72.5794 35.3773 73.0648 35.116C73.5501 34.8547 73.7928 34.5 73.7928 34.052C73.7928 33.044 72.7848 32.54 70.7688 32.54H67.9968V29.796H70.7688C72.6168 29.796 73.5408 29.3107 73.5408 28.34C73.5408 27.9293 73.2888 27.6027 72.7848 27.36C72.2808 27.0987 71.6274 26.968 70.8248 26.968C69.0701 26.968 67.6701 27.4813 66.6248 28.508L64.8888 26.408C66.3821 24.9147 68.2954 24.168 70.6288 24.168C72.7194 24.1493 74.3434 24.476 75.5008 25.148C76.6581 25.8013 77.2368 26.7067 77.2368 27.864C77.2368 28.6853 76.8914 29.3853 76.2008 29.964C75.5101 30.5427 74.6794 30.9067 73.7088 31.056C74.6608 31.112 75.5288 31.4293 76.3128 32.008C77.1154 32.5867 77.5168 33.3427 77.5168 34.276C77.5168 35.4893 76.9288 36.4693 75.7528 37.216C74.5768 37.9627 72.9901 38.336 70.9928 38.336ZM78.9142 41.444V35.032C79.3248 34.9573 79.6422 34.8267 79.8662 34.64C80.1088 34.4347 80.3328 34.052 80.5382 33.492C80.7622 32.9133 80.9395 32.092 81.0702 31.028L81.9382 24.476H92.8862V34.892H94.3702V41.444H90.8142V38H82.4982V41.444H78.9142ZM85.0462 27.584L84.6262 31.252C84.4395 32.876 83.9168 34.0893 83.0582 34.892H89.3302V27.584H85.0462ZM108.284 38H104.728V36.6C103.757 37.7573 102.329 38.336 100.444 38.336C99.2304 38.336 98.1384 37.944 97.1678 37.16C96.2158 36.3573 95.7398 35.256 95.7398 33.856C95.7398 32.4 96.2064 31.308 97.1398 30.58C98.0918 29.852 99.1931 29.488 100.444 29.488C102.366 29.488 103.794 30.0387 104.728 31.14V29.32C104.728 28.6293 104.457 28.0787 103.916 27.668C103.374 27.2573 102.656 27.052 101.76 27.052C100.285 27.052 98.9691 27.584 97.8118 28.648L96.4678 26.268C98.0731 24.8493 100.042 24.14 102.376 24.14C104.112 24.14 105.53 24.5413 106.632 25.344C107.733 26.1467 108.284 27.4533 108.284 29.264V38ZM101.872 35.928C103.197 35.928 104.149 35.536 104.728 34.752V33.072C104.149 32.288 103.197 31.896 101.872 31.896C101.144 31.896 100.537 32.0827 100.052 32.456C99.5664 32.8107 99.3238 33.3053 99.3238 33.94C99.3238 34.556 99.5664 35.0413 100.052 35.396C100.537 35.7507 101.144 35.928 101.872 35.928ZM117.887 38H114.303V27.584H110.523V24.476H121.667V27.584H117.887V38ZM123.897 24.476H127.453V29.124H132.073C133.566 29.124 134.723 29.544 135.545 30.384C136.366 31.224 136.777 32.2787 136.777 33.548C136.777 34.7987 136.357 35.8533 135.517 36.712C134.677 37.5707 133.529 38 132.073 38H123.897V24.476ZM131.541 32.092H127.453V35.004H131.541C132.026 35.004 132.409 34.8733 132.689 34.612C132.987 34.332 133.137 33.9773 133.137 33.548C133.137 33.1187 132.987 32.7733 132.689 32.512C132.409 32.232 132.026 32.092 131.541 32.092ZM149.953 38H146.537V24.476H150.093V32.652L155.665 24.476H159.249V38H155.693V29.516L149.953 38ZM161.52 41.444V35.032C161.93 34.9573 162.248 34.8267 162.472 34.64C162.714 34.4347 162.938 34.052 163.144 33.492C163.368 32.9133 163.545 32.092 163.676 31.028L164.544 24.476H175.492V34.892H176.976V41.444H173.42V38H165.104V41.444H161.52ZM167.652 27.584L167.232 31.252C167.045 32.876 166.522 34.0893 165.664 34.892H171.936V27.584H167.652ZM185.569 38.336C183.479 38.336 181.752 37.6827 180.389 36.376C179.027 35.0693 178.345 33.352 178.345 31.224C178.345 29.2267 178.999 27.5467 180.305 26.184C181.631 24.8213 183.311 24.14 185.345 24.14C187.361 24.14 188.995 24.8307 190.245 26.212C191.496 27.5747 192.121 29.3667 192.121 31.588V32.372H182.069C182.181 33.268 182.583 34.0147 183.273 34.612C183.964 35.2093 184.86 35.508 185.961 35.508C186.559 35.508 187.203 35.3867 187.893 35.144C188.603 34.9013 189.163 34.5747 189.573 34.164L191.141 36.46C189.779 37.7107 187.921 38.336 185.569 38.336ZM188.677 29.964C188.621 29.1987 188.313 28.508 187.753 27.892C187.212 27.276 186.409 26.968 185.345 26.968C184.337 26.968 183.553 27.276 182.993 27.892C182.433 28.4893 182.107 29.18 182.013 29.964H188.677ZM207.514 38.336C205.628 38.336 204.06 37.804 202.81 36.74C201.559 35.6573 200.784 34.276 200.486 32.596H198.246V38H194.69V24.476H198.246V29.488H200.57C200.924 27.92 201.718 26.6413 202.95 25.652C204.182 24.644 205.703 24.14 207.514 24.14C209.679 24.14 211.415 24.8213 212.722 26.184C214.028 27.5467 214.682 29.2267 214.682 31.224C214.682 33.2213 214.028 34.9107 212.722 36.292C211.415 37.6547 209.679 38.336 207.514 38.336ZM207.514 35.172C208.596 35.172 209.446 34.7987 210.062 34.052C210.678 33.2867 210.986 32.344 210.986 31.224C210.986 30.1227 210.678 29.1987 210.062 28.452C209.446 27.6867 208.596 27.304 207.514 27.304C206.45 27.304 205.61 27.6867 204.994 28.452C204.378 29.1987 204.07 30.1227 204.07 31.224C204.07 32.344 204.378 33.2867 204.994 34.052C205.61 34.7987 206.45 35.172 207.514 35.172Z" fill="#262C40"/>
<g filter="url(#filter0_d)">
<rect x="5" y="145" width="656" height="205" rx="5" fill="white"/>
<rect x="5.5" y="145.5" width="655" height="204" rx="4.5" stroke="#D7DEE9"/>
</g>
<rect width="126" height="42" transform="translate(510 283)" fill="#0057B6"/>
<path d="M539.546 309H538.301V300.105H532.451V309H531.206V298.995H539.546V309ZM545.41 309.18C544.39 309.18 543.575 308.755 542.965 307.905V311.76H541.84V301.755H542.965V302.835C543.235 302.455 543.585 302.15 544.015 301.92C544.445 301.69 544.91 301.575 545.41 301.575C546.37 301.575 547.145 301.92 547.735 302.61C548.335 303.29 548.635 304.21 548.635 305.37C548.635 306.53 548.335 307.455 547.735 308.145C547.145 308.835 546.37 309.18 545.41 309.18ZM545.125 308.175C545.835 308.175 546.4 307.915 546.82 307.395C547.24 306.865 547.45 306.19 547.45 305.37C547.45 304.55 547.24 303.88 546.82 303.36C546.4 302.84 545.835 302.58 545.125 302.58C544.695 302.58 544.275 302.695 543.865 302.925C543.465 303.145 543.165 303.415 542.965 303.735V307.005C543.165 307.335 543.465 307.615 543.865 307.845C544.275 308.065 544.695 308.175 545.125 308.175ZM556.184 308.085C555.534 308.815 554.669 309.18 553.589 309.18C552.509 309.18 551.639 308.815 550.979 308.085C550.329 307.355 550.004 306.45 550.004 305.37C550.004 304.29 550.329 303.39 550.979 302.67C551.639 301.94 552.509 301.575 553.589 301.575C554.669 301.575 555.534 301.94 556.184 302.67C556.844 303.39 557.174 304.29 557.174 305.37C557.174 306.45 556.844 307.355 556.184 308.085ZM551.819 307.365C552.259 307.905 552.849 308.175 553.589 308.175C554.329 308.175 554.914 307.905 555.344 307.365C555.774 306.815 555.989 306.15 555.989 305.37C555.989 304.59 555.774 303.93 555.344 303.39C554.914 302.85 554.329 302.58 553.589 302.58C552.849 302.58 552.259 302.855 551.819 303.405C551.389 303.945 551.174 304.6 551.174 305.37C551.174 306.15 551.389 306.815 551.819 307.365ZM558.153 310.845V308.07C558.523 308 558.813 307.78 559.023 307.41C559.233 307.03 559.403 306.335 559.533 305.325L559.998 301.755H565.038V308.01H565.878V310.845H564.753V309H559.278V310.845H558.153ZM560.988 302.745L560.658 305.46C560.488 306.73 560.138 307.58 559.608 308.01H563.913V302.745H560.988ZM573.176 308.085C572.526 308.815 571.661 309.18 570.581 309.18C569.501 309.18 568.631 308.815 567.971 308.085C567.321 307.355 566.996 306.45 566.996 305.37C566.996 304.29 567.321 303.39 567.971 302.67C568.631 301.94 569.501 301.575 570.581 301.575C571.661 301.575 572.526 301.94 573.176 302.67C573.836 303.39 574.166 304.29 574.166 305.37C574.166 306.45 573.836 307.355 573.176 308.085ZM568.811 307.365C569.251 307.905 569.841 308.175 570.581 308.175C571.321 308.175 571.906 307.905 572.336 307.365C572.766 306.815 572.981 306.15 572.981 305.37C572.981 304.59 572.766 303.93 572.336 303.39C571.906 302.85 571.321 302.58 570.581 302.58C569.841 302.58 569.251 302.855 568.811 303.405C568.381 303.945 568.166 304.6 568.166 305.37C568.166 306.15 568.381 306.815 568.811 307.365ZM575.145 309.18V308.25C575.485 308.25 575.765 308.025 575.985 307.575C576.205 307.125 576.385 306.375 576.525 305.325L576.99 301.755H582.03V309H580.905V302.745H577.98L577.65 305.46C577.49 306.79 577.21 307.745 576.81 308.325C576.41 308.895 575.855 309.18 575.145 309.18ZM584.801 309H583.361L586.586 305.04L583.376 301.755H584.801L587.921 304.95V301.755H589.046V304.935L592.166 301.755H593.591L590.366 305.04L593.606 309H592.166L589.556 305.745L589.046 306.255V309H587.921V306.255L587.411 305.745L584.801 309ZM596.02 309H594.94V301.755H596.065V307.29L599.86 301.755H600.97V309H599.845V303.36L596.02 309ZM605.662 309H604.537V302.745H602.437V301.755H607.777V302.745H605.662V309ZM609.252 301.755H610.377V304.56H613.092C613.812 304.56 614.372 304.775 614.772 305.205C615.172 305.625 615.372 306.15 615.372 306.78C615.372 307.41 615.167 307.94 614.757 308.37C614.357 308.79 613.802 309 613.092 309H609.252V301.755ZM612.972 305.55H610.377V308.01H612.972C613.372 308.01 613.677 307.9 613.887 307.68C614.107 307.45 614.217 307.15 614.217 306.78C614.217 306.41 614.107 306.115 613.887 305.895C613.677 305.665 613.372 305.55 612.972 305.55Z" fill="white"/>
<rect opacity="0.7" x="30.5" y="207.5" width="605" height="43" stroke="#B8BDCE"/>
<path d="M50.348 235H46.092V225.662H50.25C51.0527 225.662 51.6873 225.881 52.154 226.32C52.63 226.759 52.868 227.333 52.868 228.042C52.868 228.602 52.7093 229.078 52.392 229.47C52.0747 229.853 51.6873 230.091 51.23 230.184C51.7247 230.259 52.1493 230.52 52.504 230.968C52.868 231.416 53.05 231.92 53.05 232.48C53.05 233.236 52.8073 233.847 52.322 234.314C51.846 234.771 51.188 235 50.348 235ZM50.054 229.708C50.5673 229.708 50.964 229.568 51.244 229.288C51.524 229.008 51.664 228.649 51.664 228.21C51.664 227.771 51.5193 227.412 51.23 227.132C50.95 226.843 50.558 226.698 50.054 226.698H47.254V229.708H50.054ZM50.11 233.964C50.6513 233.964 51.076 233.819 51.384 233.53C51.692 233.241 51.846 232.849 51.846 232.354C51.846 231.897 51.692 231.514 51.384 231.206C51.0853 230.898 50.6607 230.744 50.11 230.744H47.254V233.964H50.11ZM55.2547 228.238H56.3047V230.856H58.8387C59.5107 230.856 60.0334 231.057 60.4067 231.458C60.78 231.85 60.9667 232.34 60.9667 232.928C60.9667 233.516 60.7754 234.011 60.3927 234.412C60.0194 234.804 59.5014 235 58.8387 235H55.2547V228.238ZM58.7267 231.78H56.3047V234.076H58.7267C59.1 234.076 59.3847 233.973 59.5807 233.768C59.786 233.553 59.8887 233.273 59.8887 232.928C59.8887 232.583 59.786 232.307 59.5807 232.102C59.3847 231.887 59.1 231.78 58.7267 231.78ZM63.1227 235H62.0727V228.238H63.1227V235ZM66.9235 233.474C67.3342 233.978 67.8848 234.23 68.5755 234.23C69.2662 234.23 69.8122 233.978 70.2135 233.474C70.6148 232.961 70.8155 232.335 70.8155 231.598C70.8155 230.879 70.6148 230.268 70.2135 229.764C69.8122 229.26 69.2662 229.008 68.5755 229.008C67.8848 229.008 67.3342 229.26 66.9235 229.764C66.5222 230.268 66.3215 230.879 66.3215 231.598C66.3215 232.335 66.5222 232.961 66.9235 233.474ZM68.5755 235.168C67.5582 235.168 66.7462 234.809 66.1395 234.09C65.5328 233.371 65.2295 232.443 65.2295 231.304C65.2295 229.699 65.5188 228.513 66.0975 227.748C66.6762 226.973 67.5675 226.507 68.7715 226.348C69.4902 226.236 69.9848 226.129 70.2555 226.026C70.5355 225.923 70.6755 225.802 70.6755 225.662H71.6975C71.6975 225.923 71.6182 226.152 71.4595 226.348C71.3008 226.535 71.0722 226.684 70.7735 226.796C70.4842 226.908 70.2088 226.997 69.9475 227.062C69.6955 227.118 69.3922 227.169 69.0375 227.216C68.1042 227.347 67.4275 227.603 67.0075 227.986C66.5968 228.369 66.3262 228.877 66.1955 229.512C66.8115 228.551 67.6608 228.07 68.7435 228.07C69.6768 228.07 70.4375 228.411 71.0255 229.092C71.6135 229.773 71.9075 230.609 71.9075 231.598C71.9075 232.606 71.6042 233.455 70.9975 234.146C70.3908 234.827 69.5835 235.168 68.5755 235.168ZM77.1536 235.168C76.1456 235.168 75.3196 234.841 74.6756 234.188C74.0316 233.525 73.7096 232.667 73.7096 231.612C73.7096 230.623 74.0269 229.787 74.6616 229.106C75.2962 228.415 76.0896 228.07 77.0416 228.07C78.0402 228.07 78.8289 228.415 79.4076 229.106C79.9956 229.787 80.2896 230.651 80.2896 231.696V231.962H74.8156C74.8622 232.625 75.1049 233.18 75.5436 233.628C75.9822 234.076 76.5516 234.3 77.2516 234.3C78.0916 234.3 78.7869 234.015 79.3376 233.446L79.8416 234.132C79.1509 234.823 78.2549 235.168 77.1536 235.168ZM79.2536 231.192C79.2442 230.613 79.0482 230.095 78.6656 229.638C78.2829 229.171 77.7369 228.938 77.0276 228.938C76.3556 228.938 75.8236 229.167 75.4316 229.624C75.0489 230.081 74.8436 230.604 74.8156 231.192H79.2536ZM85.7222 235.168C84.7702 235.168 84.0096 234.771 83.4402 233.978V237.576H82.3902V228.238H83.4402V229.246C83.6922 228.891 84.0189 228.607 84.4202 228.392C84.8216 228.177 85.2556 228.07 85.7222 228.07C86.6182 228.07 87.3416 228.392 87.8922 229.036C88.4522 229.671 88.7322 230.529 88.7322 231.612C88.7322 232.695 88.4522 233.558 87.8922 234.202C87.3416 234.846 86.6182 235.168 85.7222 235.168ZM85.4562 234.23C86.1189 234.23 86.6462 233.987 87.0382 233.502C87.4302 233.007 87.6262 232.377 87.6262 231.612C87.6262 230.847 87.4302 230.221 87.0382 229.736C86.6462 229.251 86.1189 229.008 85.4562 229.008C85.0549 229.008 84.6629 229.115 84.2802 229.33C83.9069 229.535 83.6269 229.787 83.4402 230.086V233.138C83.6269 233.446 83.9069 233.707 84.2802 233.922C84.6629 234.127 85.0549 234.23 85.4562 234.23ZM91.81 235H90.802V228.238H91.852V233.404L95.394 228.238H96.43V235H95.38V229.736L91.81 235ZM101.209 235H100.159V229.162H98.1986V228.238H103.183V229.162H101.209V235ZM108.011 235.168C107.003 235.168 106.177 234.841 105.533 234.188C104.889 233.525 104.567 232.667 104.567 231.612C104.567 230.623 104.885 229.787 105.519 229.106C106.154 228.415 106.947 228.07 107.899 228.07C108.898 228.07 109.687 228.415 110.265 229.106C110.853 229.787 111.147 230.651 111.147 231.696V231.962H105.673C105.72 232.625 105.963 233.18 106.401 233.628C106.84 234.076 107.409 234.3 108.109 234.3C108.949 234.3 109.645 234.015 110.195 233.446L110.699 234.132C110.009 234.823 109.113 235.168 108.011 235.168ZM110.111 231.192C110.102 230.613 109.906 230.095 109.523 229.638C109.141 229.171 108.595 228.938 107.885 228.938C107.213 228.938 106.681 229.167 106.289 229.624C105.907 230.081 105.701 230.604 105.673 231.192H110.111ZM119.539 235H118.489V229.162H116.529V228.238H121.513V229.162H119.539V235ZM126.342 235.168C125.334 235.168 124.508 234.841 123.864 234.188C123.22 233.525 122.898 232.667 122.898 231.612C122.898 230.623 123.216 229.787 123.85 229.106C124.485 228.415 125.278 228.07 126.23 228.07C127.229 228.07 128.018 228.415 128.596 229.106C129.184 229.787 129.478 230.651 129.478 231.696V231.962H124.004C124.051 232.625 124.294 233.18 124.732 233.628C125.171 234.076 125.74 234.3 126.44 234.3C127.28 234.3 127.976 234.015 128.526 233.446L129.03 234.132C128.34 234.823 127.444 235.168 126.342 235.168ZM128.442 231.192C128.433 230.613 128.237 230.095 127.854 229.638C127.472 229.171 126.926 228.938 126.216 228.938C125.544 228.938 125.012 229.167 124.62 229.624C124.238 230.081 124.032 230.604 124.004 231.192H128.442ZM138.481 235H137.431V229.694L135.233 235H134.841L132.629 229.694V235H131.579V228.238H132.965L135.037 233.25L137.081 228.238H138.481V235ZM146.253 235H145.203V234.23C144.634 234.855 143.887 235.168 142.963 235.168C142.338 235.168 141.787 234.967 141.311 234.566C140.835 234.165 140.597 233.619 140.597 232.928C140.597 232.219 140.83 231.673 141.297 231.29C141.773 230.898 142.328 230.702 142.963 230.702C143.924 230.702 144.671 231.01 145.203 231.626V230.408C145.203 229.96 145.044 229.61 144.727 229.358C144.41 229.106 143.999 228.98 143.495 228.98C142.702 228.98 142.011 229.293 141.423 229.918L140.933 229.19C141.652 228.443 142.552 228.07 143.635 228.07C144.41 228.07 145.04 228.257 145.525 228.63C146.01 229.003 146.253 229.577 146.253 230.352V235ZM143.341 234.412C144.181 234.412 144.802 234.132 145.203 233.572V232.298C144.802 231.738 144.181 231.458 143.341 231.458C142.856 231.458 142.454 231.598 142.137 231.878C141.829 232.149 141.675 232.503 141.675 232.942C141.675 233.371 141.829 233.726 142.137 234.006C142.454 234.277 142.856 234.412 143.341 234.412ZM151.04 235H149.99V229.162H148.03V228.238H153.014V229.162H151.04V235ZM155.799 235H154.791V228.238H155.841V233.404L159.383 228.238H160.419V235H159.369V229.736L155.799 235ZM168.865 235H167.521L165.085 231.962L163.965 233.068V235H162.915V228.238H163.965V231.836L167.521 228.238H168.851L165.855 231.304L168.865 235ZM170.129 237.646L170.297 236.694C170.465 236.769 170.656 236.806 170.871 236.806C171.113 236.806 171.314 236.755 171.473 236.652C171.631 236.549 171.767 236.363 171.879 236.092L172.327 235.07L169.499 228.238H170.633L172.887 233.782L175.127 228.238H176.275L172.887 236.372C172.513 237.268 171.851 237.725 170.899 237.744C170.619 237.744 170.362 237.711 170.129 237.646Z" fill="#686565"/>
<g opacity="0.7">
<path fill-rule="evenodd" clip-rule="evenodd" d="M611.343 229L616.293 233.95L617 234.657L617.707 233.95L622.657 229L621.95 228.293L617 233.243L612.05 228.293L611.343 229Z" fill="#686565"/>
</g>
<path d="M39.5469 175.996H35.5566V187H33.3506V175.996H29.3955V174.203H39.5469V175.996ZM44.4248 187.176C43.0713 187.176 41.9727 186.751 41.1289 185.901C40.291 185.046 39.8721 183.909 39.8721 182.491V182.228C39.8721 181.278 40.0537 180.432 40.417 179.688C40.7861 178.938 41.3018 178.354 41.9639 177.938C42.626 177.522 43.3643 177.314 44.1787 177.314C45.4736 177.314 46.4727 177.728 47.1758 178.554C47.8848 179.38 48.2393 180.549 48.2393 182.061V182.922H42.0254C42.0898 183.707 42.3506 184.328 42.8076 184.785C43.2705 185.242 43.8506 185.471 44.5479 185.471C45.5264 185.471 46.3232 185.075 46.9385 184.284L48.0898 185.383C47.709 185.951 47.1992 186.394 46.5605 186.71C45.9277 187.021 45.2158 187.176 44.4248 187.176ZM44.1699 179.028C43.584 179.028 43.1094 179.233 42.7461 179.644C42.3887 180.054 42.1602 180.625 42.0605 181.357H46.1299V181.199C46.083 180.484 45.8926 179.945 45.5586 179.582C45.2246 179.213 44.7617 179.028 44.1699 179.028ZM55.5518 184.372L58.3643 177.49H61.0361V187H58.9004V180.707L56.2812 187H54.8311L52.2031 180.672V187H50.0674V177.49H52.7568L55.5518 184.372ZM69.1221 187C69.0283 186.818 68.9463 186.522 68.876 186.112C68.1963 186.821 67.3643 187.176 66.3799 187.176C65.4248 187.176 64.6455 186.903 64.042 186.358C63.4385 185.813 63.1367 185.14 63.1367 184.337C63.1367 183.323 63.5117 182.547 64.2617 182.008C65.0176 181.463 66.0957 181.19 67.4961 181.19H68.8057V180.566C68.8057 180.074 68.668 179.682 68.3926 179.389C68.1172 179.09 67.6982 178.94 67.1357 178.94C66.6494 178.94 66.251 179.063 65.9404 179.31C65.6299 179.55 65.4746 179.857 65.4746 180.232H63.3389C63.3389 179.711 63.5117 179.225 63.8574 178.773C64.2031 178.316 64.6719 177.959 65.2637 177.701C65.8613 177.443 66.5264 177.314 67.2588 177.314C68.3721 177.314 69.2598 177.596 69.9219 178.158C70.584 178.715 70.9238 179.5 70.9414 180.514V184.803C70.9414 185.658 71.0615 186.341 71.3018 186.851V187H69.1221ZM66.7754 185.462C67.1973 185.462 67.5928 185.359 67.9619 185.154C68.3369 184.949 68.6182 184.674 68.8057 184.328V182.535H67.6543C66.8633 182.535 66.2686 182.673 65.8701 182.948C65.4717 183.224 65.2725 183.613 65.2725 184.117C65.2725 184.527 65.4072 184.855 65.6768 185.102C65.9521 185.342 66.3184 185.462 66.7754 185.462ZM80.5215 179.187H77.4365V187H75.3008V179.187H72.251V177.49H80.5215V179.187ZM87.8867 177.49H90.0137V187H87.8867V180.654L84.1602 187H82.0332V177.49H84.1602V183.836L87.8867 177.49ZM95.665 183.238H94.584V187H92.4482V177.49H94.584V181.287H95.5244L98.1523 177.49H100.789L97.3525 182.043L101.079 187H98.3018L95.665 183.238ZM107.935 187C107.841 186.818 107.759 186.522 107.688 186.112C107.009 186.821 106.177 187.176 105.192 187.176C104.237 187.176 103.458 186.903 102.854 186.358C102.251 185.813 101.949 185.14 101.949 184.337C101.949 183.323 102.324 182.547 103.074 182.008C103.83 181.463 104.908 181.19 106.309 181.19H107.618V180.566C107.618 180.074 107.48 179.682 107.205 179.389C106.93 179.09 106.511 178.94 105.948 178.94C105.462 178.94 105.063 179.063 104.753 179.31C104.442 179.55 104.287 179.857 104.287 180.232H102.151C102.151 179.711 102.324 179.225 102.67 178.773C103.016 178.316 103.484 177.959 104.076 177.701C104.674 177.443 105.339 177.314 106.071 177.314C107.185 177.314 108.072 177.596 108.734 178.158C109.396 178.715 109.736 179.5 109.754 180.514V184.803C109.754 185.658 109.874 186.341 110.114 186.851V187H107.935ZM105.588 185.462C106.01 185.462 106.405 185.359 106.774 185.154C107.149 184.949 107.431 184.674 107.618 184.328V182.535H106.467C105.676 182.535 105.081 182.673 104.683 182.948C104.284 183.224 104.085 183.613 104.085 184.117C104.085 184.527 104.22 184.855 104.489 185.102C104.765 185.342 105.131 185.462 105.588 185.462ZM122.41 177.49H124.537V187H122.41V180.654L118.684 187H116.557V177.49H118.684V183.836L122.41 177.49ZM126.849 185.295C127.44 184.633 127.836 184.006 128.035 183.414C128.24 182.816 128.363 182.055 128.404 181.129L128.527 177.49H135.128V185.295H136.446V189.83H134.319V187H128.22V189.83H126.058L126.066 185.295H126.849ZM129.354 185.295H133.001V179.327H130.602L130.54 181.146C130.458 182.893 130.062 184.275 129.354 185.295ZM142.159 187.176C140.806 187.176 139.707 186.751 138.863 185.901C138.025 185.046 137.606 183.909 137.606 182.491V182.228C137.606 181.278 137.788 180.432 138.151 179.688C138.521 178.938 139.036 178.354 139.698 177.938C140.36 177.522 141.099 177.314 141.913 177.314C143.208 177.314 144.207 177.728 144.91 178.554C145.619 179.38 145.974 180.549 145.974 182.061V182.922H139.76C139.824 183.707 140.085 184.328 140.542 184.785C141.005 185.242 141.585 185.471 142.282 185.471C143.261 185.471 144.058 185.075 144.673 184.284L145.824 185.383C145.443 185.951 144.934 186.394 144.295 186.71C143.662 187.021 142.95 187.176 142.159 187.176ZM141.904 179.028C141.318 179.028 140.844 179.233 140.48 179.644C140.123 180.054 139.895 180.625 139.795 181.357H143.864V181.199C143.817 180.484 143.627 179.945 143.293 179.582C142.959 179.213 142.496 179.028 141.904 179.028ZM153.576 177.49H155.703V187H153.576V180.654L149.85 187H147.723V177.49H149.85V183.836L153.576 177.49Z" fill="#484848"/>
<line x1="219" y1="91.5" x2="447" y2="91.5" stroke="#7C8793"/>
<circle cx="225" cy="94" r="20" fill="#0057B6"/>
<path d="M225.741 100H223.614V89.7256L220.477 90.7979V88.9961L225.469 87.1592H225.741V100Z" fill="white"/>
<circle cx="297" cy="94" r="19.5" fill="white" stroke="#7C8793"/>
<path d="M300.562 100H291.958V98.5322L296.221 93.8828C296.836 93.1973 297.272 92.626 297.53 92.1689C297.794 91.7061 297.926 91.2432 297.926 90.7803C297.926 90.1709 297.753 89.6787 297.407 89.3037C297.067 88.9287 296.607 88.7412 296.027 88.7412C295.336 88.7412 294.8 88.9521 294.419 89.374C294.038 89.7959 293.848 90.373 293.848 91.1055H291.712C291.712 90.3262 291.888 89.626 292.239 89.0049C292.597 88.3779 293.104 87.8916 293.76 87.5459C294.422 87.2002 295.184 87.0273 296.045 87.0273C297.287 87.0273 298.266 87.3408 298.98 87.9678C299.701 88.5889 300.062 89.4502 300.062 90.5518C300.062 91.1904 299.88 91.8613 299.517 92.5645C299.159 93.2617 298.57 94.0557 297.75 94.9463L294.621 98.2949H300.562V100Z" fill="#7C8793"/>
<circle cx="369" cy="94" r="19.5" fill="white" stroke="#7C8793"/>
<path d="M366.428 92.626H367.729C368.385 92.6201 368.903 92.4502 369.284 92.1162C369.671 91.7822 369.864 91.2988 369.864 90.666C369.864 90.0566 369.703 89.585 369.381 89.251C369.064 88.9111 368.578 88.7412 367.922 88.7412C367.348 88.7412 366.876 88.9082 366.507 89.2422C366.138 89.5703 365.953 90.001 365.953 90.5342H363.817C363.817 89.8779 363.99 89.2803 364.336 88.7412C364.688 88.2021 365.174 87.7832 365.795 87.4844C366.422 87.1797 367.122 87.0273 367.896 87.0273C369.173 87.0273 370.175 87.3496 370.901 87.9941C371.634 88.6328 372 89.5234 372 90.666C372 91.2402 371.815 91.7822 371.446 92.292C371.083 92.7959 370.611 93.1768 370.031 93.4346C370.734 93.6748 371.268 94.0527 371.631 94.5684C372 95.084 372.185 95.6992 372.185 96.4141C372.185 97.5625 371.789 98.4766 370.998 99.1562C370.213 99.8359 369.179 100.176 367.896 100.176C366.665 100.176 365.657 99.8477 364.872 99.1914C364.087 98.5352 363.694 97.6621 363.694 96.5723H365.83C365.83 97.1348 366.018 97.5918 366.393 97.9434C366.773 98.2949 367.283 98.4707 367.922 98.4707C368.584 98.4707 369.105 98.2949 369.486 97.9434C369.867 97.5918 370.058 97.082 370.058 96.4141C370.058 95.7402 369.858 95.2217 369.46 94.8584C369.062 94.4951 368.47 94.3135 367.685 94.3135H366.428V92.626Z" fill="#7C8793"/>
<circle cx="441" cy="94" r="19.5" fill="white" stroke="#7C8793"/>
<path d="M443.183 95.4385H444.773V97.1523H443.183V100H441.047V97.1523H435.519L435.457 95.8516L440.977 87.2031H443.183V95.4385ZM437.698 95.4385H441.047V90.0947L440.889 90.376L437.698 95.4385Z" fill="#7C8793"/>
<defs>
<filter id="filter0_d" x="0" y="142" width="666" height="215" filterUnits="userSpaceOnUse" color-interpolation-filters="sRGB">
<feFlood flood-opacity="0" result="BackgroundImageFix"/>
<feColorMatrix in="SourceAlpha" type="matrix" values="0 0 0 0 0 0 0 0 0 0 0 0 0 0 0 0 0 0 127 0"/>
<feOffset dy="2"/>
<feGaussianBlur stdDeviation="2.5"/>
<feColorMatrix type="matrix" values="0 0 0 0 0.4125 0 0 0 0 0.4125 0 0 0 0 0.4125 0 0 0 0.1 0"/>
<feBlend mode="normal" in2="BackgroundImageFix" result="effect1_dropShadow"/>
<feBlend mode="normal" in="SourceGraphic" in2="effect1_dropShadow" result="shape"/>
</filter>
</defs>
</svg>
