<svg width="423" height="450" viewBox="0 0 423 450" fill="none" xmlns="http://www.w3.org/2000/svg">
<g filter="url(#filter0_d)">
<rect x="5" y="3" width="413" height="440" rx="5" fill="white"/>
<rect x="5.5" y="3.5" width="412" height="439" rx="4.5" stroke="#C7CFCC"/>
</g>
<rect x="39.5" y="244.5" width="19" height="19" rx="1.5" stroke="#D7DEE9"/>
<path d="M72.36 258.144C71.688 258.144 71.084 258.02 70.548 257.772C70.012 257.524 69.612 257.208 69.348 256.824L69.936 256.188C70.176 256.508 70.512 256.768 70.944 256.968C71.384 257.16 71.848 257.256 72.336 257.256C72.96 257.256 73.452 257.124 73.812 256.86C74.172 256.588 74.352 256.22 74.352 255.756C74.352 255.276 74.164 254.92 73.788 254.688C73.42 254.456 72.916 254.34 72.276 254.34H70.644V253.452H72.276C72.844 253.452 73.308 253.344 73.668 253.128C74.036 252.904 74.22 252.572 74.22 252.132C74.22 251.7 74.036 251.364 73.668 251.124C73.308 250.884 72.852 250.764 72.3 250.764C71.396 250.764 70.64 251.088 70.032 251.736L69.48 251.112C69.8 250.744 70.208 250.448 70.704 250.224C71.208 249.992 71.764 249.876 72.372 249.876C73.188 249.876 73.868 250.068 74.412 250.452C74.964 250.836 75.24 251.356 75.24 252.012C75.24 252.54 75.06 252.964 74.7 253.284C74.348 253.596 73.952 253.792 73.512 253.872C73.952 253.912 74.368 254.104 74.76 254.448C75.16 254.792 75.36 255.256 75.36 255.84C75.36 256.512 75.084 257.064 74.532 257.496C73.98 257.928 73.256 258.144 72.36 258.144ZM81.4318 258H80.5318V257.34C80.0438 257.876 79.4038 258.144 78.6118 258.144C78.0758 258.144 77.6038 257.972 77.1958 257.628C76.7878 257.284 76.5838 256.816 76.5838 256.224C76.5838 255.616 76.7838 255.148 77.1838 254.82C77.5918 254.484 78.0678 254.316 78.6118 254.316C79.4358 254.316 80.0758 254.58 80.5318 255.108V254.064C80.5318 253.68 80.3958 253.38 80.1238 253.164C79.8518 252.948 79.4998 252.84 79.0678 252.84C78.3878 252.84 77.7958 253.108 77.2918 253.644L76.8718 253.02C77.4878 252.38 78.2598 252.06 79.1878 252.06C79.8518 252.06 80.3918 252.22 80.8078 252.54C81.2238 252.86 81.4318 253.352 81.4318 254.016V258ZM78.9358 257.496C79.6558 257.496 80.1878 257.256 80.5318 256.776V255.684C80.1878 255.204 79.6558 254.964 78.9358 254.964C78.5198 254.964 78.1758 255.084 77.9038 255.324C77.6398 255.556 77.5078 255.86 77.5078 256.236C77.5078 256.604 77.6398 256.908 77.9038 257.148C78.1758 257.38 78.5198 257.496 78.9358 257.496ZM88.0599 258H87.1599V252.996H84.1359V258H83.2359V252.204H88.0599V258ZM94.465 257.268C93.945 257.852 93.253 258.144 92.389 258.144C91.525 258.144 90.829 257.852 90.301 257.268C89.781 256.684 89.521 255.96 89.521 255.096C89.521 254.232 89.781 253.512 90.301 252.936C90.829 252.352 91.525 252.06 92.389 252.06C93.253 252.06 93.945 252.352 94.465 252.936C94.993 253.512 95.257 254.232 95.257 255.096C95.257 255.96 94.993 256.684 94.465 257.268ZM90.973 256.692C91.325 257.124 91.797 257.34 92.389 257.34C92.981 257.34 93.449 257.124 93.793 256.692C94.137 256.252 94.309 255.72 94.309 255.096C94.309 254.472 94.137 253.944 93.793 253.512C93.449 253.08 92.981 252.864 92.389 252.864C91.797 252.864 91.325 253.084 90.973 253.524C90.629 253.956 90.457 254.48 90.457 255.096C90.457 255.72 90.629 256.252 90.973 256.692ZM102.64 258H101.74V253.452L99.8562 258H99.5202L97.6242 253.452V258H96.7242V252.204H97.9122L99.6882 256.5L101.44 252.204H102.64V258ZM105.335 258H104.435V252.204H105.335V254.616H108.359V252.204H109.259V258H108.359V255.408H105.335V258ZM111.92 258H111.056V252.204H111.956V256.632L114.992 252.204H115.88V258H114.98V253.488L111.92 258ZM119.633 258H118.733V252.996H117.053V252.204H121.325V252.996H119.633V258ZM122.505 252.204H123.405V254.448H125.577C126.153 254.448 126.601 254.62 126.921 254.964C127.241 255.3 127.401 255.72 127.401 256.224C127.401 256.728 127.237 257.152 126.909 257.496C126.589 257.832 126.145 258 125.577 258H122.505V252.204ZM125.481 255.24H123.405V257.208H125.481C125.801 257.208 126.045 257.12 126.213 256.944C126.389 256.76 126.477 256.52 126.477 256.224C126.477 255.928 126.389 255.692 126.213 255.516C126.045 255.332 125.801 255.24 125.481 255.24ZM137.785 258H136.885V253.452L135.001 258H134.665L132.769 253.452V258H131.869V252.204H133.057L134.833 256.5L136.585 252.204H137.785V258ZM142.196 258.144C141.332 258.144 140.624 257.864 140.072 257.304C139.52 256.736 139.244 256 139.244 255.096C139.244 254.248 139.516 253.532 140.06 252.948C140.604 252.356 141.284 252.06 142.1 252.06C142.956 252.06 143.632 252.356 144.128 252.948C144.632 253.532 144.884 254.272 144.884 255.168V255.396H140.192C140.232 255.964 140.44 256.44 140.816 256.824C141.192 257.208 141.68 257.4 142.28 257.4C143 257.4 143.596 257.156 144.068 256.668L144.5 257.256C143.908 257.848 143.14 258.144 142.196 258.144ZM143.996 254.736C143.988 254.24 143.82 253.796 143.492 253.404C143.164 253.004 142.696 252.804 142.088 252.804C141.512 252.804 141.056 253 140.72 253.392C140.392 253.784 140.216 254.232 140.192 254.736H143.996ZM147.241 258H146.341V252.204H147.241V254.616H150.265V252.204H151.165V258H150.265V255.408H147.241V258ZM153.826 258H152.771L154.319 255.72C153.879 255.664 153.519 255.48 153.239 255.168C152.967 254.856 152.831 254.46 152.831 253.98C152.831 253.468 152.995 253.044 153.323 252.708C153.651 252.372 154.099 252.204 154.667 252.204H157.727V258H156.827V255.756H155.243L153.826 258ZM154.763 254.964H156.827V252.996H154.763C154.451 252.996 154.203 253.088 154.019 253.272C153.843 253.448 153.755 253.684 153.755 253.98C153.755 254.276 153.843 254.516 154.019 254.7C154.195 254.876 154.443 254.964 154.763 254.964Z" fill="#717377"/>
<path d="M270.584 256H266.936V247.996H270.5C271.188 247.996 271.732 248.184 272.132 248.56C272.54 248.936 272.744 249.428 272.744 250.036C272.744 250.516 272.608 250.924 272.336 251.26C272.064 251.588 271.732 251.792 271.34 251.872C271.764 251.936 272.128 252.16 272.432 252.544C272.744 252.928 272.9 253.36 272.9 253.84C272.9 254.488 272.692 255.012 272.276 255.412C271.868 255.804 271.304 256 270.584 256ZM270.332 251.464C270.772 251.464 271.112 251.344 271.352 251.104C271.592 250.864 271.712 250.556 271.712 250.18C271.712 249.804 271.588 249.496 271.34 249.256C271.1 249.008 270.764 248.884 270.332 248.884H267.932V251.464H270.332ZM270.38 255.112C270.844 255.112 271.208 254.988 271.472 254.74C271.736 254.492 271.868 254.156 271.868 253.732C271.868 253.34 271.736 253.012 271.472 252.748C271.216 252.484 270.852 252.352 270.38 252.352H267.932V255.112H270.38ZM279.055 255.268C278.535 255.852 277.843 256.144 276.979 256.144C276.115 256.144 275.419 255.852 274.891 255.268C274.371 254.684 274.111 253.96 274.111 253.096C274.111 252.232 274.371 251.512 274.891 250.936C275.419 250.352 276.115 250.06 276.979 250.06C277.843 250.06 278.535 250.352 279.055 250.936C279.583 251.512 279.847 252.232 279.847 253.096C279.847 253.96 279.583 254.684 279.055 255.268ZM275.563 254.692C275.915 255.124 276.387 255.34 276.979 255.34C277.571 255.34 278.039 255.124 278.383 254.692C278.727 254.252 278.899 253.72 278.899 253.096C278.899 252.472 278.727 251.944 278.383 251.512C278.039 251.08 277.571 250.864 276.979 250.864C276.387 250.864 275.915 251.084 275.563 251.524C275.219 251.956 275.047 252.48 275.047 253.096C275.047 253.72 275.219 254.252 275.563 254.692ZM283.87 256.144C283.014 256.144 282.318 255.856 281.782 255.28C281.246 254.696 280.978 253.968 280.978 253.096C280.978 252.224 281.246 251.5 281.782 250.924C282.318 250.348 283.014 250.06 283.87 250.06C284.766 250.06 285.474 250.396 285.994 251.068L285.394 251.62C285.026 251.116 284.534 250.864 283.918 250.864C283.31 250.864 282.822 251.072 282.454 251.488C282.094 251.904 281.914 252.44 281.914 253.096C281.914 253.752 282.094 254.292 282.454 254.716C282.822 255.132 283.31 255.34 283.918 255.34C284.526 255.34 285.018 255.088 285.394 254.584L285.994 255.136C285.474 255.808 284.766 256.144 283.87 256.144ZM289.811 256.144C288.955 256.144 288.259 255.856 287.723 255.28C287.187 254.696 286.919 253.968 286.919 253.096C286.919 252.224 287.187 251.5 287.723 250.924C288.259 250.348 288.955 250.06 289.811 250.06C290.707 250.06 291.415 250.396 291.935 251.068L291.335 251.62C290.967 251.116 290.475 250.864 289.859 250.864C289.251 250.864 288.763 251.072 288.395 251.488C288.035 251.904 287.855 252.44 287.855 253.096C287.855 253.752 288.035 254.292 288.395 254.716C288.763 255.132 289.251 255.34 289.859 255.34C290.467 255.34 290.959 255.088 291.335 254.584L291.935 255.136C291.415 255.808 290.707 256.144 289.811 256.144ZM295.153 256H294.253V250.996H292.573V250.204H296.845V250.996H295.153V256ZM302.549 256H301.649V255.34C301.161 255.876 300.521 256.144 299.729 256.144C299.193 256.144 298.721 255.972 298.313 255.628C297.905 255.284 297.701 254.816 297.701 254.224C297.701 253.616 297.901 253.148 298.301 252.82C298.709 252.484 299.185 252.316 299.729 252.316C300.553 252.316 301.193 252.58 301.649 253.108V252.064C301.649 251.68 301.513 251.38 301.241 251.164C300.969 250.948 300.617 250.84 300.185 250.84C299.505 250.84 298.913 251.108 298.409 251.644L297.989 251.02C298.605 250.38 299.377 250.06 300.305 250.06C300.969 250.06 301.509 250.22 301.925 250.54C302.341 250.86 302.549 251.352 302.549 252.016V256ZM300.053 255.496C300.773 255.496 301.305 255.256 301.649 254.776V253.684C301.305 253.204 300.773 252.964 300.053 252.964C299.637 252.964 299.293 253.084 299.021 253.324C298.757 253.556 298.625 253.86 298.625 254.236C298.625 254.604 298.757 254.908 299.021 255.148C299.293 255.38 299.637 255.496 300.053 255.496ZM305.253 256H304.353V250.204H305.253V252.616H308.277V250.204H309.177V256H308.277V253.408H305.253V256ZM315.582 255.268C315.062 255.852 314.37 256.144 313.506 256.144C312.642 256.144 311.946 255.852 311.418 255.268C310.898 254.684 310.638 253.96 310.638 253.096C310.638 252.232 310.898 251.512 311.418 250.936C311.946 250.352 312.642 250.06 313.506 250.06C314.37 250.06 315.062 250.352 315.582 250.936C316.11 251.512 316.374 252.232 316.374 253.096C316.374 253.96 316.11 254.684 315.582 255.268ZM312.09 254.692C312.442 255.124 312.914 255.34 313.506 255.34C314.098 255.34 314.566 255.124 314.91 254.692C315.254 254.252 315.426 253.72 315.426 253.096C315.426 252.472 315.254 251.944 314.91 251.512C314.566 251.08 314.098 250.864 313.506 250.864C312.914 250.864 312.442 251.084 312.09 251.524C311.746 251.956 311.574 252.48 311.574 253.096C311.574 253.72 311.746 254.252 312.09 254.692ZM321.093 256H317.841V250.204H321.033C321.537 250.204 321.933 250.34 322.221 250.612C322.517 250.884 322.665 251.244 322.665 251.692C322.665 252.02 322.573 252.304 322.389 252.544C322.213 252.776 321.993 252.932 321.729 253.012C322.025 253.084 322.273 253.256 322.473 253.528C322.681 253.8 322.785 254.1 322.785 254.428C322.785 254.9 322.633 255.28 322.329 255.568C322.033 255.856 321.621 256 321.093 256ZM320.913 255.208C321.201 255.208 321.429 255.128 321.597 254.968C321.765 254.808 321.849 254.592 321.849 254.32C321.849 254.072 321.765 253.86 321.597 253.684C321.429 253.508 321.201 253.42 320.913 253.42H318.741V255.208H320.913ZM320.877 252.628C321.149 252.628 321.361 252.556 321.513 252.412C321.665 252.26 321.741 252.064 321.741 251.824C321.741 251.568 321.665 251.368 321.513 251.224C321.361 251.072 321.149 250.996 320.877 250.996H318.741V252.628H320.877ZM325.35 256H324.486V250.204H325.386V254.632L328.422 250.204H329.31V256H328.41V251.488L325.35 256ZM333.063 256H332.163V250.996H330.483V250.204H334.755V250.996H333.063V256ZM335.935 250.204H336.835V252.448H339.007C339.583 252.448 340.031 252.62 340.351 252.964C340.671 253.3 340.831 253.72 340.831 254.224C340.831 254.728 340.667 255.152 340.339 255.496C340.019 255.832 339.575 256 339.007 256H335.935V250.204ZM338.911 253.24H336.835V255.208H338.911C339.231 255.208 339.475 255.12 339.643 254.944C339.819 254.76 339.907 254.52 339.907 254.224C339.907 253.928 339.819 253.692 339.643 253.516C339.475 253.332 339.231 253.24 338.911 253.24ZM350.122 256H349.222V250.996H346.198V256H345.298V250.204H350.122V256ZM356.444 256H355.544V255.34C355.056 255.876 354.416 256.144 353.624 256.144C353.088 256.144 352.616 255.972 352.208 255.628C351.8 255.284 351.596 254.816 351.596 254.224C351.596 253.616 351.796 253.148 352.196 252.82C352.604 252.484 353.08 252.316 353.624 252.316C354.448 252.316 355.088 252.58 355.544 253.108V252.064C355.544 251.68 355.408 251.38 355.136 251.164C354.864 250.948 354.512 250.84 354.08 250.84C353.4 250.84 352.808 251.108 352.304 251.644L351.884 251.02C352.5 250.38 353.272 250.06 354.2 250.06C354.864 250.06 355.404 250.22 355.82 250.54C356.236 250.86 356.444 251.352 356.444 252.016V256ZM353.948 255.496C354.668 255.496 355.2 255.256 355.544 254.776V253.684C355.2 253.204 354.668 252.964 353.948 252.964C353.532 252.964 353.188 253.084 352.916 253.324C352.652 253.556 352.52 253.86 352.52 254.236C352.52 254.604 352.652 254.908 352.916 255.148C353.188 255.38 353.532 255.496 353.948 255.496ZM361.104 256.144C360.288 256.144 359.636 255.804 359.148 255.124V258.208H358.248V250.204H359.148V251.068C359.364 250.764 359.644 250.52 359.988 250.336C360.332 250.152 360.704 250.06 361.104 250.06C361.872 250.06 362.492 250.336 362.964 250.888C363.444 251.432 363.684 252.168 363.684 253.096C363.684 254.024 363.444 254.764 362.964 255.316C362.492 255.868 361.872 256.144 361.104 256.144ZM360.876 255.34C361.444 255.34 361.896 255.132 362.232 254.716C362.568 254.292 362.736 253.752 362.736 253.096C362.736 252.44 362.568 251.904 362.232 251.488C361.896 251.072 361.444 250.864 360.876 250.864C360.532 250.864 360.196 250.956 359.868 251.14C359.548 251.316 359.308 251.532 359.148 251.788V254.404C359.308 254.668 359.548 254.892 359.868 255.076C360.196 255.252 360.532 255.34 360.876 255.34ZM369.723 255.268C369.203 255.852 368.511 256.144 367.647 256.144C366.783 256.144 366.087 255.852 365.559 255.268C365.039 254.684 364.779 253.96 364.779 253.096C364.779 252.232 365.039 251.512 365.559 250.936C366.087 250.352 366.783 250.06 367.647 250.06C368.511 250.06 369.203 250.352 369.723 250.936C370.251 251.512 370.515 252.232 370.515 253.096C370.515 253.96 370.251 254.684 369.723 255.268ZM366.231 254.692C366.583 255.124 367.055 255.34 367.647 255.34C368.239 255.34 368.707 255.124 369.051 254.692C369.395 254.252 369.567 253.72 369.567 253.096C369.567 252.472 369.395 251.944 369.051 251.512C368.707 251.08 368.239 250.864 367.647 250.864C367.055 250.864 366.583 251.084 366.231 251.524C365.887 251.956 365.715 252.48 365.715 253.096C365.715 253.72 365.887 254.252 366.231 254.692ZM371.298 256.144V255.4C371.57 255.4 371.794 255.22 371.97 254.86C372.146 254.5 372.29 253.9 372.402 253.06L372.774 250.204H376.806V256H375.906V250.996H373.566L373.302 253.168C373.174 254.232 372.95 254.996 372.63 255.46C372.31 255.916 371.866 256.144 371.298 256.144ZM378.603 250.204H379.503V252.448H381.675C382.251 252.448 382.699 252.62 383.019 252.964C383.339 253.3 383.499 253.72 383.499 254.224C383.499 254.728 383.335 255.152 383.007 255.496C382.687 255.832 382.243 256 381.675 256H378.603V250.204ZM381.579 253.24H379.503V255.208H381.579C381.899 255.208 382.143 255.12 382.311 254.944C382.487 254.76 382.575 254.52 382.575 254.224C382.575 253.928 382.487 253.692 382.311 253.516C382.143 253.332 381.899 253.24 381.579 253.24Z" fill="#717377"/>
<rect x="39.5" y="92.5" width="344" height="43" stroke="#D7DEE9"/>
<path d="M57.9717 119H51.8537V109.662H57.9717V110.698H53.0157V113.708H57.8737V114.744H53.0157V117.964H57.9717V119ZM62.5124 116.074H59.1524V115.15H62.5124V116.074ZM73.1917 119H72.1417V114.408C72.1417 113.475 71.7264 113.008 70.8957 113.008C70.5597 113.008 70.2237 113.111 69.8877 113.316C69.5517 113.521 69.2904 113.764 69.1037 114.044V119H68.0537V114.408C68.0537 113.475 67.6384 113.008 66.8077 113.008C66.481 113.008 66.1497 113.111 65.8137 113.316C65.487 113.521 65.2257 113.769 65.0297 114.058V119H63.9797V112.238H65.0297V113.218C65.1977 112.957 65.4917 112.7 65.9117 112.448C66.3317 112.196 66.7657 112.07 67.2137 112.07C67.7084 112.07 68.1097 112.187 68.4177 112.42C68.7257 112.653 68.931 112.957 69.0337 113.33C69.239 112.994 69.5517 112.7 69.9717 112.448C70.3917 112.196 70.835 112.07 71.3017 112.07C72.5617 112.07 73.1917 112.751 73.1917 114.114V119ZM80.5643 119H79.5143V118.23C78.945 118.855 78.1983 119.168 77.2743 119.168C76.649 119.168 76.0983 118.967 75.6223 118.566C75.1463 118.165 74.9083 117.619 74.9083 116.928C74.9083 116.219 75.1417 115.673 75.6083 115.29C76.0843 114.898 76.6397 114.702 77.2743 114.702C78.2357 114.702 78.9823 115.01 79.5143 115.626V114.408C79.5143 113.96 79.3557 113.61 79.0383 113.358C78.721 113.106 78.3103 112.98 77.8063 112.98C77.013 112.98 76.3223 113.293 75.7343 113.918L75.2443 113.19C75.963 112.443 76.8637 112.07 77.9463 112.07C78.721 112.07 79.351 112.257 79.8363 112.63C80.3217 113.003 80.5643 113.577 80.5643 114.352V119ZM77.6523 118.412C78.4923 118.412 79.113 118.132 79.5143 117.572V116.298C79.113 115.738 78.4923 115.458 77.6523 115.458C77.167 115.458 76.7657 115.598 76.4483 115.878C76.1403 116.149 75.9863 116.503 75.9863 116.942C75.9863 117.371 76.1403 117.726 76.4483 118.006C76.7657 118.277 77.167 118.412 77.6523 118.412ZM83.1871 111.272C83.0005 111.272 82.8371 111.207 82.6971 111.076C82.5571 110.936 82.4871 110.768 82.4871 110.572C82.4871 110.376 82.5571 110.208 82.6971 110.068C82.8371 109.928 83.0005 109.858 83.1871 109.858C83.3831 109.858 83.5511 109.928 83.6911 110.068C83.8311 110.208 83.9011 110.376 83.9011 110.572C83.9011 110.768 83.8311 110.936 83.6911 111.076C83.5511 111.207 83.3831 111.272 83.1871 111.272ZM83.7191 119H82.6691V112.238H83.7191V119ZM86.8637 119H85.8137V109.662H86.8637V119ZM90.0642 113.456C89.9149 113.605 89.7329 113.68 89.5182 113.68C89.3035 113.68 89.1215 113.605 88.9722 113.456C88.8229 113.307 88.7482 113.125 88.7482 112.91C88.7482 112.695 88.8229 112.513 88.9722 112.364C89.1215 112.215 89.3035 112.14 89.5182 112.14C89.7329 112.14 89.9149 112.215 90.0642 112.364C90.2135 112.513 90.2882 112.695 90.2882 112.91C90.2882 113.125 90.2135 113.307 90.0642 113.456ZM90.0642 118.916C89.9149 119.065 89.7329 119.14 89.5182 119.14C89.3035 119.14 89.1215 119.065 88.9722 118.916C88.8229 118.767 88.7482 118.585 88.7482 118.37C88.7482 118.155 88.8229 117.973 88.9722 117.824C89.1215 117.675 89.3035 117.6 89.5182 117.6C89.7329 117.6 89.9149 117.675 90.0642 117.824C90.2135 117.973 90.2882 118.155 90.2882 118.37C90.2882 118.585 90.2135 118.767 90.0642 118.916ZM93.8368 113.554H93.1928L93.2628 111.944L91.9188 112.826L91.6108 112.266L93.0388 111.538L91.6108 110.81L91.9188 110.264L93.2628 111.132L93.1928 109.522H93.8368L93.7528 111.132L95.0968 110.264L95.4188 110.81L93.9908 111.538L95.4188 112.266L95.0968 112.826L93.7528 111.944L93.8368 113.554Z" fill="#4B4B4B"/>
<rect x="39.5" y="168.5" width="344" height="43" stroke="#D7DEE9"/>
<path d="M60.2717 195H59.0267V186.105H53.1767V195H51.9317V184.995H60.2717V195ZM68.2204 195H67.0954V194.175C66.4854 194.845 65.6854 195.18 64.6954 195.18C64.0254 195.18 63.4354 194.965 62.9254 194.535C62.4154 194.105 62.1604 193.52 62.1604 192.78C62.1604 192.02 62.4104 191.435 62.9104 191.025C63.4204 190.605 64.0154 190.395 64.6954 190.395C65.7254 190.395 66.5254 190.725 67.0954 191.385V190.08C67.0954 189.6 66.9254 189.225 66.5854 188.955C66.2454 188.685 65.8054 188.55 65.2654 188.55C64.4154 188.55 63.6754 188.885 63.0454 189.555L62.5204 188.775C63.2904 187.975 64.2554 187.575 65.4154 187.575C66.2454 187.575 66.9204 187.775 67.4404 188.175C67.9604 188.575 68.2204 189.19 68.2204 190.02V195ZM65.1004 194.37C66.0004 194.37 66.6654 194.07 67.0954 193.47V192.105C66.6654 191.505 66.0004 191.205 65.1004 191.205C64.5804 191.205 64.1504 191.355 63.8104 191.655C63.4804 191.945 63.3154 192.325 63.3154 192.795C63.3154 193.255 63.4804 193.635 63.8104 193.935C64.1504 194.225 64.5804 194.37 65.1004 194.37ZM74.0456 195.18C73.0256 195.18 72.2106 194.755 71.6006 193.905V197.76H70.4756V187.755H71.6006V188.835C71.8706 188.455 72.2206 188.15 72.6506 187.92C73.0806 187.69 73.5456 187.575 74.0456 187.575C75.0056 187.575 75.7806 187.92 76.3706 188.61C76.9706 189.29 77.2706 190.21 77.2706 191.37C77.2706 192.53 76.9706 193.455 76.3706 194.145C75.7806 194.835 75.0056 195.18 74.0456 195.18ZM73.7606 194.175C74.4706 194.175 75.0356 193.915 75.4556 193.395C75.8756 192.865 76.0856 192.19 76.0856 191.37C76.0856 190.55 75.8756 189.88 75.4556 189.36C75.0356 188.84 74.4706 188.58 73.7606 188.58C73.3306 188.58 72.9106 188.695 72.5006 188.925C72.1006 189.145 71.8006 189.415 71.6006 189.735V193.005C71.8006 193.335 72.1006 193.615 72.5006 193.845C72.9106 194.065 73.3306 194.175 73.7606 194.175ZM84.8196 194.085C84.1696 194.815 83.3046 195.18 82.2246 195.18C81.1446 195.18 80.2746 194.815 79.6146 194.085C78.9646 193.355 78.6396 192.45 78.6396 191.37C78.6396 190.29 78.9646 189.39 79.6146 188.67C80.2746 187.94 81.1446 187.575 82.2246 187.575C83.3046 187.575 84.1696 187.94 84.8196 188.67C85.4796 189.39 85.8096 190.29 85.8096 191.37C85.8096 192.45 85.4796 193.355 84.8196 194.085ZM80.4546 193.365C80.8946 193.905 81.4846 194.175 82.2246 194.175C82.9646 194.175 83.5496 193.905 83.9796 193.365C84.4096 192.815 84.6246 192.15 84.6246 191.37C84.6246 190.59 84.4096 189.93 83.9796 189.39C83.5496 188.85 82.9646 188.58 82.2246 188.58C81.4846 188.58 80.8946 188.855 80.4546 189.405C80.0246 189.945 79.8096 190.6 79.8096 191.37C79.8096 192.15 80.0246 192.815 80.4546 193.365ZM86.7886 195.18V194.25C87.1286 194.25 87.4086 194.025 87.6286 193.575C87.8486 193.125 88.0286 192.375 88.1686 191.325L88.6336 187.755H93.6736V195H92.5486V188.745H89.6236L89.2936 191.46C89.1336 192.79 88.8536 193.745 88.4536 194.325C88.0536 194.895 87.4986 195.18 86.7886 195.18ZM95.9199 187.755H97.0449V190.56H99.7599C100.48 190.56 101.04 190.775 101.44 191.205C101.84 191.625 102.04 192.15 102.04 192.78C102.04 193.41 101.835 193.94 101.425 194.37C101.025 194.79 100.47 195 99.7599 195H95.9199V187.755ZM99.6399 191.55H97.0449V194.01H99.6399C100.04 194.01 100.345 193.9 100.555 193.68C100.775 193.45 100.885 193.15 100.885 192.78C100.885 192.41 100.775 192.115 100.555 191.895C100.345 191.665 100.04 191.55 99.6399 191.55ZM104.56 189.165H103.87L103.945 187.44L102.505 188.385L102.175 187.785L103.705 187.005L102.175 186.225L102.505 185.64L103.945 186.57L103.87 184.845H104.56L104.47 186.57L105.91 185.64L106.255 186.225L104.725 187.005L106.255 187.785L105.91 188.385L104.47 187.44L104.56 189.165Z" fill="#5A5A5A"/>
<path d="M176.704 53H170.188V40.994H176.506C177.598 40.994 178.444 41.294 179.044 41.894C179.656 42.482 179.962 43.202 179.962 44.054C179.962 44.786 179.764 45.398 179.368 45.89C178.972 46.382 178.48 46.688 177.892 46.808C178.54 46.904 179.086 47.234 179.53 47.798C179.974 48.362 180.196 49.016 180.196 49.76C180.196 50.696 179.89 51.47 179.278 52.082C178.666 52.694 177.808 53 176.704 53ZM175.948 45.8C176.38 45.8 176.722 45.68 176.974 45.44C177.226 45.2 177.352 44.888 177.352 44.504C177.352 44.12 177.22 43.808 176.956 43.568C176.704 43.316 176.368 43.19 175.948 43.19H172.744V45.8H175.948ZM176.038 50.786C176.518 50.786 176.896 50.666 177.172 50.426C177.448 50.174 177.586 49.832 177.586 49.4C177.586 49.004 177.448 48.674 177.172 48.41C176.896 48.134 176.518 47.996 176.038 47.996H172.744V50.786H176.038ZM190.008 53H187.452L185.472 50.066L183.474 53H180.936L184.014 48.536L181.116 44.306H183.672L185.472 46.988L187.254 44.306H189.81L186.894 48.536L190.008 53ZM197.905 51.902C197.065 52.778 195.949 53.216 194.557 53.216C193.165 53.216 192.049 52.778 191.209 51.902C190.381 51.014 189.967 49.928 189.967 48.644C189.967 47.36 190.381 46.28 191.209 45.404C192.049 44.528 193.165 44.09 194.557 44.09C195.949 44.09 197.065 44.528 197.905 45.404C198.745 46.28 199.165 47.36 199.165 48.644C199.165 49.928 198.745 51.014 197.905 51.902ZM192.937 50.462C193.333 50.942 193.873 51.182 194.557 51.182C195.241 51.182 195.781 50.942 196.177 50.462C196.585 49.97 196.789 49.364 196.789 48.644C196.789 47.936 196.585 47.342 196.177 46.862C195.781 46.37 195.241 46.124 194.557 46.124C193.873 46.124 193.333 46.37 192.937 46.862C192.541 47.342 192.343 47.936 192.343 48.644C192.343 49.364 192.541 49.97 192.937 50.462ZM200.051 55.214V51.092C200.315 51.044 200.519 50.96 200.663 50.84C200.819 50.708 200.963 50.462 201.095 50.102C201.239 49.73 201.353 49.202 201.437 48.518L201.995 44.306H209.033V51.002H209.987V55.214H207.701V53H202.355V55.214H200.051ZM203.993 46.304L203.723 48.662C203.603 49.706 203.267 50.486 202.715 51.002H206.747V46.304H203.993Z" fill="#484848"/>
<rect x="39" y="294" width="345" height="50" rx="2" fill="#0057B6"/>
<path d="M196.696 324H192.135V313.995H196.591C197.451 313.995 198.131 314.23 198.631 314.7C199.141 315.17 199.396 315.785 199.396 316.545C199.396 317.145 199.226 317.655 198.885 318.075C198.546 318.485 198.131 318.74 197.641 318.84C198.171 318.92 198.626 319.2 199.006 319.68C199.396 320.16 199.591 320.7 199.591 321.3C199.591 322.11 199.331 322.765 198.81 323.265C198.301 323.755 197.596 324 196.696 324ZM196.381 318.33C196.931 318.33 197.356 318.18 197.656 317.88C197.956 317.58 198.106 317.195 198.106 316.725C198.106 316.255 197.951 315.87 197.641 315.57C197.341 315.26 196.921 315.105 196.381 315.105H193.381V318.33H196.381ZM196.441 322.89C197.021 322.89 197.476 322.735 197.806 322.425C198.136 322.115 198.301 321.695 198.301 321.165C198.301 320.675 198.136 320.265 197.806 319.935C197.486 319.605 197.031 319.44 196.441 319.44H193.381V322.89H196.441ZM207.284 323.085C206.634 323.815 205.769 324.18 204.689 324.18C203.609 324.18 202.739 323.815 202.079 323.085C201.429 322.355 201.104 321.45 201.104 320.37C201.104 319.29 201.429 318.39 202.079 317.67C202.739 316.94 203.609 316.575 204.689 316.575C205.769 316.575 206.634 316.94 207.284 317.67C207.944 318.39 208.274 319.29 208.274 320.37C208.274 321.45 207.944 322.355 207.284 323.085ZM202.919 322.365C203.359 322.905 203.949 323.175 204.689 323.175C205.429 323.175 206.014 322.905 206.444 322.365C206.874 321.815 207.089 321.15 207.089 320.37C207.089 319.59 206.874 318.93 206.444 318.39C206.014 317.85 205.429 317.58 204.689 317.58C203.949 317.58 203.359 317.855 202.919 318.405C202.489 318.945 202.274 319.6 202.274 320.37C202.274 321.15 202.489 321.815 202.919 322.365ZM211.188 324H210.108V316.755H211.233V322.29L215.028 316.755H216.138V324H215.013V318.36L211.188 324ZM215.748 314.61C215.098 315.49 214.223 315.93 213.123 315.93C212.033 315.93 211.153 315.49 210.483 314.61L211.038 314.13C211.558 314.85 212.253 315.21 213.123 315.21C214.003 315.21 214.693 314.85 215.193 314.13L215.748 314.61ZM220.829 324H219.704V317.745H217.604V316.755H222.944V317.745H220.829V324ZM225.5 324H224.42V316.755H225.545V322.29L229.34 316.755H230.45V324H229.325V318.36L225.5 324Z" fill="white"/>
<rect x="39.5" y="359.5" width="344" height="49" rx="1.5" stroke="#0057B6"/>
<path d="M170.324 389H169.079V378.995H173.099C174.069 378.995 174.834 379.285 175.394 379.865C175.954 380.445 176.234 381.16 176.234 382.01C176.234 382.86 175.949 383.575 175.379 384.155C174.819 384.735 174.059 385.025 173.099 385.025H170.324V389ZM172.949 383.915C173.539 383.915 174.019 383.74 174.389 383.39C174.759 383.03 174.944 382.57 174.944 382.01C174.944 381.45 174.759 380.995 174.389 380.645C174.019 380.285 173.539 380.105 172.949 380.105H170.324V383.915H172.949ZM180.917 389.18C179.837 389.18 178.952 388.83 178.262 388.13C177.572 387.42 177.227 386.5 177.227 385.37C177.227 384.31 177.567 383.415 178.247 382.685C178.927 381.945 179.777 381.575 180.797 381.575C181.867 381.575 182.712 381.945 183.332 382.685C183.962 383.415 184.277 384.34 184.277 385.46V385.745H178.412C178.462 386.455 178.722 387.05 179.192 387.53C179.662 388.01 180.272 388.25 181.022 388.25C181.922 388.25 182.667 387.945 183.257 387.335L183.797 388.07C183.057 388.81 182.097 389.18 180.917 389.18ZM183.167 384.92C183.157 384.3 182.947 383.745 182.537 383.255C182.127 382.755 181.542 382.505 180.782 382.505C180.062 382.505 179.492 382.75 179.072 383.24C178.662 383.73 178.442 384.29 178.412 384.92H183.167ZM191.169 381.755V382.745H187.224V389H186.099V381.755H191.169ZM193.712 389H192.632V381.755H193.757V387.29L197.552 381.755H198.662V389H197.537V383.36L193.712 389ZM204.104 389.18C203.034 389.18 202.164 388.82 201.494 388.1C200.824 387.37 200.489 386.46 200.489 385.37C200.489 384.28 200.824 383.375 201.494 382.655C202.164 381.935 203.034 381.575 204.104 381.575C205.224 381.575 206.109 381.995 206.759 382.835L206.009 383.525C205.549 382.895 204.934 382.58 204.164 382.58C203.404 382.58 202.794 382.84 202.334 383.36C201.884 383.88 201.659 384.55 201.659 385.37C201.659 386.19 201.884 386.865 202.334 387.395C202.794 387.915 203.404 388.175 204.164 388.175C204.924 388.175 205.539 387.86 206.009 387.23L206.759 387.92C206.109 388.76 205.224 389.18 204.104 389.18ZM210.781 389H209.656V382.745H207.556V381.755H212.896V382.745H210.781V389ZM217.941 389.18C216.921 389.18 216.106 388.755 215.496 387.905V391.76H214.371V381.755H215.496V382.835C215.766 382.455 216.116 382.15 216.546 381.92C216.976 381.69 217.441 381.575 217.941 381.575C218.901 381.575 219.676 381.92 220.266 382.61C220.866 383.29 221.166 384.21 221.166 385.37C221.166 386.53 220.866 387.455 220.266 388.145C219.676 388.835 218.901 389.18 217.941 389.18ZM217.656 388.175C218.366 388.175 218.931 387.915 219.351 387.395C219.771 386.865 219.981 386.19 219.981 385.37C219.981 384.55 219.771 383.88 219.351 383.36C218.931 382.84 218.366 382.58 217.656 382.58C217.226 382.58 216.806 382.695 216.396 382.925C215.996 383.145 215.696 383.415 215.496 383.735V387.005C215.696 387.335 215.996 387.615 216.396 387.845C216.806 388.065 217.226 388.175 217.656 388.175ZM228.61 389H227.485V388.175C226.875 388.845 226.075 389.18 225.085 389.18C224.415 389.18 223.825 388.965 223.315 388.535C222.805 388.105 222.55 387.52 222.55 386.78C222.55 386.02 222.8 385.435 223.3 385.025C223.81 384.605 224.405 384.395 225.085 384.395C226.115 384.395 226.915 384.725 227.485 385.385V384.08C227.485 383.6 227.315 383.225 226.975 382.955C226.635 382.685 226.195 382.55 225.655 382.55C224.805 382.55 224.065 382.885 223.435 383.555L222.91 382.775C223.68 381.975 224.645 381.575 225.805 381.575C226.635 381.575 227.31 381.775 227.83 382.175C228.35 382.575 228.61 383.19 228.61 384.02V389ZM225.49 388.37C226.39 388.37 227.055 388.07 227.485 387.47V386.105C227.055 385.505 226.39 385.205 225.49 385.205C224.97 385.205 224.54 385.355 224.2 385.655C223.87 385.945 223.705 386.325 223.705 386.795C223.705 387.255 223.87 387.635 224.2 387.935C224.54 388.225 224.97 388.37 225.49 388.37ZM236.61 390.845V389H230.865V381.755H231.99V388.01H235.77V381.755H236.895V388.01H237.735V390.845H236.61ZM240.353 389H239.273V381.755H240.398V387.29L244.193 381.755H245.303V389H244.178V383.36L240.353 389ZM248.629 389H247.309L249.244 386.15C248.694 386.08 248.244 385.85 247.894 385.46C247.554 385.07 247.384 384.575 247.384 383.975C247.384 383.335 247.589 382.805 247.999 382.385C248.409 381.965 248.969 381.755 249.679 381.755H253.504V389H252.379V386.195H250.399L248.629 389ZM249.799 385.205H252.379V382.745H249.799C249.409 382.745 249.099 382.86 248.869 383.09C248.649 383.31 248.539 383.605 248.539 383.975C248.539 384.345 248.649 384.645 248.869 384.875C249.089 385.095 249.399 385.205 249.799 385.205Z" fill="#0057B6"/>
<g clip-path="url(#clip0)">
<path d="M385.592 32.0008L392.67 24.9225C393.11 24.4832 393.11 23.7702 392.67 23.3308C392.23 22.8911 391.518 22.8911 391.078 23.3308L384 30.4091L376.922 23.3308C376.482 22.8911 375.77 22.8911 375.33 23.3308C374.89 23.7702 374.89 24.4832 375.33 24.9225L382.408 32.0008L375.33 39.0791C374.89 39.5185 374.89 40.2314 375.33 40.6708C375.55 40.8903 375.838 41.0003 376.126 41.0003C376.413 41.0003 376.702 40.8903 376.922 40.6704L384 33.5922L391.078 40.6704C391.298 40.8903 391.587 41.0003 391.874 41.0003C392.162 41.0003 392.45 40.8903 392.67 40.6704C393.11 40.231 393.11 39.5181 392.67 39.0787L385.592 32.0008Z" fill="#8A8A8A"/>
</g>
<path d="M41.898 53H40.404V40.994H45.228C46.392 40.994 47.31 41.342 47.982 42.038C48.654 42.734 48.99 43.592 48.99 44.612C48.99 45.632 48.648 46.49 47.964 47.186C47.292 47.882 46.38 48.23 45.228 48.23H41.898V53ZM45.048 46.898C45.756 46.898 46.332 46.688 46.776 46.268C47.22 45.836 47.442 45.284 47.442 44.612C47.442 43.94 47.22 43.394 46.776 42.974C46.332 42.542 45.756 42.326 45.048 42.326H41.898V46.898H45.048ZM54.6099 53.216C53.3139 53.216 52.2519 52.796 51.4239 51.956C50.5959 51.104 50.1819 50 50.1819 48.644C50.1819 47.372 50.5899 46.298 51.4059 45.422C52.2219 44.534 53.2419 44.09 54.4659 44.09C55.7499 44.09 56.7639 44.534 57.5079 45.422C58.2639 46.298 58.6419 47.408 58.6419 48.752V49.094H51.6039C51.6639 49.946 51.9759 50.66 52.5399 51.236C53.1039 51.812 53.8359 52.1 54.7359 52.1C55.8159 52.1 56.7099 51.734 57.4179 51.002L58.0659 51.884C57.1779 52.772 56.0259 53.216 54.6099 53.216ZM57.3099 48.104C57.2979 47.36 57.0459 46.694 56.5539 46.106C56.0619 45.506 55.3599 45.206 54.4479 45.206C53.5839 45.206 52.8999 45.5 52.3959 46.088C51.9039 46.676 51.6399 47.348 51.6039 48.104H57.3099ZM66.9125 44.306V45.494H62.1785V53H60.8285V44.306H66.9125ZM69.9644 53H68.6684V44.306H70.0184V50.948L74.5724 44.306H75.9044V53H74.5544V46.232L69.9644 53ZM82.434 53.216C81.15 53.216 80.106 52.784 79.302 51.92C78.498 51.044 78.096 49.952 78.096 48.644C78.096 47.336 78.498 46.25 79.302 45.386C80.106 44.522 81.15 44.09 82.434 44.09C83.778 44.09 84.84 44.594 85.62 45.602L84.72 46.43C84.168 45.674 83.43 45.296 82.506 45.296C81.594 45.296 80.862 45.608 80.31 46.232C79.77 46.856 79.5 47.66 79.5 48.644C79.5 49.628 79.77 50.438 80.31 51.074C80.862 51.698 81.594 52.01 82.506 52.01C83.418 52.01 84.156 51.632 84.72 50.876L85.62 51.704C84.84 52.712 83.778 53.216 82.434 53.216ZM90.4461 53H89.0961V45.494H86.5761V44.306H92.9841V45.494H90.4461V53ZM99.0383 53.216C97.8143 53.216 96.8363 52.706 96.1043 51.686V56.312H94.7543V44.306H96.1043V45.602C96.4283 45.146 96.8483 44.78 97.3643 44.504C97.8803 44.228 98.4383 44.09 99.0383 44.09C100.19 44.09 101.12 44.504 101.828 45.332C102.548 46.148 102.908 47.252 102.908 48.644C102.908 50.036 102.548 51.146 101.828 51.974C101.12 52.802 100.19 53.216 99.0383 53.216ZM98.6963 52.01C99.5483 52.01 100.226 51.698 100.73 51.074C101.234 50.438 101.486 49.628 101.486 48.644C101.486 47.66 101.234 46.856 100.73 46.232C100.226 45.608 99.5483 45.296 98.6963 45.296C98.1803 45.296 97.6763 45.434 97.1843 45.71C96.7043 45.974 96.3443 46.298 96.1043 46.682V50.606C96.3443 51.002 96.7043 51.338 97.1843 51.614C97.6763 51.878 98.1803 52.01 98.6963 52.01ZM111.841 53H110.491V52.01C109.759 52.814 108.799 53.216 107.611 53.216C106.807 53.216 106.099 52.958 105.487 52.442C104.875 51.926 104.569 51.224 104.569 50.336C104.569 49.424 104.869 48.722 105.469 48.23C106.081 47.726 106.795 47.474 107.611 47.474C108.847 47.474 109.807 47.87 110.491 48.662V47.096C110.491 46.52 110.287 46.07 109.879 45.746C109.471 45.422 108.943 45.26 108.295 45.26C107.275 45.26 106.387 45.662 105.631 46.466L105.001 45.53C105.925 44.57 107.083 44.09 108.475 44.09C109.471 44.09 110.281 44.33 110.905 44.81C111.529 45.29 111.841 46.028 111.841 47.024V53ZM108.097 52.244C109.177 52.244 109.975 51.884 110.491 51.164V49.526C109.975 48.806 109.177 48.446 108.097 48.446C107.473 48.446 106.957 48.626 106.549 48.986C106.153 49.334 105.955 49.79 105.955 50.354C105.955 50.906 106.153 51.362 106.549 51.722C106.957 52.07 107.473 52.244 108.097 52.244ZM121.441 55.214V53H114.547V44.306H115.897V51.812H120.433V44.306H121.783V51.812H122.791V55.214H121.441ZM125.933 53H124.637V44.306H125.987V50.948L130.541 44.306H131.873V53H130.523V46.232L125.933 53ZM135.865 53H134.281L136.603 49.58C135.943 49.496 135.403 49.22 134.983 48.752C134.575 48.284 134.371 47.69 134.371 46.97C134.371 46.202 134.617 45.566 135.109 45.062C135.601 44.558 136.273 44.306 137.125 44.306H141.715V53H140.365V49.634H137.989L135.865 53ZM137.269 48.446H140.365V45.494H137.269C136.801 45.494 136.429 45.632 136.153 45.908C135.889 46.172 135.757 46.526 135.757 46.97C135.757 47.414 135.889 47.774 136.153 48.05C136.417 48.314 136.789 48.446 137.269 48.446Z" fill="#484848" fill-opacity="0.48"/>
<defs>
<filter id="filter0_d" x="0" y="0" width="423" height="450" filterUnits="userSpaceOnUse" color-interpolation-filters="sRGB">
<feFlood flood-opacity="0" result="BackgroundImageFix"/>
<feColorMatrix in="SourceAlpha" type="matrix" values="0 0 0 0 0 0 0 0 0 0 0 0 0 0 0 0 0 0 127 0"/>
<feOffset dy="2"/>
<feGaussianBlur stdDeviation="2.5"/>
<feColorMatrix type="matrix" values="0 0 0 0 0.4125 0 0 0 0 0.4125 0 0 0 0 0.4125 0 0 0 0.1 0"/>
<feBlend mode="normal" in2="BackgroundImageFix" result="effect1_dropShadow"/>
<feBlend mode="normal" in="SourceGraphic" in2="effect1_dropShadow" result="shape"/>
</filter>
<clipPath id="clip0">
<rect width="18" height="18" fill="white" transform="translate(375 23)"/>
</clipPath>
</defs>
</svg>
