<svg width="666" height="357" viewBox="0 0 666 357" fill="none" xmlns="http://www.w3.org/2000/svg">
<rect x="5.5" y="0.5" width="655" height="57" rx="4.5" fill="white" stroke="#D7DEE9"/>
<path d="M39.892 38.336C37.0547 38.336 34.684 37.44 32.78 35.648C30.8947 33.8373 29.952 31.5133 29.952 28.676C29.952 25.8387 30.8947 23.524 32.78 21.732C34.684 19.9213 37.0547 19.016 39.892 19.016C43.3827 19.016 45.9867 20.5373 47.704 23.58L44.288 25.26C43.8773 24.476 43.2707 23.832 42.468 23.328C41.684 22.8053 40.8253 22.544 39.892 22.544C38.1933 22.544 36.7933 23.1227 35.692 24.28C34.5907 25.4373 34.04 26.9027 34.04 28.676C34.04 30.4493 34.5907 31.9147 35.692 33.072C36.7933 34.2293 38.1933 34.808 39.892 34.808C40.8253 34.808 41.684 34.556 42.468 34.052C43.2707 33.548 43.8773 32.8947 44.288 32.092L47.704 33.744C45.9307 36.8053 43.3267 38.336 39.892 38.336ZM61.4667 36.292C60.16 37.6547 58.424 38.336 56.2587 38.336C54.0933 38.336 52.3573 37.6547 51.0507 36.292C49.7627 34.9107 49.1187 33.2213 49.1187 31.224C49.1187 29.2267 49.7627 27.5467 51.0507 26.184C52.3573 24.8213 54.0933 24.14 56.2587 24.14C58.424 24.14 60.16 24.8213 61.4667 26.184C62.7733 27.5467 63.4267 29.2267 63.4267 31.224C63.4267 33.2213 62.7733 34.9107 61.4667 36.292ZM53.7387 34.052C54.3547 34.7987 55.1947 35.172 56.2587 35.172C57.3227 35.172 58.1627 34.7987 58.7787 34.052C59.4133 33.2867 59.7307 32.344 59.7307 31.224C59.7307 30.1227 59.4133 29.1987 58.7787 28.452C58.1627 27.6867 57.3227 27.304 56.2587 27.304C55.1947 27.304 54.3547 27.6867 53.7387 28.452C53.1227 29.1987 52.8147 30.1227 52.8147 31.224C52.8147 32.344 53.1227 33.2867 53.7387 34.052ZM70.9928 38.336C68.2674 38.336 66.1674 37.6173 64.6928 36.18L66.3168 33.968C67.5301 34.9947 69.0888 35.508 70.9928 35.508C71.8888 35.508 72.5794 35.3773 73.0648 35.116C73.5501 34.8547 73.7928 34.5 73.7928 34.052C73.7928 33.044 72.7848 32.54 70.7688 32.54H67.9968V29.796H70.7688C72.6168 29.796 73.5408 29.3107 73.5408 28.34C73.5408 27.9293 73.2888 27.6027 72.7848 27.36C72.2808 27.0987 71.6274 26.968 70.8248 26.968C69.0701 26.968 67.6701 27.4813 66.6248 28.508L64.8888 26.408C66.3821 24.9147 68.2954 24.168 70.6288 24.168C72.7194 24.1493 74.3434 24.476 75.5008 25.148C76.6581 25.8013 77.2368 26.7067 77.2368 27.864C77.2368 28.6853 76.8914 29.3853 76.2008 29.964C75.5101 30.5427 74.6794 30.9067 73.7088 31.056C74.6608 31.112 75.5288 31.4293 76.3128 32.008C77.1154 32.5867 77.5168 33.3427 77.5168 34.276C77.5168 35.4893 76.9288 36.4693 75.7528 37.216C74.5768 37.9627 72.9901 38.336 70.9928 38.336ZM78.9142 41.444V35.032C79.3248 34.9573 79.6422 34.8267 79.8662 34.64C80.1088 34.4347 80.3328 34.052 80.5382 33.492C80.7622 32.9133 80.9395 32.092 81.0702 31.028L81.9382 24.476H92.8862V34.892H94.3702V41.444H90.8142V38H82.4982V41.444H78.9142ZM85.0462 27.584L84.6262 31.252C84.4395 32.876 83.9168 34.0893 83.0582 34.892H89.3302V27.584H85.0462ZM108.284 38H104.728V36.6C103.757 37.7573 102.329 38.336 100.444 38.336C99.2304 38.336 98.1384 37.944 97.1678 37.16C96.2158 36.3573 95.7398 35.256 95.7398 33.856C95.7398 32.4 96.2064 31.308 97.1398 30.58C98.0918 29.852 99.1931 29.488 100.444 29.488C102.366 29.488 103.794 30.0387 104.728 31.14V29.32C104.728 28.6293 104.457 28.0787 103.916 27.668C103.374 27.2573 102.656 27.052 101.76 27.052C100.285 27.052 98.9691 27.584 97.8118 28.648L96.4678 26.268C98.0731 24.8493 100.042 24.14 102.376 24.14C104.112 24.14 105.53 24.5413 106.632 25.344C107.733 26.1467 108.284 27.4533 108.284 29.264V38ZM101.872 35.928C103.197 35.928 104.149 35.536 104.728 34.752V33.072C104.149 32.288 103.197 31.896 101.872 31.896C101.144 31.896 100.537 32.0827 100.052 32.456C99.5664 32.8107 99.3238 33.3053 99.3238 33.94C99.3238 34.556 99.5664 35.0413 100.052 35.396C100.537 35.7507 101.144 35.928 101.872 35.928ZM117.887 38H114.303V27.584H110.523V24.476H121.667V27.584H117.887V38ZM123.897 24.476H127.453V29.124H132.073C133.566 29.124 134.723 29.544 135.545 30.384C136.366 31.224 136.777 32.2787 136.777 33.548C136.777 34.7987 136.357 35.8533 135.517 36.712C134.677 37.5707 133.529 38 132.073 38H123.897V24.476ZM131.541 32.092H127.453V35.004H131.541C132.026 35.004 132.409 34.8733 132.689 34.612C132.987 34.332 133.137 33.9773 133.137 33.548C133.137 33.1187 132.987 32.7733 132.689 32.512C132.409 32.232 132.026 32.092 131.541 32.092ZM149.953 38H146.537V24.476H150.093V32.652L155.665 24.476H159.249V38H155.693V29.516L149.953 38ZM161.52 41.444V35.032C161.93 34.9573 162.248 34.8267 162.472 34.64C162.714 34.4347 162.938 34.052 163.144 33.492C163.368 32.9133 163.545 32.092 163.676 31.028L164.544 24.476H175.492V34.892H176.976V41.444H173.42V38H165.104V41.444H161.52ZM167.652 27.584L167.232 31.252C167.045 32.876 166.522 34.0893 165.664 34.892H171.936V27.584H167.652ZM185.569 38.336C183.479 38.336 181.752 37.6827 180.389 36.376C179.027 35.0693 178.345 33.352 178.345 31.224C178.345 29.2267 178.999 27.5467 180.305 26.184C181.631 24.8213 183.311 24.14 185.345 24.14C187.361 24.14 188.995 24.8307 190.245 26.212C191.496 27.5747 192.121 29.3667 192.121 31.588V32.372H182.069C182.181 33.268 182.583 34.0147 183.273 34.612C183.964 35.2093 184.86 35.508 185.961 35.508C186.559 35.508 187.203 35.3867 187.893 35.144C188.603 34.9013 189.163 34.5747 189.573 34.164L191.141 36.46C189.779 37.7107 187.921 38.336 185.569 38.336ZM188.677 29.964C188.621 29.1987 188.313 28.508 187.753 27.892C187.212 27.276 186.409 26.968 185.345 26.968C184.337 26.968 183.553 27.276 182.993 27.892C182.433 28.4893 182.107 29.18 182.013 29.964H188.677ZM207.514 38.336C205.628 38.336 204.06 37.804 202.81 36.74C201.559 35.6573 200.784 34.276 200.486 32.596H198.246V38H194.69V24.476H198.246V29.488H200.57C200.924 27.92 201.718 26.6413 202.95 25.652C204.182 24.644 205.703 24.14 207.514 24.14C209.679 24.14 211.415 24.8213 212.722 26.184C214.028 27.5467 214.682 29.2267 214.682 31.224C214.682 33.2213 214.028 34.9107 212.722 36.292C211.415 37.6547 209.679 38.336 207.514 38.336ZM207.514 35.172C208.596 35.172 209.446 34.7987 210.062 34.052C210.678 33.2867 210.986 32.344 210.986 31.224C210.986 30.1227 210.678 29.1987 210.062 28.452C209.446 27.6867 208.596 27.304 207.514 27.304C206.45 27.304 205.61 27.6867 204.994 28.452C204.378 29.1987 204.07 30.1227 204.07 31.224C204.07 32.344 204.378 33.2867 204.994 34.052C205.61 34.7987 206.45 35.172 207.514 35.172Z" fill="#262C40"/>
<g filter="url(#filter0_d)">
<rect x="5" y="145" width="656" height="205" rx="5" fill="white"/>
<rect x="5.5" y="145.5" width="655" height="204" rx="4.5" stroke="#D7DEE9"/>
</g>
<rect opacity="0.7" x="30.5" y="207.5" width="605" height="43" stroke="#B8BDCE"/>
<path d="M50.348 235H46.092V225.662H50.25C51.0527 225.662 51.6873 225.881 52.154 226.32C52.63 226.759 52.868 227.333 52.868 228.042C52.868 228.602 52.7093 229.078 52.392 229.47C52.0747 229.853 51.6873 230.091 51.23 230.184C51.7247 230.259 52.1493 230.52 52.504 230.968C52.868 231.416 53.05 231.92 53.05 232.48C53.05 233.236 52.8073 233.847 52.322 234.314C51.846 234.771 51.188 235 50.348 235ZM50.054 229.708C50.5673 229.708 50.964 229.568 51.244 229.288C51.524 229.008 51.664 228.649 51.664 228.21C51.664 227.771 51.5193 227.412 51.23 227.132C50.95 226.843 50.558 226.698 50.054 226.698H47.254V229.708H50.054ZM50.11 233.964C50.6513 233.964 51.076 233.819 51.384 233.53C51.692 233.241 51.846 232.849 51.846 232.354C51.846 231.897 51.692 231.514 51.384 231.206C51.0853 230.898 50.6607 230.744 50.11 230.744H47.254V233.964H50.11ZM55.2547 228.238H56.3047V230.856H58.8387C59.5107 230.856 60.0334 231.057 60.4067 231.458C60.78 231.85 60.9667 232.34 60.9667 232.928C60.9667 233.516 60.7754 234.011 60.3927 234.412C60.0194 234.804 59.5014 235 58.8387 235H55.2547V228.238ZM58.7267 231.78H56.3047V234.076H58.7267C59.1 234.076 59.3847 233.973 59.5807 233.768C59.786 233.553 59.8887 233.273 59.8887 232.928C59.8887 232.583 59.786 232.307 59.5807 232.102C59.3847 231.887 59.1 231.78 58.7267 231.78ZM63.1227 235H62.0727V228.238H63.1227V235ZM66.9235 233.474C67.3342 233.978 67.8848 234.23 68.5755 234.23C69.2662 234.23 69.8122 233.978 70.2135 233.474C70.6148 232.961 70.8155 232.335 70.8155 231.598C70.8155 230.879 70.6148 230.268 70.2135 229.764C69.8122 229.26 69.2662 229.008 68.5755 229.008C67.8848 229.008 67.3342 229.26 66.9235 229.764C66.5222 230.268 66.3215 230.879 66.3215 231.598C66.3215 232.335 66.5222 232.961 66.9235 233.474ZM68.5755 235.168C67.5582 235.168 66.7462 234.809 66.1395 234.09C65.5328 233.371 65.2295 232.443 65.2295 231.304C65.2295 229.699 65.5188 228.513 66.0975 227.748C66.6762 226.973 67.5675 226.507 68.7715 226.348C69.4902 226.236 69.9848 226.129 70.2555 226.026C70.5355 225.923 70.6755 225.802 70.6755 225.662H71.6975C71.6975 225.923 71.6182 226.152 71.4595 226.348C71.3008 226.535 71.0722 226.684 70.7735 226.796C70.4842 226.908 70.2088 226.997 69.9475 227.062C69.6955 227.118 69.3922 227.169 69.0375 227.216C68.1042 227.347 67.4275 227.603 67.0075 227.986C66.5968 228.369 66.3262 228.877 66.1955 229.512C66.8115 228.551 67.6608 228.07 68.7435 228.07C69.6768 228.07 70.4375 228.411 71.0255 229.092C71.6135 229.773 71.9075 230.609 71.9075 231.598C71.9075 232.606 71.6042 233.455 70.9975 234.146C70.3908 234.827 69.5835 235.168 68.5755 235.168ZM77.1536 235.168C76.1456 235.168 75.3196 234.841 74.6756 234.188C74.0316 233.525 73.7096 232.667 73.7096 231.612C73.7096 230.623 74.0269 229.787 74.6616 229.106C75.2962 228.415 76.0896 228.07 77.0416 228.07C78.0402 228.07 78.8289 228.415 79.4076 229.106C79.9956 229.787 80.2896 230.651 80.2896 231.696V231.962H74.8156C74.8622 232.625 75.1049 233.18 75.5436 233.628C75.9822 234.076 76.5516 234.3 77.2516 234.3C78.0916 234.3 78.7869 234.015 79.3376 233.446L79.8416 234.132C79.1509 234.823 78.2549 235.168 77.1536 235.168ZM79.2536 231.192C79.2442 230.613 79.0482 230.095 78.6656 229.638C78.2829 229.171 77.7369 228.938 77.0276 228.938C76.3556 228.938 75.8236 229.167 75.4316 229.624C75.0489 230.081 74.8436 230.604 74.8156 231.192H79.2536ZM85.7222 235.168C84.7702 235.168 84.0096 234.771 83.4402 233.978V237.576H82.3902V228.238H83.4402V229.246C83.6922 228.891 84.0189 228.607 84.4202 228.392C84.8216 228.177 85.2556 228.07 85.7222 228.07C86.6182 228.07 87.3416 228.392 87.8922 229.036C88.4522 229.671 88.7322 230.529 88.7322 231.612C88.7322 232.695 88.4522 233.558 87.8922 234.202C87.3416 234.846 86.6182 235.168 85.7222 235.168ZM85.4562 234.23C86.1189 234.23 86.6462 233.987 87.0382 233.502C87.4302 233.007 87.6262 232.377 87.6262 231.612C87.6262 230.847 87.4302 230.221 87.0382 229.736C86.6462 229.251 86.1189 229.008 85.4562 229.008C85.0549 229.008 84.6629 229.115 84.2802 229.33C83.9069 229.535 83.6269 229.787 83.4402 230.086V233.138C83.6269 233.446 83.9069 233.707 84.2802 233.922C84.6629 234.127 85.0549 234.23 85.4562 234.23ZM91.81 235H90.802V228.238H91.852V233.404L95.394 228.238H96.43V235H95.38V229.736L91.81 235ZM101.209 235H100.159V229.162H98.1986V228.238H103.183V229.162H101.209V235ZM108.011 235.168C107.003 235.168 106.177 234.841 105.533 234.188C104.889 233.525 104.567 232.667 104.567 231.612C104.567 230.623 104.885 229.787 105.519 229.106C106.154 228.415 106.947 228.07 107.899 228.07C108.898 228.07 109.687 228.415 110.265 229.106C110.853 229.787 111.147 230.651 111.147 231.696V231.962H105.673C105.72 232.625 105.963 233.18 106.401 233.628C106.84 234.076 107.409 234.3 108.109 234.3C108.949 234.3 109.645 234.015 110.195 233.446L110.699 234.132C110.009 234.823 109.113 235.168 108.011 235.168ZM110.111 231.192C110.102 230.613 109.906 230.095 109.523 229.638C109.141 229.171 108.595 228.938 107.885 228.938C107.213 228.938 106.681 229.167 106.289 229.624C105.907 230.081 105.701 230.604 105.673 231.192H110.111ZM122.633 234.146C122.027 234.827 121.219 235.168 120.211 235.168C119.203 235.168 118.391 234.827 117.775 234.146C117.169 233.465 116.865 232.62 116.865 231.612C116.865 230.604 117.169 229.764 117.775 229.092C118.391 228.411 119.203 228.07 120.211 228.07C121.219 228.07 122.027 228.411 122.633 229.092C123.249 229.764 123.557 230.604 123.557 231.612C123.557 232.62 123.249 233.465 122.633 234.146ZM118.559 233.474C118.97 233.978 119.521 234.23 120.211 234.23C120.902 234.23 121.448 233.978 121.849 233.474C122.251 232.961 122.451 232.34 122.451 231.612C122.451 230.884 122.251 230.268 121.849 229.764C121.448 229.26 120.902 229.008 120.211 229.008C119.521 229.008 118.97 229.265 118.559 229.778C118.158 230.282 117.957 230.893 117.957 231.612C117.957 232.34 118.158 232.961 118.559 233.474ZM127.951 235H126.901V229.162H124.941V228.238H129.925V229.162H127.951V235ZM130.302 236.722V234.132C130.648 234.067 130.918 233.861 131.114 233.516C131.31 233.161 131.469 232.513 131.59 231.57L132.024 228.238H136.728V234.076H137.512V236.722H136.462V235H131.352V236.722H130.302ZM132.948 229.162L132.64 231.696C132.482 232.881 132.155 233.675 131.66 234.076H135.678V229.162H132.948ZM142.4 235.168C141.392 235.168 140.566 234.841 139.922 234.188C139.278 233.525 138.956 232.667 138.956 231.612C138.956 230.623 139.273 229.787 139.908 229.106C140.543 228.415 141.336 228.07 142.288 228.07C143.287 228.07 144.075 228.415 144.654 229.106C145.242 229.787 145.536 230.651 145.536 231.696V231.962H140.062C140.109 232.625 140.351 233.18 140.79 233.628C141.229 234.076 141.798 234.3 142.498 234.3C143.338 234.3 144.033 234.015 144.584 233.446L145.088 234.132C144.397 234.823 143.501 235.168 142.4 235.168ZM144.5 231.192C144.491 230.613 144.295 230.095 143.912 229.638C143.529 229.171 142.983 228.938 142.274 228.938C141.602 228.938 141.07 229.167 140.678 229.624C140.295 230.081 140.09 230.604 140.062 231.192H144.5ZM146.839 235.168V234.3C147.156 234.3 147.417 234.09 147.623 233.67C147.828 233.25 147.996 232.55 148.127 231.57L148.561 228.238H153.265V235H152.215V229.162H149.485L149.177 231.696C149.027 232.937 148.766 233.829 148.393 234.37C148.019 234.902 147.501 235.168 146.839 235.168Z" fill="#686565"/>
<g opacity="0.7">
<path fill-rule="evenodd" clip-rule="evenodd" d="M611.343 229L616.293 233.95L617 234.657L617.707 233.95L622.657 229L621.95 228.293L617 233.243L612.05 228.293L611.343 229Z" fill="#686565"/>
</g>
<rect width="126" height="42" transform="translate(510 283)" fill="#0057B6"/>
<path d="M539.546 309H538.301V300.105H532.451V309H531.206V298.995H539.546V309ZM545.41 309.18C544.39 309.18 543.575 308.755 542.965 307.905V311.76H541.84V301.755H542.965V302.835C543.235 302.455 543.585 302.15 544.015 301.92C544.445 301.69 544.91 301.575 545.41 301.575C546.37 301.575 547.145 301.92 547.735 302.61C548.335 303.29 548.635 304.21 548.635 305.37C548.635 306.53 548.335 307.455 547.735 308.145C547.145 308.835 546.37 309.18 545.41 309.18ZM545.125 308.175C545.835 308.175 546.4 307.915 546.82 307.395C547.24 306.865 547.45 306.19 547.45 305.37C547.45 304.55 547.24 303.88 546.82 303.36C546.4 302.84 545.835 302.58 545.125 302.58C544.695 302.58 544.275 302.695 543.865 302.925C543.465 303.145 543.165 303.415 542.965 303.735V307.005C543.165 307.335 543.465 307.615 543.865 307.845C544.275 308.065 544.695 308.175 545.125 308.175ZM556.184 308.085C555.534 308.815 554.669 309.18 553.589 309.18C552.509 309.18 551.639 308.815 550.979 308.085C550.329 307.355 550.004 306.45 550.004 305.37C550.004 304.29 550.329 303.39 550.979 302.67C551.639 301.94 552.509 301.575 553.589 301.575C554.669 301.575 555.534 301.94 556.184 302.67C556.844 303.39 557.174 304.29 557.174 305.37C557.174 306.45 556.844 307.355 556.184 308.085ZM551.819 307.365C552.259 307.905 552.849 308.175 553.589 308.175C554.329 308.175 554.914 307.905 555.344 307.365C555.774 306.815 555.989 306.15 555.989 305.37C555.989 304.59 555.774 303.93 555.344 303.39C554.914 302.85 554.329 302.58 553.589 302.58C552.849 302.58 552.259 302.855 551.819 303.405C551.389 303.945 551.174 304.6 551.174 305.37C551.174 306.15 551.389 306.815 551.819 307.365ZM558.153 310.845V308.07C558.523 308 558.813 307.78 559.023 307.41C559.233 307.03 559.403 306.335 559.533 305.325L559.998 301.755H565.038V308.01H565.878V310.845H564.753V309H559.278V310.845H558.153ZM560.988 302.745L560.658 305.46C560.488 306.73 560.138 307.58 559.608 308.01H563.913V302.745H560.988ZM573.176 308.085C572.526 308.815 571.661 309.18 570.581 309.18C569.501 309.18 568.631 308.815 567.971 308.085C567.321 307.355 566.996 306.45 566.996 305.37C566.996 304.29 567.321 303.39 567.971 302.67C568.631 301.94 569.501 301.575 570.581 301.575C571.661 301.575 572.526 301.94 573.176 302.67C573.836 303.39 574.166 304.29 574.166 305.37C574.166 306.45 573.836 307.355 573.176 308.085ZM568.811 307.365C569.251 307.905 569.841 308.175 570.581 308.175C571.321 308.175 571.906 307.905 572.336 307.365C572.766 306.815 572.981 306.15 572.981 305.37C572.981 304.59 572.766 303.93 572.336 303.39C571.906 302.85 571.321 302.58 570.581 302.58C569.841 302.58 569.251 302.855 568.811 303.405C568.381 303.945 568.166 304.6 568.166 305.37C568.166 306.15 568.381 306.815 568.811 307.365ZM575.145 309.18V308.25C575.485 308.25 575.765 308.025 575.985 307.575C576.205 307.125 576.385 306.375 576.525 305.325L576.99 301.755H582.03V309H580.905V302.745H577.98L577.65 305.46C577.49 306.79 577.21 307.745 576.81 308.325C576.41 308.895 575.855 309.18 575.145 309.18ZM584.801 309H583.361L586.586 305.04L583.376 301.755H584.801L587.921 304.95V301.755H589.046V304.935L592.166 301.755H593.591L590.366 305.04L593.606 309H592.166L589.556 305.745L589.046 306.255V309H587.921V306.255L587.411 305.745L584.801 309ZM596.02 309H594.94V301.755H596.065V307.29L599.86 301.755H600.97V309H599.845V303.36L596.02 309ZM605.662 309H604.537V302.745H602.437V301.755H607.777V302.745H605.662V309ZM609.252 301.755H610.377V304.56H613.092C613.812 304.56 614.372 304.775 614.772 305.205C615.172 305.625 615.372 306.15 615.372 306.78C615.372 307.41 615.167 307.94 614.757 308.37C614.357 308.79 613.802 309 613.092 309H609.252V301.755ZM612.972 305.55H610.377V308.01H612.972C613.372 308.01 613.677 307.9 613.887 307.68C614.107 307.45 614.217 307.15 614.217 306.78C614.217 306.41 614.107 306.115 613.887 305.895C613.677 305.665 613.372 305.55 612.972 305.55Z" fill="white"/>
<path d="M34.0889 181.516H32.5771V187H30.3623V174.203H32.5771V179.582H33.7988L37.5605 174.203H40.2852L35.8906 180.329L40.6719 187H38L34.0889 181.516ZM44.6709 183.941L46.6045 177.49H48.8809L45.1016 188.441C44.5215 190.041 43.5371 190.841 42.1484 190.841C41.8379 190.841 41.4951 190.788 41.1201 190.683V189.03L41.5244 189.057C42.0635 189.057 42.4678 188.957 42.7373 188.758C43.0127 188.564 43.2295 188.236 43.3877 187.773L43.6953 186.956L40.3555 177.49H42.6582L44.6709 183.941ZM49.6631 185.295C50.2549 184.633 50.6504 184.006 50.8496 183.414C51.0547 182.816 51.1777 182.055 51.2188 181.129L51.3418 177.49H57.9424V185.295H59.2607V189.83H57.1338V187H51.0342V189.83H48.8721L48.8809 185.295H49.6631ZM52.168 185.295H55.8154V179.327H53.416L53.3545 181.146C53.2725 182.893 52.877 184.275 52.168 185.295ZM66.4678 187C66.374 186.818 66.292 186.522 66.2217 186.112C65.542 186.821 64.71 187.176 63.7256 187.176C62.7705 187.176 61.9912 186.903 61.3877 186.358C60.7842 185.813 60.4824 185.14 60.4824 184.337C60.4824 183.323 60.8574 182.547 61.6074 182.008C62.3633 181.463 63.4414 181.19 64.8418 181.19H66.1514V180.566C66.1514 180.074 66.0137 179.682 65.7383 179.389C65.4629 179.09 65.0439 178.94 64.4814 178.94C63.9951 178.94 63.5967 179.063 63.2861 179.31C62.9756 179.55 62.8203 179.857 62.8203 180.232H60.6846C60.6846 179.711 60.8574 179.225 61.2031 178.773C61.5488 178.316 62.0176 177.959 62.6094 177.701C63.207 177.443 63.8721 177.314 64.6045 177.314C65.7178 177.314 66.6055 177.596 67.2676 178.158C67.9297 178.715 68.2695 179.5 68.2871 180.514V184.803C68.2871 185.658 68.4072 186.341 68.6475 186.851V187H66.4678ZM64.1211 185.462C64.543 185.462 64.9385 185.359 65.3076 185.154C65.6826 184.949 65.9639 184.674 66.1514 184.328V182.535H65C64.209 182.535 63.6143 182.673 63.2158 182.948C62.8174 183.224 62.6182 183.613 62.6182 184.117C62.6182 184.527 62.7529 184.855 63.0225 185.102C63.2979 185.342 63.6641 185.462 64.1211 185.462ZM83.0615 187H80.9258V183.159H77.2256V187H75.0898V177.49H77.2256V181.454H80.9258V177.49H83.0615V187ZM91.0244 187C90.9307 186.818 90.8486 186.522 90.7783 186.112C90.0986 186.821 89.2666 187.176 88.2822 187.176C87.3271 187.176 86.5479 186.903 85.9443 186.358C85.3408 185.813 85.0391 185.14 85.0391 184.337C85.0391 183.323 85.4141 182.547 86.1641 182.008C86.9199 181.463 87.998 181.19 89.3984 181.19H90.708V180.566C90.708 180.074 90.5703 179.682 90.2949 179.389C90.0195 179.09 89.6006 178.94 89.0381 178.94C88.5518 178.94 88.1533 179.063 87.8428 179.31C87.5322 179.55 87.377 179.857 87.377 180.232H85.2412C85.2412 179.711 85.4141 179.225 85.7598 178.773C86.1055 178.316 86.5742 177.959 87.166 177.701C87.7637 177.443 88.4287 177.314 89.1611 177.314C90.2744 177.314 91.1621 177.596 91.8242 178.158C92.4863 178.715 92.8262 179.5 92.8438 180.514V184.803C92.8438 185.658 92.9639 186.341 93.2041 186.851V187H91.0244ZM88.6777 185.462C89.0996 185.462 89.4951 185.359 89.8643 185.154C90.2393 184.949 90.5205 184.674 90.708 184.328V182.535H89.5566C88.7656 182.535 88.1709 182.673 87.7725 182.948C87.374 183.224 87.1748 183.613 87.1748 184.117C87.1748 184.527 87.3096 184.855 87.5791 185.102C87.8545 185.342 88.2207 185.462 88.6777 185.462ZM103.145 187H101.009V179.213H97.2998V187H95.1641V177.49H103.145V187ZM113.744 182.342C113.744 183.812 113.41 184.987 112.742 185.866C112.074 186.739 111.178 187.176 110.053 187.176C109.01 187.176 108.175 186.833 107.548 186.147V190.656H105.412V177.49H107.381L107.469 178.457C108.096 177.695 108.948 177.314 110.026 177.314C111.187 177.314 112.095 177.748 112.751 178.615C113.413 179.477 113.744 180.675 113.744 182.21V182.342ZM111.617 182.157C111.617 181.208 111.427 180.455 111.046 179.898C110.671 179.342 110.132 179.063 109.429 179.063C108.556 179.063 107.929 179.424 107.548 180.145V184.363C107.935 185.102 108.567 185.471 109.446 185.471C110.126 185.471 110.656 185.198 111.037 184.653C111.424 184.103 111.617 183.271 111.617 182.157ZM121.241 187C121.147 186.818 121.065 186.522 120.995 186.112C120.315 186.821 119.483 187.176 118.499 187.176C117.544 187.176 116.765 186.903 116.161 186.358C115.558 185.813 115.256 185.14 115.256 184.337C115.256 183.323 115.631 182.547 116.381 182.008C117.137 181.463 118.215 181.19 119.615 181.19H120.925V180.566C120.925 180.074 120.787 179.682 120.512 179.389C120.236 179.09 119.817 178.94 119.255 178.94C118.769 178.94 118.37 179.063 118.06 179.31C117.749 179.55 117.594 179.857 117.594 180.232H115.458C115.458 179.711 115.631 179.225 115.977 178.773C116.322 178.316 116.791 177.959 117.383 177.701C117.98 177.443 118.646 177.314 119.378 177.314C120.491 177.314 121.379 177.596 122.041 178.158C122.703 178.715 123.043 179.5 123.061 180.514V184.803C123.061 185.658 123.181 186.341 123.421 186.851V187H121.241ZM118.895 185.462C119.316 185.462 119.712 185.359 120.081 185.154C120.456 184.949 120.737 184.674 120.925 184.328V182.535H119.773C118.982 182.535 118.388 182.673 117.989 182.948C117.591 183.224 117.392 183.613 117.392 184.117C117.392 184.527 117.526 184.855 117.796 185.102C118.071 185.342 118.438 185.462 118.895 185.462ZM125.46 187V177.49H129.318C130.619 177.49 131.609 177.719 132.289 178.176C132.969 178.627 133.309 179.277 133.309 180.127C133.309 180.566 133.171 180.962 132.896 181.313C132.626 181.659 132.225 181.926 131.691 182.113C132.312 182.242 132.805 182.503 133.168 182.896C133.531 183.288 133.713 183.751 133.713 184.284C133.713 185.169 133.385 185.843 132.729 186.306C132.078 186.769 131.141 187 129.916 187H125.46ZM127.596 182.948V185.312H129.934C131.029 185.312 131.577 184.92 131.577 184.135C131.577 183.344 131.021 182.948 129.907 182.948H127.596ZM127.596 181.419H129.354C130.566 181.419 131.173 181.062 131.173 180.347C131.173 179.597 130.599 179.21 129.45 179.187H127.596V181.419ZM141.5 177.49H143.627V187H141.5V180.654L137.773 187H135.646V177.49H137.773V183.836L141.5 177.49ZM153.383 179.187H150.298V187H148.162V179.187H145.112V177.49H153.383V179.187ZM157.109 180.514H159.201C159.98 180.514 160.66 180.648 161.24 180.918C161.82 181.188 162.26 181.565 162.559 182.052C162.863 182.538 163.016 183.104 163.016 183.748C163.016 184.727 162.67 185.512 161.979 186.104C161.287 186.695 160.367 186.994 159.219 187H154.974V177.49H157.109V180.514ZM157.109 182.228V185.295H159.192C159.714 185.295 160.124 185.166 160.423 184.908C160.728 184.645 160.88 184.272 160.88 183.792C160.88 183.312 160.73 182.934 160.432 182.658C160.139 182.377 159.74 182.233 159.236 182.228H157.109ZM175.145 177.49H177.271V187H175.145V180.654L171.418 187H169.291V177.49H171.418V183.836L175.145 177.49ZM179.583 185.295C180.175 184.633 180.57 184.006 180.77 183.414C180.975 182.816 181.098 182.055 181.139 181.129L181.262 177.49H187.862V185.295H189.181V189.83H187.054V187H180.954V189.83H178.792L178.801 185.295H179.583ZM182.088 185.295H185.735V179.327H183.336L183.274 181.146C183.192 182.893 182.797 184.275 182.088 185.295ZM194.894 187.176C193.54 187.176 192.441 186.751 191.598 185.901C190.76 185.046 190.341 183.909 190.341 182.491V182.228C190.341 181.278 190.522 180.432 190.886 179.688C191.255 178.938 191.771 178.354 192.433 177.938C193.095 177.522 193.833 177.314 194.647 177.314C195.942 177.314 196.941 177.728 197.645 178.554C198.354 179.38 198.708 180.549 198.708 182.061V182.922H192.494C192.559 183.707 192.819 184.328 193.276 184.785C193.739 185.242 194.319 185.471 195.017 185.471C195.995 185.471 196.792 185.075 197.407 184.284L198.559 185.383C198.178 185.951 197.668 186.394 197.029 186.71C196.396 187.021 195.685 187.176 194.894 187.176ZM194.639 179.028C194.053 179.028 193.578 179.233 193.215 179.644C192.857 180.054 192.629 180.625 192.529 181.357H196.599V181.199C196.552 180.484 196.361 179.945 196.027 179.582C195.693 179.213 195.23 179.028 194.639 179.028ZM202.689 181.313H204.482C204.641 180.101 205.109 179.131 205.889 178.404C206.668 177.678 207.652 177.314 208.842 177.314C210.125 177.314 211.165 177.728 211.962 178.554C212.765 179.38 213.198 180.476 213.263 181.841L213.271 182.342C213.271 183.279 213.09 184.117 212.727 184.855C212.369 185.594 211.854 186.165 211.18 186.569C210.512 186.974 209.738 187.176 208.859 187.176C207.629 187.176 206.618 186.795 205.827 186.033C205.042 185.271 204.588 184.27 204.465 183.027H202.689V187H200.554V177.49H202.689V181.313ZM206.565 182.342C206.565 183.32 206.768 184.088 207.172 184.645C207.576 185.195 208.139 185.471 208.859 185.471C209.58 185.471 210.14 185.189 210.538 184.627C210.937 184.064 211.136 183.241 211.136 182.157C211.136 181.179 210.928 180.414 210.512 179.863C210.102 179.307 209.545 179.028 208.842 179.028C208.145 179.028 207.591 179.307 207.181 179.863C206.771 180.414 206.565 181.24 206.565 182.342ZM217.016 183.238C217.016 182.459 217.112 181.838 217.306 181.375C217.499 180.912 217.88 180.405 218.448 179.854C219.022 179.298 219.386 178.902 219.538 178.668C219.772 178.311 219.89 177.924 219.89 177.508C219.89 176.957 219.752 176.538 219.477 176.251C219.207 175.958 218.809 175.812 218.281 175.812C217.777 175.812 217.37 175.955 217.06 176.242C216.755 176.523 216.603 176.907 216.603 177.394H214.467C214.479 176.356 214.83 175.536 215.521 174.933C216.219 174.329 217.139 174.027 218.281 174.027C219.459 174.027 220.376 174.326 221.032 174.924C221.694 175.521 222.025 176.356 222.025 177.429C222.025 178.384 221.58 179.324 220.689 180.25L219.608 181.313C219.222 181.753 219.022 182.395 219.011 183.238H217.016ZM216.866 185.972C216.866 185.626 216.975 185.348 217.191 185.137C217.408 184.92 217.701 184.812 218.07 184.812C218.445 184.812 218.741 184.923 218.958 185.146C219.175 185.362 219.283 185.638 219.283 185.972C219.283 186.294 219.178 186.563 218.967 186.78C218.756 186.997 218.457 187.105 218.07 187.105C217.684 187.105 217.385 186.997 217.174 186.78C216.969 186.563 216.866 186.294 216.866 185.972Z" fill="#484848"/>
<line x1="219" y1="91.5" x2="447" y2="91.5" stroke="#7C8793"/>
<circle cx="225" cy="94" r="19.5" fill="white" stroke="#7C8793"/>
<path d="M225.741 100H223.614V89.7256L220.477 90.7979V88.9961L225.469 87.1592H225.741V100Z" fill="#7C8793"/>
<circle cx="297" cy="94" r="19.5" fill="white" stroke="#7C8793"/>
<path d="M300.562 100H291.958V98.5322L296.221 93.8828C296.836 93.1973 297.272 92.626 297.53 92.1689C297.794 91.7061 297.926 91.2432 297.926 90.7803C297.926 90.1709 297.753 89.6787 297.407 89.3037C297.067 88.9287 296.607 88.7412 296.027 88.7412C295.336 88.7412 294.8 88.9521 294.419 89.374C294.038 89.7959 293.848 90.373 293.848 91.1055H291.712C291.712 90.3262 291.888 89.626 292.239 89.0049C292.597 88.3779 293.104 87.8916 293.76 87.5459C294.422 87.2002 295.184 87.0273 296.045 87.0273C297.287 87.0273 298.266 87.3408 298.98 87.9678C299.701 88.5889 300.062 89.4502 300.062 90.5518C300.062 91.1904 299.88 91.8613 299.517 92.5645C299.159 93.2617 298.57 94.0557 297.75 94.9463L294.621 98.2949H300.562V100Z" fill="#7C8793"/>
<circle cx="369" cy="94" r="20" fill="#0057B6"/>
<path d="M366.428 92.626H367.729C368.385 92.6201 368.903 92.4502 369.284 92.1162C369.671 91.7822 369.864 91.2988 369.864 90.666C369.864 90.0566 369.703 89.585 369.381 89.251C369.064 88.9111 368.578 88.7412 367.922 88.7412C367.348 88.7412 366.876 88.9082 366.507 89.2422C366.138 89.5703 365.953 90.001 365.953 90.5342H363.817C363.817 89.8779 363.99 89.2803 364.336 88.7412C364.688 88.2021 365.174 87.7832 365.795 87.4844C366.422 87.1797 367.122 87.0273 367.896 87.0273C369.173 87.0273 370.175 87.3496 370.901 87.9941C371.634 88.6328 372 89.5234 372 90.666C372 91.2402 371.815 91.7822 371.446 92.292C371.083 92.7959 370.611 93.1768 370.031 93.4346C370.734 93.6748 371.268 94.0527 371.631 94.5684C372 95.084 372.185 95.6992 372.185 96.4141C372.185 97.5625 371.789 98.4766 370.998 99.1562C370.213 99.8359 369.179 100.176 367.896 100.176C366.665 100.176 365.657 99.8477 364.872 99.1914C364.087 98.5352 363.694 97.6621 363.694 96.5723H365.83C365.83 97.1348 366.018 97.5918 366.393 97.9434C366.773 98.2949 367.283 98.4707 367.922 98.4707C368.584 98.4707 369.105 98.2949 369.486 97.9434C369.867 97.5918 370.058 97.082 370.058 96.4141C370.058 95.7402 369.858 95.2217 369.46 94.8584C369.062 94.4951 368.47 94.3135 367.685 94.3135H366.428V92.626Z" fill="white"/>
<circle cx="441" cy="94" r="19.5" fill="white" stroke="#7C8793"/>
<path d="M443.183 95.4385H444.773V97.1523H443.183V100H441.047V97.1523H435.519L435.457 95.8516L440.977 87.2031H443.183V95.4385ZM437.698 95.4385H441.047V90.0947L440.889 90.376L437.698 95.4385Z" fill="#7C8793"/>
<defs>
<filter id="filter0_d" x="0" y="142" width="666" height="215" filterUnits="userSpaceOnUse" color-interpolation-filters="sRGB">
<feFlood flood-opacity="0" result="BackgroundImageFix"/>
<feColorMatrix in="SourceAlpha" type="matrix" values="0 0 0 0 0 0 0 0 0 0 0 0 0 0 0 0 0 0 127 0"/>
<feOffset dy="2"/>
<feGaussianBlur stdDeviation="2.5"/>
<feColorMatrix type="matrix" values="0 0 0 0 0.4125 0 0 0 0 0.4125 0 0 0 0 0.4125 0 0 0 0.1 0"/>
<feBlend mode="normal" in2="BackgroundImageFix" result="effect1_dropShadow"/>
<feBlend mode="normal" in="SourceGraphic" in2="effect1_dropShadow" result="shape"/>
</filter>
</defs>
</svg>
