<svg width="666" height="263" viewBox="0 0 666 263" fill="none" xmlns="http://www.w3.org/2000/svg">
<rect x="5.5" y="0.5" width="655" height="57" rx="4.5" fill="white" stroke="#D7DEE9"/>
<path d="M39.892 38.336C37.0547 38.336 34.684 37.44 32.78 35.648C30.8947 33.8373 29.952 31.5133 29.952 28.676C29.952 25.8387 30.8947 23.524 32.78 21.732C34.684 19.9213 37.0547 19.016 39.892 19.016C43.3827 19.016 45.9867 20.5373 47.704 23.58L44.288 25.26C43.8773 24.476 43.2707 23.832 42.468 23.328C41.684 22.8053 40.8253 22.544 39.892 22.544C38.1933 22.544 36.7933 23.1227 35.692 24.28C34.5907 25.4373 34.04 26.9027 34.04 28.676C34.04 30.4493 34.5907 31.9147 35.692 33.072C36.7933 34.2293 38.1933 34.808 39.892 34.808C40.8253 34.808 41.684 34.556 42.468 34.052C43.2707 33.548 43.8773 32.8947 44.288 32.092L47.704 33.744C45.9307 36.8053 43.3267 38.336 39.892 38.336ZM61.4667 36.292C60.16 37.6547 58.424 38.336 56.2587 38.336C54.0933 38.336 52.3573 37.6547 51.0507 36.292C49.7627 34.9107 49.1187 33.2213 49.1187 31.224C49.1187 29.2267 49.7627 27.5467 51.0507 26.184C52.3573 24.8213 54.0933 24.14 56.2587 24.14C58.424 24.14 60.16 24.8213 61.4667 26.184C62.7733 27.5467 63.4267 29.2267 63.4267 31.224C63.4267 33.2213 62.7733 34.9107 61.4667 36.292ZM53.7387 34.052C54.3547 34.7987 55.1947 35.172 56.2587 35.172C57.3227 35.172 58.1627 34.7987 58.7787 34.052C59.4133 33.2867 59.7307 32.344 59.7307 31.224C59.7307 30.1227 59.4133 29.1987 58.7787 28.452C58.1627 27.6867 57.3227 27.304 56.2587 27.304C55.1947 27.304 54.3547 27.6867 53.7387 28.452C53.1227 29.1987 52.8147 30.1227 52.8147 31.224C52.8147 32.344 53.1227 33.2867 53.7387 34.052ZM70.9928 38.336C68.2674 38.336 66.1674 37.6173 64.6928 36.18L66.3168 33.968C67.5301 34.9947 69.0888 35.508 70.9928 35.508C71.8888 35.508 72.5794 35.3773 73.0648 35.116C73.5501 34.8547 73.7928 34.5 73.7928 34.052C73.7928 33.044 72.7848 32.54 70.7688 32.54H67.9968V29.796H70.7688C72.6168 29.796 73.5408 29.3107 73.5408 28.34C73.5408 27.9293 73.2888 27.6027 72.7848 27.36C72.2808 27.0987 71.6274 26.968 70.8248 26.968C69.0701 26.968 67.6701 27.4813 66.6248 28.508L64.8888 26.408C66.3821 24.9147 68.2954 24.168 70.6288 24.168C72.7194 24.1493 74.3434 24.476 75.5008 25.148C76.6581 25.8013 77.2368 26.7067 77.2368 27.864C77.2368 28.6853 76.8914 29.3853 76.2008 29.964C75.5101 30.5427 74.6794 30.9067 73.7088 31.056C74.6608 31.112 75.5288 31.4293 76.3128 32.008C77.1154 32.5867 77.5168 33.3427 77.5168 34.276C77.5168 35.4893 76.9288 36.4693 75.7528 37.216C74.5768 37.9627 72.9901 38.336 70.9928 38.336ZM78.9142 41.444V35.032C79.3248 34.9573 79.6422 34.8267 79.8662 34.64C80.1088 34.4347 80.3328 34.052 80.5382 33.492C80.7622 32.9133 80.9395 32.092 81.0702 31.028L81.9382 24.476H92.8862V34.892H94.3702V41.444H90.8142V38H82.4982V41.444H78.9142ZM85.0462 27.584L84.6262 31.252C84.4395 32.876 83.9168 34.0893 83.0582 34.892H89.3302V27.584H85.0462ZM108.284 38H104.728V36.6C103.757 37.7573 102.329 38.336 100.444 38.336C99.2304 38.336 98.1384 37.944 97.1678 37.16C96.2158 36.3573 95.7398 35.256 95.7398 33.856C95.7398 32.4 96.2064 31.308 97.1398 30.58C98.0918 29.852 99.1931 29.488 100.444 29.488C102.366 29.488 103.794 30.0387 104.728 31.14V29.32C104.728 28.6293 104.457 28.0787 103.916 27.668C103.374 27.2573 102.656 27.052 101.76 27.052C100.285 27.052 98.9691 27.584 97.8118 28.648L96.4678 26.268C98.0731 24.8493 100.042 24.14 102.376 24.14C104.112 24.14 105.53 24.5413 106.632 25.344C107.733 26.1467 108.284 27.4533 108.284 29.264V38ZM101.872 35.928C103.197 35.928 104.149 35.536 104.728 34.752V33.072C104.149 32.288 103.197 31.896 101.872 31.896C101.144 31.896 100.537 32.0827 100.052 32.456C99.5664 32.8107 99.3238 33.3053 99.3238 33.94C99.3238 34.556 99.5664 35.0413 100.052 35.396C100.537 35.7507 101.144 35.928 101.872 35.928ZM117.887 38H114.303V27.584H110.523V24.476H121.667V27.584H117.887V38ZM123.897 24.476H127.453V29.124H132.073C133.566 29.124 134.723 29.544 135.545 30.384C136.366 31.224 136.777 32.2787 136.777 33.548C136.777 34.7987 136.357 35.8533 135.517 36.712C134.677 37.5707 133.529 38 132.073 38H123.897V24.476ZM131.541 32.092H127.453V35.004H131.541C132.026 35.004 132.409 34.8733 132.689 34.612C132.987 34.332 133.137 33.9773 133.137 33.548C133.137 33.1187 132.987 32.7733 132.689 32.512C132.409 32.232 132.026 32.092 131.541 32.092ZM149.953 38H146.537V24.476H150.093V32.652L155.665 24.476H159.249V38H155.693V29.516L149.953 38ZM161.52 41.444V35.032C161.93 34.9573 162.248 34.8267 162.472 34.64C162.714 34.4347 162.938 34.052 163.144 33.492C163.368 32.9133 163.545 32.092 163.676 31.028L164.544 24.476H175.492V34.892H176.976V41.444H173.42V38H165.104V41.444H161.52ZM167.652 27.584L167.232 31.252C167.045 32.876 166.522 34.0893 165.664 34.892H171.936V27.584H167.652ZM185.569 38.336C183.479 38.336 181.752 37.6827 180.389 36.376C179.027 35.0693 178.345 33.352 178.345 31.224C178.345 29.2267 178.999 27.5467 180.305 26.184C181.631 24.8213 183.311 24.14 185.345 24.14C187.361 24.14 188.995 24.8307 190.245 26.212C191.496 27.5747 192.121 29.3667 192.121 31.588V32.372H182.069C182.181 33.268 182.583 34.0147 183.273 34.612C183.964 35.2093 184.86 35.508 185.961 35.508C186.559 35.508 187.203 35.3867 187.893 35.144C188.603 34.9013 189.163 34.5747 189.573 34.164L191.141 36.46C189.779 37.7107 187.921 38.336 185.569 38.336ZM188.677 29.964C188.621 29.1987 188.313 28.508 187.753 27.892C187.212 27.276 186.409 26.968 185.345 26.968C184.337 26.968 183.553 27.276 182.993 27.892C182.433 28.4893 182.107 29.18 182.013 29.964H188.677ZM207.514 38.336C205.628 38.336 204.06 37.804 202.81 36.74C201.559 35.6573 200.784 34.276 200.486 32.596H198.246V38H194.69V24.476H198.246V29.488H200.57C200.924 27.92 201.718 26.6413 202.95 25.652C204.182 24.644 205.703 24.14 207.514 24.14C209.679 24.14 211.415 24.8213 212.722 26.184C214.028 27.5467 214.682 29.2267 214.682 31.224C214.682 33.2213 214.028 34.9107 212.722 36.292C211.415 37.6547 209.679 38.336 207.514 38.336ZM207.514 35.172C208.596 35.172 209.446 34.7987 210.062 34.052C210.678 33.2867 210.986 32.344 210.986 31.224C210.986 30.1227 210.678 29.1987 210.062 28.452C209.446 27.6867 208.596 27.304 207.514 27.304C206.45 27.304 205.61 27.6867 204.994 28.452C204.378 29.1987 204.07 30.1227 204.07 31.224C204.07 32.344 204.378 33.2867 204.994 34.052C205.61 34.7987 206.45 35.172 207.514 35.172Z" fill="#262C40"/>
<g filter="url(#filter0_d)">
<rect x="5" y="83" width="656" height="173" rx="5" fill="white"/>
<rect x="5.5" y="83.5" width="655" height="172" rx="4.5" stroke="#D7DEE9"/>
</g>
<rect width="194" height="42" transform="translate(442 189)" fill="#0057B6"/>
<path d="M468.214 215H463.654V204.995H468.109C468.969 204.995 469.649 205.23 470.149 205.7C470.659 206.17 470.914 206.785 470.914 207.545C470.914 208.145 470.744 208.655 470.404 209.075C470.064 209.485 469.649 209.74 469.159 209.84C469.689 209.92 470.144 210.2 470.524 210.68C470.914 211.16 471.109 211.7 471.109 212.3C471.109 213.11 470.849 213.765 470.329 214.265C469.819 214.755 469.114 215 468.214 215ZM467.899 209.33C468.449 209.33 468.874 209.18 469.174 208.88C469.474 208.58 469.624 208.195 469.624 207.725C469.624 207.255 469.469 206.87 469.159 206.57C468.859 206.26 468.439 206.105 467.899 206.105H464.899V209.33H467.899ZM467.959 213.89C468.539 213.89 468.994 213.735 469.324 213.425C469.654 213.115 469.819 212.695 469.819 212.165C469.819 211.675 469.654 211.265 469.324 210.935C469.004 210.605 468.549 210.44 467.959 210.44H464.899V213.89H467.959ZM476.312 215.18C475.232 215.18 474.347 214.83 473.657 214.13C472.967 213.42 472.622 212.5 472.622 211.37C472.622 210.31 472.962 209.415 473.642 208.685C474.322 207.945 475.172 207.575 476.192 207.575C477.262 207.575 478.107 207.945 478.727 208.685C479.357 209.415 479.672 210.34 479.672 211.46V211.745H473.807C473.857 212.455 474.117 213.05 474.587 213.53C475.057 214.01 475.667 214.25 476.417 214.25C477.317 214.25 478.062 213.945 478.652 213.335L479.192 214.07C478.452 214.81 477.492 215.18 476.312 215.18ZM478.562 210.92C478.552 210.3 478.342 209.745 477.932 209.255C477.522 208.755 476.937 208.505 476.177 208.505C475.457 208.505 474.887 208.75 474.467 209.24C474.057 209.73 473.837 210.29 473.807 210.92H478.562ZM485.065 215.18C484.045 215.18 483.23 214.755 482.62 213.905V217.76H481.495V207.755H482.62V208.835C482.89 208.455 483.24 208.15 483.67 207.92C484.1 207.69 484.565 207.575 485.065 207.575C486.025 207.575 486.8 207.92 487.39 208.61C487.99 209.29 488.29 210.21 488.29 211.37C488.29 212.53 487.99 213.455 487.39 214.145C486.8 214.835 486.025 215.18 485.065 215.18ZM484.78 214.175C485.49 214.175 486.055 213.915 486.475 213.395C486.895 212.865 487.105 212.19 487.105 211.37C487.105 210.55 486.895 209.88 486.475 209.36C486.055 208.84 485.49 208.58 484.78 208.58C484.35 208.58 483.93 208.695 483.52 208.925C483.12 209.145 482.82 209.415 482.62 209.735V213.005C482.82 213.335 483.12 213.615 483.52 213.845C483.93 214.065 484.35 214.175 484.78 214.175ZM491.204 215H490.079V207.755H491.204V210.77H494.984V207.755H496.109V215H494.984V211.76H491.204V215ZM497.95 217.835L498.13 216.815C498.31 216.895 498.515 216.935 498.745 216.935C499.005 216.935 499.22 216.88 499.39 216.77C499.56 216.66 499.705 216.46 499.825 216.17L500.305 215.075L497.275 207.755H498.49L500.905 213.695L503.305 207.755H504.535L500.905 216.47C500.505 217.43 499.795 217.92 498.775 217.94C498.475 217.94 498.2 217.905 497.95 217.835ZM508.153 215H507.028V208.745H504.928V207.755H510.268V208.745H508.153V215ZM511.744 207.755H512.869V210.56H515.584C516.304 210.56 516.864 210.775 517.264 211.205C517.664 211.625 517.864 212.15 517.864 212.78C517.864 213.41 517.659 213.94 517.249 214.37C516.849 214.79 516.294 215 515.584 215H511.744V207.755ZM515.464 211.55H512.869V214.01H515.464C515.864 214.01 516.169 213.9 516.379 213.68C516.599 213.45 516.709 213.15 516.709 212.78C516.709 212.41 516.599 212.115 516.379 211.895C516.169 211.665 515.864 211.55 515.464 211.55ZM522.776 215.18C521.706 215.18 520.836 214.82 520.166 214.1C519.496 213.37 519.161 212.46 519.161 211.37C519.161 210.28 519.496 209.375 520.166 208.655C520.836 207.935 521.706 207.575 522.776 207.575C523.896 207.575 524.781 207.995 525.431 208.835L524.681 209.525C524.221 208.895 523.606 208.58 522.836 208.58C522.076 208.58 521.466 208.84 521.006 209.36C520.556 209.88 520.331 210.55 520.331 211.37C520.331 212.19 520.556 212.865 521.006 213.395C521.466 213.915 522.076 214.175 522.836 214.175C523.596 214.175 524.211 213.86 524.681 213.23L525.431 213.92C524.781 214.76 523.896 215.18 522.776 215.18ZM528.087 215H526.767L528.702 212.15C528.152 212.08 527.702 211.85 527.352 211.46C527.012 211.07 526.842 210.575 526.842 209.975C526.842 209.335 527.047 208.805 527.457 208.385C527.867 207.965 528.427 207.755 529.137 207.755H532.962V215H531.837V212.195H529.857L528.087 215ZM529.257 211.205H531.837V208.745H529.257C528.867 208.745 528.557 208.86 528.327 209.09C528.107 209.31 527.997 209.605 527.997 209.975C527.997 210.345 528.107 210.645 528.327 210.875C528.547 211.095 528.857 211.205 529.257 211.205ZM540.203 215H539.078V207.755H540.203V210.77H543.983V207.755H545.108V215H543.983V211.76H540.203V215ZM553.009 215H551.884V214.175C551.274 214.845 550.474 215.18 549.484 215.18C548.814 215.18 548.224 214.965 547.714 214.535C547.204 214.105 546.949 213.52 546.949 212.78C546.949 212.02 547.199 211.435 547.699 211.025C548.209 210.605 548.804 210.395 549.484 210.395C550.514 210.395 551.314 210.725 551.884 211.385V210.08C551.884 209.6 551.714 209.225 551.374 208.955C551.034 208.685 550.594 208.55 550.054 208.55C549.204 208.55 548.464 208.885 547.834 209.555L547.309 208.775C548.079 207.975 549.044 207.575 550.204 207.575C551.034 207.575 551.709 207.775 552.229 208.175C552.749 208.575 553.009 209.19 553.009 210.02V215ZM549.889 214.37C550.789 214.37 551.454 214.07 551.884 213.47V212.105C551.454 211.505 550.789 211.205 549.889 211.205C549.369 211.205 548.939 211.355 548.599 211.655C548.269 211.945 548.104 212.325 548.104 212.795C548.104 213.255 548.269 213.635 548.599 213.935C548.939 214.225 549.369 214.37 549.889 214.37ZM564.201 207.755V208.745H560.256V215H559.131V207.755H564.201ZM564.165 215.18V214.25C564.505 214.25 564.785 214.025 565.005 213.575C565.225 213.125 565.405 212.375 565.545 211.325L566.01 207.755H571.05V215H569.925V208.745H567L566.67 211.46C566.51 212.79 566.23 213.745 565.83 214.325C565.43 214.895 564.875 215.18 564.165 215.18ZM578.951 215H577.826V214.175C577.216 214.845 576.416 215.18 575.426 215.18C574.756 215.18 574.166 214.965 573.656 214.535C573.146 214.105 572.891 213.52 572.891 212.78C572.891 212.02 573.141 211.435 573.641 211.025C574.151 210.605 574.746 210.395 575.426 210.395C576.456 210.395 577.256 210.725 577.826 211.385V210.08C577.826 209.6 577.656 209.225 577.316 208.955C576.976 208.685 576.536 208.55 575.996 208.55C575.146 208.55 574.406 208.885 573.776 209.555L573.251 208.775C574.021 207.975 574.986 207.575 576.146 207.575C576.976 207.575 577.651 207.775 578.171 208.175C578.691 208.575 578.951 209.19 578.951 210.02V215ZM575.831 214.37C576.731 214.37 577.396 214.07 577.826 213.47V212.105C577.396 211.505 576.731 211.205 575.831 211.205C575.311 211.205 574.881 211.355 574.541 211.655C574.211 211.945 574.046 212.325 574.046 212.795C574.046 213.255 574.211 213.635 574.541 213.935C574.881 214.225 575.311 214.37 575.831 214.37ZM585.272 215H581.207V207.755H585.197C585.827 207.755 586.322 207.925 586.682 208.265C587.052 208.605 587.237 209.055 587.237 209.615C587.237 210.025 587.122 210.38 586.892 210.68C586.672 210.97 586.397 211.165 586.067 211.265C586.437 211.355 586.747 211.57 586.997 211.91C587.257 212.25 587.387 212.625 587.387 213.035C587.387 213.625 587.197 214.1 586.817 214.46C586.447 214.82 585.932 215 585.272 215ZM585.047 214.01C585.407 214.01 585.692 213.91 585.902 213.71C586.112 213.51 586.217 213.24 586.217 212.9C586.217 212.59 586.112 212.325 585.902 212.105C585.692 211.885 585.407 211.775 585.047 211.775H582.332V214.01H585.047ZM585.002 210.785C585.342 210.785 585.607 210.695 585.797 210.515C585.987 210.325 586.082 210.08 586.082 209.78C586.082 209.46 585.987 209.21 585.797 209.03C585.607 208.84 585.342 208.745 585.002 208.745H582.332V210.785H585.002ZM590.637 215H589.512V207.755H590.637V210.77H594.417V207.755H595.542V215H594.417V211.76H590.637V215ZM597.384 217.835L597.564 216.815C597.744 216.895 597.949 216.935 598.179 216.935C598.439 216.935 598.654 216.88 598.824 216.77C598.994 216.66 599.139 216.46 599.259 216.17L599.739 215.075L596.709 207.755H597.924L600.339 213.695L602.739 207.755H603.969L600.339 216.47C599.939 217.43 599.229 217.92 598.209 217.94C597.909 217.94 597.634 217.905 597.384 217.835ZM611.217 215.18C610.217 215.18 609.392 214.86 608.742 214.22C608.102 213.57 607.742 212.75 607.662 211.76H606.267V215H605.142V207.755H606.267V210.77H607.677C607.797 209.84 608.172 209.075 608.802 208.475C609.442 207.875 610.247 207.575 611.217 207.575C612.297 207.575 613.167 207.94 613.827 208.67C614.487 209.39 614.817 210.29 614.817 211.37C614.817 212.45 614.487 213.355 613.827 214.085C613.167 214.815 612.297 215.18 611.217 215.18ZM611.217 214.175C611.967 214.175 612.557 213.905 612.987 213.365C613.417 212.815 613.632 212.15 613.632 211.37C613.632 210.59 613.417 209.93 612.987 209.39C612.557 208.85 611.967 208.58 611.217 208.58C610.487 208.58 609.902 208.855 609.462 209.405C609.032 209.945 608.817 210.6 608.817 211.37C608.817 212.15 609.032 212.815 609.462 213.365C609.892 213.905 610.477 214.175 611.217 214.175Z" fill="white"/>
<path d="M40.0654 124.834C39.9365 126.199 39.4326 127.266 38.5537 128.033C37.6748 128.795 36.5059 129.176 35.0469 129.176C34.0273 129.176 33.1279 128.936 32.3486 128.455C31.5752 127.969 30.9775 127.28 30.5557 126.39C30.1338 125.499 29.9141 124.465 29.8965 123.287V122.092C29.8965 120.885 30.1104 119.821 30.5381 118.901C30.9658 117.981 31.5781 117.272 32.375 116.774C33.1777 116.276 34.1035 116.027 35.1523 116.027C36.5645 116.027 37.7012 116.411 38.5625 117.179C39.4238 117.946 39.9248 119.03 40.0654 120.431H37.8506C37.7451 119.511 37.4756 118.849 37.042 118.444C36.6143 118.034 35.9844 117.829 35.1523 117.829C34.1855 117.829 33.4414 118.184 32.9199 118.893C32.4043 119.596 32.1406 120.63 32.1289 121.995V123.129C32.1289 124.512 32.375 125.566 32.8672 126.293C33.3652 127.02 34.0918 127.383 35.0469 127.383C35.9199 127.383 36.5762 127.187 37.0156 126.794C37.4551 126.401 37.7334 125.748 37.8506 124.834H40.0654ZM49.918 129H47.7822V121.213H44.0732V129H41.9375V119.49H49.918V129ZM57.8721 129C57.7783 128.818 57.6963 128.522 57.626 128.112C56.9463 128.821 56.1143 129.176 55.1299 129.176C54.1748 129.176 53.3955 128.903 52.792 128.358C52.1885 127.813 51.8867 127.14 51.8867 126.337C51.8867 125.323 52.2617 124.547 53.0117 124.008C53.7676 123.463 54.8457 123.19 56.2461 123.19H57.5557V122.566C57.5557 122.074 57.418 121.682 57.1426 121.389C56.8672 121.09 56.4482 120.94 55.8857 120.94C55.3994 120.94 55.001 121.063 54.6904 121.31C54.3799 121.55 54.2246 121.857 54.2246 122.232H52.0889C52.0889 121.711 52.2617 121.225 52.6074 120.773C52.9531 120.316 53.4219 119.959 54.0137 119.701C54.6113 119.443 55.2764 119.314 56.0088 119.314C57.1221 119.314 58.0098 119.596 58.6719 120.158C59.334 120.715 59.6738 121.5 59.6914 122.514V126.803C59.6914 127.658 59.8115 128.341 60.0518 128.851V129H57.8721ZM55.5254 127.462C55.9473 127.462 56.3428 127.359 56.7119 127.154C57.0869 126.949 57.3682 126.674 57.5557 126.328V124.535H56.4043C55.6133 124.535 55.0186 124.673 54.6201 124.948C54.2217 125.224 54.0225 125.613 54.0225 126.117C54.0225 126.527 54.1572 126.855 54.4268 127.102C54.7021 127.342 55.0684 127.462 55.5254 127.462ZM65.835 127.471C66.3682 127.471 66.8105 127.315 67.1621 127.005C67.5137 126.694 67.7012 126.311 67.7246 125.854H69.7373C69.7139 126.445 69.5293 126.999 69.1836 127.515C68.8379 128.024 68.3691 128.429 67.7773 128.728C67.1855 129.026 66.5469 129.176 65.8613 129.176C64.5312 129.176 63.4766 128.745 62.6973 127.884C61.918 127.022 61.5283 125.833 61.5283 124.315V124.096C61.5283 122.648 61.915 121.491 62.6885 120.624C63.4619 119.751 64.5166 119.314 65.8525 119.314C66.9834 119.314 67.9033 119.646 68.6123 120.308C69.3271 120.964 69.7021 121.828 69.7373 122.9H67.7246C67.7012 122.355 67.5137 121.907 67.1621 121.556C66.8164 121.204 66.374 121.028 65.835 121.028C65.1436 121.028 64.6104 121.28 64.2354 121.784C63.8604 122.282 63.6699 123.041 63.6641 124.061V124.403C63.6641 125.435 63.8486 126.205 64.2178 126.715C64.5928 127.219 65.1318 127.471 65.835 127.471ZM77.2871 119.49H79.4141V129H77.2871V122.654L73.5605 129H71.4336V119.49H73.5605V125.836L77.2871 119.49ZM86.1641 120.018C87.3594 120.018 88.3174 120.419 89.0381 121.222C89.7588 122.019 90.1191 123.103 90.1191 124.474V124.579C90.1191 125.95 89.7266 127.061 88.9414 127.91C88.1621 128.76 87.1016 129.185 85.7598 129.185C84.4531 129.185 83.3984 128.751 82.5957 127.884C81.793 127.017 81.3916 125.833 81.3916 124.333V123.718C81.3916 121.667 81.7549 120.044 82.4814 118.849C83.208 117.653 84.292 116.906 85.7334 116.607C86.542 116.443 87.0635 116.271 87.2979 116.089C87.5381 115.901 87.6582 115.649 87.6582 115.333H89.3809C89.3809 115.925 89.2842 116.405 89.0908 116.774C88.8975 117.144 88.6016 117.445 88.2031 117.68C87.8047 117.908 87.1191 118.125 86.1465 118.33C85.2559 118.518 84.5762 118.852 84.1074 119.332C83.6445 119.812 83.334 120.478 83.1758 121.327C84.0254 120.454 85.0215 120.018 86.1641 120.018ZM85.7422 121.731C85.0508 121.731 84.5088 121.966 84.1162 122.435C83.7236 122.897 83.5273 123.612 83.5273 124.579C83.5273 125.493 83.7207 126.205 84.1074 126.715C84.4941 127.225 85.0449 127.479 85.7598 127.479C86.4688 127.479 87.0166 127.225 87.4033 126.715C87.7959 126.199 87.9922 125.426 87.9922 124.395C87.9922 123.574 87.7959 122.927 87.4033 122.452C87.0166 121.972 86.4629 121.731 85.7422 121.731ZM91.3936 124.157C91.3936 123.226 91.5781 122.388 91.9473 121.644C92.3164 120.894 92.835 120.319 93.5029 119.921C94.1709 119.517 94.9385 119.314 95.8057 119.314C97.0889 119.314 98.1289 119.728 98.9258 120.554C99.7285 121.38 100.162 122.476 100.227 123.841L100.235 124.342C100.235 125.279 100.054 126.117 99.6904 126.855C99.333 127.594 98.8174 128.165 98.1436 128.569C97.4756 128.974 96.7021 129.176 95.8232 129.176C94.4814 129.176 93.4062 128.73 92.5977 127.84C91.7949 126.943 91.3936 125.751 91.3936 124.263V124.157ZM93.5293 124.342C93.5293 125.32 93.7314 126.088 94.1357 126.645C94.54 127.195 95.1025 127.471 95.8232 127.471C96.5439 127.471 97.1035 127.189 97.502 126.627C97.9062 126.064 98.1084 125.241 98.1084 124.157C98.1084 123.196 97.9004 122.435 97.4844 121.872C97.0742 121.31 96.5146 121.028 95.8057 121.028C95.1084 121.028 94.5547 121.307 94.1445 121.863C93.7344 122.414 93.5293 123.24 93.5293 124.342ZM104.305 125.229H102.468L102.266 116.203H104.516L104.305 125.229ZM102.204 127.989C102.204 127.655 102.312 127.38 102.529 127.163C102.746 126.94 103.042 126.829 103.417 126.829C103.792 126.829 104.088 126.94 104.305 127.163C104.521 127.38 104.63 127.655 104.63 127.989C104.63 128.312 104.524 128.581 104.313 128.798C104.103 129.015 103.804 129.123 103.417 129.123C103.03 129.123 102.731 129.015 102.521 128.798C102.31 128.581 102.204 128.312 102.204 127.989Z" fill="#484848"/>
<path d="M34.348 162H30.092V152.662H34.25C35.0527 152.662 35.6873 152.881 36.154 153.32C36.63 153.759 36.868 154.333 36.868 155.042C36.868 155.602 36.7093 156.078 36.392 156.47C36.0747 156.853 35.6873 157.091 35.23 157.184C35.7247 157.259 36.1493 157.52 36.504 157.968C36.868 158.416 37.05 158.92 37.05 159.48C37.05 160.236 36.8073 160.847 36.322 161.314C35.846 161.771 35.188 162 34.348 162ZM34.054 156.708C34.5673 156.708 34.964 156.568 35.244 156.288C35.524 156.008 35.664 155.649 35.664 155.21C35.664 154.771 35.5193 154.412 35.23 154.132C34.95 153.843 34.558 153.698 34.054 153.698H31.254V156.708H34.054ZM34.11 160.964C34.6513 160.964 35.076 160.819 35.384 160.53C35.692 160.241 35.846 159.849 35.846 159.354C35.846 158.897 35.692 158.514 35.384 158.206C35.0853 157.898 34.6607 157.744 34.11 157.744H31.254V160.964H34.11ZM44.1327 162H43.0827V161.23C42.5134 161.855 41.7667 162.168 40.8427 162.168C40.2174 162.168 39.6667 161.967 39.1907 161.566C38.7147 161.165 38.4767 160.619 38.4767 159.928C38.4767 159.219 38.71 158.673 39.1767 158.29C39.6527 157.898 40.208 157.702 40.8427 157.702C41.804 157.702 42.5507 158.01 43.0827 158.626V157.408C43.0827 156.96 42.924 156.61 42.6067 156.358C42.2894 156.106 41.8787 155.98 41.3747 155.98C40.5814 155.98 39.8907 156.293 39.3027 156.918L38.8127 156.19C39.5314 155.443 40.432 155.07 41.5147 155.07C42.2894 155.07 42.9194 155.257 43.4047 155.63C43.89 156.003 44.1327 156.577 44.1327 157.352V162ZM41.2207 161.412C42.0607 161.412 42.6814 161.132 43.0827 160.572V159.298C42.6814 158.738 42.0607 158.458 41.2207 158.458C40.7354 158.458 40.334 158.598 40.0167 158.878C39.7087 159.149 39.5547 159.503 39.5547 159.942C39.5547 160.371 39.7087 160.726 40.0167 161.006C40.334 161.277 40.7354 161.412 41.2207 161.412ZM54.0495 155.238H55.0995V162H46.2375V155.238H47.2875V161.076H50.1435V155.238H51.1935V161.076H54.0495V155.238ZM62.4803 162H61.4303V161.23C60.861 161.855 60.1143 162.168 59.1903 162.168C58.565 162.168 58.0143 161.967 57.5383 161.566C57.0623 161.165 56.8243 160.619 56.8243 159.928C56.8243 159.219 57.0577 158.673 57.5243 158.29C58.0003 157.898 58.5557 157.702 59.1903 157.702C60.1517 157.702 60.8983 158.01 61.4303 158.626V157.408C61.4303 156.96 61.2717 156.61 60.9543 156.358C60.637 156.106 60.2263 155.98 59.7223 155.98C58.929 155.98 58.2383 156.293 57.6503 156.918L57.1603 156.19C57.879 155.443 58.7797 155.07 59.8623 155.07C60.637 155.07 61.267 155.257 61.7523 155.63C62.2377 156.003 62.4803 156.577 62.4803 157.352V162ZM59.5683 161.412C60.4083 161.412 61.029 161.132 61.4303 160.572V159.298C61.029 158.738 60.4083 158.458 59.5683 158.458C59.083 158.458 58.6817 158.598 58.3643 158.878C58.0563 159.149 57.9023 159.503 57.9023 159.942C57.9023 160.371 58.0563 160.726 58.3643 161.006C58.6817 161.277 59.083 161.412 59.5683 161.412ZM69.2025 162H68.1945V155.238H69.2445V160.404L72.7865 155.238H73.8225V162H72.7725V156.736L69.2025 162ZM75.1211 163.722V161.132C75.4665 161.067 75.7371 160.861 75.9331 160.516C76.1291 160.161 76.2878 159.513 76.4091 158.57L76.8431 155.238H81.5471V161.076H82.3311V163.722H81.2811V162H76.1711V163.722H75.1211ZM77.7671 156.162L77.4591 158.696C77.3005 159.881 76.9738 160.675 76.4791 161.076H80.4971V156.162H77.7671ZM86.8188 162.168C85.8108 162.168 84.9848 161.841 84.3408 161.188C83.6968 160.525 83.3748 159.667 83.3748 158.612C83.3748 157.623 83.6921 156.787 84.3268 156.106C84.9615 155.415 85.7548 155.07 86.7068 155.07C87.7055 155.07 88.4941 155.415 89.0728 156.106C89.6608 156.787 89.9548 157.651 89.9548 158.696V158.962H84.4808C84.5275 159.625 84.7701 160.18 85.2088 160.628C85.6475 161.076 86.2168 161.3 86.9168 161.3C87.7568 161.3 88.4521 161.015 89.0028 160.446L89.5068 161.132C88.8161 161.823 87.9201 162.168 86.8188 162.168ZM88.9188 158.192C88.9095 157.613 88.7135 157.095 88.3308 156.638C87.9481 156.171 87.4021 155.938 86.6928 155.938C86.0208 155.938 85.4888 156.167 85.0968 156.624C84.7141 157.081 84.5088 157.604 84.4808 158.192H88.9188ZM92.6635 162H91.4315L93.2375 159.34C92.7241 159.275 92.3041 159.06 91.9775 158.696C91.6601 158.332 91.5015 157.87 91.5015 157.31C91.5015 156.713 91.6928 156.218 92.0755 155.826C92.4581 155.434 92.9808 155.238 93.6435 155.238H97.2135V162H96.1635V159.382H94.3155L92.6635 162ZM93.7555 158.458H96.1635V156.162H93.7555C93.3915 156.162 93.1021 156.269 92.8875 156.484C92.6821 156.689 92.5795 156.965 92.5795 157.31C92.5795 157.655 92.6821 157.935 92.8875 158.15C93.0928 158.355 93.3821 158.458 93.7555 158.458ZM103.929 162H102.921V155.238H103.971V160.404L107.513 155.238H108.549V162H107.499V156.736L103.929 162ZM109.848 163.722V161.132C110.193 161.067 110.464 160.861 110.66 160.516C110.856 160.161 111.014 159.513 111.136 158.57L111.57 155.238H116.274V161.076H117.058V163.722H116.008V162H110.898V163.722H109.848ZM112.494 156.162L112.186 158.696C112.027 159.881 111.7 160.675 111.206 161.076H115.224V156.162H112.494ZM121.545 162.168C120.537 162.168 119.711 161.841 119.067 161.188C118.423 160.525 118.101 159.667 118.101 158.612C118.101 157.623 118.419 156.787 119.053 156.106C119.688 155.415 120.481 155.07 121.433 155.07C122.432 155.07 123.221 155.415 123.799 156.106C124.387 156.787 124.681 157.651 124.681 158.696V158.962H119.207C119.254 159.625 119.497 160.18 119.935 160.628C120.374 161.076 120.943 161.3 121.643 161.3C122.483 161.3 123.179 161.015 123.729 160.446L124.233 161.132C123.543 161.823 122.647 162.168 121.545 162.168ZM123.645 158.192C123.636 157.613 123.44 157.095 123.057 156.638C122.675 156.171 122.129 155.938 121.419 155.938C120.747 155.938 120.215 156.167 119.823 156.624C119.441 157.081 119.235 157.604 119.207 158.192H123.645ZM127.39 162H126.158L127.964 159.34C127.451 159.275 127.031 159.06 126.704 158.696C126.387 158.332 126.228 157.87 126.228 157.31C126.228 156.713 126.419 156.218 126.802 155.826C127.185 155.434 127.707 155.238 128.37 155.238H131.94V162H130.89V159.382H129.042L127.39 162ZM128.482 158.458H130.89V156.162H128.482C128.118 156.162 127.829 156.269 127.614 156.484C127.409 156.689 127.306 156.965 127.306 157.31C127.306 157.655 127.409 157.935 127.614 158.15C127.819 158.355 128.109 158.458 128.482 158.458ZM138.95 160.474C139.36 160.978 139.911 161.23 140.602 161.23C141.292 161.23 141.838 160.978 142.24 160.474C142.641 159.961 142.842 159.335 142.842 158.598C142.842 157.879 142.641 157.268 142.24 156.764C141.838 156.26 141.292 156.008 140.602 156.008C139.911 156.008 139.36 156.26 138.95 156.764C138.548 157.268 138.348 157.879 138.348 158.598C138.348 159.335 138.548 159.961 138.95 160.474ZM140.602 162.168C139.584 162.168 138.772 161.809 138.166 161.09C137.559 160.371 137.256 159.443 137.256 158.304C137.256 156.699 137.545 155.513 138.124 154.748C138.702 153.973 139.594 153.507 140.798 153.348C141.516 153.236 142.011 153.129 142.282 153.026C142.562 152.923 142.702 152.802 142.702 152.662H143.724C143.724 152.923 143.644 153.152 143.486 153.348C143.327 153.535 143.098 153.684 142.8 153.796C142.51 153.908 142.235 153.997 141.974 154.062C141.722 154.118 141.418 154.169 141.064 154.216C140.13 154.347 139.454 154.603 139.034 154.986C138.623 155.369 138.352 155.877 138.222 156.512C138.838 155.551 139.687 155.07 140.77 155.07C141.703 155.07 142.464 155.411 143.052 156.092C143.64 156.773 143.934 157.609 143.934 158.598C143.934 159.606 143.63 160.455 143.024 161.146C142.417 161.827 141.61 162.168 140.602 162.168ZM145.35 164.646L145.518 163.694C145.686 163.769 145.877 163.806 146.092 163.806C146.334 163.806 146.535 163.755 146.694 163.652C146.852 163.549 146.988 163.363 147.1 163.092L147.548 162.07L144.72 155.238H145.854L148.108 160.782L150.348 155.238H151.496L148.108 163.372C147.734 164.268 147.072 164.725 146.12 164.744C145.84 164.744 145.583 164.711 145.35 164.646ZM151.793 163.722V161.132C152.138 161.067 152.409 160.861 152.605 160.516C152.801 160.161 152.96 159.513 153.081 158.57L153.515 155.238H158.219V161.076H159.003V163.722H157.953V162H152.843V163.722H151.793ZM154.439 156.162L154.131 158.696C153.972 159.881 153.646 160.675 153.151 161.076H157.169V156.162H154.439ZM163.491 162.168C162.483 162.168 161.657 161.841 161.013 161.188C160.369 160.525 160.047 159.667 160.047 158.612C160.047 157.623 160.364 156.787 160.999 156.106C161.633 155.415 162.427 155.07 163.379 155.07C164.377 155.07 165.166 155.415 165.745 156.106C166.333 156.787 166.627 157.651 166.627 158.696V158.962H161.153C161.199 159.625 161.442 160.18 161.881 160.628C162.319 161.076 162.889 161.3 163.589 161.3C164.429 161.3 165.124 161.015 165.675 160.446L166.179 161.132C165.488 161.823 164.592 162.168 163.491 162.168ZM165.591 158.192C165.581 157.613 165.385 157.095 165.003 156.638C164.62 156.171 164.074 155.938 163.365 155.938C162.693 155.938 162.161 156.167 161.769 156.624C161.386 157.081 161.181 157.604 161.153 158.192H165.591ZM170.609 162H169.559V156.162H167.599V155.238H172.583V156.162H170.609V162ZM182.946 161.146C182.339 161.827 181.532 162.168 180.524 162.168C179.516 162.168 178.704 161.827 178.088 161.146C177.481 160.465 177.178 159.62 177.178 158.612C177.178 157.604 177.481 156.764 178.088 156.092C178.704 155.411 179.516 155.07 180.524 155.07C181.532 155.07 182.339 155.411 182.946 156.092C183.562 156.764 183.87 157.604 183.87 158.612C183.87 159.62 183.562 160.465 182.946 161.146ZM178.872 160.474C179.282 160.978 179.833 161.23 180.524 161.23C181.214 161.23 181.76 160.978 182.162 160.474C182.563 159.961 182.764 159.34 182.764 158.612C182.764 157.884 182.563 157.268 182.162 156.764C181.76 156.26 181.214 156.008 180.524 156.008C179.833 156.008 179.282 156.265 178.872 156.778C178.47 157.282 178.27 157.893 178.27 158.612C178.27 159.34 178.47 159.961 178.872 160.474ZM191.209 162H190.159V156.162H186.631V162H185.581V155.238H191.209V162ZM192.928 164.646L193.096 163.694C193.264 163.769 193.455 163.806 193.67 163.806C193.913 163.806 194.113 163.755 194.272 163.652C194.431 163.549 194.566 163.363 194.678 163.092L195.126 162.07L192.298 155.238H193.432L195.686 160.782L197.926 155.238H199.074L195.686 163.372C195.313 164.268 194.65 164.725 193.698 164.744C193.418 164.744 193.161 164.711 192.928 164.646ZM201.471 160.474C201.882 160.978 202.432 161.23 203.123 161.23C203.814 161.23 204.36 160.978 204.761 160.474C205.162 159.961 205.363 159.335 205.363 158.598C205.363 157.879 205.162 157.268 204.761 156.764C204.36 156.26 203.814 156.008 203.123 156.008C202.432 156.008 201.882 156.26 201.471 156.764C201.07 157.268 200.869 157.879 200.869 158.598C200.869 159.335 201.07 159.961 201.471 160.474ZM203.123 162.168C202.106 162.168 201.294 161.809 200.687 161.09C200.08 160.371 199.777 159.443 199.777 158.304C199.777 156.699 200.066 155.513 200.645 154.748C201.224 153.973 202.115 153.507 203.319 153.348C204.038 153.236 204.532 153.129 204.803 153.026C205.083 152.923 205.223 152.802 205.223 152.662H206.245C206.245 152.923 206.166 153.152 206.007 153.348C205.848 153.535 205.62 153.684 205.321 153.796C205.032 153.908 204.756 153.997 204.495 154.062C204.243 154.118 203.94 154.169 203.585 154.216C202.652 154.347 201.975 154.603 201.555 154.986C201.144 155.369 200.874 155.877 200.743 156.512C201.359 155.551 202.208 155.07 203.291 155.07C204.224 155.07 204.985 155.411 205.573 156.092C206.161 156.773 206.455 157.609 206.455 158.598C206.455 159.606 206.152 160.455 205.545 161.146C204.938 161.827 204.131 162.168 203.123 162.168ZM207.451 162.168V161.3C207.769 161.3 208.03 161.09 208.235 160.67C208.441 160.25 208.609 159.55 208.739 158.57L209.173 155.238H213.877V162H212.827V156.162H210.097L209.789 158.696C209.64 159.937 209.379 160.829 209.005 161.37C208.632 161.902 208.114 162.168 207.451 162.168ZM216.982 162H215.974V155.238H217.024V160.404L220.566 155.238H221.602V162H220.552V156.736L216.982 162ZM229.648 162H228.304L225.868 158.962L224.748 160.068V162H223.698V155.238H224.748V158.836L228.304 155.238H229.634L226.638 158.304L229.648 162ZM236.225 161.146C235.618 161.827 234.811 162.168 233.803 162.168C232.795 162.168 231.983 161.827 231.367 161.146C230.76 160.465 230.457 159.62 230.457 158.612C230.457 157.604 230.76 156.764 231.367 156.092C231.983 155.411 232.795 155.07 233.803 155.07C234.811 155.07 235.618 155.411 236.225 156.092C236.841 156.764 237.149 157.604 237.149 158.612C237.149 159.62 236.841 160.465 236.225 161.146ZM232.151 160.474C232.561 160.978 233.112 161.23 233.803 161.23C234.493 161.23 235.039 160.978 235.441 160.474C235.842 159.961 236.043 159.34 236.043 158.612C236.043 157.884 235.842 157.268 235.441 156.764C235.039 156.26 234.493 156.008 233.803 156.008C233.112 156.008 232.561 156.265 232.151 156.778C231.749 157.282 231.549 157.893 231.549 158.612C231.549 159.34 231.749 159.961 232.151 160.474ZM242.655 162H238.861V155.238H242.585C243.173 155.238 243.635 155.397 243.971 155.714C244.316 156.031 244.489 156.451 244.489 156.974C244.489 157.357 244.381 157.688 244.167 157.968C243.961 158.239 243.705 158.421 243.397 158.514C243.742 158.598 244.031 158.799 244.265 159.116C244.507 159.433 244.629 159.783 244.629 160.166C244.629 160.717 244.451 161.16 244.097 161.496C243.751 161.832 243.271 162 242.655 162ZM242.445 161.076C242.781 161.076 243.047 160.983 243.243 160.796C243.439 160.609 243.537 160.357 243.537 160.04C243.537 159.751 243.439 159.503 243.243 159.298C243.047 159.093 242.781 158.99 242.445 158.99H239.911V161.076H242.445ZM242.403 158.066C242.72 158.066 242.967 157.982 243.145 157.814C243.322 157.637 243.411 157.408 243.411 157.128C243.411 156.829 243.322 156.596 243.145 156.428C242.967 156.251 242.72 156.162 242.403 156.162H239.911V158.066H242.403ZM251.891 162H250.841V161.23C250.271 161.855 249.525 162.168 248.601 162.168C247.975 162.168 247.425 161.967 246.949 161.566C246.473 161.165 246.235 160.619 246.235 159.928C246.235 159.219 246.468 158.673 246.935 158.29C247.411 157.898 247.966 157.702 248.601 157.702C249.562 157.702 250.309 158.01 250.841 158.626V157.408C250.841 156.96 250.682 156.61 250.365 156.358C250.047 156.106 249.637 155.98 249.133 155.98C248.339 155.98 247.649 156.293 247.061 156.918L246.571 156.19C247.289 155.443 248.19 155.07 249.273 155.07C250.047 155.07 250.677 155.257 251.163 155.63C251.648 156.003 251.891 156.577 251.891 157.352V162ZM248.979 161.412C249.819 161.412 250.439 161.132 250.841 160.572V159.298C250.439 158.738 249.819 158.458 248.979 158.458C248.493 158.458 248.092 158.598 247.775 158.878C247.467 159.149 247.312 159.503 247.312 159.942C247.312 160.371 247.467 160.726 247.775 161.006C248.092 161.277 248.493 161.412 248.979 161.412ZM255.045 162H253.995V155.238H255.045V158.052H258.573V155.238H259.623V162H258.573V158.976H255.045V162ZM266.998 162H265.948V161.23C265.379 161.855 264.632 162.168 263.708 162.168C263.083 162.168 262.532 161.967 262.056 161.566C261.58 161.165 261.342 160.619 261.342 159.928C261.342 159.219 261.575 158.673 262.042 158.29C262.518 157.898 263.073 157.702 263.708 157.702C264.669 157.702 265.416 158.01 265.948 158.626V157.408C265.948 156.96 265.789 156.61 265.472 156.358C265.155 156.106 264.744 155.98 264.24 155.98C263.447 155.98 262.756 156.293 262.168 156.918L261.678 156.19C262.397 155.443 263.297 155.07 264.38 155.07C265.155 155.07 265.785 155.257 266.27 155.63C266.755 156.003 266.998 156.577 266.998 157.352V162ZM264.086 161.412C264.926 161.412 265.547 161.132 265.948 160.572V159.298C265.547 158.738 264.926 158.458 264.086 158.458C263.601 158.458 263.199 158.598 262.882 158.878C262.574 159.149 262.42 159.503 262.42 159.942C262.42 160.371 262.574 160.726 262.882 161.006C263.199 161.277 263.601 161.412 264.086 161.412ZM278.34 162H277.29V156.162H273.762V162H272.712V155.238H278.34V162ZM285.813 161.146C285.206 161.827 284.399 162.168 283.391 162.168C282.383 162.168 281.571 161.827 280.955 161.146C280.348 160.465 280.045 159.62 280.045 158.612C280.045 157.604 280.348 156.764 280.955 156.092C281.571 155.411 282.383 155.07 283.391 155.07C284.399 155.07 285.206 155.411 285.813 156.092C286.429 156.764 286.737 157.604 286.737 158.612C286.737 159.62 286.429 160.465 285.813 161.146ZM281.739 160.474C282.149 160.978 282.7 161.23 283.391 161.23C284.081 161.23 284.627 160.978 285.029 160.474C285.43 159.961 285.631 159.34 285.631 158.612C285.631 157.884 285.43 157.268 285.029 156.764C284.627 156.26 284.081 156.008 283.391 156.008C282.7 156.008 282.149 156.265 281.739 156.778C281.337 157.282 281.137 157.893 281.137 158.612C281.137 159.34 281.337 159.961 281.739 160.474ZM291.43 162.168C290.432 162.168 289.62 161.832 288.994 161.16C288.369 160.479 288.056 159.629 288.056 158.612C288.056 157.595 288.369 156.75 288.994 156.078C289.62 155.406 290.432 155.07 291.43 155.07C292.476 155.07 293.302 155.462 293.908 156.246L293.208 156.89C292.779 156.302 292.205 156.008 291.486 156.008C290.777 156.008 290.208 156.251 289.778 156.736C289.358 157.221 289.148 157.847 289.148 158.612C289.148 159.377 289.358 160.007 289.778 160.502C290.208 160.987 290.777 161.23 291.486 161.23C292.196 161.23 292.77 160.936 293.208 160.348L293.908 160.992C293.302 161.776 292.476 162.168 291.43 162.168ZM294.582 162.168V161.3C294.899 161.3 295.161 161.09 295.366 160.67C295.571 160.25 295.739 159.55 295.87 158.57L296.304 155.238H301.008V162H299.958V156.162H297.228L296.92 158.696C296.771 159.937 296.509 160.829 296.136 161.37C295.763 161.902 295.245 162.168 294.582 162.168ZM306.157 162.168C305.149 162.168 304.323 161.841 303.679 161.188C303.035 160.525 302.713 159.667 302.713 158.612C302.713 157.623 303.03 156.787 303.665 156.106C304.299 155.415 305.093 155.07 306.045 155.07C307.043 155.07 307.832 155.415 308.411 156.106C308.999 156.787 309.293 157.651 309.293 158.696V158.962H303.819C303.865 159.625 304.108 160.18 304.547 160.628C304.985 161.076 305.555 161.3 306.255 161.3C307.095 161.3 307.79 161.015 308.341 160.446L308.845 161.132C308.154 161.823 307.258 162.168 306.157 162.168ZM308.257 158.192C308.247 157.613 308.051 157.095 307.669 156.638C307.286 156.171 306.74 155.938 306.031 155.938C305.359 155.938 304.827 156.167 304.435 156.624C304.052 157.081 303.847 157.604 303.819 158.192H308.257ZM321.505 162H320.455V156.694L318.257 162H317.865L315.653 156.694V162H314.603V155.238H315.989L318.061 160.25L320.105 155.238H321.505V162ZM328.975 161.146C328.368 161.827 327.561 162.168 326.553 162.168C325.545 162.168 324.733 161.827 324.117 161.146C323.51 160.465 323.207 159.62 323.207 158.612C323.207 157.604 323.51 156.764 324.117 156.092C324.733 155.411 325.545 155.07 326.553 155.07C327.561 155.07 328.368 155.411 328.975 156.092C329.591 156.764 329.899 157.604 329.899 158.612C329.899 159.62 329.591 160.465 328.975 161.146ZM324.901 160.474C325.311 160.978 325.862 161.23 326.553 161.23C327.243 161.23 327.789 160.978 328.191 160.474C328.592 159.961 328.793 159.34 328.793 158.612C328.793 157.884 328.592 157.268 328.191 156.764C327.789 156.26 327.243 156.008 326.553 156.008C325.862 156.008 325.311 156.265 324.901 156.778C324.499 157.282 324.299 157.893 324.299 158.612C324.299 159.34 324.499 159.961 324.901 160.474ZM330.813 163.722V161.132C331.158 161.067 331.429 160.861 331.625 160.516C331.821 160.161 331.979 159.513 332.101 158.57L332.535 155.238H337.239V161.076H338.023V163.722H336.973V162H331.863V163.722H330.813ZM333.459 156.162L333.151 158.696C332.992 159.881 332.665 160.675 332.171 161.076H336.189V156.162H333.459ZM342.51 162.168C341.502 162.168 340.676 161.841 340.032 161.188C339.388 160.525 339.066 159.667 339.066 158.612C339.066 157.623 339.384 156.787 340.018 156.106C340.653 155.415 341.446 155.07 342.398 155.07C343.397 155.07 344.186 155.415 344.764 156.106C345.352 156.787 345.646 157.651 345.646 158.696V158.962H340.172C340.219 159.625 340.462 160.18 340.9 160.628C341.339 161.076 341.908 161.3 342.608 161.3C343.448 161.3 344.144 161.015 344.694 160.446L345.198 161.132C344.508 161.823 343.612 162.168 342.51 162.168ZM344.61 158.192C344.601 157.613 344.405 157.095 344.022 156.638C343.64 156.171 343.094 155.938 342.384 155.938C341.712 155.938 341.18 156.167 340.788 156.624C340.406 157.081 340.2 157.604 340.172 158.192H344.61ZM350.679 162.168C349.727 162.168 348.966 161.771 348.397 160.978V164.576H347.347V155.238H348.397V156.246C348.649 155.891 348.976 155.607 349.377 155.392C349.778 155.177 350.212 155.07 350.679 155.07C351.575 155.07 352.298 155.392 352.849 156.036C353.409 156.671 353.689 157.529 353.689 158.612C353.689 159.695 353.409 160.558 352.849 161.202C352.298 161.846 351.575 162.168 350.679 162.168ZM350.413 161.23C351.076 161.23 351.603 160.987 351.995 160.502C352.387 160.007 352.583 159.377 352.583 158.612C352.583 157.847 352.387 157.221 351.995 156.736C351.603 156.251 351.076 156.008 350.413 156.008C350.012 156.008 349.62 156.115 349.237 156.33C348.864 156.535 348.584 156.787 348.397 157.086V160.138C348.584 160.446 348.864 160.707 349.237 160.922C349.62 161.127 350.012 161.23 350.413 161.23ZM360.637 162H359.587V161.23C359.017 161.855 358.271 162.168 357.347 162.168C356.721 162.168 356.171 161.967 355.695 161.566C355.219 161.165 354.981 160.619 354.981 159.928C354.981 159.219 355.214 158.673 355.681 158.29C356.157 157.898 356.712 157.702 357.347 157.702C358.308 157.702 359.055 158.01 359.587 158.626V157.408C359.587 156.96 359.428 156.61 359.111 156.358C358.793 156.106 358.383 155.98 357.879 155.98C357.085 155.98 356.395 156.293 355.807 156.918L355.317 156.19C356.035 155.443 356.936 155.07 358.019 155.07C358.793 155.07 359.423 155.257 359.909 155.63C360.394 156.003 360.637 156.577 360.637 157.352V162ZM357.725 161.412C358.565 161.412 359.185 161.132 359.587 160.572V159.298C359.185 158.738 358.565 158.458 357.725 158.458C357.239 158.458 356.838 158.598 356.521 158.878C356.213 159.149 356.059 159.503 356.059 159.942C356.059 160.371 356.213 160.726 356.521 161.006C356.838 161.277 357.239 161.412 357.725 161.412ZM368.103 163.722V162H362.741V155.238H363.791V161.076H367.319V155.238H368.369V161.076H369.153V163.722H368.103ZM371.597 162H370.589V155.238H371.639V160.404L375.181 155.238H376.217V162H375.167V156.736L371.597 162ZM379.322 162H378.314V155.238H379.364V160.404L382.906 155.238H383.942V162H382.892V156.736L379.322 162ZM387.144 161.916C386.995 162.065 386.813 162.14 386.598 162.14C386.384 162.14 386.202 162.065 386.052 161.916C385.903 161.767 385.828 161.585 385.828 161.37C385.828 161.155 385.903 160.973 386.052 160.824C386.202 160.675 386.384 160.6 386.598 160.6C386.813 160.6 386.995 160.675 387.144 160.824C387.294 160.973 387.368 161.155 387.368 161.37C387.368 161.585 387.294 161.767 387.144 161.916Z" fill="#333333"/>
<defs>
<filter id="filter0_d" x="0" y="80" width="666" height="183" filterUnits="userSpaceOnUse" color-interpolation-filters="sRGB">
<feFlood flood-opacity="0" result="BackgroundImageFix"/>
<feColorMatrix in="SourceAlpha" type="matrix" values="0 0 0 0 0 0 0 0 0 0 0 0 0 0 0 0 0 0 127 0"/>
<feOffset dy="2"/>
<feGaussianBlur stdDeviation="2.5"/>
<feColorMatrix type="matrix" values="0 0 0 0 0.4125 0 0 0 0 0.4125 0 0 0 0 0.4125 0 0 0 0.1 0"/>
<feBlend mode="normal" in2="BackgroundImageFix" result="effect1_dropShadow"/>
<feBlend mode="normal" in="SourceGraphic" in2="effect1_dropShadow" result="shape"/>
</filter>
</defs>
</svg>
