<svg width="666" height="589" viewBox="0 0 666 589" fill="none" xmlns="http://www.w3.org/2000/svg">
<rect x="5.5" y="0.5" width="655" height="57" rx="4.5" fill="white" stroke="#D7DEE9"/>
<path d="M39.892 38.336C37.0547 38.336 34.684 37.44 32.78 35.648C30.8947 33.8373 29.952 31.5133 29.952 28.676C29.952 25.8387 30.8947 23.524 32.78 21.732C34.684 19.9213 37.0547 19.016 39.892 19.016C43.3827 19.016 45.9867 20.5373 47.704 23.58L44.288 25.26C43.8773 24.476 43.2707 23.832 42.468 23.328C41.684 22.8053 40.8253 22.544 39.892 22.544C38.1933 22.544 36.7933 23.1227 35.692 24.28C34.5907 25.4373 34.04 26.9027 34.04 28.676C34.04 30.4493 34.5907 31.9147 35.692 33.072C36.7933 34.2293 38.1933 34.808 39.892 34.808C40.8253 34.808 41.684 34.556 42.468 34.052C43.2707 33.548 43.8773 32.8947 44.288 32.092L47.704 33.744C45.9307 36.8053 43.3267 38.336 39.892 38.336ZM61.4667 36.292C60.16 37.6547 58.424 38.336 56.2587 38.336C54.0933 38.336 52.3573 37.6547 51.0507 36.292C49.7627 34.9107 49.1187 33.2213 49.1187 31.224C49.1187 29.2267 49.7627 27.5467 51.0507 26.184C52.3573 24.8213 54.0933 24.14 56.2587 24.14C58.424 24.14 60.16 24.8213 61.4667 26.184C62.7733 27.5467 63.4267 29.2267 63.4267 31.224C63.4267 33.2213 62.7733 34.9107 61.4667 36.292ZM53.7387 34.052C54.3547 34.7987 55.1947 35.172 56.2587 35.172C57.3227 35.172 58.1627 34.7987 58.7787 34.052C59.4133 33.2867 59.7307 32.344 59.7307 31.224C59.7307 30.1227 59.4133 29.1987 58.7787 28.452C58.1627 27.6867 57.3227 27.304 56.2587 27.304C55.1947 27.304 54.3547 27.6867 53.7387 28.452C53.1227 29.1987 52.8147 30.1227 52.8147 31.224C52.8147 32.344 53.1227 33.2867 53.7387 34.052ZM70.9928 38.336C68.2674 38.336 66.1674 37.6173 64.6928 36.18L66.3168 33.968C67.5301 34.9947 69.0888 35.508 70.9928 35.508C71.8888 35.508 72.5794 35.3773 73.0648 35.116C73.5501 34.8547 73.7928 34.5 73.7928 34.052C73.7928 33.044 72.7848 32.54 70.7688 32.54H67.9968V29.796H70.7688C72.6168 29.796 73.5408 29.3107 73.5408 28.34C73.5408 27.9293 73.2888 27.6027 72.7848 27.36C72.2808 27.0987 71.6274 26.968 70.8248 26.968C69.0701 26.968 67.6701 27.4813 66.6248 28.508L64.8888 26.408C66.3821 24.9147 68.2954 24.168 70.6288 24.168C72.7194 24.1493 74.3434 24.476 75.5008 25.148C76.6581 25.8013 77.2368 26.7067 77.2368 27.864C77.2368 28.6853 76.8914 29.3853 76.2008 29.964C75.5101 30.5427 74.6794 30.9067 73.7088 31.056C74.6608 31.112 75.5288 31.4293 76.3128 32.008C77.1154 32.5867 77.5168 33.3427 77.5168 34.276C77.5168 35.4893 76.9288 36.4693 75.7528 37.216C74.5768 37.9627 72.9901 38.336 70.9928 38.336ZM78.9142 41.444V35.032C79.3248 34.9573 79.6422 34.8267 79.8662 34.64C80.1088 34.4347 80.3328 34.052 80.5382 33.492C80.7622 32.9133 80.9395 32.092 81.0702 31.028L81.9382 24.476H92.8862V34.892H94.3702V41.444H90.8142V38H82.4982V41.444H78.9142ZM85.0462 27.584L84.6262 31.252C84.4395 32.876 83.9168 34.0893 83.0582 34.892H89.3302V27.584H85.0462ZM108.284 38H104.728V36.6C103.757 37.7573 102.329 38.336 100.444 38.336C99.2304 38.336 98.1384 37.944 97.1678 37.16C96.2158 36.3573 95.7398 35.256 95.7398 33.856C95.7398 32.4 96.2064 31.308 97.1398 30.58C98.0918 29.852 99.1931 29.488 100.444 29.488C102.366 29.488 103.794 30.0387 104.728 31.14V29.32C104.728 28.6293 104.457 28.0787 103.916 27.668C103.374 27.2573 102.656 27.052 101.76 27.052C100.285 27.052 98.9691 27.584 97.8118 28.648L96.4678 26.268C98.0731 24.8493 100.042 24.14 102.376 24.14C104.112 24.14 105.53 24.5413 106.632 25.344C107.733 26.1467 108.284 27.4533 108.284 29.264V38ZM101.872 35.928C103.197 35.928 104.149 35.536 104.728 34.752V33.072C104.149 32.288 103.197 31.896 101.872 31.896C101.144 31.896 100.537 32.0827 100.052 32.456C99.5664 32.8107 99.3238 33.3053 99.3238 33.94C99.3238 34.556 99.5664 35.0413 100.052 35.396C100.537 35.7507 101.144 35.928 101.872 35.928ZM117.887 38H114.303V27.584H110.523V24.476H121.667V27.584H117.887V38ZM123.897 24.476H127.453V29.124H132.073C133.566 29.124 134.723 29.544 135.545 30.384C136.366 31.224 136.777 32.2787 136.777 33.548C136.777 34.7987 136.357 35.8533 135.517 36.712C134.677 37.5707 133.529 38 132.073 38H123.897V24.476ZM131.541 32.092H127.453V35.004H131.541C132.026 35.004 132.409 34.8733 132.689 34.612C132.987 34.332 133.137 33.9773 133.137 33.548C133.137 33.1187 132.987 32.7733 132.689 32.512C132.409 32.232 132.026 32.092 131.541 32.092ZM149.953 38H146.537V24.476H150.093V32.652L155.665 24.476H159.249V38H155.693V29.516L149.953 38ZM161.52 41.444V35.032C161.93 34.9573 162.248 34.8267 162.472 34.64C162.714 34.4347 162.938 34.052 163.144 33.492C163.368 32.9133 163.545 32.092 163.676 31.028L164.544 24.476H175.492V34.892H176.976V41.444H173.42V38H165.104V41.444H161.52ZM167.652 27.584L167.232 31.252C167.045 32.876 166.522 34.0893 165.664 34.892H171.936V27.584H167.652ZM185.569 38.336C183.479 38.336 181.752 37.6827 180.389 36.376C179.027 35.0693 178.345 33.352 178.345 31.224C178.345 29.2267 178.999 27.5467 180.305 26.184C181.631 24.8213 183.311 24.14 185.345 24.14C187.361 24.14 188.995 24.8307 190.245 26.212C191.496 27.5747 192.121 29.3667 192.121 31.588V32.372H182.069C182.181 33.268 182.583 34.0147 183.273 34.612C183.964 35.2093 184.86 35.508 185.961 35.508C186.559 35.508 187.203 35.3867 187.893 35.144C188.603 34.9013 189.163 34.5747 189.573 34.164L191.141 36.46C189.779 37.7107 187.921 38.336 185.569 38.336ZM188.677 29.964C188.621 29.1987 188.313 28.508 187.753 27.892C187.212 27.276 186.409 26.968 185.345 26.968C184.337 26.968 183.553 27.276 182.993 27.892C182.433 28.4893 182.107 29.18 182.013 29.964H188.677ZM207.514 38.336C205.628 38.336 204.06 37.804 202.81 36.74C201.559 35.6573 200.784 34.276 200.486 32.596H198.246V38H194.69V24.476H198.246V29.488H200.57C200.924 27.92 201.718 26.6413 202.95 25.652C204.182 24.644 205.703 24.14 207.514 24.14C209.679 24.14 211.415 24.8213 212.722 26.184C214.028 27.5467 214.682 29.2267 214.682 31.224C214.682 33.2213 214.028 34.9107 212.722 36.292C211.415 37.6547 209.679 38.336 207.514 38.336ZM207.514 35.172C208.596 35.172 209.446 34.7987 210.062 34.052C210.678 33.2867 210.986 32.344 210.986 31.224C210.986 30.1227 210.678 29.1987 210.062 28.452C209.446 27.6867 208.596 27.304 207.514 27.304C206.45 27.304 205.61 27.6867 204.994 28.452C204.378 29.1987 204.07 30.1227 204.07 31.224C204.07 32.344 204.378 33.2867 204.994 34.052C205.61 34.7987 206.45 35.172 207.514 35.172Z" fill="#262C40"/>
<g filter="url(#filter0_d)">
<rect x="5" y="145" width="656" height="437" rx="5" fill="white"/>
<rect x="5.5" y="145.5" width="655" height="436" rx="4.5" stroke="#D7DEE9"/>
</g>
<rect width="126" height="42" transform="translate(510 515)" fill="#0057B6"/>
<path d="M539.546 541H538.301V532.105H532.451V541H531.206V530.995H539.546V541ZM545.41 541.18C544.39 541.18 543.575 540.755 542.965 539.905V543.76H541.84V533.755H542.965V534.835C543.235 534.455 543.585 534.15 544.015 533.92C544.445 533.69 544.91 533.575 545.41 533.575C546.37 533.575 547.145 533.92 547.735 534.61C548.335 535.29 548.635 536.21 548.635 537.37C548.635 538.53 548.335 539.455 547.735 540.145C547.145 540.835 546.37 541.18 545.41 541.18ZM545.125 540.175C545.835 540.175 546.4 539.915 546.82 539.395C547.24 538.865 547.45 538.19 547.45 537.37C547.45 536.55 547.24 535.88 546.82 535.36C546.4 534.84 545.835 534.58 545.125 534.58C544.695 534.58 544.275 534.695 543.865 534.925C543.465 535.145 543.165 535.415 542.965 535.735V539.005C543.165 539.335 543.465 539.615 543.865 539.845C544.275 540.065 544.695 540.175 545.125 540.175ZM556.184 540.085C555.534 540.815 554.669 541.18 553.589 541.18C552.509 541.18 551.639 540.815 550.979 540.085C550.329 539.355 550.004 538.45 550.004 537.37C550.004 536.29 550.329 535.39 550.979 534.67C551.639 533.94 552.509 533.575 553.589 533.575C554.669 533.575 555.534 533.94 556.184 534.67C556.844 535.39 557.174 536.29 557.174 537.37C557.174 538.45 556.844 539.355 556.184 540.085ZM551.819 539.365C552.259 539.905 552.849 540.175 553.589 540.175C554.329 540.175 554.914 539.905 555.344 539.365C555.774 538.815 555.989 538.15 555.989 537.37C555.989 536.59 555.774 535.93 555.344 535.39C554.914 534.85 554.329 534.58 553.589 534.58C552.849 534.58 552.259 534.855 551.819 535.405C551.389 535.945 551.174 536.6 551.174 537.37C551.174 538.15 551.389 538.815 551.819 539.365ZM558.153 542.845V540.07C558.523 540 558.813 539.78 559.023 539.41C559.233 539.03 559.403 538.335 559.533 537.325L559.998 533.755H565.038V540.01H565.878V542.845H564.753V541H559.278V542.845H558.153ZM560.988 534.745L560.658 537.46C560.488 538.73 560.138 539.58 559.608 540.01H563.913V534.745H560.988ZM573.176 540.085C572.526 540.815 571.661 541.18 570.581 541.18C569.501 541.18 568.631 540.815 567.971 540.085C567.321 539.355 566.996 538.45 566.996 537.37C566.996 536.29 567.321 535.39 567.971 534.67C568.631 533.94 569.501 533.575 570.581 533.575C571.661 533.575 572.526 533.94 573.176 534.67C573.836 535.39 574.166 536.29 574.166 537.37C574.166 538.45 573.836 539.355 573.176 540.085ZM568.811 539.365C569.251 539.905 569.841 540.175 570.581 540.175C571.321 540.175 571.906 539.905 572.336 539.365C572.766 538.815 572.981 538.15 572.981 537.37C572.981 536.59 572.766 535.93 572.336 535.39C571.906 534.85 571.321 534.58 570.581 534.58C569.841 534.58 569.251 534.855 568.811 535.405C568.381 535.945 568.166 536.6 568.166 537.37C568.166 538.15 568.381 538.815 568.811 539.365ZM575.145 541.18V540.25C575.485 540.25 575.765 540.025 575.985 539.575C576.205 539.125 576.385 538.375 576.525 537.325L576.99 533.755H582.03V541H580.905V534.745H577.98L577.65 537.46C577.49 538.79 577.21 539.745 576.81 540.325C576.41 540.895 575.855 541.18 575.145 541.18ZM584.801 541H583.361L586.586 537.04L583.376 533.755H584.801L587.921 536.95V533.755H589.046V536.935L592.166 533.755H593.591L590.366 537.04L593.606 541H592.166L589.556 537.745L589.046 538.255V541H587.921V538.255L587.411 537.745L584.801 541ZM596.02 541H594.94V533.755H596.065V539.29L599.86 533.755H600.97V541H599.845V535.36L596.02 541ZM605.662 541H604.537V534.745H602.437V533.755H607.777V534.745H605.662V541ZM609.252 533.755H610.377V536.56H613.092C613.812 536.56 614.372 536.775 614.772 537.205C615.172 537.625 615.372 538.15 615.372 538.78C615.372 539.41 615.167 539.94 614.757 540.37C614.357 540.79 613.802 541 613.092 541H609.252V533.755ZM612.972 537.55H610.377V540.01H612.972C613.372 540.01 613.677 539.9 613.887 539.68C614.107 539.45 614.217 539.15 614.217 538.78C614.217 538.41 614.107 538.115 613.887 537.895C613.677 537.665 613.372 537.55 612.972 537.55Z" fill="white"/>
<rect opacity="0.7" x="30.5" y="220.5" width="605" height="43" stroke="#B8BDCE"/>
<path d="M48.92 247.168C48.136 247.168 47.4313 247.023 46.806 246.734C46.1807 246.445 45.714 246.076 45.406 245.628L46.092 244.886C46.372 245.259 46.764 245.563 47.268 245.796C47.7813 246.02 48.3227 246.132 48.892 246.132C49.62 246.132 50.194 245.978 50.614 245.67C51.034 245.353 51.244 244.923 51.244 244.382C51.244 243.822 51.0247 243.407 50.586 243.136C50.1567 242.865 49.5687 242.73 48.822 242.73H46.918V241.694H48.822C49.4847 241.694 50.026 241.568 50.446 241.316C50.8753 241.055 51.09 240.667 51.09 240.154C51.09 239.65 50.8753 239.258 50.446 238.978C50.026 238.698 49.494 238.558 48.85 238.558C47.7953 238.558 46.9133 238.936 46.204 239.692L45.56 238.964C45.9333 238.535 46.4093 238.189 46.988 237.928C47.576 237.657 48.2247 237.522 48.934 237.522C49.886 237.522 50.6793 237.746 51.314 238.194C51.958 238.642 52.28 239.249 52.28 240.014C52.28 240.63 52.07 241.125 51.65 241.498C51.2393 241.862 50.7773 242.091 50.264 242.184C50.7773 242.231 51.2627 242.455 51.72 242.856C52.1867 243.257 52.42 243.799 52.42 244.48C52.42 245.264 52.098 245.908 51.454 246.412C50.81 246.916 49.9653 247.168 48.92 247.168ZM59.9038 247H58.8538V246.23C58.2844 246.855 57.5378 247.168 56.6138 247.168C55.9884 247.168 55.4378 246.967 54.9618 246.566C54.4858 246.165 54.2478 245.619 54.2478 244.928C54.2478 244.219 54.4811 243.673 54.9478 243.29C55.4238 242.898 55.9791 242.702 56.6138 242.702C57.5751 242.702 58.3218 243.01 58.8538 243.626V242.408C58.8538 241.96 58.6951 241.61 58.3778 241.358C58.0604 241.106 57.6498 240.98 57.1458 240.98C56.3524 240.98 55.6618 241.293 55.0738 241.918L54.5838 241.19C55.3024 240.443 56.2031 240.07 57.2858 240.07C58.0604 240.07 58.6904 240.257 59.1758 240.63C59.6611 241.003 59.9038 241.577 59.9038 242.352V247ZM56.9918 246.412C57.8318 246.412 58.4524 246.132 58.8538 245.572V244.298C58.4524 243.738 57.8318 243.458 56.9918 243.458C56.5064 243.458 56.1051 243.598 55.7878 243.878C55.4798 244.149 55.3258 244.503 55.3258 244.942C55.3258 245.371 55.4798 245.726 55.7878 246.006C56.1051 246.277 56.5064 246.412 56.9918 246.412ZM67.1406 240.238V241.162H63.4586V247H62.4086V240.238H67.1406ZM74.2823 246.146C73.6756 246.827 72.8683 247.168 71.8603 247.168C70.8523 247.168 70.0403 246.827 69.4243 246.146C68.8176 245.465 68.5143 244.62 68.5143 243.612C68.5143 242.604 68.8176 241.764 69.4243 241.092C70.0403 240.411 70.8523 240.07 71.8603 240.07C72.8683 240.07 73.6756 240.411 74.2823 241.092C74.8983 241.764 75.2063 242.604 75.2063 243.612C75.2063 244.62 74.8983 245.465 74.2823 246.146ZM70.2083 245.474C70.6189 245.978 71.1696 246.23 71.8603 246.23C72.5509 246.23 73.0969 245.978 73.4983 245.474C73.8996 244.961 74.1003 244.34 74.1003 243.612C74.1003 242.884 73.8996 242.268 73.4983 241.764C73.0969 241.26 72.5509 241.008 71.8603 241.008C71.1696 241.008 70.6189 241.265 70.2083 241.778C69.8069 242.282 69.6063 242.893 69.6063 243.612C69.6063 244.34 69.8069 244.961 70.2083 245.474ZM76.52 247.168V246.3C76.8373 246.3 77.0986 246.09 77.304 245.67C77.5093 245.25 77.6773 244.55 77.808 243.57L78.242 240.238H82.946V247H81.896V241.162H79.166L78.858 243.696C78.7086 244.937 78.4473 245.829 78.074 246.37C77.7006 246.902 77.1826 247.168 76.52 247.168ZM90.8186 246.146C90.2119 246.827 89.4046 247.168 88.3966 247.168C87.3886 247.168 86.5766 246.827 85.9606 246.146C85.3539 245.465 85.0506 244.62 85.0506 243.612C85.0506 242.604 85.3539 241.764 85.9606 241.092C86.5766 240.411 87.3886 240.07 88.3966 240.07C89.4046 240.07 90.2119 240.411 90.8186 241.092C91.4346 241.764 91.7426 242.604 91.7426 243.612C91.7426 244.62 91.4346 245.465 90.8186 246.146ZM86.7446 245.474C87.1552 245.978 87.7059 246.23 88.3966 246.23C89.0872 246.23 89.6332 245.978 90.0346 245.474C90.4359 244.961 90.6366 244.34 90.6366 243.612C90.6366 242.884 90.4359 242.268 90.0346 241.764C89.6332 241.26 89.0872 241.008 88.3966 241.008C87.7059 241.008 87.1552 241.265 86.7446 241.778C86.3432 242.282 86.1426 242.893 86.1426 243.612C86.1426 244.34 86.3432 244.961 86.7446 245.474ZM97.6483 247H93.8543V240.238H97.5783C98.1663 240.238 98.6283 240.397 98.9643 240.714C99.3096 241.031 99.4823 241.451 99.4823 241.974C99.4823 242.357 99.375 242.688 99.1603 242.968C98.955 243.239 98.6983 243.421 98.3903 243.514C98.7356 243.598 99.025 243.799 99.2583 244.116C99.501 244.433 99.6223 244.783 99.6223 245.166C99.6223 245.717 99.445 246.16 99.0903 246.496C98.745 246.832 98.2643 247 97.6483 247ZM97.4383 246.076C97.7743 246.076 98.0403 245.983 98.2363 245.796C98.4323 245.609 98.5303 245.357 98.5303 245.04C98.5303 244.751 98.4323 244.503 98.2363 244.298C98.0403 244.093 97.7743 243.99 97.4383 243.99H94.9043V246.076H97.4383ZM97.3963 243.066C97.7136 243.066 97.961 242.982 98.1383 242.814C98.3156 242.637 98.4043 242.408 98.4043 242.128C98.4043 241.829 98.3156 241.596 98.1383 241.428C97.961 241.251 97.7136 241.162 97.3963 241.162H94.9043V243.066H97.3963ZM107.382 246.146C106.776 246.827 105.968 247.168 104.96 247.168C103.952 247.168 103.14 246.827 102.524 246.146C101.918 245.465 101.614 244.62 101.614 243.612C101.614 242.604 101.918 241.764 102.524 241.092C103.14 240.411 103.952 240.07 104.96 240.07C105.968 240.07 106.776 240.411 107.382 241.092C107.998 241.764 108.306 242.604 108.306 243.612C108.306 244.62 107.998 245.465 107.382 246.146ZM103.308 245.474C103.719 245.978 104.27 246.23 104.96 246.23C105.651 246.23 106.197 245.978 106.598 245.474C107 244.961 107.2 244.34 107.2 243.612C107.2 242.884 107 242.268 106.598 241.764C106.197 241.26 105.651 241.008 104.96 241.008C104.27 241.008 103.719 241.265 103.308 241.778C102.907 242.282 102.706 242.893 102.706 243.612C102.706 244.34 102.907 244.961 103.308 245.474ZM116.368 247H115.024L112.588 243.962L111.468 245.068V247H110.418V240.238H111.468V243.836L115.024 240.238H116.354L113.358 243.304L116.368 247ZM123.027 247H122.019V240.238H123.069V245.404L126.611 240.238H127.647V247H126.597V241.736L123.027 247ZM129.345 248.722V246.132C129.691 246.067 129.961 245.861 130.157 245.516C130.353 245.161 130.512 244.513 130.633 243.57L131.067 240.238H135.771V246.076H136.555V248.722H135.505V247H130.395V248.722H129.345ZM131.991 241.162L131.683 243.696C131.525 244.881 131.198 245.675 130.703 246.076H134.721V241.162H131.991ZM141.443 247.168C140.435 247.168 139.609 246.841 138.965 246.188C138.321 245.525 137.999 244.667 137.999 243.612C137.999 242.623 138.316 241.787 138.951 241.106C139.586 240.415 140.379 240.07 141.331 240.07C142.33 240.07 143.118 240.415 143.697 241.106C144.285 241.787 144.579 242.651 144.579 243.696V243.962H139.105C139.152 244.625 139.394 245.18 139.833 245.628C140.272 246.076 140.841 246.3 141.541 246.3C142.381 246.3 143.076 246.015 143.627 245.446L144.131 246.132C143.44 246.823 142.544 247.168 141.443 247.168ZM143.543 243.192C143.534 242.613 143.338 242.095 142.955 241.638C142.572 241.171 142.026 240.938 141.317 240.938C140.645 240.938 140.113 241.167 139.721 241.624C139.338 242.081 139.133 242.604 139.105 243.192H143.543ZM147.688 247H146.68V240.238H147.73V245.404L151.272 240.238H152.308V247H151.258V241.736L147.688 247Z" fill="#686565"/>
<rect opacity="0.7" x="30.5" y="439.5" width="605" height="43" stroke="#B8BDCE"/>
<path d="M50.348 466.168C48.976 466.168 47.8607 465.711 47.002 464.796C46.1433 463.881 45.714 462.729 45.714 461.338C45.714 459.947 46.1433 458.795 47.002 457.88C47.8607 456.965 48.976 456.508 50.348 456.508C51.7107 456.508 52.8213 456.965 53.68 457.88C54.548 458.795 54.982 459.947 54.982 461.338C54.982 462.729 54.548 463.881 53.68 464.796C52.8213 465.711 51.7107 466.168 50.348 466.168ZM50.348 465.132C51.3747 465.132 52.2007 464.777 52.826 464.068C53.4607 463.349 53.778 462.439 53.778 461.338C53.778 460.227 53.4607 459.317 52.826 458.608C52.2007 457.899 51.3747 457.544 50.348 457.544C49.312 457.544 48.4813 457.899 47.856 458.608C47.2307 459.317 46.918 460.227 46.918 461.338C46.918 462.439 47.2307 463.349 47.856 464.068C48.4813 464.777 49.312 465.132 50.348 465.132ZM59.4371 466H58.3871V460.162H56.4271V459.238H61.4111V460.162H59.4371V466ZM73.3153 466H66.9033V465.076C67.8739 464.311 68.6253 463.704 69.1573 463.256C69.6986 462.799 70.2166 462.318 70.7113 461.814C71.2153 461.301 71.5699 460.848 71.7753 460.456C71.9806 460.055 72.0833 459.658 72.0833 459.266C72.0833 458.706 71.8919 458.281 71.5093 457.992C71.1266 457.703 70.6693 457.558 70.1373 457.558C69.0639 457.558 68.2193 457.95 67.6033 458.734L66.8893 457.992C67.2439 457.525 67.7059 457.166 68.2753 456.914C68.8539 456.653 69.4746 456.522 70.1373 456.522C70.9866 456.522 71.7193 456.76 72.3353 457.236C72.9606 457.712 73.2733 458.389 73.2733 459.266C73.2733 460.134 72.8999 461.002 72.1533 461.87C71.4066 462.729 70.2679 463.76 68.7373 464.964H73.3153V466ZM79.0391 467.722V465.132C79.3844 465.067 79.6551 464.861 79.8511 464.516C80.0471 464.161 80.2058 463.513 80.3271 462.57L80.7611 459.238H85.4651V465.076H86.2491V467.722H85.1991V466H80.0891V467.722H79.0391ZM81.6851 460.162L81.3771 462.696C81.2184 463.881 80.8918 464.675 80.3971 465.076H84.4151V460.162H81.6851ZM93.4608 465.146C92.8541 465.827 92.0468 466.168 91.0388 466.168C90.0308 466.168 89.2188 465.827 88.6028 465.146C87.9961 464.465 87.6928 463.62 87.6928 462.612C87.6928 461.604 87.9961 460.764 88.6028 460.092C89.2188 459.411 90.0308 459.07 91.0388 459.07C92.0468 459.07 92.8541 459.411 93.4608 460.092C94.0768 460.764 94.3848 461.604 94.3848 462.612C94.3848 463.62 94.0768 464.465 93.4608 465.146ZM89.3868 464.474C89.7974 464.978 90.3481 465.23 91.0388 465.23C91.7294 465.23 92.2754 464.978 92.6768 464.474C93.0781 463.961 93.2788 463.34 93.2788 462.612C93.2788 461.884 93.0781 461.268 92.6768 460.764C92.2754 460.26 91.7294 460.008 91.0388 460.008C90.3481 460.008 89.7974 460.265 89.3868 460.778C88.9854 461.282 88.7848 461.893 88.7848 462.612C88.7848 463.34 88.9854 463.961 89.3868 464.474ZM105.91 465.482C105.275 465.939 104.482 466.168 103.53 466.168C102.578 466.168 101.78 465.939 101.136 465.482C100.501 465.025 100.184 464.409 100.184 463.634C100.184 463.046 100.394 462.537 100.814 462.108C101.243 461.679 101.775 461.371 102.41 461.184C101.813 461.016 101.318 460.745 100.926 460.372C100.534 459.989 100.338 459.513 100.338 458.944C100.338 458.16 100.655 457.563 101.29 457.152C101.925 456.732 102.671 456.522 103.53 456.522C104.389 456.522 105.135 456.732 105.77 457.152C106.414 457.563 106.736 458.16 106.736 458.944C106.736 459.513 106.54 459.989 106.148 460.372C105.756 460.745 105.257 461.016 104.65 461.184C105.285 461.371 105.812 461.679 106.232 462.108C106.661 462.537 106.876 463.046 106.876 463.634C106.876 464.399 106.554 465.015 105.91 465.482ZM103.53 460.708C103.717 460.68 103.903 460.633 104.09 460.568C104.286 460.503 104.505 460.414 104.748 460.302C104.991 460.181 105.187 460.017 105.336 459.812C105.485 459.597 105.56 459.359 105.56 459.098C105.56 458.631 105.364 458.258 104.972 457.978C104.589 457.698 104.109 457.558 103.53 457.558C102.942 457.558 102.457 457.698 102.074 457.978C101.691 458.258 101.5 458.631 101.5 459.098C101.5 459.359 101.575 459.597 101.724 459.812C101.873 460.017 102.069 460.181 102.312 460.302C102.555 460.414 102.769 460.503 102.956 460.568C103.152 460.624 103.343 460.671 103.53 460.708ZM103.53 465.132C104.127 465.132 104.636 464.983 105.056 464.684C105.485 464.385 105.7 463.993 105.7 463.508C105.7 463.135 105.551 462.808 105.252 462.528C104.963 462.239 104.664 462.038 104.356 461.926C104.057 461.805 103.782 461.73 103.53 461.702C103.278 461.73 102.998 461.805 102.69 461.926C102.391 462.038 102.093 462.239 101.794 462.528C101.495 462.808 101.346 463.135 101.346 463.508C101.346 463.993 101.556 464.385 101.976 464.684C102.405 464.983 102.923 465.132 103.53 465.132ZM115.332 466H114.282V460.162H112.322V459.238H117.306V460.162H115.332V466ZM122.135 466.168C121.127 466.168 120.301 465.841 119.657 465.188C119.013 464.525 118.691 463.667 118.691 462.612C118.691 461.623 119.008 460.787 119.643 460.106C120.277 459.415 121.071 459.07 122.023 459.07C123.021 459.07 123.81 459.415 124.389 460.106C124.977 460.787 125.271 461.651 125.271 462.696V462.962H119.797C119.843 463.625 120.086 464.18 120.525 464.628C120.963 465.076 121.533 465.3 122.233 465.3C123.073 465.3 123.768 465.015 124.319 464.446L124.823 465.132C124.132 465.823 123.236 466.168 122.135 466.168ZM124.235 462.192C124.225 461.613 124.029 461.095 123.647 460.638C123.264 460.171 122.718 459.938 122.009 459.938C121.337 459.938 120.805 460.167 120.413 460.624C120.03 461.081 119.825 461.604 119.797 462.192H124.235ZM132.103 459.238V460.162H128.421V466H127.371V459.238H132.103ZM139.245 465.146C138.638 465.827 137.831 466.168 136.823 466.168C135.815 466.168 135.003 465.827 134.387 465.146C133.78 464.465 133.477 463.62 133.477 462.612C133.477 461.604 133.78 460.764 134.387 460.092C135.003 459.411 135.815 459.07 136.823 459.07C137.831 459.07 138.638 459.411 139.245 460.092C139.861 460.764 140.169 461.604 140.169 462.612C140.169 463.62 139.861 464.465 139.245 465.146ZM135.171 464.474C135.582 464.978 136.132 465.23 136.823 465.23C137.514 465.23 138.06 464.978 138.461 464.474C138.862 463.961 139.063 463.34 139.063 462.612C139.063 461.884 138.862 461.268 138.461 460.764C138.06 460.26 137.514 460.008 136.823 460.008C136.132 460.008 135.582 460.265 135.171 460.778C134.77 461.282 134.569 461.893 134.569 462.612C134.569 463.34 134.77 463.961 135.171 464.474ZM146.075 466H142.281V459.238H146.005C146.593 459.238 147.055 459.397 147.391 459.714C147.736 460.031 147.909 460.451 147.909 460.974C147.909 461.357 147.802 461.688 147.587 461.968C147.382 462.239 147.125 462.421 146.817 462.514C147.162 462.598 147.452 462.799 147.685 463.116C147.928 463.433 148.049 463.783 148.049 464.166C148.049 464.717 147.872 465.16 147.517 465.496C147.172 465.832 146.691 466 146.075 466ZM145.865 465.076C146.201 465.076 146.467 464.983 146.663 464.796C146.859 464.609 146.957 464.357 146.957 464.04C146.957 463.751 146.859 463.503 146.663 463.298C146.467 463.093 146.201 462.99 145.865 462.99H143.331V465.076H145.865ZM145.823 462.066C146.14 462.066 146.388 461.982 146.565 461.814C146.742 461.637 146.831 461.408 146.831 461.128C146.831 460.829 146.742 460.596 146.565 460.428C146.388 460.251 146.14 460.162 145.823 460.162H143.331V462.066H145.823ZM154.302 459.238H155.352V461.142C155.352 461.749 155.492 462.169 155.772 462.402C156.052 462.635 156.486 462.752 157.074 462.752C157.802 462.752 158.4 462.631 158.866 462.388V459.238H159.916V466H158.866V463.242C158.269 463.541 157.583 463.69 156.808 463.69C155.931 463.69 155.292 463.513 154.89 463.158C154.498 462.803 154.302 462.239 154.302 461.464V459.238ZM165.468 466.168C164.46 466.168 163.634 465.841 162.99 465.188C162.346 464.525 162.024 463.667 162.024 462.612C162.024 461.623 162.342 460.787 162.976 460.106C163.611 459.415 164.404 459.07 165.356 459.07C166.355 459.07 167.144 459.415 167.722 460.106C168.31 460.787 168.604 461.651 168.604 462.696V462.962H163.13C163.177 463.625 163.42 464.18 163.858 464.628C164.297 465.076 164.866 465.3 165.566 465.3C166.406 465.3 167.102 465.015 167.652 464.446L168.156 465.132C167.466 465.823 166.57 466.168 165.468 466.168ZM167.568 462.192C167.559 461.613 167.363 461.095 166.98 460.638C166.598 460.171 166.052 459.938 165.342 459.938C164.67 459.938 164.138 460.167 163.746 460.624C163.364 461.081 163.158 461.604 163.13 462.192H167.568ZM174.037 466.168C173.085 466.168 172.324 465.771 171.755 464.978V468.576H170.705V459.238H171.755V460.246C172.007 459.891 172.334 459.607 172.735 459.392C173.136 459.177 173.57 459.07 174.037 459.07C174.933 459.07 175.656 459.392 176.207 460.036C176.767 460.671 177.047 461.529 177.047 462.612C177.047 463.695 176.767 464.558 176.207 465.202C175.656 465.846 174.933 466.168 174.037 466.168ZM173.771 465.23C174.434 465.23 174.961 464.987 175.353 464.502C175.745 464.007 175.941 463.377 175.941 462.612C175.941 461.847 175.745 461.221 175.353 460.736C174.961 460.251 174.434 460.008 173.771 460.008C173.37 460.008 172.978 460.115 172.595 460.33C172.222 460.535 171.942 460.787 171.755 461.086V464.138C171.942 464.446 172.222 464.707 172.595 464.922C172.978 465.127 173.37 465.23 173.771 465.23ZM182.169 466.168C181.161 466.168 180.335 465.841 179.691 465.188C179.047 464.525 178.725 463.667 178.725 462.612C178.725 461.623 179.042 460.787 179.677 460.106C180.311 459.415 181.105 459.07 182.057 459.07C183.055 459.07 183.844 459.415 184.423 460.106C185.011 460.787 185.305 461.651 185.305 462.696V462.962H179.831C179.877 463.625 180.12 464.18 180.559 464.628C180.997 465.076 181.567 465.3 182.267 465.3C183.107 465.3 183.802 465.015 184.353 464.446L184.857 465.132C184.166 465.823 183.27 466.168 182.169 466.168ZM184.269 462.192C184.259 461.613 184.063 461.095 183.681 460.638C183.298 460.171 182.752 459.938 182.043 459.938C181.371 459.938 180.839 460.167 180.447 460.624C180.064 461.081 179.859 461.604 179.831 462.192H184.269ZM189.799 466.168C188.502 466.168 187.485 465.799 186.747 465.062L187.265 464.39C187.9 464.997 188.745 465.3 189.799 465.3C190.406 465.3 190.887 465.193 191.241 464.978C191.605 464.763 191.787 464.479 191.787 464.124C191.787 463.377 191.078 463.004 189.659 463.004H188.147V462.15H189.659C190.247 462.15 190.728 462.057 191.101 461.87C191.475 461.674 191.661 461.389 191.661 461.016C191.661 460.699 191.475 460.442 191.101 460.246C190.728 460.041 190.257 459.938 189.687 459.938C188.745 459.938 187.989 460.227 187.419 460.806L186.873 460.162C187.573 459.443 188.497 459.084 189.645 459.084C190.569 459.075 191.316 459.233 191.885 459.56C192.464 459.877 192.753 460.321 192.753 460.89C192.753 461.357 192.562 461.735 192.179 462.024C191.806 462.313 191.391 462.486 190.933 462.542C191.409 462.579 191.853 462.738 192.263 463.018C192.683 463.298 192.893 463.69 192.893 464.194C192.893 464.773 192.613 465.249 192.053 465.622C191.503 465.986 190.751 466.168 189.799 466.168ZM201.4 466.168C200.103 466.168 199.086 465.799 198.348 465.062L198.866 464.39C199.501 464.997 200.346 465.3 201.4 465.3C202.007 465.3 202.488 465.193 202.842 464.978C203.206 464.763 203.388 464.479 203.388 464.124C203.388 463.377 202.679 463.004 201.26 463.004H199.748V462.15H201.26C201.848 462.15 202.329 462.057 202.702 461.87C203.076 461.674 203.262 461.389 203.262 461.016C203.262 460.699 203.076 460.442 202.702 460.246C202.329 460.041 201.858 459.938 201.288 459.938C200.346 459.938 199.59 460.227 199.02 460.806L198.474 460.162C199.174 459.443 200.098 459.084 201.246 459.084C202.17 459.075 202.917 459.233 203.486 459.56C204.065 459.877 204.354 460.321 204.354 460.89C204.354 461.357 204.163 461.735 203.78 462.024C203.407 462.313 202.992 462.486 202.534 462.542C203.01 462.579 203.454 462.738 203.864 463.018C204.284 463.298 204.494 463.69 204.494 464.194C204.494 464.773 204.214 465.249 203.654 465.622C203.104 465.986 202.352 466.168 201.4 466.168ZM211.876 466H210.826V465.23C210.256 465.855 209.51 466.168 208.586 466.168C207.96 466.168 207.41 465.967 206.934 465.566C206.458 465.165 206.22 464.619 206.22 463.928C206.22 463.219 206.453 462.673 206.92 462.29C207.396 461.898 207.951 461.702 208.586 461.702C209.547 461.702 210.294 462.01 210.826 462.626V461.408C210.826 460.96 210.667 460.61 210.35 460.358C210.032 460.106 209.622 459.98 209.118 459.98C208.324 459.98 207.634 460.293 207.046 460.918L206.556 460.19C207.274 459.443 208.175 459.07 209.258 459.07C210.032 459.07 210.662 459.257 211.148 459.63C211.633 460.003 211.876 460.577 211.876 461.352V466ZM208.964 465.412C209.804 465.412 210.424 465.132 210.826 464.572V463.298C210.424 462.738 209.804 462.458 208.964 462.458C208.478 462.458 208.077 462.598 207.76 462.878C207.452 463.149 207.298 463.503 207.298 463.942C207.298 464.371 207.452 464.726 207.76 465.006C208.077 465.277 208.478 465.412 208.964 465.412ZM220.008 466H218.958V460.162H215.43V466H214.38V459.238H220.008V466ZM223.513 466H222.281L224.087 463.34C223.574 463.275 223.154 463.06 222.827 462.696C222.51 462.332 222.351 461.87 222.351 461.31C222.351 460.713 222.542 460.218 222.925 459.826C223.308 459.434 223.83 459.238 224.493 459.238H228.063V466H227.013V463.382H225.165L223.513 466ZM224.605 462.458H227.013V460.162H224.605C224.241 460.162 223.952 460.269 223.737 460.484C223.532 460.689 223.429 460.965 223.429 461.31C223.429 461.655 223.532 461.935 223.737 462.15C223.942 462.355 224.232 462.458 224.605 462.458ZM232.843 466H231.793V460.162H229.833V459.238H234.817V460.162H232.843V466ZM236.216 468.646L236.384 467.694C236.552 467.769 236.743 467.806 236.958 467.806C237.201 467.806 237.401 467.755 237.56 467.652C237.719 467.549 237.854 467.363 237.966 467.092L238.414 466.07L235.586 459.238H236.72L238.974 464.782L241.214 459.238H242.362L238.974 467.372C238.601 468.268 237.938 468.725 236.986 468.744C236.706 468.744 236.449 468.711 236.216 468.646ZM249.527 466.168C248.594 466.168 247.824 465.869 247.217 465.272C246.62 464.665 246.284 463.9 246.209 462.976H244.907V466H243.857V459.238H244.907V462.052H246.223C246.335 461.184 246.685 460.47 247.273 459.91C247.871 459.35 248.622 459.07 249.527 459.07C250.535 459.07 251.347 459.411 251.963 460.092C252.579 460.764 252.887 461.604 252.887 462.612C252.887 463.62 252.579 464.465 251.963 465.146C251.347 465.827 250.535 466.168 249.527 466.168ZM249.527 465.23C250.227 465.23 250.778 464.978 251.179 464.474C251.581 463.961 251.781 463.34 251.781 462.612C251.781 461.884 251.581 461.268 251.179 460.764C250.778 460.26 250.227 460.008 249.527 460.008C248.846 460.008 248.3 460.265 247.889 460.778C247.488 461.282 247.287 461.893 247.287 462.612C247.287 463.34 247.488 463.961 247.889 464.474C248.291 464.978 248.837 465.23 249.527 465.23ZM256 465.916C255.851 466.065 255.669 466.14 255.454 466.14C255.239 466.14 255.057 466.065 254.908 465.916C254.759 465.767 254.684 465.585 254.684 465.37C254.684 465.155 254.759 464.973 254.908 464.824C255.057 464.675 255.239 464.6 255.454 464.6C255.669 464.6 255.851 464.675 256 464.824C256.149 464.973 256.224 465.155 256.224 465.37C256.224 465.585 256.149 465.767 256 465.916ZM259.627 465.916C259.477 466.065 259.295 466.14 259.081 466.14C258.866 466.14 258.684 466.065 258.535 465.916C258.385 465.767 258.311 465.585 258.311 465.37C258.311 465.155 258.385 464.973 258.535 464.824C258.684 464.675 258.866 464.6 259.081 464.6C259.295 464.6 259.477 464.675 259.627 464.824C259.776 464.973 259.851 465.155 259.851 465.37C259.851 465.585 259.776 465.767 259.627 465.916ZM263.253 465.916C263.104 466.065 262.922 466.14 262.707 466.14C262.493 466.14 262.311 466.065 262.161 465.916C262.012 465.767 261.937 465.585 261.937 465.37C261.937 465.155 262.012 464.973 262.161 464.824C262.311 464.675 262.493 464.6 262.707 464.6C262.922 464.6 263.104 464.675 263.253 464.824C263.403 464.973 263.477 465.155 263.477 465.37C263.477 465.585 263.403 465.767 263.253 465.916Z" fill="#686565"/>
<rect opacity="0.7" x="30.5" y="296.5" width="605" height="110" stroke="#B8BDCE"/>
<g clip-path="url(#clip0)">
<path d="M62.448 373.457C60.5054 371.514 57.3449 371.514 55.4022 373.457L47.9838 380.875C47.7549 381.104 47.7549 381.475 47.9838 381.704C48.2128 381.933 48.5837 381.933 48.8126 381.704L56.231 374.286C57.671 372.847 60.1792 372.847 61.6192 374.286C63.1045 375.771 63.1045 378.188 61.6192 379.673L51.2604 390.149C50.3744 391.035 48.8308 391.035 47.9448 390.149C47.0307 389.235 47.0307 387.748 47.9448 386.834L57.8892 376.772C58.2211 376.44 58.8003 376.44 59.1323 376.772C59.4751 377.115 59.4751 377.673 59.1323 378.016L49.6029 387.662C49.4053 387.86 49.4053 388.294 49.6029 388.491C49.8319 388.72 50.2028 388.72 50.4317 388.491L59.9611 378.845C60.7613 378.044 60.7613 376.743 59.9611 375.943C59.1861 375.168 57.8342 375.169 57.0604 375.943L47.116 386.005C45.7556 387.365 45.7556 389.617 47.116 390.978C47.7805 391.642 48.6637 392 49.6029 392C50.5421 392 51.4253 391.642 52.0892 390.978L62.448 380.502C64.3906 378.56 64.3906 375.4 62.448 373.457Z" fill="#686565"/>
</g>
<path d="M50.348 323H46.092V313.662H50.25C51.0527 313.662 51.6873 313.881 52.154 314.32C52.63 314.759 52.868 315.333 52.868 316.042C52.868 316.602 52.7093 317.078 52.392 317.47C52.0747 317.853 51.6873 318.091 51.23 318.184C51.7247 318.259 52.1493 318.52 52.504 318.968C52.868 319.416 53.05 319.92 53.05 320.48C53.05 321.236 52.8073 321.847 52.322 322.314C51.846 322.771 51.188 323 50.348 323ZM50.054 317.708C50.5673 317.708 50.964 317.568 51.244 317.288C51.524 317.008 51.664 316.649 51.664 316.21C51.664 315.771 51.5193 315.412 51.23 315.132C50.95 314.843 50.558 314.698 50.054 314.698H47.254V317.708H50.054ZM50.11 321.964C50.6513 321.964 51.076 321.819 51.384 321.53C51.692 321.241 51.846 320.849 51.846 320.354C51.846 319.897 51.692 319.514 51.384 319.206C51.0853 318.898 50.6607 318.744 50.11 318.744H47.254V321.964H50.11ZM59.0487 323H55.2547V316.238H58.9787C59.5667 316.238 60.0287 316.397 60.3647 316.714C60.71 317.031 60.8827 317.451 60.8827 317.974C60.8827 318.357 60.7754 318.688 60.5607 318.968C60.3554 319.239 60.0987 319.421 59.7907 319.514C60.136 319.598 60.4254 319.799 60.6587 320.116C60.9014 320.433 61.0227 320.783 61.0227 321.166C61.0227 321.717 60.8454 322.16 60.4907 322.496C60.1454 322.832 59.6647 323 59.0487 323ZM58.8387 322.076C59.1747 322.076 59.4407 321.983 59.6367 321.796C59.8327 321.609 59.9307 321.357 59.9307 321.04C59.9307 320.751 59.8327 320.503 59.6367 320.298C59.4407 320.093 59.1747 319.99 58.8387 319.99H56.3047V322.076H58.8387ZM58.7967 319.066C59.114 319.066 59.3614 318.982 59.5387 318.814C59.716 318.637 59.8047 318.408 59.8047 318.128C59.8047 317.829 59.716 317.596 59.5387 317.428C59.3614 317.251 59.114 317.162 58.7967 317.162H56.3047V319.066H58.7967ZM66.4586 323.168C65.4506 323.168 64.6246 322.841 63.9806 322.188C63.3366 321.525 63.0146 320.667 63.0146 319.612C63.0146 318.623 63.332 317.787 63.9666 317.106C64.6013 316.415 65.3946 316.07 66.3466 316.07C67.3453 316.07 68.134 316.415 68.7126 317.106C69.3006 317.787 69.5946 318.651 69.5946 319.696V319.962H64.1206C64.1673 320.625 64.41 321.18 64.8486 321.628C65.2873 322.076 65.8566 322.3 66.5566 322.3C67.3966 322.3 68.092 322.015 68.6426 321.446L69.1466 322.132C68.456 322.823 67.56 323.168 66.4586 323.168ZM68.5586 319.192C68.5493 318.613 68.3533 318.095 67.9706 317.638C67.588 317.171 67.042 316.938 66.3326 316.938C65.6606 316.938 65.1286 317.167 64.7366 317.624C64.354 318.081 64.1486 318.604 64.1206 319.192H68.5586ZM70.8973 324.722V322.132C71.2426 322.067 71.5133 321.861 71.7093 321.516C71.9053 321.161 72.064 320.513 72.1853 319.57L72.6193 316.238H77.3233V322.076H78.1073V324.722H77.0573V323H71.9473V324.722H70.8973ZM73.5433 317.162L73.2353 319.696C73.0766 320.881 72.75 321.675 72.2553 322.076H76.2733V317.162H73.5433ZM80.951 323H79.943V316.238H80.993V321.404L84.535 316.238H85.571V323H84.521V317.736L80.951 323ZM90.3496 323H89.2996V317.162H87.3396V316.238H92.3236V317.162H90.3496V323ZM97.1524 323.168C96.1444 323.168 95.3184 322.841 94.6744 322.188C94.0304 321.525 93.7084 320.667 93.7084 319.612C93.7084 318.623 94.0257 317.787 94.6604 317.106C95.2951 316.415 96.0884 316.07 97.0404 316.07C98.0391 316.07 98.8277 316.415 99.4064 317.106C99.9944 317.787 100.288 318.651 100.288 319.696V319.962H94.8144C94.8611 320.625 95.1037 321.18 95.5424 321.628C95.9811 322.076 96.5504 322.3 97.2504 322.3C98.0904 322.3 98.7857 322.015 99.3364 321.446L99.8404 322.132C99.1497 322.823 98.2537 323.168 97.1524 323.168ZM99.2524 319.192C99.2431 318.613 99.0471 318.095 98.6644 317.638C98.2817 317.171 97.7357 316.938 97.0264 316.938C96.3544 316.938 95.8224 317.167 95.4304 317.624C95.0477 318.081 94.8424 318.604 94.8144 319.192H99.2524ZM108.68 323H107.63V317.162H105.67V316.238H110.654V317.162H108.68V323ZM115.483 323.168C114.475 323.168 113.649 322.841 113.005 322.188C112.361 321.525 112.039 320.667 112.039 319.612C112.039 318.623 112.357 317.787 112.991 317.106C113.626 316.415 114.419 316.07 115.371 316.07C116.37 316.07 117.159 316.415 117.737 317.106C118.325 317.787 118.619 318.651 118.619 319.696V319.962H113.145C113.192 320.625 113.435 321.18 113.873 321.628C114.312 322.076 114.881 322.3 115.581 322.3C116.421 322.3 117.117 322.015 117.667 321.446L118.171 322.132C117.481 322.823 116.585 323.168 115.483 323.168ZM117.583 319.192C117.574 318.613 117.378 318.095 116.995 317.638C116.613 317.171 116.067 316.938 115.357 316.938C114.685 316.938 114.153 317.167 113.761 317.624C113.379 318.081 113.173 318.604 113.145 319.192H117.583ZM126.67 323H125.326L122.89 319.962L121.77 321.068V323H120.72V316.238H121.77V319.836L125.326 316.238H126.656L123.66 319.304L126.67 323ZM131.252 323.168C130.254 323.168 129.442 322.832 128.816 322.16C128.191 321.479 127.878 320.629 127.878 319.612C127.878 318.595 128.191 317.75 128.816 317.078C129.442 316.406 130.254 316.07 131.252 316.07C132.298 316.07 133.124 316.462 133.73 317.246L133.03 317.89C132.601 317.302 132.027 317.008 131.308 317.008C130.599 317.008 130.03 317.251 129.6 317.736C129.18 318.221 128.97 318.847 128.97 319.612C128.97 320.377 129.18 321.007 129.6 321.502C130.03 321.987 130.599 322.23 131.308 322.23C132.018 322.23 132.592 321.936 133.03 321.348L133.73 321.992C133.124 322.776 132.298 323.168 131.252 323.168ZM137.884 323H136.834V317.162H134.874V316.238H139.858V317.162H137.884V323Z" fill="#686565"/>
<path d="M40.0654 182.834C39.9365 184.199 39.4326 185.266 38.5537 186.033C37.6748 186.795 36.5059 187.176 35.0469 187.176C34.0273 187.176 33.1279 186.936 32.3486 186.455C31.5752 185.969 30.9775 185.28 30.5557 184.39C30.1338 183.499 29.9141 182.465 29.8965 181.287V180.092C29.8965 178.885 30.1104 177.821 30.5381 176.901C30.9658 175.981 31.5781 175.272 32.375 174.774C33.1777 174.276 34.1035 174.027 35.1523 174.027C36.5645 174.027 37.7012 174.411 38.5625 175.179C39.4238 175.946 39.9248 177.03 40.0654 178.431H37.8506C37.7451 177.511 37.4756 176.849 37.042 176.444C36.6143 176.034 35.9844 175.829 35.1523 175.829C34.1855 175.829 33.4414 176.184 32.9199 176.893C32.4043 177.596 32.1406 178.63 32.1289 179.995V181.129C32.1289 182.512 32.375 183.566 32.8672 184.293C33.3652 185.02 34.0918 185.383 35.0469 185.383C35.9199 185.383 36.5762 185.187 37.0156 184.794C37.4551 184.401 37.7334 183.748 37.8506 182.834H40.0654ZM41.4541 182.157C41.4541 181.226 41.6387 180.388 42.0078 179.644C42.377 178.894 42.8955 178.319 43.5635 177.921C44.2314 177.517 44.999 177.314 45.8662 177.314C47.1494 177.314 48.1895 177.728 48.9863 178.554C49.7891 179.38 50.2227 180.476 50.2871 181.841L50.2959 182.342C50.2959 183.279 50.1143 184.117 49.751 184.855C49.3936 185.594 48.8779 186.165 48.2041 186.569C47.5361 186.974 46.7627 187.176 45.8838 187.176C44.542 187.176 43.4668 186.73 42.6582 185.84C41.8555 184.943 41.4541 183.751 41.4541 182.263V182.157ZM43.5898 182.342C43.5898 183.32 43.792 184.088 44.1963 184.645C44.6006 185.195 45.1631 185.471 45.8838 185.471C46.6045 185.471 47.1641 185.189 47.5625 184.627C47.9668 184.064 48.1689 183.241 48.1689 182.157C48.1689 181.196 47.9609 180.435 47.5449 179.872C47.1348 179.31 46.5752 179.028 45.8662 179.028C45.1689 179.028 44.6152 179.307 44.2051 179.863C43.7949 180.414 43.5898 181.24 43.5898 182.342ZM51.5088 185.295C52.1006 184.633 52.4961 184.006 52.6953 183.414C52.9004 182.816 53.0234 182.055 53.0645 181.129L53.1875 177.49H59.7881V185.295H61.1064V189.83H58.9795V187H52.8799V189.83H50.7178L50.7266 185.295H51.5088ZM54.0137 185.295H57.6611V179.327H55.2617L55.2002 181.146C55.1182 182.893 54.7227 184.275 54.0137 185.295ZM66.8193 187.176C65.4658 187.176 64.3672 186.751 63.5234 185.901C62.6855 185.046 62.2666 183.909 62.2666 182.491V182.228C62.2666 181.278 62.4482 180.432 62.8115 179.688C63.1807 178.938 63.6963 178.354 64.3584 177.938C65.0205 177.522 65.7588 177.314 66.5732 177.314C67.8682 177.314 68.8672 177.728 69.5703 178.554C70.2793 179.38 70.6338 180.549 70.6338 182.061V182.922H64.4199C64.4844 183.707 64.7451 184.328 65.2021 184.785C65.665 185.242 66.2451 185.471 66.9424 185.471C67.9209 185.471 68.7178 185.075 69.333 184.284L70.4844 185.383C70.1035 185.951 69.5938 186.394 68.9551 186.71C68.3223 187.021 67.6104 187.176 66.8193 187.176ZM66.5645 179.028C65.9785 179.028 65.5039 179.233 65.1406 179.644C64.7832 180.054 64.5547 180.625 64.4551 181.357H68.5244V181.199C68.4775 180.484 68.2871 179.945 67.9531 179.582C67.6191 179.213 67.1562 179.028 66.5645 179.028ZM80.627 182.342C80.627 183.812 80.293 184.987 79.625 185.866C78.957 186.739 78.0605 187.176 76.9355 187.176C75.8926 187.176 75.0576 186.833 74.4307 186.147V190.656H72.2949V177.49H74.2637L74.3516 178.457C74.9785 177.695 75.8311 177.314 76.9092 177.314C78.0693 177.314 78.9775 177.748 79.6338 178.615C80.2959 179.477 80.627 180.675 80.627 182.21V182.342ZM78.5 182.157C78.5 181.208 78.3096 180.455 77.9287 179.898C77.5537 179.342 77.0146 179.063 76.3115 179.063C75.4385 179.063 74.8115 179.424 74.4307 180.145V184.363C74.8174 185.102 75.4502 185.471 76.3291 185.471C77.0088 185.471 77.5391 185.198 77.9199 184.653C78.3066 184.103 78.5 183.271 78.5 182.157ZM90.6729 183.177H89.5391V187H87.4033V183.177H86.2783L84.0898 187H81.4707L84.626 182.052L81.6377 177.49H84.248L86.4014 181.226H87.4033V177.49H89.5391V181.226H90.5498L92.7119 177.49H95.3223L92.3428 182.025L95.5156 187H92.8613L90.6729 183.177ZM102.521 187C102.427 186.818 102.345 186.522 102.274 186.112C101.595 186.821 100.763 187.176 99.7783 187.176C98.8232 187.176 98.0439 186.903 97.4404 186.358C96.8369 185.813 96.5352 185.14 96.5352 184.337C96.5352 183.323 96.9102 182.547 97.6602 182.008C98.416 181.463 99.4941 181.19 100.895 181.19H102.204V180.566C102.204 180.074 102.066 179.682 101.791 179.389C101.516 179.09 101.097 178.94 100.534 178.94C100.048 178.94 99.6494 179.063 99.3389 179.31C99.0283 179.55 98.873 179.857 98.873 180.232H96.7373C96.7373 179.711 96.9102 179.225 97.2559 178.773C97.6016 178.316 98.0703 177.959 98.6621 177.701C99.2598 177.443 99.9248 177.314 100.657 177.314C101.771 177.314 102.658 177.596 103.32 178.158C103.982 178.715 104.322 179.5 104.34 180.514V184.803C104.34 185.658 104.46 186.341 104.7 186.851V187H102.521ZM100.174 185.462C100.596 185.462 100.991 185.359 101.36 185.154C101.735 184.949 102.017 184.674 102.204 184.328V182.535H101.053C100.262 182.535 99.667 182.673 99.2686 182.948C98.8701 183.224 98.6709 183.613 98.6709 184.117C98.6709 184.527 98.8057 184.855 99.0752 185.102C99.3506 185.342 99.7168 185.462 100.174 185.462ZM114.632 187H112.496V183.159H108.796V187H106.66V177.49H108.796V181.454H112.496V177.49H114.632V187ZM122.85 177.49H124.977V187H122.85V180.654L119.123 187H116.996V177.49H119.123V183.836L122.85 177.49ZM131.437 187.176C130.083 187.176 128.984 186.751 128.141 185.901C127.303 185.046 126.884 183.909 126.884 182.491V182.228C126.884 181.278 127.065 180.432 127.429 179.688C127.798 178.938 128.313 178.354 128.976 177.938C129.638 177.522 130.376 177.314 131.19 177.314C132.485 177.314 133.484 177.728 134.188 178.554C134.896 179.38 135.251 180.549 135.251 182.061V182.922H129.037C129.102 183.707 129.362 184.328 129.819 184.785C130.282 185.242 130.862 185.471 131.56 185.471C132.538 185.471 133.335 185.075 133.95 184.284L135.102 185.383C134.721 185.951 134.211 186.394 133.572 186.71C132.939 187.021 132.228 187.176 131.437 187.176ZM131.182 179.028C130.596 179.028 130.121 179.233 129.758 179.644C129.4 180.054 129.172 180.625 129.072 181.357H133.142V181.199C133.095 180.484 132.904 179.945 132.57 179.582C132.236 179.213 131.773 179.028 131.182 179.028ZM147.336 177.49H149.463V187H147.336V180.654L143.609 187H141.482V177.49H143.609V183.836L147.336 177.49ZM151.774 185.295C152.366 184.633 152.762 184.006 152.961 183.414C153.166 182.816 153.289 182.055 153.33 181.129L153.453 177.49H160.054V185.295H161.372V189.83H159.245V187H153.146V189.83H150.983L150.992 185.295H151.774ZM154.279 185.295H157.927V179.327H155.527L155.466 181.146C155.384 182.893 154.988 184.275 154.279 185.295ZM167.085 187.176C165.731 187.176 164.633 186.751 163.789 185.901C162.951 185.046 162.532 183.909 162.532 182.491V182.228C162.532 181.278 162.714 180.432 163.077 179.688C163.446 178.938 163.962 178.354 164.624 177.938C165.286 177.522 166.024 177.314 166.839 177.314C168.134 177.314 169.133 177.728 169.836 178.554C170.545 179.38 170.899 180.549 170.899 182.061V182.922H164.686C164.75 183.707 165.011 184.328 165.468 184.785C165.931 185.242 166.511 185.471 167.208 185.471C168.187 185.471 168.983 185.075 169.599 184.284L170.75 185.383C170.369 185.951 169.859 186.394 169.221 186.71C168.588 187.021 167.876 187.176 167.085 187.176ZM166.83 179.028C166.244 179.028 165.77 179.233 165.406 179.644C165.049 180.054 164.82 180.625 164.721 181.357H168.79V181.199C168.743 180.484 168.553 179.945 168.219 179.582C167.885 179.213 167.422 179.028 166.83 179.028ZM178.502 177.49H180.629V187H178.502V180.654L174.775 187H172.648V177.49H174.775V183.836L178.502 177.49Z" fill="#484848"/>
<line x1="219" y1="91.5" x2="447" y2="91.5" stroke="#7C8793"/>
<circle cx="225" cy="94" r="19.5" fill="white" stroke="#7C8793"/>
<path d="M225.741 100H223.614V89.7256L220.477 90.7979V88.9961L225.469 87.1592H225.741V100Z" fill="#7C8793"/>
<circle cx="297" cy="94" r="20" fill="#0057B6"/>
<path d="M300.562 100H291.958V98.5322L296.221 93.8828C296.836 93.1973 297.272 92.626 297.53 92.1689C297.794 91.7061 297.926 91.2432 297.926 90.7803C297.926 90.1709 297.753 89.6787 297.407 89.3037C297.067 88.9287 296.607 88.7412 296.027 88.7412C295.336 88.7412 294.8 88.9521 294.419 89.374C294.038 89.7959 293.848 90.373 293.848 91.1055H291.712C291.712 90.3262 291.888 89.626 292.239 89.0049C292.597 88.3779 293.104 87.8916 293.76 87.5459C294.422 87.2002 295.184 87.0273 296.045 87.0273C297.287 87.0273 298.266 87.3408 298.98 87.9678C299.701 88.5889 300.062 89.4502 300.062 90.5518C300.062 91.1904 299.88 91.8613 299.517 92.5645C299.159 93.2617 298.57 94.0557 297.75 94.9463L294.621 98.2949H300.562V100Z" fill="white"/>
<circle cx="369" cy="94" r="19.5" fill="white" stroke="#7C8793"/>
<path d="M366.428 92.626H367.729C368.385 92.6201 368.903 92.4502 369.284 92.1162C369.671 91.7822 369.864 91.2988 369.864 90.666C369.864 90.0566 369.703 89.585 369.381 89.251C369.064 88.9111 368.578 88.7412 367.922 88.7412C367.348 88.7412 366.876 88.9082 366.507 89.2422C366.138 89.5703 365.953 90.001 365.953 90.5342H363.817C363.817 89.8779 363.99 89.2803 364.336 88.7412C364.688 88.2021 365.174 87.7832 365.795 87.4844C366.422 87.1797 367.122 87.0273 367.896 87.0273C369.173 87.0273 370.175 87.3496 370.901 87.9941C371.634 88.6328 372 89.5234 372 90.666C372 91.2402 371.815 91.7822 371.446 92.292C371.083 92.7959 370.611 93.1768 370.031 93.4346C370.734 93.6748 371.268 94.0527 371.631 94.5684C372 95.084 372.185 95.6992 372.185 96.4141C372.185 97.5625 371.789 98.4766 370.998 99.1562C370.213 99.8359 369.179 100.176 367.896 100.176C366.665 100.176 365.657 99.8477 364.872 99.1914C364.087 98.5352 363.694 97.6621 363.694 96.5723H365.83C365.83 97.1348 366.018 97.5918 366.393 97.9434C366.773 98.2949 367.283 98.4707 367.922 98.4707C368.584 98.4707 369.105 98.2949 369.486 97.9434C369.867 97.5918 370.058 97.082 370.058 96.4141C370.058 95.7402 369.858 95.2217 369.46 94.8584C369.062 94.4951 368.47 94.3135 367.685 94.3135H366.428V92.626Z" fill="#7C8793"/>
<circle cx="441" cy="94" r="19.5" fill="white" stroke="#7C8793"/>
<path d="M443.183 95.4385H444.773V97.1523H443.183V100H441.047V97.1523H435.519L435.457 95.8516L440.977 87.2031H443.183V95.4385ZM437.698 95.4385H441.047V90.0947L440.889 90.376L437.698 95.4385Z" fill="#7C8793"/>
<defs>
<filter id="filter0_d" x="0" y="142" width="666" height="447" filterUnits="userSpaceOnUse" color-interpolation-filters="sRGB">
<feFlood flood-opacity="0" result="BackgroundImageFix"/>
<feColorMatrix in="SourceAlpha" type="matrix" values="0 0 0 0 0 0 0 0 0 0 0 0 0 0 0 0 0 0 127 0"/>
<feOffset dy="2"/>
<feGaussianBlur stdDeviation="2.5"/>
<feColorMatrix type="matrix" values="0 0 0 0 0.4125 0 0 0 0 0.4125 0 0 0 0 0.4125 0 0 0 0.1 0"/>
<feBlend mode="normal" in2="BackgroundImageFix" result="effect1_dropShadow"/>
<feBlend mode="normal" in="SourceGraphic" in2="effect1_dropShadow" result="shape"/>
</filter>
<clipPath id="clip0">
<rect width="20" height="20" fill="white" transform="translate(45 372)"/>
</clipPath>
</defs>
</svg>
