<svg width="656" height="297" viewBox="0 0 656 297" fill="none" xmlns="http://www.w3.org/2000/svg">
<rect x="0.5" y="157.5" width="655" height="139" rx="4.5" fill="white" stroke="#D7DEE9"/>
<path d="M29.394 190H27.532L26.846 188.208H22.562L21.876 190H20.014L23.682 180.662H25.726L29.394 190ZM26.384 186.766L24.704 182.314L23.024 186.766H26.384ZM36.6999 190H34.8519L32.7799 187.214L31.8419 188.18V190H30.3719V183.238H31.8419V186.5L34.8239 183.238H36.6439L33.8299 186.304L36.6999 190ZM40.4431 190H38.9731V184.526H37.0411V183.238H42.3891V184.526H40.4431V190ZM45.0066 190H43.5926V183.238H45.0626V187.788L48.1706 183.238H49.6406V190H48.1706V185.324L45.0066 190ZM55.6937 190H51.5497V183.238H55.5957C56.221 183.238 56.711 183.401 57.0657 183.728C57.4203 184.055 57.5977 184.47 57.5977 184.974C57.5977 185.366 57.4903 185.697 57.2757 185.968C57.061 186.239 56.7903 186.421 56.4637 186.514C56.8277 186.598 57.131 186.799 57.3737 187.116C57.6163 187.424 57.7377 187.774 57.7377 188.166C57.7377 188.707 57.5557 189.151 57.1917 189.496C56.837 189.832 56.3377 190 55.6937 190ZM55.3857 188.712C55.647 188.712 55.8523 188.647 56.0017 188.516C56.151 188.376 56.2257 188.189 56.2257 187.956C56.2257 187.741 56.151 187.559 56.0017 187.41C55.8523 187.261 55.647 187.186 55.3857 187.186H53.0197V188.712H55.3857ZM55.3437 185.898C55.577 185.898 55.759 185.837 55.8897 185.716C56.0297 185.585 56.0997 185.422 56.0997 185.226C56.0997 185.011 56.0297 184.843 55.8897 184.722C55.759 184.591 55.577 184.526 55.3437 184.526H53.0197V185.898H55.3437ZM61.0314 190H59.5614V183.238H61.0314V185.898H64.1394V183.238H65.6094V190H64.1394V187.186H61.0314V190ZM70.5704 190.168C69.5251 190.168 68.6851 189.827 68.0504 189.146C67.4157 188.455 67.0984 187.611 67.0984 186.612C67.0984 185.613 67.4157 184.773 68.0504 184.092C68.6851 183.411 69.5251 183.07 70.5704 183.07C71.6251 183.07 72.4697 183.411 73.1044 184.092C73.7391 184.773 74.0564 185.613 74.0564 186.612C74.0564 187.62 73.7391 188.465 73.1044 189.146C72.4697 189.827 71.6251 190.168 70.5704 190.168ZM70.5704 188.866C71.1771 188.866 71.6531 188.651 71.9984 188.222C72.3531 187.783 72.5304 187.247 72.5304 186.612C72.5304 185.987 72.3531 185.459 71.9984 185.03C71.6531 184.591 71.1771 184.372 70.5704 184.372C69.9731 184.372 69.4971 184.591 69.1424 185.03C68.7971 185.459 68.6244 185.987 68.6244 186.612C68.6244 187.247 68.7971 187.783 69.1424 188.222C69.4971 188.651 69.9731 188.866 70.5704 188.866ZM78.6238 190.168C77.5971 190.168 76.7571 189.837 76.1038 189.174C75.4505 188.502 75.1238 187.648 75.1238 186.612C75.1238 185.585 75.4505 184.741 76.1038 184.078C76.7571 183.406 77.5971 183.07 78.6238 183.07C79.7531 183.07 80.6165 183.471 81.2138 184.274L80.2478 185.17C79.8745 184.638 79.3565 184.372 78.6938 184.372C78.0778 184.372 77.5831 184.582 77.2098 185.002C76.8365 185.413 76.6498 185.949 76.6498 186.612C76.6498 187.275 76.8365 187.816 77.2098 188.236C77.5831 188.656 78.0778 188.866 78.6938 188.866C79.3378 188.866 79.8558 188.6 80.2478 188.068L81.2138 188.964C80.6165 189.767 79.7531 190.168 78.6238 190.168ZM85.2048 190H83.7348V184.526H81.8028V183.238H87.1508V184.526H85.2048V190ZM88.3543 183.238H89.8243V185.688H92.2183C92.937 185.688 93.4877 185.893 93.8703 186.304C94.2623 186.715 94.4583 187.228 94.4583 187.844C94.4583 188.451 94.2577 188.964 93.8563 189.384C93.4643 189.795 92.9183 190 92.2183 190H88.3543V183.238ZM92.0363 186.976H89.8243V188.712H92.0363C92.3257 188.712 92.5497 188.633 92.7083 188.474C92.8763 188.315 92.9603 188.105 92.9603 187.844C92.9603 187.583 92.8763 187.373 92.7083 187.214C92.5497 187.055 92.3257 186.976 92.0363 186.976ZM107.337 188.81C106.441 189.715 105.297 190.168 103.907 190.168C102.516 190.168 101.373 189.715 100.477 188.81C99.5806 187.895 99.1326 186.738 99.1326 185.338C99.1326 183.938 99.5806 182.785 100.477 181.88C101.373 180.965 102.516 180.508 103.907 180.508C105.297 180.508 106.441 180.965 107.337 181.88C108.233 182.785 108.681 183.938 108.681 185.338C108.681 186.738 108.233 187.895 107.337 188.81ZM103.907 188.712C104.831 188.712 105.577 188.395 106.147 187.76C106.716 187.116 107.001 186.309 107.001 185.338C107.001 184.358 106.716 183.551 106.147 182.916C105.577 182.281 104.831 181.964 103.907 181.964C102.973 181.964 102.222 182.281 101.653 182.916C101.093 183.551 100.813 184.358 100.813 185.338C100.813 186.318 101.093 187.125 101.653 187.76C102.222 188.395 102.973 188.712 103.907 188.712ZM112.036 190H110.566V184.526H109.446V183.238H110.566V182.86C110.566 182.132 110.757 181.563 111.14 181.152C111.532 180.732 112.054 180.522 112.708 180.522C113.408 180.522 113.949 180.718 114.332 181.11L113.758 182.02C113.543 181.824 113.282 181.726 112.974 181.726C112.684 181.726 112.456 181.824 112.288 182.02C112.12 182.207 112.036 182.487 112.036 182.86V183.238H113.408V184.526H112.036V190ZM116.348 190H114.878V184.526H113.758V183.238H114.878V182.86C114.878 182.132 115.069 181.563 115.452 181.152C115.844 180.732 116.366 180.522 117.02 180.522C117.72 180.522 118.261 180.718 118.644 181.11L118.07 182.02C117.855 181.824 117.594 181.726 117.286 181.726C116.996 181.726 116.768 181.824 116.6 182.02C116.432 182.207 116.348 182.487 116.348 182.86V183.238H117.72V184.526H116.348V190ZM121.978 190.168C120.952 190.168 120.102 189.841 119.43 189.188C118.768 188.525 118.436 187.667 118.436 186.612C118.436 185.623 118.758 184.787 119.402 184.106C120.056 183.415 120.877 183.07 121.866 183.07C122.865 183.07 123.668 183.415 124.274 184.106C124.89 184.797 125.198 185.679 125.198 186.752V187.102H119.976C120.032 187.634 120.252 188.077 120.634 188.432C121.017 188.787 121.516 188.964 122.132 188.964C122.478 188.964 122.823 188.899 123.168 188.768C123.523 188.637 123.817 188.455 124.05 188.222L124.722 189.188C124.041 189.841 123.126 190.168 121.978 190.168ZM123.77 186.066C123.752 185.599 123.579 185.184 123.252 184.82C122.935 184.456 122.473 184.274 121.866 184.274C121.288 184.274 120.835 184.456 120.508 184.82C120.182 185.175 120 185.59 119.962 186.066H123.77ZM128.119 190H126.649V183.238H128.119V184.232C128.381 183.896 128.707 183.621 129.099 183.406C129.491 183.191 129.897 183.084 130.317 183.084V184.54C130.187 184.512 130.033 184.498 129.855 184.498C129.547 184.498 129.216 184.591 128.861 184.778C128.516 184.955 128.269 185.161 128.119 185.394V190ZM135.826 182.412C135.584 182.412 135.369 182.323 135.182 182.146C135.005 181.969 134.916 181.754 134.916 181.502C134.916 181.25 135.005 181.035 135.182 180.858C135.369 180.681 135.584 180.592 135.826 180.592C136.078 180.592 136.293 180.681 136.47 180.858C136.648 181.035 136.736 181.25 136.736 181.502C136.736 181.754 136.648 181.969 136.47 182.146C136.293 182.323 136.078 182.412 135.826 182.412ZM136.568 190H135.098V183.238H136.568V190ZM140.505 190.168C139.936 190.168 139.502 190.019 139.203 189.72C138.914 189.421 138.769 188.992 138.769 188.432V184.526H137.649V183.238H138.769V181.39H140.239V183.238H141.611V184.526H140.239V188.068C140.239 188.311 140.295 188.507 140.407 188.656C140.519 188.796 140.678 188.866 140.883 188.866C141.182 188.866 141.401 188.787 141.541 188.628L141.891 189.734C141.583 190.023 141.121 190.168 140.505 190.168Z" fill="#7C8793"/>
<path d="M29.608 269H28.612V265.328H23.932V269H22.936V260.996H23.932V264.44H28.612V260.996H29.608V269ZM36.051 268.268C35.531 268.852 34.839 269.144 33.975 269.144C33.111 269.144 32.415 268.852 31.887 268.268C31.367 267.684 31.107 266.96 31.107 266.096C31.107 265.232 31.367 264.512 31.887 263.936C32.415 263.352 33.111 263.06 33.975 263.06C34.839 263.06 35.531 263.352 36.051 263.936C36.579 264.512 36.843 265.232 36.843 266.096C36.843 266.96 36.579 267.684 36.051 268.268ZM32.559 267.692C32.911 268.124 33.383 268.34 33.975 268.34C34.567 268.34 35.035 268.124 35.379 267.692C35.723 267.252 35.895 266.72 35.895 266.096C35.895 265.472 35.723 264.944 35.379 264.512C35.035 264.08 34.567 263.864 33.975 263.864C33.383 263.864 32.911 264.084 32.559 264.524C32.215 264.956 32.043 265.48 32.043 266.096C32.043 266.72 32.215 267.252 32.559 267.692ZM41.5622 269H38.3102V263.204H41.5022C42.0062 263.204 42.4022 263.34 42.6902 263.612C42.9862 263.884 43.1342 264.244 43.1342 264.692C43.1342 265.02 43.0422 265.304 42.8582 265.544C42.6822 265.776 42.4622 265.932 42.1982 266.012C42.4942 266.084 42.7422 266.256 42.9422 266.528C43.1502 266.8 43.2542 267.1 43.2542 267.428C43.2542 267.9 43.1022 268.28 42.7982 268.568C42.5022 268.856 42.0902 269 41.5622 269ZM41.3822 268.208C41.6702 268.208 41.8982 268.128 42.0662 267.968C42.2342 267.808 42.3182 267.592 42.3182 267.32C42.3182 267.072 42.2342 266.86 42.0662 266.684C41.8982 266.508 41.6702 266.42 41.3822 266.42H39.2102V268.208H41.3822ZM41.3462 265.628C41.6182 265.628 41.8302 265.556 41.9822 265.412C42.1342 265.26 42.2102 265.064 42.2102 264.824C42.2102 264.568 42.1342 264.368 41.9822 264.224C41.8302 264.072 41.6182 263.996 41.3462 263.996H39.2102V265.628H41.3462ZM45.8187 269H44.9547V263.204H45.8547V267.632L48.8907 263.204H49.7787V269H48.8787V264.488L45.8187 269ZM51.4558 263.204H52.3558V264.836C52.3558 265.356 52.4758 265.716 52.7158 265.916C52.9558 266.116 53.3278 266.216 53.8318 266.216C54.4558 266.216 54.9678 266.112 55.3678 265.904V263.204H56.2678V269H55.3678V266.636C54.8558 266.892 54.2678 267.02 53.6038 267.02C52.8518 267.02 52.3038 266.868 51.9598 266.564C51.6238 266.26 51.4558 265.776 51.4558 265.112V263.204ZM62.676 268.268C62.156 268.852 61.464 269.144 60.6 269.144C59.736 269.144 59.04 268.852 58.512 268.268C57.992 267.684 57.732 266.96 57.732 266.096C57.732 265.232 57.992 264.512 58.512 263.936C59.04 263.352 59.736 263.06 60.6 263.06C61.464 263.06 62.156 263.352 62.676 263.936C63.204 264.512 63.468 265.232 63.468 266.096C63.468 266.96 63.204 267.684 62.676 268.268ZM59.184 267.692C59.536 268.124 60.008 268.34 60.6 268.34C61.192 268.34 61.66 268.124 62.004 267.692C62.348 267.252 62.52 266.72 62.52 266.096C62.52 265.472 62.348 264.944 62.004 264.512C61.66 264.08 61.192 263.864 60.6 263.864C60.008 263.864 59.536 264.084 59.184 264.524C58.84 264.956 58.668 265.48 58.668 266.096C58.668 266.72 58.84 267.252 59.184 267.692ZM70.0352 269H68.8832L66.7952 266.396L65.8352 267.344V269H64.9352V263.204H65.8352V266.288L68.8832 263.204H70.0232L67.4552 265.832L70.0352 269Z" fill="#7C8793"/>
<circle cx="46" cy="227" r="26" fill="#0057B6"/>
<path d="M53.778 225.042L51.1835 223.042L48.59 225.042L45.997 223.042L43.4043 225.042L40.8108 223.042L38.2175 225.042L35.6238 223.042L34.6627 223.783C34.3123 225.394 34.1321 227.038 34.125 228.687C34.125 236.35 38.337 242.562 46 242.562C53.663 242.562 57.875 236.35 57.875 228.687C57.8679 227.04 57.6879 225.398 57.338 223.787L56.3717 223.043L53.778 225.042Z" fill="#EAEAEA"/>
<path d="M47.2539 215.278L45.9999 216.5L44.7459 215.278C44.5741 215.11 44.4376 214.91 44.3444 214.689C44.2512 214.468 44.2031 214.231 44.2031 213.991V213.234C44.2032 212.758 44.3925 212.301 44.7295 211.964C45.0664 211.627 45.5234 211.438 45.9999 211.438C46.4764 211.438 46.9334 211.627 47.2704 211.964C47.6073 212.301 47.7966 212.758 47.7966 213.234V213.991C47.7967 214.231 47.7487 214.468 47.6554 214.689C47.5622 214.91 47.4257 215.11 47.2539 215.278Z" fill="#FF6E6E"/>
<path d="M38.2175 225.042L40.8107 223.042L43.4042 225.042L45.997 223.042L48.59 225.042L51.1835 223.042L53.778 225.042L55.116 224.01C55.2324 223.444 55.291 222.869 55.291 222.291C55.291 217.977 52.0677 214.383 47.7962 213.584V213.991C47.7963 214.231 47.7482 214.468 47.655 214.689C47.5618 214.91 47.4253 215.111 47.2535 215.278L46 216.5L44.746 215.278C44.5742 215.11 44.4377 214.91 44.3445 214.689C44.2512 214.468 44.2032 214.231 44.2032 213.991V213.583C39.9317 214.383 36.7085 217.977 36.7085 222.291C36.7087 222.87 36.7679 223.447 36.885 224.014L38.2175 225.042Z" fill="#FFCA28"/>
<path d="M48.0881 220.164L45.9999 221.156L43.9116 220.164L45.9999 218.076L48.0881 220.164Z" fill="#9B6E42"/>
<path d="M49.4531 218.656C49.9019 218.656 50.2656 218.292 50.2656 217.844C50.2656 217.395 49.9019 217.031 49.4531 217.031C49.0044 217.031 48.6406 217.395 48.6406 217.844C48.6406 218.292 49.0044 218.656 49.4531 218.656Z" fill="#596675"/>
<path d="M42.5469 218.656C42.9956 218.656 43.3594 218.292 43.3594 217.844C43.3594 217.395 42.9956 217.031 42.5469 217.031C42.0981 217.031 41.7344 217.395 41.7344 217.844C41.7344 218.292 42.0981 218.656 42.5469 218.656Z" fill="#596675"/>
<rect x="0.5" y="0.5" width="655" height="57" rx="4.5" fill="white" stroke="#D7DEE9"/>
<path d="M24.728 41.444V34.808C25.4373 34.7147 25.988 34.528 26.38 34.248C26.7907 33.968 27.164 33.3987 27.5 32.54C27.836 31.6813 28.0973 30.4587 28.284 28.872L29.376 19.324H42.648V34.5H44.328V41.444H40.352V38H28.704V41.444H24.728ZM32.232 29.152C31.9707 31.56 31.2147 33.3427 29.964 34.5H38.644V22.824H32.96L32.232 29.152ZM58.0526 36.292C56.7459 37.6547 55.0099 38.336 52.8446 38.336C50.6793 38.336 48.9433 37.6547 47.6366 36.292C46.3486 34.9107 45.7046 33.2213 45.7046 31.224C45.7046 29.2267 46.3486 27.5467 47.6366 26.184C48.9433 24.8213 50.6793 24.14 52.8446 24.14C55.0099 24.14 56.7459 24.8213 58.0526 26.184C59.3593 27.5467 60.0126 29.2267 60.0126 31.224C60.0126 33.2213 59.3593 34.9107 58.0526 36.292ZM50.3246 34.052C50.9406 34.7987 51.7806 35.172 52.8446 35.172C53.9086 35.172 54.7486 34.7987 55.3646 34.052C55.9993 33.2867 56.3166 32.344 56.3166 31.224C56.3166 30.1227 55.9993 29.1987 55.3646 28.452C54.7486 27.6867 53.9086 27.304 52.8446 27.304C51.7806 27.304 50.9406 27.6867 50.3246 28.452C49.7086 29.1987 49.4006 30.1227 49.4006 31.224C49.4006 32.344 49.7086 33.2867 50.3246 34.052ZM68.9507 38.336C66.8601 38.336 65.1427 37.6733 63.7987 36.348C62.4547 35.0227 61.7827 33.3147 61.7827 31.224C61.7827 29.152 62.4547 27.4533 63.7987 26.128C65.1427 24.8027 66.8601 24.14 68.9507 24.14C71.3401 24.14 73.1227 24.952 74.2987 26.576L71.9747 28.76C71.3214 27.7893 70.3694 27.304 69.1187 27.304C68.0361 27.304 67.1494 27.668 66.4587 28.396C65.7867 29.1053 65.4507 30.048 65.4507 31.224C65.4507 32.4 65.7867 33.352 66.4587 34.08C67.1494 34.808 68.0361 35.172 69.1187 35.172C70.3321 35.172 71.2841 34.6867 71.9747 33.716L74.2987 35.872C73.1227 37.5147 71.3401 38.336 68.9507 38.336ZM82.6994 38H79.1154V27.584H75.3354V24.476H86.4794V27.584H82.6994V38ZM92.1253 38H88.7093V24.476H92.2653V32.652L97.8373 24.476H101.421V38H97.8653V29.516L92.1253 38ZM107.64 38H103.216L108.704 30.608L103.384 24.476H107.752L111.896 29.376V24.476H115.48V29.376L119.624 24.476H123.992L118.672 30.608L124.16 38H119.736L116.124 32.792L115.48 33.492V38H111.896V33.492L111.252 32.792L107.64 38ZM132.143 38.336C130.053 38.336 128.326 37.6827 126.963 36.376C125.601 35.0693 124.919 33.352 124.919 31.224C124.919 29.2267 125.573 27.5467 126.879 26.184C128.205 24.8213 129.885 24.14 131.919 24.14C133.935 24.14 135.569 24.8307 136.819 26.212C138.07 27.5747 138.695 29.3667 138.695 31.588V32.372H128.643C128.755 33.268 129.157 34.0147 129.847 34.612C130.538 35.2093 131.434 35.508 132.535 35.508C133.133 35.508 133.777 35.3867 134.467 35.144C135.177 34.9013 135.737 34.5747 136.147 34.164L137.715 36.46C136.353 37.7107 134.495 38.336 132.143 38.336ZM135.251 29.964C135.195 29.1987 134.887 28.508 134.327 27.892C133.786 27.276 132.983 26.968 131.919 26.968C130.911 26.968 130.127 27.276 129.567 27.892C129.007 28.4893 128.681 29.18 128.587 29.964H135.251ZM144.82 38H141.264V24.476H144.82V29.488H150.42V24.476H153.976V38H150.42V32.596H144.82V38ZM160.922 38H157.506V24.476H161.062V32.652L166.634 24.476H170.218V38H166.662V29.516L160.922 38ZM177.332 38H173.3L176.436 33.1C175.596 32.8947 174.887 32.428 174.308 31.7C173.73 30.972 173.44 30.0387 173.44 28.9C173.44 27.6493 173.86 26.604 174.7 25.764C175.54 24.9053 176.679 24.476 178.116 24.476H186.32V38H182.764V33.352H179.992L177.332 38ZM178.676 30.384H182.764V27.472H178.676C178.191 27.472 177.799 27.6027 177.5 27.864C177.202 28.1253 177.052 28.4707 177.052 28.9C177.052 29.348 177.192 29.712 177.472 29.992C177.771 30.2533 178.172 30.384 178.676 30.384Z" fill="#262C40"/>
<rect x="0.5" y="83.5" width="655" height="38" rx="4.5" fill="white" stroke="#D7DEE9"/>
<path d="M25.728 107.144C24.56 107.144 23.58 106.76 22.788 105.992C22.004 105.216 21.612 104.22 21.612 103.004C21.612 101.788 22.004 100.796 22.788 100.028C23.58 99.252 24.56 98.864 25.728 98.864C27.008 98.864 28.02 99.392 28.764 100.448L27.924 100.916C27.692 100.572 27.38 100.292 26.988 100.076C26.596 99.86 26.176 99.752 25.728 99.752C24.848 99.752 24.112 100.06 23.52 100.676C22.936 101.284 22.644 102.06 22.644 103.004C22.644 103.948 22.936 104.728 23.52 105.344C24.112 105.952 24.848 106.256 25.728 106.256C26.176 106.256 26.596 106.152 26.988 105.944C27.38 105.728 27.692 105.444 27.924 105.092L28.776 105.56C28 106.616 26.984 107.144 25.728 107.144ZM34.6174 106.268C34.0974 106.852 33.4054 107.144 32.5414 107.144C31.6774 107.144 30.9814 106.852 30.4534 106.268C29.9334 105.684 29.6734 104.96 29.6734 104.096C29.6734 103.232 29.9334 102.512 30.4534 101.936C30.9814 101.352 31.6774 101.06 32.5414 101.06C33.4054 101.06 34.0974 101.352 34.6174 101.936C35.1454 102.512 35.4094 103.232 35.4094 104.096C35.4094 104.96 35.1454 105.684 34.6174 106.268ZM31.1254 105.692C31.4774 106.124 31.9494 106.34 32.5414 106.34C33.1334 106.34 33.6014 106.124 33.9454 105.692C34.2894 105.252 34.4614 104.72 34.4614 104.096C34.4614 103.472 34.2894 102.944 33.9454 102.512C33.6014 102.08 33.1334 101.864 32.5414 101.864C31.9494 101.864 31.4774 102.084 31.1254 102.524C30.7814 102.956 30.6094 103.48 30.6094 104.096C30.6094 104.72 30.7814 105.252 31.1254 105.692ZM39.7326 107.144C38.9166 107.144 38.2646 106.804 37.7766 106.124V109.208H36.8766V101.204H37.7766V102.068C37.9926 101.764 38.2726 101.52 38.6166 101.336C38.9606 101.152 39.3326 101.06 39.7326 101.06C40.5006 101.06 41.1206 101.336 41.5926 101.888C42.0726 102.432 42.3126 103.168 42.3126 104.096C42.3126 105.024 42.0726 105.764 41.5926 106.316C41.1206 106.868 40.5006 107.144 39.7326 107.144ZM39.5046 106.34C40.0726 106.34 40.5246 106.132 40.8606 105.716C41.1966 105.292 41.3646 104.752 41.3646 104.096C41.3646 103.44 41.1966 102.904 40.8606 102.488C40.5246 102.072 40.0726 101.864 39.5046 101.864C39.1606 101.864 38.8246 101.956 38.4966 102.14C38.1766 102.316 37.9366 102.532 37.7766 102.788V105.404C37.9366 105.668 38.1766 105.892 38.4966 106.076C38.8246 106.252 39.1606 106.34 39.5046 106.34ZM46.3598 107.144C45.4958 107.144 44.7878 106.864 44.2358 106.304C43.6838 105.736 43.4078 105 43.4078 104.096C43.4078 103.248 43.6798 102.532 44.2238 101.948C44.7678 101.356 45.4478 101.06 46.2638 101.06C47.1198 101.06 47.7958 101.356 48.2918 101.948C48.7958 102.532 49.0478 103.272 49.0478 104.168V104.396H44.3558C44.3958 104.964 44.6038 105.44 44.9798 105.824C45.3558 106.208 45.8438 106.4 46.4438 106.4C47.1638 106.4 47.7598 106.156 48.2318 105.668L48.6638 106.256C48.0718 106.848 47.3038 107.144 46.3598 107.144ZM48.1598 103.736C48.1518 103.24 47.9838 102.796 47.6558 102.404C47.3278 102.004 46.8598 101.804 46.2518 101.804C45.6758 101.804 45.2198 102 44.8838 102.392C44.5558 102.784 44.3798 103.232 44.3558 103.736H48.1598ZM53.7575 107H50.5055V101.204H53.6975C54.2015 101.204 54.5975 101.34 54.8855 101.612C55.1815 101.884 55.3295 102.244 55.3295 102.692C55.3295 103.02 55.2375 103.304 55.0535 103.544C54.8775 103.776 54.6575 103.932 54.3935 104.012C54.6895 104.084 54.9375 104.256 55.1375 104.528C55.3455 104.8 55.4495 105.1 55.4495 105.428C55.4495 105.9 55.2975 106.28 54.9935 106.568C54.6975 106.856 54.2855 107 53.7575 107ZM53.5775 106.208C53.8655 106.208 54.0935 106.128 54.2615 105.968C54.4295 105.808 54.5135 105.592 54.5135 105.32C54.5135 105.072 54.4295 104.86 54.2615 104.684C54.0935 104.508 53.8655 104.42 53.5775 104.42H51.4055V106.208H53.5775ZM53.5415 103.628C53.8135 103.628 54.0255 103.556 54.1775 103.412C54.3295 103.26 54.4055 103.064 54.4055 102.824C54.4055 102.568 54.3295 102.368 54.1775 102.224C54.0255 102.072 53.8135 101.996 53.5415 101.996H51.4055V103.628H53.5415ZM58.05 107H57.15V101.204H58.05V103.616H61.074V101.204H61.974V107H61.074V104.408H58.05V107ZM68.3791 106.268C67.8591 106.852 67.1671 107.144 66.3031 107.144C65.4391 107.144 64.7431 106.852 64.2151 106.268C63.6951 105.684 63.4351 104.96 63.4351 104.096C63.4351 103.232 63.6951 102.512 64.2151 101.936C64.7431 101.352 65.4391 101.06 66.3031 101.06C67.1671 101.06 67.8591 101.352 68.3791 101.936C68.9071 102.512 69.1711 103.232 69.1711 104.096C69.1711 104.96 68.9071 105.684 68.3791 106.268ZM64.8871 105.692C65.2391 106.124 65.7111 106.34 66.3031 106.34C66.8951 106.34 67.3631 106.124 67.7071 105.692C68.0511 105.252 68.2231 104.72 68.2231 104.096C68.2231 103.472 68.0511 102.944 67.7071 102.512C67.3631 102.08 66.8951 101.864 66.3031 101.864C65.7111 101.864 65.2391 102.084 64.8871 102.524C64.5431 102.956 64.3711 103.48 64.3711 104.096C64.3711 104.72 64.5431 105.252 64.8871 105.692ZM73.8903 107H70.6383V101.204H73.8303C74.3343 101.204 74.7303 101.34 75.0183 101.612C75.3143 101.884 75.4623 102.244 75.4623 102.692C75.4623 103.02 75.3703 103.304 75.1863 103.544C75.0103 103.776 74.7903 103.932 74.5263 104.012C74.8223 104.084 75.0703 104.256 75.2703 104.528C75.4783 104.8 75.5823 105.1 75.5823 105.428C75.5823 105.9 75.4303 106.28 75.1263 106.568C74.8303 106.856 74.4183 107 73.8903 107ZM73.7103 106.208C73.9983 106.208 74.2263 106.128 74.3943 105.968C74.5623 105.808 74.6463 105.592 74.6463 105.32C74.6463 105.072 74.5623 104.86 74.3943 104.684C74.2263 104.508 73.9983 104.42 73.7103 104.42H71.5383V106.208H73.7103ZM73.6743 103.628C73.9463 103.628 74.1583 103.556 74.3103 103.412C74.4623 103.26 74.5383 103.064 74.5383 102.824C74.5383 102.568 74.4623 102.368 74.3103 102.224C74.1583 102.072 73.9463 101.996 73.6743 101.996H71.5383V103.628H73.6743ZM81.8068 107H80.9068V106.34C80.4188 106.876 79.7788 107.144 78.9868 107.144C78.4508 107.144 77.9788 106.972 77.5708 106.628C77.1628 106.284 76.9588 105.816 76.9588 105.224C76.9588 104.616 77.1588 104.148 77.5588 103.82C77.9668 103.484 78.4428 103.316 78.9868 103.316C79.8108 103.316 80.4508 103.58 80.9068 104.108V103.064C80.9068 102.68 80.7708 102.38 80.4988 102.164C80.2268 101.948 79.8748 101.84 79.4428 101.84C78.7628 101.84 78.1708 102.108 77.6668 102.644L77.2468 102.02C77.8628 101.38 78.6348 101.06 79.5628 101.06C80.2268 101.06 80.7668 101.22 81.1828 101.54C81.5988 101.86 81.8068 102.352 81.8068 103.016V107ZM79.3108 106.496C80.0308 106.496 80.5628 106.256 80.9068 105.776V104.684C80.5628 104.204 80.0308 103.964 79.3108 103.964C78.8948 103.964 78.5508 104.084 78.2788 104.324C78.0148 104.556 77.8828 104.86 77.8828 105.236C77.8828 105.604 78.0148 105.908 78.2788 106.148C78.5508 106.38 78.8948 106.496 79.3108 106.496ZM84.5109 107H83.6109V101.204H84.5109V103.616H87.5349V101.204H88.4349V107H87.5349V104.408H84.5109V107ZM91.096 107H90.232V101.204H91.132V105.632L94.168 101.204H95.056V107H94.156V102.488L91.096 107ZM97.7171 107H96.6611L98.2091 104.72C97.7691 104.664 97.4091 104.48 97.1291 104.168C96.8571 103.856 96.7211 103.46 96.7211 102.98C96.7211 102.468 96.8851 102.044 97.2131 101.708C97.5411 101.372 97.9891 101.204 98.5571 101.204H101.617V107H100.717V104.756H99.1331L97.7171 107ZM98.6531 103.964H100.717V101.996H98.6531C98.3411 101.996 98.0931 102.088 97.9091 102.272C97.7331 102.448 97.6451 102.684 97.6451 102.98C97.6451 103.276 97.7331 103.516 97.9091 103.7C98.0851 103.876 98.3331 103.964 98.6531 103.964Z" fill="#7C8793"/>
<path d="M125.992 107H124.276V103.64H120.496V107H118.792V98.996H120.496V102.14H124.276V98.996H125.992V107ZM132.537 107H131.013V106.4C130.597 106.896 129.985 107.144 129.177 107.144C128.657 107.144 128.189 106.976 127.773 106.64C127.365 106.296 127.161 105.824 127.161 105.224C127.161 104.6 127.361 104.132 127.761 103.82C128.169 103.508 128.641 103.352 129.177 103.352C130.001 103.352 130.613 103.588 131.013 104.06V103.28C131.013 102.984 130.897 102.748 130.665 102.572C130.433 102.396 130.125 102.308 129.741 102.308C129.109 102.308 128.545 102.536 128.049 102.992L127.473 101.972C128.161 101.364 129.005 101.06 130.005 101.06C130.749 101.06 131.357 101.232 131.829 101.576C132.301 101.92 132.537 102.48 132.537 103.256V107ZM129.789 106.112C130.357 106.112 130.765 105.944 131.013 105.608V104.888C130.765 104.552 130.357 104.384 129.789 104.384C129.477 104.384 129.217 104.464 129.009 104.624C128.801 104.776 128.697 104.988 128.697 105.26C128.697 105.524 128.801 105.732 129.009 105.884C129.217 106.036 129.477 106.112 129.789 106.112ZM138.525 101.204V102.536H135.573V107H134.049V101.204H138.525ZM142.81 107.144C142.082 107.144 141.486 106.848 141.022 106.256V109.208H139.498V101.204H141.022V101.936C141.478 101.352 142.074 101.06 142.81 101.06C143.57 101.06 144.186 101.332 144.658 101.876C145.138 102.412 145.378 103.152 145.378 104.096C145.378 105.04 145.138 105.784 144.658 106.328C144.186 106.872 143.57 107.144 142.81 107.144ZM142.33 105.788C142.77 105.788 143.122 105.632 143.386 105.32C143.658 105.008 143.794 104.6 143.794 104.096C143.794 103.6 143.658 103.196 143.386 102.884C143.122 102.572 142.77 102.416 142.33 102.416C142.082 102.416 141.834 102.48 141.586 102.608C141.338 102.736 141.15 102.892 141.022 103.076V105.128C141.15 105.312 141.338 105.468 141.586 105.596C141.842 105.724 142.09 105.788 142.33 105.788ZM151.498 107H149.974V106.4C149.558 106.896 148.946 107.144 148.138 107.144C147.618 107.144 147.15 106.976 146.734 106.64C146.326 106.296 146.122 105.824 146.122 105.224C146.122 104.6 146.322 104.132 146.722 103.82C147.13 103.508 147.602 103.352 148.138 103.352C148.962 103.352 149.574 103.588 149.974 104.06V103.28C149.974 102.984 149.858 102.748 149.626 102.572C149.394 102.396 149.086 102.308 148.702 102.308C148.07 102.308 147.506 102.536 147.01 102.992L146.434 101.972C147.122 101.364 147.966 101.06 148.966 101.06C149.71 101.06 150.318 101.232 150.79 101.576C151.262 101.92 151.498 102.48 151.498 103.256V107ZM148.75 106.112C149.318 106.112 149.726 105.944 149.974 105.608V104.888C149.726 104.552 149.318 104.384 148.75 104.384C148.438 104.384 148.178 104.464 147.97 104.624C147.762 104.776 147.658 104.988 147.658 105.26C147.658 105.524 147.762 105.732 147.97 105.884C148.178 106.036 148.438 106.112 148.75 106.112ZM152.47 108.476V105.728C152.646 105.696 152.782 105.64 152.878 105.56C152.982 105.472 153.078 105.308 153.166 105.068C153.262 104.82 153.338 104.468 153.394 104.012L153.766 101.204H158.458V105.668H159.094V108.476H157.57V107H154.006V108.476H152.47ZM155.098 102.536L154.918 104.108C154.838 104.804 154.614 105.324 154.246 105.668H156.934V102.536H155.098ZM160.053 101.204H161.577V103.196H163.557C164.197 103.196 164.693 103.376 165.045 103.736C165.397 104.096 165.573 104.548 165.573 105.092C165.573 105.628 165.393 106.08 165.033 106.448C164.673 106.816 164.181 107 163.557 107H160.053V101.204ZM163.329 104.468H161.577V105.716H163.329C163.537 105.716 163.701 105.66 163.821 105.548C163.949 105.428 164.013 105.276 164.013 105.092C164.013 104.908 163.949 104.76 163.821 104.648C163.701 104.528 163.537 104.468 163.329 104.468ZM167.865 107H166.329V101.204H167.865V107Z" fill="#7C8793"/>
<line x1="117" y1="121" x2="169" y2="121" stroke="black" stroke-width="2"/>
</svg>
