<svg width="423" height="598" viewBox="0 0 423 598" fill="none" xmlns="http://www.w3.org/2000/svg">
<g filter="url(#filter0_d)">
<rect x="5" y="3" width="413" height="588" rx="5" fill="white"/>
<rect x="5.5" y="3.5" width="412" height="587" rx="4.5" stroke="#C7CFCC"/>
</g>
<rect x="39.5" y="390.5" width="19" height="19" rx="1.5" stroke="#9E9E9E"/>
<path d="M72.728 402H71.564L73.724 398.736C73.14 398.688 72.644 398.46 72.236 398.052C71.836 397.644 71.636 397.096 71.636 396.408C71.636 395.68 71.868 395.096 72.332 394.656C72.804 394.216 73.412 393.996 74.156 393.996H77.372V402H76.376V398.82H74.768L72.728 402ZM74.264 397.944H76.376V394.884H74.264C73.792 394.884 73.408 395.028 73.112 395.316C72.816 395.596 72.668 395.96 72.668 396.408C72.668 396.856 72.816 397.224 73.112 397.512C73.416 397.8 73.8 397.944 74.264 397.944ZM89.0025 402H88.0065V394.884H83.3265V402H82.3305V393.996H89.0025V402ZM94.5215 402.144C93.3455 402.144 92.3895 401.752 91.6535 400.968C90.9175 400.184 90.5495 399.196 90.5495 398.004C90.5495 396.812 90.9175 395.824 91.6535 395.04C92.3895 394.256 93.3455 393.864 94.5215 393.864C95.6895 393.864 96.6415 394.256 97.3775 395.04C98.1215 395.824 98.4935 396.812 98.4935 398.004C98.4935 399.196 98.1215 400.184 97.3775 400.968C96.6415 401.752 95.6895 402.144 94.5215 402.144ZM94.5215 401.256C95.4015 401.256 96.1095 400.952 96.6455 400.344C97.1895 399.728 97.4615 398.948 97.4615 398.004C97.4615 397.052 97.1895 396.272 96.6455 395.664C96.1095 395.056 95.4015 394.752 94.5215 394.752C93.6335 394.752 92.9215 395.056 92.3855 395.664C91.8495 396.272 91.5815 397.052 91.5815 398.004C91.5815 398.948 91.8495 399.728 92.3855 400.344C92.9215 400.952 93.6335 401.256 94.5215 401.256ZM99.052 403.476V401.196C99.404 401.172 99.684 401.088 99.892 400.944C100.1 400.8 100.288 400.496 100.456 400.032C100.632 399.568 100.776 398.896 100.888 398.016L101.38 393.996H106.276V401.112H107.008V403.476H106.012V402H100.048V403.476H99.052ZM101.872 398.088C101.688 399.632 101.28 400.64 100.648 401.112H105.28V394.884H102.268L101.872 398.088ZM111.252 402H110.256V394.884H107.724V393.996H113.796V394.884H111.252V402ZM118.768 402H115.12V393.996H118.684C119.372 393.996 119.916 394.184 120.316 394.56C120.724 394.936 120.928 395.428 120.928 396.036C120.928 396.516 120.792 396.924 120.52 397.26C120.248 397.588 119.916 397.792 119.524 397.872C119.948 397.936 120.312 398.16 120.616 398.544C120.928 398.928 121.084 399.36 121.084 399.84C121.084 400.488 120.876 401.012 120.46 401.412C120.052 401.804 119.488 402 118.768 402ZM118.516 397.464C118.956 397.464 119.296 397.344 119.536 397.104C119.776 396.864 119.896 396.556 119.896 396.18C119.896 395.804 119.772 395.496 119.524 395.256C119.284 395.008 118.948 394.884 118.516 394.884H116.116V397.464H118.516ZM118.564 401.112C119.028 401.112 119.392 400.988 119.656 400.74C119.92 400.492 120.052 400.156 120.052 399.732C120.052 399.34 119.92 399.012 119.656 398.748C119.4 398.484 119.036 398.352 118.564 398.352H116.116V401.112H118.564ZM127.91 402H122.666V393.996H127.91V394.884H123.662V397.464H127.826V398.352H123.662V401.112H127.91V402ZM130.495 402H129.499V393.996H132.715C133.491 393.996 134.103 394.228 134.551 394.692C134.999 395.156 135.223 395.728 135.223 396.408C135.223 397.088 134.995 397.66 134.539 398.124C134.091 398.588 133.483 398.82 132.715 398.82H130.495V402ZM132.595 397.932C133.067 397.932 133.451 397.792 133.747 397.512C134.043 397.224 134.191 396.856 134.191 396.408C134.191 395.96 134.043 395.596 133.747 395.316C133.451 395.028 133.067 394.884 132.595 394.884H130.495V397.932H132.595ZM136.94 402H135.704L139.328 397.8L135.992 393.996H137.24L140.456 397.764V393.996H141.452V397.764L144.68 393.996H145.928L142.58 397.8L146.216 402H144.968L141.932 398.4L141.452 398.952V402H140.456V398.952L139.976 398.4L136.94 402ZM146.794 403.476V401.196C147.146 401.172 147.426 401.088 147.634 400.944C147.842 400.8 148.03 400.496 148.198 400.032C148.374 399.568 148.518 398.896 148.63 398.016L149.122 393.996H154.018V401.112H154.75V403.476H153.754V402H147.79V403.476H146.794ZM149.614 398.088C149.43 399.632 149.022 400.64 148.39 401.112H153.022V394.884H150.01L149.614 398.088ZM162.87 402H161.73L161.022 400.224H157.038L156.33 402H155.19L158.406 393.996H159.642L162.87 402ZM160.722 399.336L159.03 395.028L157.326 399.336H160.722ZM170.288 402.144C169.168 402.144 168.244 401.788 167.516 401.076C166.788 400.356 166.392 399.44 166.328 398.328H164.912V402H163.916V393.996H164.912V397.44H166.34C166.46 396.384 166.88 395.524 167.6 394.86C168.32 394.196 169.216 393.864 170.288 393.864C171.456 393.864 172.412 394.256 173.156 395.04C173.9 395.824 174.272 396.812 174.272 398.004C174.272 399.196 173.9 400.184 173.156 400.968C172.412 401.752 171.456 402.144 170.288 402.144ZM170.288 401.256C171.168 401.256 171.88 400.952 172.424 400.344C172.968 399.728 173.24 398.948 173.24 398.004C173.24 397.06 172.968 396.284 172.424 395.676C171.88 395.06 171.168 394.752 170.288 394.752C169.4 394.752 168.688 395.056 168.152 395.664C167.616 396.272 167.348 397.052 167.348 398.004C167.348 398.948 167.616 399.728 168.152 400.344C168.688 400.952 169.4 401.256 170.288 401.256ZM182.708 402.144C181.54 402.144 180.56 401.76 179.768 400.992C178.984 400.216 178.592 399.22 178.592 398.004C178.592 396.788 178.984 395.796 179.768 395.028C180.56 394.252 181.54 393.864 182.708 393.864C183.988 393.864 185 394.392 185.744 395.448L184.904 395.916C184.672 395.572 184.36 395.292 183.968 395.076C183.576 394.86 183.156 394.752 182.708 394.752C181.828 394.752 181.092 395.06 180.5 395.676C179.916 396.284 179.624 397.06 179.624 398.004C179.624 398.948 179.916 399.728 180.5 400.344C181.092 400.952 181.828 401.256 182.708 401.256C183.156 401.256 183.576 401.152 183.968 400.944C184.36 400.728 184.672 400.444 184.904 400.092L185.756 400.56C184.98 401.616 183.964 402.144 182.708 402.144ZM190.674 402.144C189.498 402.144 188.542 401.752 187.806 400.968C187.07 400.184 186.702 399.196 186.702 398.004C186.702 396.812 187.07 395.824 187.806 395.04C188.542 394.256 189.498 393.864 190.674 393.864C191.842 393.864 192.794 394.256 193.53 395.04C194.274 395.824 194.646 396.812 194.646 398.004C194.646 399.196 194.274 400.184 193.53 400.968C192.794 401.752 191.842 402.144 190.674 402.144ZM190.674 401.256C191.554 401.256 192.262 400.952 192.798 400.344C193.342 399.728 193.614 398.948 193.614 398.004C193.614 397.052 193.342 396.272 192.798 395.664C192.262 395.056 191.554 394.752 190.674 394.752C189.786 394.752 189.074 395.056 188.538 395.664C188.002 396.272 187.734 397.052 187.734 398.004C187.734 398.948 188.002 399.728 188.538 400.344C189.074 400.952 189.786 401.256 190.674 401.256ZM197.198 402H196.202V393.996H201.446V394.884H197.198V402ZM201.439 402.144V401.256C201.783 401.256 202.063 401.176 202.279 401.016C202.495 400.856 202.687 400.54 202.855 400.068C203.023 399.588 203.163 398.904 203.275 398.016L203.767 393.996H208.663V402H207.667V394.884H204.655L204.259 398.088C204.155 398.944 204.015 399.648 203.839 400.2C203.671 400.752 203.459 401.168 203.203 401.448C202.955 401.72 202.695 401.904 202.423 402C202.159 402.096 201.831 402.144 201.439 402.144ZM217.386 402H216.246L215.538 400.224H211.554L210.846 402H209.706L212.922 393.996H214.158L217.386 402ZM215.238 399.336L213.546 395.028L211.842 399.336H215.238ZM221.779 402.144C220.611 402.144 219.631 401.76 218.839 400.992C218.055 400.216 217.663 399.22 217.663 398.004C217.663 396.788 218.055 395.796 218.839 395.028C219.631 394.252 220.611 393.864 221.779 393.864C223.059 393.864 224.071 394.392 224.815 395.448L223.975 395.916C223.743 395.572 223.431 395.292 223.039 395.076C222.647 394.86 222.227 394.752 221.779 394.752C220.899 394.752 220.163 395.06 219.571 395.676C218.987 396.284 218.695 397.06 218.695 398.004C218.695 398.948 218.987 399.728 219.571 400.344C220.163 400.952 220.899 401.256 221.779 401.256C222.227 401.256 222.647 401.152 223.039 400.944C223.431 400.728 223.743 400.444 223.975 400.092L224.827 400.56C224.051 401.616 223.035 402.144 221.779 402.144ZM227.056 402H226.096V393.996H227.092V400.248L231.7 393.996H232.72V402H231.724V395.616L227.056 402ZM239.836 402H234.592V393.996H239.836V394.884H235.588V397.464H239.752V398.352H235.588V401.112H239.836V402ZM251.19 402H250.194V398.328H245.514V402H244.518V393.996H245.514V397.44H250.194V393.996H251.19V402ZM259.913 402H258.773L258.065 400.224H254.081L253.373 402H252.233L255.449 393.996H256.685L259.913 402ZM257.765 399.336L256.073 395.028L254.369 399.336H257.765ZM267.701 402.144C266.525 402.144 265.569 401.752 264.833 400.968C264.097 400.184 263.729 399.196 263.729 398.004C263.729 396.812 264.097 395.824 264.833 395.04C265.569 394.256 266.525 393.864 267.701 393.864C268.869 393.864 269.821 394.256 270.557 395.04C271.301 395.824 271.673 396.812 271.673 398.004C271.673 399.196 271.301 400.184 270.557 400.968C269.821 401.752 268.869 402.144 267.701 402.144ZM267.701 401.256C268.581 401.256 269.289 400.952 269.825 400.344C270.369 399.728 270.641 398.948 270.641 398.004C270.641 397.052 270.369 396.272 269.825 395.664C269.289 395.056 268.581 394.752 267.701 394.752C266.813 394.752 266.101 395.056 265.565 395.664C265.029 396.272 264.761 397.052 264.761 398.004C264.761 398.948 265.029 399.728 265.565 400.344C266.101 400.952 266.813 401.256 267.701 401.256ZM273.229 393.996H278.425V394.884H274.225V397.176H276.445C277.213 397.176 277.821 397.408 278.269 397.872C278.725 398.336 278.953 398.908 278.953 399.588C278.953 400.268 278.729 400.84 278.281 401.304C277.833 401.768 277.221 402 276.445 402H273.229V393.996ZM276.325 398.064H274.225V401.112H276.325C276.797 401.112 277.181 400.972 277.477 400.692C277.773 400.404 277.921 400.036 277.921 399.588C277.921 399.14 277.773 398.776 277.477 398.496C277.181 398.208 276.797 398.064 276.325 398.064ZM281.268 402H280.272V393.996H283.488C284.264 393.996 284.876 394.228 285.324 394.692C285.772 395.156 285.996 395.728 285.996 396.408C285.996 397.088 285.768 397.66 285.312 398.124C284.864 398.588 284.256 398.82 283.488 398.82H281.268V402ZM283.368 397.932C283.84 397.932 284.224 397.792 284.52 397.512C284.816 397.224 284.964 396.856 284.964 396.408C284.964 395.96 284.816 395.596 284.52 395.316C284.224 395.028 283.84 394.884 283.368 394.884H281.268V397.932H283.368ZM293.241 402H292.101L291.393 400.224H287.409L286.701 402H285.561L288.777 393.996H290.013L293.241 402ZM291.093 399.336L289.401 395.028L287.697 399.336H291.093ZM294.288 393.996H299.484V394.884H295.284V397.176H297.504C298.272 397.176 298.88 397.408 299.328 397.872C299.784 398.336 300.012 398.908 300.012 399.588C300.012 400.268 299.788 400.84 299.34 401.304C298.892 401.768 298.28 402 297.504 402H294.288V393.996ZM297.384 398.064H295.284V401.112H297.384C297.856 401.112 298.24 400.972 298.536 400.692C298.832 400.404 298.98 400.036 298.98 399.588C298.98 399.14 298.832 398.776 298.536 398.496C298.24 398.208 297.856 398.064 297.384 398.064ZM304.979 402.144C303.803 402.144 302.847 401.752 302.111 400.968C301.375 400.184 301.007 399.196 301.007 398.004C301.007 396.812 301.375 395.824 302.111 395.04C302.847 394.256 303.803 393.864 304.979 393.864C306.147 393.864 307.099 394.256 307.835 395.04C308.579 395.824 308.951 396.812 308.951 398.004C308.951 399.196 308.579 400.184 307.835 400.968C307.099 401.752 306.147 402.144 304.979 402.144ZM304.979 401.256C305.859 401.256 306.567 400.952 307.103 400.344C307.647 399.728 307.919 398.948 307.919 398.004C307.919 397.052 307.647 396.272 307.103 395.664C306.567 395.056 305.859 394.752 304.979 394.752C304.091 394.752 303.379 395.056 302.843 395.664C302.307 396.272 302.039 397.052 302.039 398.004C302.039 398.948 302.307 399.728 302.843 400.344C303.379 400.952 304.091 401.256 304.979 401.256ZM313.154 402H312.158V394.884H309.626V393.996H315.698V394.884H313.154V402ZM323.094 402H321.858L318.822 398.4L318.018 399.312V402H317.022V393.996H318.018V398.136L321.558 393.996H322.806L319.47 397.8L323.094 402ZM325.033 402.144C324.705 402.144 324.401 402.084 324.121 401.964C323.841 401.844 323.625 401.692 323.473 401.508L323.893 400.716C324.237 401.076 324.601 401.256 324.985 401.256C325.289 401.256 325.529 401.176 325.705 401.016C325.889 400.856 326.097 400.556 326.329 400.116L326.473 399.84L323.401 393.996H324.541L327.049 398.952L329.557 393.996H330.697L327.205 400.584C326.925 401.112 326.625 401.504 326.305 401.76C325.985 402.016 325.561 402.144 325.033 402.144ZM78.608 418H77.612V410.884H72.932V418H71.936V409.996H78.608V418ZM85.723 418H80.479V409.996H85.723V410.884H81.475V413.464H85.639V414.352H81.475V417.112H85.723V418ZM88.307 418H87.311V409.996H90.527C91.303 409.996 91.915 410.228 92.363 410.692C92.811 411.156 93.035 411.728 93.035 412.408C93.035 413.088 92.807 413.66 92.351 414.124C91.903 414.588 91.295 414.82 90.527 414.82H88.307V418ZM90.407 413.932C90.879 413.932 91.263 413.792 91.559 413.512C91.855 413.224 92.003 412.856 92.003 412.408C92.003 411.96 91.855 411.596 91.559 411.316C91.263 411.028 90.879 410.884 90.407 410.884H88.307V413.932H90.407ZM98.146 418.144C96.978 418.144 95.998 417.76 95.206 416.992C94.422 416.216 94.03 415.22 94.03 414.004C94.03 412.788 94.422 411.796 95.206 411.028C95.998 410.252 96.978 409.864 98.146 409.864C99.426 409.864 100.438 410.392 101.182 411.448L100.342 411.916C100.11 411.572 99.798 411.292 99.406 411.076C99.014 410.86 98.594 410.752 98.146 410.752C97.266 410.752 96.53 411.06 95.938 411.676C95.354 412.284 95.062 413.06 95.062 414.004C95.062 414.948 95.354 415.728 95.938 416.344C96.53 416.952 97.266 417.256 98.146 417.256C98.594 417.256 99.014 417.152 99.406 416.944C99.798 416.728 100.11 416.444 100.342 416.092L101.194 416.56C100.418 417.616 99.402 418.144 98.146 418.144ZM106.111 418.144C104.935 418.144 103.979 417.752 103.243 416.968C102.507 416.184 102.139 415.196 102.139 414.004C102.139 412.812 102.507 411.824 103.243 411.04C103.979 410.256 104.935 409.864 106.111 409.864C107.279 409.864 108.231 410.256 108.967 411.04C109.711 411.824 110.083 412.812 110.083 414.004C110.083 415.196 109.711 416.184 108.967 416.968C108.231 417.752 107.279 418.144 106.111 418.144ZM106.111 417.256C106.991 417.256 107.699 416.952 108.235 416.344C108.779 415.728 109.051 414.948 109.051 414.004C109.051 413.052 108.779 412.272 108.235 411.664C107.699 411.056 106.991 410.752 106.111 410.752C105.223 410.752 104.511 411.056 103.975 411.664C103.439 412.272 103.171 413.052 103.171 414.004C103.171 414.948 103.439 415.728 103.975 416.344C104.511 416.952 105.223 417.256 106.111 417.256ZM118.311 418H117.315V414.328H112.635V418H111.639V409.996H112.635V413.44H117.315V409.996H118.311V418ZM127.034 418H125.894L125.186 416.224H121.202L120.494 418H119.354L122.57 409.996H123.806L127.034 418ZM124.886 415.336L123.194 411.028L121.49 415.336H124.886ZM127.529 418.144V417.256C127.873 417.256 128.153 417.176 128.369 417.016C128.585 416.856 128.777 416.54 128.945 416.068C129.113 415.588 129.253 414.904 129.365 414.016L129.857 409.996H134.753V418H133.757V410.884H130.745L130.349 414.088C130.245 414.944 130.105 415.648 129.929 416.2C129.761 416.752 129.549 417.168 129.293 417.448C129.045 417.72 128.785 417.904 128.513 418C128.249 418.096 127.921 418.144 127.529 418.144ZM136.624 409.996H137.62V413.176H139.84C140.608 413.176 141.216 413.408 141.664 413.872C142.12 414.336 142.348 414.908 142.348 415.588C142.348 416.268 142.124 416.84 141.676 417.304C141.228 417.768 140.616 418 139.84 418H136.624V409.996ZM139.72 414.064H137.62V417.112H139.72C140.192 417.112 140.576 416.972 140.872 416.692C141.168 416.404 141.316 416.036 141.316 415.588C141.316 415.14 141.168 414.776 140.872 414.496C140.576 414.208 140.192 414.064 139.72 414.064ZM150.338 418H149.342V414.328H144.662V418H143.666V409.996H144.662V413.44H149.342V409.996H150.338V418ZM152.209 409.996H153.205V413.176H155.425C156.193 413.176 156.801 413.408 157.249 413.872C157.705 414.336 157.933 414.908 157.933 415.588C157.933 416.268 157.709 416.84 157.261 417.304C156.813 417.768 156.201 418 155.425 418H152.209V409.996ZM155.305 414.064H153.205V417.112H155.305C155.777 417.112 156.161 416.972 156.457 416.692C156.753 416.404 156.901 416.036 156.901 415.588C156.901 415.14 156.753 414.776 156.457 414.496C156.161 414.208 155.777 414.064 155.305 414.064ZM159.793 418H158.797V409.996H159.793V418ZM168.398 418H167.198L164.642 414.592L162.086 418H160.874L163.994 413.896L161.054 409.996H162.266L164.642 413.2L167.006 409.996H168.218L165.29 413.884L168.398 418ZM172.036 419.476V417.196C172.388 417.172 172.668 417.088 172.876 416.944C173.084 416.8 173.272 416.496 173.44 416.032C173.616 415.568 173.76 414.896 173.872 414.016L174.364 409.996H179.26V417.112H179.992V419.476H178.996V418H173.032V419.476H172.036ZM174.856 414.088C174.672 415.632 174.264 416.64 173.632 417.112H178.264V410.884H175.252L174.856 414.088ZM188.112 418H186.972L186.264 416.224H182.28L181.572 418H180.432L183.648 409.996H184.884L188.112 418ZM185.964 415.336L184.272 411.028L182.568 415.336H185.964ZM195.831 418H194.835V414.328H190.155V418H189.159V409.996H190.155V413.44H194.835V409.996H195.831V418ZM204.374 418H203.378V414.328H198.698V418H197.702V409.996H198.698V413.44H203.378V409.996H204.374V418ZM206.245 409.996H207.241V413.176H209.461C210.229 413.176 210.837 413.408 211.285 413.872C211.741 414.336 211.969 414.908 211.969 415.588C211.969 416.268 211.745 416.84 211.297 417.304C210.849 417.768 210.237 418 209.461 418H206.245V409.996ZM209.341 414.064H207.241V417.112H209.341C209.813 417.112 210.197 416.972 210.493 416.692C210.789 416.404 210.937 416.036 210.937 415.588C210.937 415.14 210.789 414.776 210.493 414.496C210.197 414.208 209.813 414.064 209.341 414.064ZM213.829 418H212.833V409.996H213.829V418ZM222.434 418H221.234L218.678 414.592L216.122 418H214.91L218.03 413.896L215.09 409.996H216.302L218.678 413.2L221.042 409.996H222.254L219.326 413.884L222.434 418Z" fill="#717377"/>
<rect x="39.5" y="162.5" width="344" height="43" stroke="#D7DEE9"/>
<path d="M61.21 189H55.092V179.662H61.21V180.698H56.254V183.708H61.112V184.744H56.254V187.964H61.21V189ZM65.7507 186.074H62.3907V185.15H65.7507V186.074ZM76.43 189H75.38V184.408C75.38 183.475 74.9646 183.008 74.134 183.008C73.798 183.008 73.462 183.111 73.126 183.316C72.79 183.521 72.5286 183.764 72.342 184.044V189H71.292V184.408C71.292 183.475 70.8766 183.008 70.046 183.008C69.7193 183.008 69.388 183.111 69.052 183.316C68.7253 183.521 68.464 183.769 68.268 184.058V189H67.218V182.238H68.268V183.218C68.436 182.957 68.73 182.7 69.15 182.448C69.57 182.196 70.004 182.07 70.452 182.07C70.9466 182.07 71.348 182.187 71.656 182.42C71.964 182.653 72.1693 182.957 72.272 183.33C72.4773 182.994 72.79 182.7 73.21 182.448C73.63 182.196 74.0733 182.07 74.54 182.07C75.8 182.07 76.43 182.751 76.43 184.114V189ZM83.8026 189H82.7526V188.23C82.1833 188.855 81.4366 189.168 80.5126 189.168C79.8873 189.168 79.3366 188.967 78.8606 188.566C78.3846 188.165 78.1466 187.619 78.1466 186.928C78.1466 186.219 78.3799 185.673 78.8466 185.29C79.3226 184.898 79.8779 184.702 80.5126 184.702C81.4739 184.702 82.2206 185.01 82.7526 185.626V184.408C82.7526 183.96 82.5939 183.61 82.2766 183.358C81.9593 183.106 81.5486 182.98 81.0446 182.98C80.2513 182.98 79.5606 183.293 78.9726 183.918L78.4826 183.19C79.2013 182.443 80.1019 182.07 81.1846 182.07C81.9593 182.07 82.5893 182.257 83.0746 182.63C83.5599 183.003 83.8026 183.577 83.8026 184.352V189ZM80.8906 188.412C81.7306 188.412 82.3513 188.132 82.7526 187.572V186.298C82.3513 185.738 81.7306 185.458 80.8906 185.458C80.4053 185.458 80.0039 185.598 79.6866 185.878C79.3786 186.149 79.2246 186.503 79.2246 186.942C79.2246 187.371 79.3786 187.726 79.6866 188.006C80.0039 188.277 80.4053 188.412 80.8906 188.412ZM86.4254 181.272C86.2388 181.272 86.0754 181.207 85.9354 181.076C85.7954 180.936 85.7254 180.768 85.7254 180.572C85.7254 180.376 85.7954 180.208 85.9354 180.068C86.0754 179.928 86.2388 179.858 86.4254 179.858C86.6214 179.858 86.7894 179.928 86.9294 180.068C87.0694 180.208 87.1394 180.376 87.1394 180.572C87.1394 180.768 87.0694 180.936 86.9294 181.076C86.7894 181.207 86.6214 181.272 86.4254 181.272ZM86.9574 189H85.9074V182.238H86.9574V189ZM90.102 189H89.052V179.662H90.102V189ZM93.3025 183.456C93.1532 183.605 92.9712 183.68 92.7565 183.68C92.5418 183.68 92.3598 183.605 92.2105 183.456C92.0612 183.307 91.9865 183.125 91.9865 182.91C91.9865 182.695 92.0612 182.513 92.2105 182.364C92.3598 182.215 92.5418 182.14 92.7565 182.14C92.9712 182.14 93.1532 182.215 93.3025 182.364C93.4518 182.513 93.5265 182.695 93.5265 182.91C93.5265 183.125 93.4518 183.307 93.3025 183.456ZM93.3025 188.916C93.1532 189.065 92.9712 189.14 92.7565 189.14C92.5418 189.14 92.3598 189.065 92.2105 188.916C92.0612 188.767 91.9865 188.585 91.9865 188.37C91.9865 188.155 92.0612 187.973 92.2105 187.824C92.3598 187.675 92.5418 187.6 92.7565 187.6C92.9712 187.6 93.1532 187.675 93.3025 187.824C93.4518 187.973 93.5265 188.155 93.5265 188.37C93.5265 188.585 93.4518 188.767 93.3025 188.916ZM97.075 183.554H96.431L96.501 181.944L95.157 182.826L94.849 182.266L96.277 181.538L94.849 180.81L95.157 180.264L96.501 181.132L96.431 179.522H97.075L96.991 181.132L98.335 180.264L98.657 180.81L97.229 181.538L98.657 182.266L98.335 182.826L96.991 181.944L97.075 183.554Z" fill="#4B4B4B"/>
<rect x="39.5" y="86.5" width="344" height="43" stroke="#D7DEE9"/>
<path d="M61.216 113H60.054V112.09C58.71 111.997 57.6507 111.614 56.876 110.942C56.1013 110.27 55.714 109.402 55.714 108.338C55.714 107.283 56.1013 106.42 56.876 105.748C57.6507 105.076 58.71 104.693 60.054 104.6V103.662H61.216V104.6C62.5507 104.693 63.61 105.081 64.394 105.762C65.178 106.434 65.57 107.293 65.57 108.338C65.57 109.402 65.178 110.27 64.394 110.942C63.6193 111.614 62.56 111.997 61.216 112.09V113ZM63.526 110.186C64.086 109.701 64.366 109.085 64.366 108.338C64.366 107.591 64.086 106.975 63.526 106.49C62.966 106.005 62.196 105.72 61.216 105.636V111.04C62.196 110.956 62.966 110.671 63.526 110.186ZM57.744 106.49C57.1933 106.975 56.918 107.591 56.918 108.338C56.918 109.085 57.1933 109.701 57.744 110.186C58.304 110.671 59.074 110.956 60.054 111.04V105.636C59.074 105.72 58.304 106.005 57.744 106.49ZM68.4913 113H67.3713V103.662H68.5333V110.956L73.9093 103.662H75.0993V113H73.9373V105.552L68.4913 113ZM81.5394 113.168C80.1674 113.168 79.0521 112.711 78.1934 111.796C77.3347 110.881 76.9054 109.729 76.9054 108.338C76.9054 106.947 77.3347 105.795 78.1934 104.88C79.0521 103.965 80.1674 103.508 81.5394 103.508C82.9021 103.508 84.0127 103.965 84.8714 104.88C85.7394 105.795 86.1734 106.947 86.1734 108.338C86.1734 109.729 85.7394 110.881 84.8714 111.796C84.0127 112.711 82.9021 113.168 81.5394 113.168ZM81.5394 112.132C82.5661 112.132 83.3921 111.777 84.0174 111.068C84.6521 110.349 84.9694 109.439 84.9694 108.338C84.9694 107.227 84.6521 106.317 84.0174 105.608C83.3921 104.899 82.5661 104.544 81.5394 104.544C80.5034 104.544 79.6727 104.899 79.0474 105.608C78.4221 106.317 78.1094 107.227 78.1094 108.338C78.1094 109.439 78.4221 110.349 79.0474 111.068C79.6727 111.777 80.5034 112.132 81.5394 112.132ZM89.5985 107.554H88.9545L89.0245 105.944L87.6805 106.826L87.3725 106.266L88.8005 105.538L87.3725 104.81L87.6805 104.264L89.0245 105.132L88.9545 103.522H89.5985L89.5145 105.132L90.8585 104.264L91.1805 104.81L89.7525 105.538L91.1805 106.266L90.8585 106.826L89.5145 105.944L89.5985 107.554Z" fill="#4B4B4B"/>
<rect x="39.5" y="238.5" width="344" height="43" stroke="#D7DEE9"/>
<path d="M63.51 265H62.265V256.105H56.415V265H55.17V254.995H63.51V265ZM71.4587 265H70.3337V264.175C69.7237 264.845 68.9237 265.18 67.9337 265.18C67.2637 265.18 66.6737 264.965 66.1637 264.535C65.6537 264.105 65.3987 263.52 65.3987 262.78C65.3987 262.02 65.6487 261.435 66.1487 261.025C66.6587 260.605 67.2537 260.395 67.9337 260.395C68.9637 260.395 69.7637 260.725 70.3337 261.385V260.08C70.3337 259.6 70.1637 259.225 69.8237 258.955C69.4837 258.685 69.0437 258.55 68.5037 258.55C67.6537 258.55 66.9137 258.885 66.2837 259.555L65.7587 258.775C66.5287 257.975 67.4937 257.575 68.6537 257.575C69.4837 257.575 70.1587 257.775 70.6787 258.175C71.1987 258.575 71.4587 259.19 71.4587 260.02V265ZM68.3387 264.37C69.2387 264.37 69.9037 264.07 70.3337 263.47V262.105C69.9037 261.505 69.2387 261.205 68.3387 261.205C67.8187 261.205 67.3887 261.355 67.0487 261.655C66.7187 261.945 66.5537 262.325 66.5537 262.795C66.5537 263.255 66.7187 263.635 67.0487 263.935C67.3887 264.225 67.8187 264.37 68.3387 264.37ZM77.2839 265.18C76.2639 265.18 75.4489 264.755 74.8389 263.905V267.76H73.7139V257.755H74.8389V258.835C75.1089 258.455 75.4589 258.15 75.8889 257.92C76.3189 257.69 76.7839 257.575 77.2839 257.575C78.2439 257.575 79.0189 257.92 79.6089 258.61C80.2089 259.29 80.5089 260.21 80.5089 261.37C80.5089 262.53 80.2089 263.455 79.6089 264.145C79.0189 264.835 78.2439 265.18 77.2839 265.18ZM76.9989 264.175C77.7089 264.175 78.2739 263.915 78.6939 263.395C79.1139 262.865 79.3239 262.19 79.3239 261.37C79.3239 260.55 79.1139 259.88 78.6939 259.36C78.2739 258.84 77.7089 258.58 76.9989 258.58C76.5689 258.58 76.1489 258.695 75.7389 258.925C75.3389 259.145 75.0389 259.415 74.8389 259.735V263.005C75.0389 263.335 75.3389 263.615 75.7389 263.845C76.1489 264.065 76.5689 264.175 76.9989 264.175ZM88.0579 264.085C87.4079 264.815 86.5429 265.18 85.4629 265.18C84.3829 265.18 83.5129 264.815 82.8529 264.085C82.2029 263.355 81.8779 262.45 81.8779 261.37C81.8779 260.29 82.2029 259.39 82.8529 258.67C83.5129 257.94 84.3829 257.575 85.4629 257.575C86.5429 257.575 87.4079 257.94 88.0579 258.67C88.7179 259.39 89.0479 260.29 89.0479 261.37C89.0479 262.45 88.7179 263.355 88.0579 264.085ZM83.6929 263.365C84.1329 263.905 84.7229 264.175 85.4629 264.175C86.2029 264.175 86.7879 263.905 87.2179 263.365C87.6479 262.815 87.8629 262.15 87.8629 261.37C87.8629 260.59 87.6479 259.93 87.2179 259.39C86.7879 258.85 86.2029 258.58 85.4629 258.58C84.7229 258.58 84.1329 258.855 83.6929 259.405C83.2629 259.945 83.0479 260.6 83.0479 261.37C83.0479 262.15 83.2629 262.815 83.6929 263.365ZM90.0268 265.18V264.25C90.3668 264.25 90.6468 264.025 90.8668 263.575C91.0868 263.125 91.2668 262.375 91.4068 261.325L91.8718 257.755H96.9118V265H95.7868V258.745H92.8618L92.5318 261.46C92.3718 262.79 92.0918 263.745 91.6918 264.325C91.2918 264.895 90.7368 265.18 90.0268 265.18ZM99.1582 257.755H100.283V260.56H102.998C103.718 260.56 104.278 260.775 104.678 261.205C105.078 261.625 105.278 262.15 105.278 262.78C105.278 263.41 105.073 263.94 104.663 264.37C104.263 264.79 103.708 265 102.998 265H99.1582V257.755ZM102.878 261.55H100.283V264.01H102.878C103.278 264.01 103.583 263.9 103.793 263.68C104.013 263.45 104.123 263.15 104.123 262.78C104.123 262.41 104.013 262.115 103.793 261.895C103.583 261.665 103.278 261.55 102.878 261.55ZM107.798 259.165H107.108L107.183 257.44L105.743 258.385L105.413 257.785L106.943 257.005L105.413 256.225L105.743 255.64L107.183 256.57L107.108 254.845H107.798L107.708 256.57L109.148 255.64L109.493 256.225L107.963 257.005L109.493 257.785L109.148 258.385L107.708 257.44L107.798 259.165Z" fill="#5A5A5A"/>
<rect x="39.5" y="314.5" width="344" height="43" stroke="#D7DEE9"/>
<path d="M63.51 341H62.265V332.105H56.415V341H55.17V330.995H63.51V341ZM71.4587 341H70.3337V340.175C69.7237 340.845 68.9237 341.18 67.9337 341.18C67.2637 341.18 66.6737 340.965 66.1637 340.535C65.6537 340.105 65.3987 339.52 65.3987 338.78C65.3987 338.02 65.6487 337.435 66.1487 337.025C66.6587 336.605 67.2537 336.395 67.9337 336.395C68.9637 336.395 69.7637 336.725 70.3337 337.385V336.08C70.3337 335.6 70.1637 335.225 69.8237 334.955C69.4837 334.685 69.0437 334.55 68.5037 334.55C67.6537 334.55 66.9137 334.885 66.2837 335.555L65.7587 334.775C66.5287 333.975 67.4937 333.575 68.6537 333.575C69.4837 333.575 70.1587 333.775 70.6787 334.175C71.1987 334.575 71.4587 335.19 71.4587 336.02V341ZM68.3387 340.37C69.2387 340.37 69.9037 340.07 70.3337 339.47V338.105C69.9037 337.505 69.2387 337.205 68.3387 337.205C67.8187 337.205 67.3887 337.355 67.0487 337.655C66.7187 337.945 66.5537 338.325 66.5537 338.795C66.5537 339.255 66.7187 339.635 67.0487 339.935C67.3887 340.225 67.8187 340.37 68.3387 340.37ZM77.2839 341.18C76.2639 341.18 75.4489 340.755 74.8389 339.905V343.76H73.7139V333.755H74.8389V334.835C75.1089 334.455 75.4589 334.15 75.8889 333.92C76.3189 333.69 76.7839 333.575 77.2839 333.575C78.2439 333.575 79.0189 333.92 79.6089 334.61C80.2089 335.29 80.5089 336.21 80.5089 337.37C80.5089 338.53 80.2089 339.455 79.6089 340.145C79.0189 340.835 78.2439 341.18 77.2839 341.18ZM76.9989 340.175C77.7089 340.175 78.2739 339.915 78.6939 339.395C79.1139 338.865 79.3239 338.19 79.3239 337.37C79.3239 336.55 79.1139 335.88 78.6939 335.36C78.2739 334.84 77.7089 334.58 76.9989 334.58C76.5689 334.58 76.1489 334.695 75.7389 334.925C75.3389 335.145 75.0389 335.415 74.8389 335.735V339.005C75.0389 339.335 75.3389 339.615 75.7389 339.845C76.1489 340.065 76.5689 340.175 76.9989 340.175ZM88.0579 340.085C87.4079 340.815 86.5429 341.18 85.4629 341.18C84.3829 341.18 83.5129 340.815 82.8529 340.085C82.2029 339.355 81.8779 338.45 81.8779 337.37C81.8779 336.29 82.2029 335.39 82.8529 334.67C83.5129 333.94 84.3829 333.575 85.4629 333.575C86.5429 333.575 87.4079 333.94 88.0579 334.67C88.7179 335.39 89.0479 336.29 89.0479 337.37C89.0479 338.45 88.7179 339.355 88.0579 340.085ZM83.6929 339.365C84.1329 339.905 84.7229 340.175 85.4629 340.175C86.2029 340.175 86.7879 339.905 87.2179 339.365C87.6479 338.815 87.8629 338.15 87.8629 337.37C87.8629 336.59 87.6479 335.93 87.2179 335.39C86.7879 334.85 86.2029 334.58 85.4629 334.58C84.7229 334.58 84.1329 334.855 83.6929 335.405C83.2629 335.945 83.0479 336.6 83.0479 337.37C83.0479 338.15 83.2629 338.815 83.6929 339.365ZM90.0268 341.18V340.25C90.3668 340.25 90.6468 340.025 90.8668 339.575C91.0868 339.125 91.2668 338.375 91.4068 337.325L91.8718 333.755H96.9118V341H95.7868V334.745H92.8618L92.5318 337.46C92.3718 338.79 92.0918 339.745 91.6918 340.325C91.2918 340.895 90.7368 341.18 90.0268 341.18ZM99.1582 333.755H100.283V336.56H102.998C103.718 336.56 104.278 336.775 104.678 337.205C105.078 337.625 105.278 338.15 105.278 338.78C105.278 339.41 105.073 339.94 104.663 340.37C104.263 340.79 103.708 341 102.998 341H99.1582V333.755ZM102.878 337.55H100.283V340.01H102.878C103.278 340.01 103.583 339.9 103.793 339.68C104.013 339.45 104.123 339.15 104.123 338.78C104.123 338.41 104.013 338.115 103.793 337.895C103.583 337.665 103.278 337.55 102.878 337.55ZM114.132 341.18C113.052 341.18 112.167 340.83 111.477 340.13C110.787 339.42 110.442 338.5 110.442 337.37C110.442 336.31 110.782 335.415 111.462 334.685C112.142 333.945 112.992 333.575 114.012 333.575C115.082 333.575 115.927 333.945 116.547 334.685C117.177 335.415 117.492 336.34 117.492 337.46V337.745H111.627C111.677 338.455 111.937 339.05 112.407 339.53C112.877 340.01 113.487 340.25 114.237 340.25C115.137 340.25 115.882 339.945 116.472 339.335L117.012 340.07C116.272 340.81 115.312 341.18 114.132 341.18ZM116.382 336.92C116.372 336.3 116.162 335.745 115.752 335.255C115.342 334.755 114.757 334.505 113.997 334.505C113.277 334.505 112.707 334.75 112.287 335.24C111.877 335.73 111.657 336.29 111.627 336.92H116.382ZM127.684 333.755H128.809V340.01H129.739V342.845H128.614V341H119.314V333.755H120.439V340.01H123.499V333.755H124.624V340.01H127.684V333.755ZM134.552 341.18C133.472 341.18 132.587 340.83 131.897 340.13C131.207 339.42 130.862 338.5 130.862 337.37C130.862 336.31 131.202 335.415 131.882 334.685C132.562 333.945 133.412 333.575 134.432 333.575C135.502 333.575 136.347 333.945 136.967 334.685C137.597 335.415 137.912 336.34 137.912 337.46V337.745H132.047C132.097 338.455 132.357 339.05 132.827 339.53C133.297 340.01 133.907 340.25 134.657 340.25C135.557 340.25 136.302 339.945 136.892 339.335L137.432 340.07C136.692 340.81 135.732 341.18 134.552 341.18ZM136.802 336.92C136.792 336.3 136.582 335.745 136.172 335.255C135.762 334.755 135.177 334.505 134.417 334.505C133.697 334.505 133.127 334.75 132.707 335.24C132.297 335.73 132.077 336.29 132.047 336.92H136.802ZM147.172 341.18C146.152 341.18 145.337 340.755 144.727 339.905V343.76H143.602V333.755H144.727V334.835C144.997 334.455 145.347 334.15 145.777 333.92C146.207 333.69 146.672 333.575 147.172 333.575C148.132 333.575 148.907 333.92 149.497 334.61C150.097 335.29 150.397 336.21 150.397 337.37C150.397 338.53 150.097 339.455 149.497 340.145C148.907 340.835 148.132 341.18 147.172 341.18ZM146.887 340.175C147.597 340.175 148.162 339.915 148.582 339.395C149.002 338.865 149.212 338.19 149.212 337.37C149.212 336.55 149.002 335.88 148.582 335.36C148.162 334.84 147.597 334.58 146.887 334.58C146.457 334.58 146.037 334.695 145.627 334.925C145.227 335.145 144.927 335.415 144.727 335.735V339.005C144.927 339.335 145.227 339.615 145.627 339.845C146.037 340.065 146.457 340.175 146.887 340.175ZM157.841 341H156.716V340.175C156.106 340.845 155.306 341.18 154.316 341.18C153.646 341.18 153.056 340.965 152.546 340.535C152.036 340.105 151.781 339.52 151.781 338.78C151.781 338.02 152.031 337.435 152.531 337.025C153.041 336.605 153.636 336.395 154.316 336.395C155.346 336.395 156.146 336.725 156.716 337.385V336.08C156.716 335.6 156.546 335.225 156.206 334.955C155.866 334.685 155.426 334.55 154.886 334.55C154.036 334.55 153.296 334.885 152.666 335.555L152.141 334.775C152.911 333.975 153.876 333.575 155.036 333.575C155.866 333.575 156.541 333.775 157.061 334.175C157.581 334.575 157.841 335.19 157.841 336.02V341ZM154.721 340.37C155.621 340.37 156.286 340.07 156.716 339.47V338.105C156.286 337.505 155.621 337.205 154.721 337.205C154.201 337.205 153.771 337.355 153.431 337.655C153.101 337.945 152.936 338.325 152.936 338.795C152.936 339.255 153.101 339.635 153.431 339.935C153.771 340.225 154.201 340.37 154.721 340.37ZM162.661 341.18C161.271 341.18 160.181 340.785 159.391 339.995L159.946 339.275C160.626 339.925 161.531 340.25 162.661 340.25C163.311 340.25 163.826 340.135 164.206 339.905C164.596 339.675 164.791 339.37 164.791 338.99C164.791 338.19 164.031 337.79 162.511 337.79H160.891V336.875H162.511C163.141 336.875 163.656 336.775 164.056 336.575C164.456 336.365 164.656 336.06 164.656 335.66C164.656 335.32 164.456 335.045 164.056 334.835C163.656 334.615 163.151 334.505 162.541 334.505C161.531 334.505 160.721 334.815 160.111 335.435L159.526 334.745C160.276 333.975 161.266 333.59 162.496 333.59C163.486 333.58 164.286 333.75 164.896 334.1C165.516 334.44 165.826 334.915 165.826 335.525C165.826 336.025 165.621 336.43 165.211 336.74C164.811 337.05 164.366 337.235 163.876 337.295C164.386 337.335 164.861 337.505 165.301 337.805C165.751 338.105 165.976 338.525 165.976 339.065C165.976 339.685 165.676 340.195 165.076 340.595C164.486 340.985 163.681 341.18 162.661 341.18ZM169.571 335.165H168.881L168.956 333.44L167.516 334.385L167.186 333.785L168.716 333.005L167.186 332.225L167.516 331.64L168.956 332.57L168.881 330.845H169.571L169.481 332.57L170.921 331.64L171.266 332.225L169.736 333.005L171.266 333.785L170.921 334.385L169.481 333.44L169.571 335.165Z" fill="#5A5A5A"/>
<path d="M42.744 53H40.188V40.994H45.804C47.064 40.994 48.048 41.366 48.756 42.11C49.476 42.842 49.836 43.76 49.836 44.864C49.836 45.956 49.476 46.874 48.756 47.618C48.036 48.362 47.052 48.734 45.804 48.734H42.744V53ZM45.462 46.484C45.978 46.484 46.398 46.34 46.722 46.052C47.058 45.752 47.226 45.356 47.226 44.864C47.226 44.372 47.058 43.982 46.722 43.694C46.398 43.394 45.978 43.244 45.462 43.244H42.744V46.484H45.462ZM55.1536 53.216C53.8096 53.216 52.6996 52.796 51.8236 51.956C50.9476 51.116 50.5096 50.012 50.5096 48.644C50.5096 47.36 50.9296 46.28 51.7696 45.404C52.6216 44.528 53.7016 44.09 55.0096 44.09C56.3056 44.09 57.3556 44.534 58.1596 45.422C58.9636 46.298 59.3656 47.45 59.3656 48.878V49.382H52.9036C52.9756 49.958 53.2336 50.438 53.6776 50.822C54.1216 51.206 54.6976 51.398 55.4056 51.398C55.7896 51.398 56.2036 51.32 56.6476 51.164C57.1036 51.008 57.4636 50.798 57.7276 50.534L58.7356 52.01C57.8596 52.814 56.6656 53.216 55.1536 53.216ZM57.1516 47.834C57.1156 47.342 56.9176 46.898 56.5576 46.502C56.2096 46.106 55.6936 45.908 55.0096 45.908C54.3616 45.908 53.8576 46.106 53.4976 46.502C53.1376 46.886 52.9276 47.33 52.8676 47.834H57.1516ZM67.7308 44.306V46.304H63.3028V53H61.0168V44.306H67.7308ZM71.3866 53H69.1906V44.306H71.4766V49.562L75.0586 44.306H77.3626V53H75.0766V47.546L71.3866 53ZM83.682 53.216C82.338 53.216 81.234 52.79 80.37 51.938C79.506 51.086 79.074 49.988 79.074 48.644C79.074 47.312 79.506 46.22 80.37 45.368C81.234 44.516 82.338 44.09 83.682 44.09C85.218 44.09 86.364 44.612 87.12 45.656L85.626 47.06C85.206 46.436 84.594 46.124 83.79 46.124C83.094 46.124 82.524 46.358 82.08 46.826C81.648 47.282 81.432 47.888 81.432 48.644C81.432 49.4 81.648 50.012 82.08 50.48C82.524 50.948 83.094 51.182 83.79 51.182C84.57 51.182 85.182 50.87 85.626 50.246L87.12 51.632C86.364 52.688 85.218 53.216 83.682 53.216ZM92.5205 53H90.2165V46.304H87.7865V44.306H94.9505V46.304H92.5205V53ZM101.352 53.216C100.26 53.216 99.366 52.772 98.67 51.884V56.312H96.384V44.306H98.67V45.404C99.354 44.528 100.248 44.09 101.352 44.09C102.492 44.09 103.416 44.498 104.124 45.314C104.844 46.118 105.204 47.228 105.204 48.644C105.204 50.06 104.844 51.176 104.124 51.992C103.416 52.808 102.492 53.216 101.352 53.216ZM100.632 51.182C101.292 51.182 101.82 50.948 102.216 50.48C102.624 50.012 102.828 49.4 102.828 48.644C102.828 47.9 102.624 47.294 102.216 46.826C101.82 46.358 101.292 46.124 100.632 46.124C100.26 46.124 99.888 46.22 99.516 46.412C99.144 46.604 98.862 46.838 98.67 47.114V50.192C98.862 50.468 99.144 50.702 99.516 50.894C99.9 51.086 100.272 51.182 100.632 51.182ZM114.384 53H112.098V52.1C111.474 52.844 110.556 53.216 109.344 53.216C108.564 53.216 107.862 52.964 107.238 52.46C106.626 51.944 106.32 51.236 106.32 50.336C106.32 49.4 106.62 48.698 107.22 48.23C107.832 47.762 108.54 47.528 109.344 47.528C110.58 47.528 111.498 47.882 112.098 48.59V47.42C112.098 46.976 111.924 46.622 111.576 46.358C111.228 46.094 110.766 45.962 110.19 45.962C109.242 45.962 108.396 46.304 107.652 46.988L106.788 45.458C107.82 44.546 109.086 44.09 110.586 44.09C111.702 44.09 112.614 44.348 113.322 44.864C114.03 45.38 114.384 46.22 114.384 47.384V53ZM110.262 51.668C111.114 51.668 111.726 51.416 112.098 50.912V49.832C111.726 49.328 111.114 49.076 110.262 49.076C109.794 49.076 109.404 49.196 109.092 49.436C108.78 49.664 108.624 49.982 108.624 50.39C108.624 50.786 108.78 51.098 109.092 51.326C109.404 51.554 109.794 51.668 110.262 51.668ZM123.492 55.214V53H116.652V44.306H118.938V51.002H122.538V44.306H124.824V51.002H125.778V55.214H123.492ZM129.412 53H127.216V44.306H129.502V49.562L133.084 44.306H135.388V53H133.102V47.546L129.412 53ZM139.961 53H137.369L139.385 49.85C138.845 49.718 138.389 49.418 138.017 48.95C137.645 48.482 137.459 47.882 137.459 47.15C137.459 46.346 137.729 45.674 138.269 45.134C138.809 44.582 139.541 44.306 140.465 44.306H145.739V53H143.453V50.012H141.671L139.961 53ZM140.825 48.104H143.453V46.232H140.825C140.513 46.232 140.261 46.316 140.069 46.484C139.877 46.652 139.781 46.874 139.781 47.15C139.781 47.438 139.871 47.672 140.051 47.852C140.243 48.02 140.501 48.104 140.825 48.104Z" fill="#484848"/>
<path d="M178.876 53H173.404V40.994H178.75C179.782 40.994 180.598 41.276 181.198 41.84C181.81 42.404 182.116 43.142 182.116 44.054C182.116 44.774 181.912 45.386 181.504 45.89C181.096 46.382 180.598 46.688 180.01 46.808C180.646 46.904 181.192 47.24 181.648 47.816C182.116 48.392 182.35 49.04 182.35 49.76C182.35 50.732 182.038 51.518 181.414 52.118C180.802 52.706 179.956 53 178.876 53ZM178.498 46.196C179.158 46.196 179.668 46.016 180.028 45.656C180.388 45.296 180.568 44.834 180.568 44.27C180.568 43.706 180.382 43.244 180.01 42.884C179.65 42.512 179.146 42.326 178.498 42.326H174.898V46.196H178.498ZM178.57 51.668C179.266 51.668 179.812 51.482 180.208 51.11C180.604 50.738 180.802 50.234 180.802 49.598C180.802 49.01 180.604 48.518 180.208 48.122C179.824 47.726 179.278 47.528 178.57 47.528H174.898V51.668H178.57ZM191.87 53H190.304L187.694 49.436L185.084 53H183.536L186.866 48.536L183.716 44.306H185.282L187.694 47.618L190.106 44.306H191.672L188.522 48.536L191.87 53ZM199.668 51.902C198.888 52.778 197.85 53.216 196.554 53.216C195.258 53.216 194.214 52.778 193.422 51.902C192.642 51.026 192.252 49.94 192.252 48.644C192.252 47.348 192.642 46.268 193.422 45.404C194.214 44.528 195.258 44.09 196.554 44.09C197.85 44.09 198.888 44.528 199.668 45.404C200.46 46.268 200.856 47.348 200.856 48.644C200.856 49.94 200.46 51.026 199.668 51.902ZM194.43 51.038C194.958 51.686 195.666 52.01 196.554 52.01C197.442 52.01 198.144 51.686 198.66 51.038C199.176 50.378 199.434 49.58 199.434 48.644C199.434 47.708 199.176 46.916 198.66 46.268C198.144 45.62 197.442 45.296 196.554 45.296C195.666 45.296 194.958 45.626 194.43 46.286C193.914 46.934 193.656 47.72 193.656 48.644C193.656 49.58 193.914 50.378 194.43 51.038ZM202.031 55.214V51.884C202.475 51.8 202.823 51.536 203.075 51.092C203.327 50.636 203.531 49.802 203.687 48.59L204.245 44.306H210.293V51.812H211.301V55.214H209.951V53H203.381V55.214H202.031ZM205.433 45.494L205.037 48.752C204.833 50.276 204.413 51.296 203.777 51.812H208.943V45.494H205.433Z" fill="#484848" fill-opacity="0.48"/>
<rect x="39" y="442" width="345" height="50" rx="2" fill="#0057B6"/>
<path d="M144.605 472.18C143.765 472.18 143.01 472.025 142.34 471.715C141.67 471.405 141.17 471.01 140.84 470.53L141.575 469.735C141.875 470.135 142.295 470.46 142.835 470.71C143.385 470.95 143.965 471.07 144.575 471.07C145.355 471.07 145.97 470.905 146.42 470.575C146.87 470.235 147.095 469.775 147.095 469.195C147.095 468.595 146.86 468.15 146.39 467.86C145.93 467.57 145.3 467.425 144.5 467.425H142.46V466.315H144.5C145.21 466.315 145.79 466.18 146.24 465.91C146.7 465.63 146.93 465.215 146.93 464.665C146.93 464.125 146.7 463.705 146.24 463.405C145.79 463.105 145.22 462.955 144.53 462.955C143.4 462.955 142.455 463.36 141.695 464.17L141.005 463.39C141.405 462.93 141.915 462.56 142.535 462.28C143.165 461.99 143.86 461.845 144.62 461.845C145.64 461.845 146.49 462.085 147.17 462.565C147.86 463.045 148.205 463.695 148.205 464.515C148.205 465.175 147.98 465.705 147.53 466.105C147.09 466.495 146.595 466.74 146.045 466.84C146.595 466.89 147.115 467.13 147.605 467.56C148.105 467.99 148.355 468.57 148.355 469.3C148.355 470.14 148.01 470.83 147.32 471.37C146.63 471.91 145.725 472.18 144.605 472.18ZM155.945 472H154.82V471.175C154.21 471.845 153.41 472.18 152.42 472.18C151.75 472.18 151.16 471.965 150.65 471.535C150.14 471.105 149.885 470.52 149.885 469.78C149.885 469.02 150.135 468.435 150.635 468.025C151.145 467.605 151.74 467.395 152.42 467.395C153.45 467.395 154.25 467.725 154.82 468.385V467.08C154.82 466.6 154.65 466.225 154.31 465.955C153.97 465.685 153.53 465.55 152.99 465.55C152.14 465.55 151.4 465.885 150.77 466.555L150.245 465.775C151.015 464.975 151.98 464.575 153.14 464.575C153.97 464.575 154.645 464.775 155.165 465.175C155.685 465.575 155.945 466.19 155.945 467.02V472ZM152.825 471.37C153.725 471.37 154.39 471.07 154.82 470.47V469.105C154.39 468.505 153.725 468.205 152.825 468.205C152.305 468.205 151.875 468.355 151.535 468.655C151.205 468.945 151.04 469.325 151.04 469.795C151.04 470.255 151.205 470.635 151.535 470.935C151.875 471.225 152.305 471.37 152.825 471.37ZM161.77 472.18C160.75 472.18 159.935 471.755 159.325 470.905V474.76H158.2V464.755H159.325V465.835C159.595 465.455 159.945 465.15 160.375 464.92C160.805 464.69 161.27 464.575 161.77 464.575C162.73 464.575 163.505 464.92 164.095 465.61C164.695 466.29 164.995 467.21 164.995 468.37C164.995 469.53 164.695 470.455 164.095 471.145C163.505 471.835 162.73 472.18 161.77 472.18ZM161.485 471.175C162.195 471.175 162.76 470.915 163.18 470.395C163.6 469.865 163.81 469.19 163.81 468.37C163.81 467.55 163.6 466.88 163.18 466.36C162.76 465.84 162.195 465.58 161.485 465.58C161.055 465.58 160.635 465.695 160.225 465.925C159.825 466.145 159.525 466.415 159.325 466.735V470.005C159.525 470.335 159.825 470.615 160.225 470.845C160.635 471.065 161.055 471.175 161.485 471.175ZM170.054 472.18C168.974 472.18 168.089 471.83 167.399 471.13C166.709 470.42 166.364 469.5 166.364 468.37C166.364 467.31 166.704 466.415 167.384 465.685C168.064 464.945 168.914 464.575 169.934 464.575C171.004 464.575 171.849 464.945 172.469 465.685C173.099 466.415 173.414 467.34 173.414 468.46V468.745H167.549C167.599 469.455 167.859 470.05 168.329 470.53C168.799 471.01 169.409 471.25 170.159 471.25C171.059 471.25 171.804 470.945 172.394 470.335L172.934 471.07C172.194 471.81 171.234 472.18 170.054 472.18ZM172.304 467.92C172.294 467.3 172.084 466.745 171.674 466.255C171.264 465.755 170.679 465.505 169.919 465.505C169.199 465.505 168.629 465.75 168.209 466.24C167.799 466.73 167.579 467.29 167.549 467.92H172.304ZM180.306 464.755V465.745H176.361V472H175.236V464.755H180.306ZM182.85 472H181.77V464.755H182.895V470.29L186.69 464.755H187.8V472H186.675V466.36L182.85 472ZM193.241 472.18C192.171 472.18 191.301 471.82 190.631 471.1C189.961 470.37 189.626 469.46 189.626 468.37C189.626 467.28 189.961 466.375 190.631 465.655C191.301 464.935 192.171 464.575 193.241 464.575C194.361 464.575 195.246 464.995 195.896 465.835L195.146 466.525C194.686 465.895 194.071 465.58 193.301 465.58C192.541 465.58 191.931 465.84 191.471 466.36C191.021 466.88 190.796 467.55 190.796 468.37C190.796 469.19 191.021 469.865 191.471 470.395C191.931 470.915 192.541 471.175 193.301 471.175C194.061 471.175 194.676 470.86 195.146 470.23L195.896 470.92C195.246 471.76 194.361 472.18 193.241 472.18ZM199.918 472H198.793V465.745H196.693V464.755H202.033V465.745H199.918V472ZM207.078 472.18C206.058 472.18 205.243 471.755 204.633 470.905V474.76H203.508V464.755H204.633V465.835C204.903 465.455 205.253 465.15 205.683 464.92C206.113 464.69 206.578 464.575 207.078 464.575C208.038 464.575 208.813 464.92 209.403 465.61C210.003 466.29 210.303 467.21 210.303 468.37C210.303 469.53 210.003 470.455 209.403 471.145C208.813 471.835 208.038 472.18 207.078 472.18ZM206.793 471.175C207.503 471.175 208.068 470.915 208.488 470.395C208.908 469.865 209.118 469.19 209.118 468.37C209.118 467.55 208.908 466.88 208.488 466.36C208.068 465.84 207.503 465.58 206.793 465.58C206.363 465.58 205.943 465.695 205.533 465.925C205.133 466.145 204.833 466.415 204.633 466.735V470.005C204.833 470.335 205.133 470.615 205.533 470.845C205.943 471.065 206.363 471.175 206.793 471.175ZM213.172 472H212.092V464.755H213.217V470.29L217.012 464.755H218.122V472H216.997V466.36L213.172 472ZM223.938 472.18C222.918 472.18 222.103 471.755 221.493 470.905V474.76H220.368V464.755H221.493V465.835C221.763 465.455 222.113 465.15 222.543 464.92C222.973 464.69 223.438 464.575 223.938 464.575C224.898 464.575 225.673 464.92 226.263 465.61C226.863 466.29 227.163 467.21 227.163 468.37C227.163 469.53 226.863 470.455 226.263 471.145C225.673 471.835 224.898 472.18 223.938 472.18ZM223.653 471.175C224.363 471.175 224.928 470.915 225.348 470.395C225.768 469.865 225.978 469.19 225.978 468.37C225.978 467.55 225.768 466.88 225.348 466.36C224.928 465.84 224.363 465.58 223.653 465.58C223.223 465.58 222.803 465.695 222.393 465.925C221.993 466.145 221.693 466.415 221.493 466.735V470.005C221.693 470.335 221.993 470.615 222.393 470.845C222.803 471.065 223.223 471.175 223.653 471.175ZM234.712 471.085C234.062 471.815 233.197 472.18 232.117 472.18C231.037 472.18 230.167 471.815 229.507 471.085C228.857 470.355 228.532 469.45 228.532 468.37C228.532 467.29 228.857 466.39 229.507 465.67C230.167 464.94 231.037 464.575 232.117 464.575C233.197 464.575 234.062 464.94 234.712 465.67C235.372 466.39 235.702 467.29 235.702 468.37C235.702 469.45 235.372 470.355 234.712 471.085ZM230.347 470.365C230.787 470.905 231.377 471.175 232.117 471.175C232.857 471.175 233.442 470.905 233.872 470.365C234.302 469.815 234.517 469.15 234.517 468.37C234.517 467.59 234.302 466.93 233.872 466.39C233.442 465.85 232.857 465.58 232.117 465.58C231.377 465.58 230.787 465.855 230.347 466.405C229.917 466.945 229.702 467.6 229.702 468.37C229.702 469.15 229.917 469.815 230.347 470.365ZM241.601 472H237.536V464.755H241.526C242.156 464.755 242.651 464.925 243.011 465.265C243.381 465.605 243.566 466.055 243.566 466.615C243.566 467.025 243.451 467.38 243.221 467.68C243.001 467.97 242.726 468.165 242.396 468.265C242.766 468.355 243.076 468.57 243.326 468.91C243.586 469.25 243.716 469.625 243.716 470.035C243.716 470.625 243.526 471.1 243.146 471.46C242.776 471.82 242.261 472 241.601 472ZM241.376 471.01C241.736 471.01 242.021 470.91 242.231 470.71C242.441 470.51 242.546 470.24 242.546 469.9C242.546 469.59 242.441 469.325 242.231 469.105C242.021 468.885 241.736 468.775 241.376 468.775H238.661V471.01H241.376ZM241.331 467.785C241.671 467.785 241.936 467.695 242.126 467.515C242.316 467.325 242.411 467.08 242.411 466.78C242.411 466.46 242.316 466.21 242.126 466.03C241.936 465.84 241.671 465.745 241.331 465.745H238.661V467.785H241.331ZM251.497 472H250.372V471.175C249.762 471.845 248.962 472.18 247.972 472.18C247.302 472.18 246.712 471.965 246.202 471.535C245.692 471.105 245.437 470.52 245.437 469.78C245.437 469.02 245.687 468.435 246.187 468.025C246.697 467.605 247.292 467.395 247.972 467.395C249.002 467.395 249.802 467.725 250.372 468.385V467.08C250.372 466.6 250.202 466.225 249.862 465.955C249.522 465.685 249.082 465.55 248.542 465.55C247.692 465.55 246.952 465.885 246.322 466.555L245.797 465.775C246.567 464.975 247.532 464.575 248.692 464.575C249.522 464.575 250.197 464.775 250.717 465.175C251.237 465.575 251.497 466.19 251.497 467.02V472ZM248.377 471.37C249.277 471.37 249.942 471.07 250.372 470.47V469.105C249.942 468.505 249.277 468.205 248.377 468.205C247.857 468.205 247.427 468.355 247.087 468.655C246.757 468.945 246.592 469.325 246.592 469.795C246.592 470.255 246.757 470.635 247.087 470.935C247.427 471.225 247.857 471.37 248.377 471.37ZM256.197 472H255.072V465.745H252.972V464.755H258.312V465.745H256.197V472ZM259.787 464.755H260.912V467.56H263.627C264.347 467.56 264.907 467.775 265.307 468.205C265.707 468.625 265.907 469.15 265.907 469.78C265.907 470.41 265.702 470.94 265.292 471.37C264.892 471.79 264.337 472 263.627 472H259.787V464.755ZM263.507 468.55H260.912V471.01H263.507C263.907 471.01 264.212 470.9 264.422 470.68C264.642 470.45 264.752 470.15 264.752 469.78C264.752 469.41 264.642 469.115 264.422 468.895C264.212 468.665 263.907 468.55 263.507 468.55ZM270.819 472.18C269.749 472.18 268.879 471.82 268.209 471.1C267.539 470.37 267.204 469.46 267.204 468.37C267.204 467.28 267.539 466.375 268.209 465.655C268.879 464.935 269.749 464.575 270.819 464.575C271.939 464.575 272.824 464.995 273.474 465.835L272.724 466.525C272.264 465.895 271.649 465.58 270.879 465.58C270.119 465.58 269.509 465.84 269.049 466.36C268.599 466.88 268.374 467.55 268.374 468.37C268.374 469.19 268.599 469.865 269.049 470.395C269.509 470.915 270.119 471.175 270.879 471.175C271.639 471.175 272.254 470.86 272.724 470.23L273.474 470.92C272.824 471.76 271.939 472.18 270.819 472.18ZM276.131 472H274.811L276.746 469.15C276.196 469.08 275.746 468.85 275.396 468.46C275.056 468.07 274.886 467.575 274.886 466.975C274.886 466.335 275.091 465.805 275.501 465.385C275.911 464.965 276.471 464.755 277.181 464.755H281.006V472H279.881V469.195H277.901L276.131 472ZM277.301 468.205H279.881V465.745H277.301C276.911 465.745 276.601 465.86 276.371 466.09C276.151 466.31 276.041 466.605 276.041 466.975C276.041 467.345 276.151 467.645 276.371 467.875C276.591 468.095 276.901 468.205 277.301 468.205Z" fill="white"/>
<rect x="39.5" y="507.5" width="344" height="49" rx="1.5" stroke="#0057B6"/>
<path d="M196.695 537H192.135V526.995H196.59C197.45 526.995 198.13 527.23 198.63 527.7C199.14 528.17 199.395 528.785 199.395 529.545C199.395 530.145 199.225 530.655 198.885 531.075C198.545 531.485 198.13 531.74 197.64 531.84C198.17 531.92 198.625 532.2 199.005 532.68C199.395 533.16 199.59 533.7 199.59 534.3C199.59 535.11 199.33 535.765 198.81 536.265C198.3 536.755 197.595 537 196.695 537ZM196.38 531.33C196.93 531.33 197.355 531.18 197.655 530.88C197.955 530.58 198.105 530.195 198.105 529.725C198.105 529.255 197.95 528.87 197.64 528.57C197.34 528.26 196.92 528.105 196.38 528.105H193.38V531.33H196.38ZM196.44 535.89C197.02 535.89 197.475 535.735 197.805 535.425C198.135 535.115 198.3 534.695 198.3 534.165C198.3 533.675 198.135 533.265 197.805 532.935C197.485 532.605 197.03 532.44 196.44 532.44H193.38V535.89H196.44ZM207.283 536.085C206.633 536.815 205.768 537.18 204.688 537.18C203.608 537.18 202.738 536.815 202.078 536.085C201.428 535.355 201.103 534.45 201.103 533.37C201.103 532.29 201.428 531.39 202.078 530.67C202.738 529.94 203.608 529.575 204.688 529.575C205.768 529.575 206.633 529.94 207.283 530.67C207.943 531.39 208.273 532.29 208.273 533.37C208.273 534.45 207.943 535.355 207.283 536.085ZM202.918 535.365C203.358 535.905 203.948 536.175 204.688 536.175C205.428 536.175 206.013 535.905 206.443 535.365C206.873 534.815 207.088 534.15 207.088 533.37C207.088 532.59 206.873 531.93 206.443 531.39C206.013 530.85 205.428 530.58 204.688 530.58C203.948 530.58 203.358 530.855 202.918 531.405C202.488 531.945 202.273 532.6 202.273 533.37C202.273 534.15 202.488 534.815 202.918 535.365ZM211.187 537H210.107V529.755H211.232V535.29L215.027 529.755H216.137V537H215.012V531.36L211.187 537ZM215.747 527.61C215.097 528.49 214.222 528.93 213.122 528.93C212.032 528.93 211.152 528.49 210.482 527.61L211.037 527.13C211.557 527.85 212.252 528.21 213.122 528.21C214.002 528.21 214.692 527.85 215.192 527.13L215.747 527.61ZM220.828 537H219.703V530.745H217.603V529.755H222.943V530.745H220.828V537ZM225.499 537H224.419V529.755H225.544V535.29L229.339 529.755H230.449V537H229.324V531.36L225.499 537Z" fill="#0057B6"/>
<g clip-path="url(#clip0)">
<path d="M385.592 35.0008L392.67 27.9225C393.11 27.4832 393.11 26.7702 392.67 26.3308C392.23 25.8911 391.518 25.8911 391.078 26.3308L384 33.4091L376.922 26.3308C376.482 25.8911 375.77 25.8911 375.33 26.3308C374.89 26.7702 374.89 27.4832 375.33 27.9225L382.408 35.0008L375.33 42.0791C374.89 42.5185 374.89 43.2314 375.33 43.6708C375.55 43.8903 375.838 44.0003 376.126 44.0003C376.413 44.0003 376.702 43.8903 376.922 43.6704L384 36.5922L391.078 43.6704C391.298 43.8903 391.587 44.0003 391.874 44.0003C392.162 44.0003 392.45 43.8903 392.67 43.6704C393.11 43.231 393.11 42.5181 392.67 42.0787L385.592 35.0008Z" fill="#8A8A8A"/>
</g>
<defs>
<filter id="filter0_d" x="0" y="0" width="423" height="598" filterUnits="userSpaceOnUse" color-interpolation-filters="sRGB">
<feFlood flood-opacity="0" result="BackgroundImageFix"/>
<feColorMatrix in="SourceAlpha" type="matrix" values="0 0 0 0 0 0 0 0 0 0 0 0 0 0 0 0 0 0 127 0"/>
<feOffset dy="2"/>
<feGaussianBlur stdDeviation="2.5"/>
<feColorMatrix type="matrix" values="0 0 0 0 0.4125 0 0 0 0 0.4125 0 0 0 0 0.4125 0 0 0 0.1 0"/>
<feBlend mode="normal" in2="BackgroundImageFix" result="effect1_dropShadow"/>
<feBlend mode="normal" in="SourceGraphic" in2="effect1_dropShadow" result="shape"/>
</filter>
<clipPath id="clip0">
<rect width="18" height="18" fill="white" transform="translate(375 26)"/>
</clipPath>
</defs>
</svg>
