<svg width="666" height="399" viewBox="0 0 666 399" fill="none" xmlns="http://www.w3.org/2000/svg">
<rect x="5.5" y="0.5" width="655" height="57" rx="4.5" fill="white" stroke="#D7DEE9"/>
<path d="M39.892 38.336C37.0547 38.336 34.684 37.44 32.78 35.648C30.8947 33.8373 29.952 31.5133 29.952 28.676C29.952 25.8387 30.8947 23.524 32.78 21.732C34.684 19.9213 37.0547 19.016 39.892 19.016C43.3827 19.016 45.9867 20.5373 47.704 23.58L44.288 25.26C43.8773 24.476 43.2707 23.832 42.468 23.328C41.684 22.8053 40.8253 22.544 39.892 22.544C38.1933 22.544 36.7933 23.1227 35.692 24.28C34.5907 25.4373 34.04 26.9027 34.04 28.676C34.04 30.4493 34.5907 31.9147 35.692 33.072C36.7933 34.2293 38.1933 34.808 39.892 34.808C40.8253 34.808 41.684 34.556 42.468 34.052C43.2707 33.548 43.8773 32.8947 44.288 32.092L47.704 33.744C45.9307 36.8053 43.3267 38.336 39.892 38.336ZM61.4667 36.292C60.16 37.6547 58.424 38.336 56.2587 38.336C54.0933 38.336 52.3573 37.6547 51.0507 36.292C49.7627 34.9107 49.1187 33.2213 49.1187 31.224C49.1187 29.2267 49.7627 27.5467 51.0507 26.184C52.3573 24.8213 54.0933 24.14 56.2587 24.14C58.424 24.14 60.16 24.8213 61.4667 26.184C62.7733 27.5467 63.4267 29.2267 63.4267 31.224C63.4267 33.2213 62.7733 34.9107 61.4667 36.292ZM53.7387 34.052C54.3547 34.7987 55.1947 35.172 56.2587 35.172C57.3227 35.172 58.1627 34.7987 58.7787 34.052C59.4133 33.2867 59.7307 32.344 59.7307 31.224C59.7307 30.1227 59.4133 29.1987 58.7787 28.452C58.1627 27.6867 57.3227 27.304 56.2587 27.304C55.1947 27.304 54.3547 27.6867 53.7387 28.452C53.1227 29.1987 52.8147 30.1227 52.8147 31.224C52.8147 32.344 53.1227 33.2867 53.7387 34.052ZM70.9928 38.336C68.2674 38.336 66.1674 37.6173 64.6928 36.18L66.3168 33.968C67.5301 34.9947 69.0888 35.508 70.9928 35.508C71.8888 35.508 72.5794 35.3773 73.0648 35.116C73.5501 34.8547 73.7928 34.5 73.7928 34.052C73.7928 33.044 72.7848 32.54 70.7688 32.54H67.9968V29.796H70.7688C72.6168 29.796 73.5408 29.3107 73.5408 28.34C73.5408 27.9293 73.2888 27.6027 72.7848 27.36C72.2808 27.0987 71.6274 26.968 70.8248 26.968C69.0701 26.968 67.6701 27.4813 66.6248 28.508L64.8888 26.408C66.3821 24.9147 68.2954 24.168 70.6288 24.168C72.7194 24.1493 74.3434 24.476 75.5008 25.148C76.6581 25.8013 77.2368 26.7067 77.2368 27.864C77.2368 28.6853 76.8914 29.3853 76.2008 29.964C75.5101 30.5427 74.6794 30.9067 73.7088 31.056C74.6608 31.112 75.5288 31.4293 76.3128 32.008C77.1154 32.5867 77.5168 33.3427 77.5168 34.276C77.5168 35.4893 76.9288 36.4693 75.7528 37.216C74.5768 37.9627 72.9901 38.336 70.9928 38.336ZM78.9142 41.444V35.032C79.3248 34.9573 79.6422 34.8267 79.8662 34.64C80.1088 34.4347 80.3328 34.052 80.5382 33.492C80.7622 32.9133 80.9395 32.092 81.0702 31.028L81.9382 24.476H92.8862V34.892H94.3702V41.444H90.8142V38H82.4982V41.444H78.9142ZM85.0462 27.584L84.6262 31.252C84.4395 32.876 83.9168 34.0893 83.0582 34.892H89.3302V27.584H85.0462ZM108.284 38H104.728V36.6C103.757 37.7573 102.329 38.336 100.444 38.336C99.2304 38.336 98.1384 37.944 97.1678 37.16C96.2158 36.3573 95.7398 35.256 95.7398 33.856C95.7398 32.4 96.2064 31.308 97.1398 30.58C98.0918 29.852 99.1931 29.488 100.444 29.488C102.366 29.488 103.794 30.0387 104.728 31.14V29.32C104.728 28.6293 104.457 28.0787 103.916 27.668C103.374 27.2573 102.656 27.052 101.76 27.052C100.285 27.052 98.9691 27.584 97.8118 28.648L96.4678 26.268C98.0731 24.8493 100.042 24.14 102.376 24.14C104.112 24.14 105.53 24.5413 106.632 25.344C107.733 26.1467 108.284 27.4533 108.284 29.264V38ZM101.872 35.928C103.197 35.928 104.149 35.536 104.728 34.752V33.072C104.149 32.288 103.197 31.896 101.872 31.896C101.144 31.896 100.537 32.0827 100.052 32.456C99.5664 32.8107 99.3238 33.3053 99.3238 33.94C99.3238 34.556 99.5664 35.0413 100.052 35.396C100.537 35.7507 101.144 35.928 101.872 35.928ZM117.887 38H114.303V27.584H110.523V24.476H121.667V27.584H117.887V38ZM123.897 24.476H127.453V29.124H132.073C133.566 29.124 134.723 29.544 135.545 30.384C136.366 31.224 136.777 32.2787 136.777 33.548C136.777 34.7987 136.357 35.8533 135.517 36.712C134.677 37.5707 133.529 38 132.073 38H123.897V24.476ZM131.541 32.092H127.453V35.004H131.541C132.026 35.004 132.409 34.8733 132.689 34.612C132.987 34.332 133.137 33.9773 133.137 33.548C133.137 33.1187 132.987 32.7733 132.689 32.512C132.409 32.232 132.026 32.092 131.541 32.092ZM149.953 38H146.537V24.476H150.093V32.652L155.665 24.476H159.249V38H155.693V29.516L149.953 38ZM161.52 41.444V35.032C161.93 34.9573 162.248 34.8267 162.472 34.64C162.714 34.4347 162.938 34.052 163.144 33.492C163.368 32.9133 163.545 32.092 163.676 31.028L164.544 24.476H175.492V34.892H176.976V41.444H173.42V38H165.104V41.444H161.52ZM167.652 27.584L167.232 31.252C167.045 32.876 166.522 34.0893 165.664 34.892H171.936V27.584H167.652ZM185.569 38.336C183.479 38.336 181.752 37.6827 180.389 36.376C179.027 35.0693 178.345 33.352 178.345 31.224C178.345 29.2267 178.999 27.5467 180.305 26.184C181.631 24.8213 183.311 24.14 185.345 24.14C187.361 24.14 188.995 24.8307 190.245 26.212C191.496 27.5747 192.121 29.3667 192.121 31.588V32.372H182.069C182.181 33.268 182.583 34.0147 183.273 34.612C183.964 35.2093 184.86 35.508 185.961 35.508C186.559 35.508 187.203 35.3867 187.893 35.144C188.603 34.9013 189.163 34.5747 189.573 34.164L191.141 36.46C189.779 37.7107 187.921 38.336 185.569 38.336ZM188.677 29.964C188.621 29.1987 188.313 28.508 187.753 27.892C187.212 27.276 186.409 26.968 185.345 26.968C184.337 26.968 183.553 27.276 182.993 27.892C182.433 28.4893 182.107 29.18 182.013 29.964H188.677ZM207.514 38.336C205.628 38.336 204.06 37.804 202.81 36.74C201.559 35.6573 200.784 34.276 200.486 32.596H198.246V38H194.69V24.476H198.246V29.488H200.57C200.924 27.92 201.718 26.6413 202.95 25.652C204.182 24.644 205.703 24.14 207.514 24.14C209.679 24.14 211.415 24.8213 212.722 26.184C214.028 27.5467 214.682 29.2267 214.682 31.224C214.682 33.2213 214.028 34.9107 212.722 36.292C211.415 37.6547 209.679 38.336 207.514 38.336ZM207.514 35.172C208.596 35.172 209.446 34.7987 210.062 34.052C210.678 33.2867 210.986 32.344 210.986 31.224C210.986 30.1227 210.678 29.1987 210.062 28.452C209.446 27.6867 208.596 27.304 207.514 27.304C206.45 27.304 205.61 27.6867 204.994 28.452C204.378 29.1987 204.07 30.1227 204.07 31.224C204.07 32.344 204.378 33.2867 204.994 34.052C205.61 34.7987 206.45 35.172 207.514 35.172Z" fill="#262C40"/>
<g filter="url(#filter0_d)">
<rect x="5" y="141" width="656" height="251" rx="5" fill="white"/>
<rect x="5.5" y="141.5" width="655" height="250" rx="4.5" stroke="#D7DEE9"/>
</g>
<circle cx="37" cy="229" r="7.5" stroke="#0057B6"/>
<circle cx="37" cy="258" r="7.5" stroke="#D7DEE9"/>
<circle cx="37" cy="287" r="7.5" stroke="#D7DEE9"/>
<circle r="5" transform="matrix(-1 0 0 1 37 229)" fill="#0057B6"/>
<rect width="180" height="42" transform="translate(456 326)" fill="#0057B6"/>
<path d="M482.157 352.18C480.687 352.18 479.492 351.69 478.572 350.71C477.652 349.73 477.192 348.495 477.192 347.005C477.192 345.515 477.652 344.28 478.572 343.3C479.492 342.32 480.687 341.83 482.157 341.83C483.617 341.83 484.807 342.32 485.727 343.3C486.657 344.28 487.122 345.515 487.122 347.005C487.122 348.495 486.657 349.73 485.727 350.71C484.807 351.69 483.617 352.18 482.157 352.18ZM482.157 351.07C483.257 351.07 484.142 350.69 484.812 349.93C485.492 349.16 485.832 348.185 485.832 347.005C485.832 345.815 485.492 344.84 484.812 344.08C484.142 343.32 483.257 342.94 482.157 342.94C481.047 342.94 480.157 343.32 479.487 344.08C478.817 344.84 478.482 345.815 478.482 347.005C478.482 348.185 478.817 349.16 479.487 349.93C480.157 350.69 481.047 351.07 482.157 351.07ZM495.052 352H493.927V345.745H490.147V352H489.022V344.755H495.052V352ZM496.893 354.835L497.073 353.815C497.253 353.895 497.458 353.935 497.688 353.935C497.948 353.935 498.163 353.88 498.333 353.77C498.503 353.66 498.648 353.46 498.768 353.17L499.248 352.075L496.218 344.755H497.433L499.848 350.695L502.248 344.755H503.478L499.848 353.47C499.448 354.43 498.738 354.92 497.718 354.94C497.418 354.94 497.143 354.905 496.893 354.835ZM506.047 350.365C506.487 350.905 507.077 351.175 507.817 351.175C508.557 351.175 509.142 350.905 509.572 350.365C510.002 349.815 510.217 349.145 510.217 348.355C510.217 347.585 510.002 346.93 509.572 346.39C509.142 345.85 508.557 345.58 507.817 345.58C507.077 345.58 506.487 345.85 506.047 346.39C505.617 346.93 505.402 347.585 505.402 348.355C505.402 349.145 505.617 349.815 506.047 350.365ZM507.817 352.18C506.727 352.18 505.857 351.795 505.207 351.025C504.557 350.255 504.232 349.26 504.232 348.04C504.232 346.32 504.542 345.05 505.162 344.23C505.782 343.4 506.737 342.9 508.027 342.73C508.797 342.61 509.327 342.495 509.617 342.385C509.917 342.275 510.067 342.145 510.067 341.995H511.162C511.162 342.275 511.077 342.52 510.907 342.73C510.737 342.93 510.492 343.09 510.172 343.21C509.862 343.33 509.567 343.425 509.287 343.495C509.017 343.555 508.692 343.61 508.312 343.66C507.312 343.8 506.587 344.075 506.137 344.485C505.697 344.895 505.407 345.44 505.267 346.12C505.927 345.09 506.837 344.575 507.997 344.575C508.997 344.575 509.812 344.94 510.442 345.67C511.072 346.4 511.387 347.295 511.387 348.355C511.387 349.435 511.062 350.345 510.412 351.085C509.762 351.815 508.897 352.18 507.817 352.18ZM512.454 352.18V351.25C512.794 351.25 513.074 351.025 513.294 350.575C513.514 350.125 513.694 349.375 513.834 348.325L514.299 344.755H519.339V352H518.214V345.745H515.289L514.959 348.46C514.799 349.79 514.519 350.745 514.119 351.325C513.719 351.895 513.164 352.18 512.454 352.18ZM522.665 352H521.585V344.755H522.71V350.29L526.505 344.755H527.615V352H526.49V346.36L522.665 352ZM536.237 352H534.797L532.187 348.745L530.987 349.93V352H529.862V344.755H530.987V348.61L534.797 344.755H536.222L533.012 348.04L536.237 352ZM543.283 351.085C542.633 351.815 541.768 352.18 540.688 352.18C539.608 352.18 538.738 351.815 538.078 351.085C537.428 350.355 537.103 349.45 537.103 348.37C537.103 347.29 537.428 346.39 538.078 345.67C538.738 344.94 539.608 344.575 540.688 344.575C541.768 344.575 542.633 344.94 543.283 345.67C543.943 346.39 544.273 347.29 544.273 348.37C544.273 349.45 543.943 350.355 543.283 351.085ZM538.918 350.365C539.358 350.905 539.948 351.175 540.688 351.175C541.428 351.175 542.013 350.905 542.443 350.365C542.873 349.815 543.088 349.15 543.088 348.37C543.088 347.59 542.873 346.93 542.443 346.39C542.013 345.85 541.428 345.58 540.688 345.58C539.948 345.58 539.358 345.855 538.918 346.405C538.488 346.945 538.273 347.6 538.273 348.37C538.273 349.15 538.488 349.815 538.918 350.365ZM550.172 352H546.107V344.755H550.097C550.727 344.755 551.222 344.925 551.582 345.265C551.952 345.605 552.137 346.055 552.137 346.615C552.137 347.025 552.022 347.38 551.792 347.68C551.572 347.97 551.297 348.165 550.967 348.265C551.337 348.355 551.647 348.57 551.897 348.91C552.157 349.25 552.287 349.625 552.287 350.035C552.287 350.625 552.097 351.1 551.717 351.46C551.347 351.82 550.832 352 550.172 352ZM549.947 351.01C550.307 351.01 550.592 350.91 550.802 350.71C551.012 350.51 551.117 350.24 551.117 349.9C551.117 349.59 551.012 349.325 550.802 349.105C550.592 348.885 550.307 348.775 549.947 348.775H547.232V351.01H549.947ZM549.902 347.785C550.242 347.785 550.507 347.695 550.697 347.515C550.887 347.325 550.982 347.08 550.982 346.78C550.982 346.46 550.887 346.21 550.697 346.03C550.507 345.84 550.242 345.745 549.902 345.745H547.232V347.785H549.902ZM560.068 352H558.943V351.175C558.333 351.845 557.533 352.18 556.543 352.18C555.873 352.18 555.283 351.965 554.773 351.535C554.263 351.105 554.008 350.52 554.008 349.78C554.008 349.02 554.258 348.435 554.758 348.025C555.268 347.605 555.863 347.395 556.543 347.395C557.573 347.395 558.373 347.725 558.943 348.385V347.08C558.943 346.6 558.773 346.225 558.433 345.955C558.093 345.685 557.653 345.55 557.113 345.55C556.263 345.55 555.523 345.885 554.893 346.555L554.368 345.775C555.138 344.975 556.103 344.575 557.263 344.575C558.093 344.575 558.768 344.775 559.288 345.175C559.808 345.575 560.068 346.19 560.068 347.02V352ZM556.948 351.37C557.848 351.37 558.513 351.07 558.943 350.47V349.105C558.513 348.505 557.848 348.205 556.948 348.205C556.428 348.205 555.998 348.355 555.658 348.655C555.328 348.945 555.163 349.325 555.163 349.795C555.163 350.255 555.328 350.635 555.658 350.935C555.998 351.225 556.428 351.37 556.948 351.37ZM564.768 352H563.643V345.745H561.543V344.755H566.883V345.745H564.768V352ZM568.358 344.755H569.483V347.56H572.198C572.918 347.56 573.478 347.775 573.878 348.205C574.278 348.625 574.478 349.15 574.478 349.78C574.478 350.41 574.273 350.94 573.863 351.37C573.463 351.79 572.908 352 572.198 352H568.358V344.755ZM572.078 348.55H569.483V351.01H572.078C572.478 351.01 572.783 350.9 572.993 350.68C573.213 350.45 573.323 350.15 573.323 349.78C573.323 349.41 573.213 349.115 572.993 348.895C572.783 348.665 572.478 348.55 572.078 348.55ZM581.142 352H580.062V344.755H581.187V350.29L584.982 344.755H586.092V352H584.967V346.36L581.142 352ZM587.483 353.845V351.07C587.853 351 588.143 350.78 588.353 350.41C588.563 350.03 588.733 349.335 588.863 348.325L589.328 344.755H594.368V351.01H595.208V353.845H594.083V352H588.608V353.845H587.483ZM590.318 345.745L589.988 348.46C589.818 349.73 589.468 350.58 588.938 351.01H593.243V345.745H590.318ZM600.017 352.18C598.937 352.18 598.052 351.83 597.362 351.13C596.672 350.42 596.327 349.5 596.327 348.37C596.327 347.31 596.667 346.415 597.347 345.685C598.027 344.945 598.877 344.575 599.897 344.575C600.967 344.575 601.812 344.945 602.432 345.685C603.062 346.415 603.377 347.34 603.377 348.46V348.745H597.512C597.562 349.455 597.822 350.05 598.292 350.53C598.762 351.01 599.372 351.25 600.122 351.25C601.022 351.25 601.767 350.945 602.357 350.335L602.897 351.07C602.157 351.81 601.197 352.18 600.017 352.18ZM602.267 347.92C602.257 347.3 602.047 346.745 601.637 346.255C601.227 345.755 600.642 345.505 599.882 345.505C599.162 345.505 598.592 345.75 598.172 346.24C597.762 346.73 597.542 347.29 597.512 347.92H602.267ZM611.274 352.18C610.274 352.18 609.449 351.86 608.799 351.22C608.159 350.57 607.799 349.75 607.719 348.76H606.324V352H605.199V344.755H606.324V347.77H607.734C607.854 346.84 608.229 346.075 608.859 345.475C609.499 344.875 610.304 344.575 611.274 344.575C612.354 344.575 613.224 344.94 613.884 345.67C614.544 346.39 614.874 347.29 614.874 348.37C614.874 349.45 614.544 350.355 613.884 351.085C613.224 351.815 612.354 352.18 611.274 352.18ZM611.274 351.175C612.024 351.175 612.614 350.905 613.044 350.365C613.474 349.815 613.689 349.15 613.689 348.37C613.689 347.59 613.474 346.93 613.044 346.39C612.614 345.85 612.024 345.58 611.274 345.58C610.544 345.58 609.959 345.855 609.519 346.405C609.089 346.945 608.874 347.6 608.874 348.37C608.874 349.15 609.089 349.815 609.519 350.365C609.949 350.905 610.534 351.175 611.274 351.175Z" fill="white"/>
<path d="M30.3008 187V174.203H34.6865C36.1338 174.203 37.2354 174.493 37.9912 175.073C38.7471 175.653 39.125 176.518 39.125 177.666C39.125 178.252 38.9668 178.779 38.6504 179.248C38.334 179.717 37.8711 180.08 37.2617 180.338C37.9531 180.525 38.4863 180.88 38.8613 181.401C39.2422 181.917 39.4326 182.538 39.4326 183.265C39.4326 184.466 39.0459 185.389 38.2725 186.033C37.5049 186.678 36.4033 187 34.9678 187H30.3008ZM32.5244 181.226V185.225H34.9941C35.6914 185.225 36.2363 185.052 36.6289 184.706C37.0215 184.36 37.2178 183.88 37.2178 183.265C37.2178 181.935 36.5381 181.255 35.1787 181.226H32.5244ZM32.5244 179.591H34.7041C35.3955 179.591 35.9346 179.436 36.3213 179.125C36.7139 178.809 36.9102 178.363 36.9102 177.789C36.9102 177.156 36.7285 176.699 36.3652 176.418C36.0078 176.137 35.4482 175.996 34.6865 175.996H32.5244V179.591ZM43.748 180.514H45.8398C46.6191 180.514 47.2988 180.648 47.8789 180.918C48.459 181.188 48.8984 181.565 49.1973 182.052C49.502 182.538 49.6543 183.104 49.6543 183.748C49.6543 184.727 49.3086 185.512 48.6172 186.104C47.9258 186.695 47.0059 186.994 45.8574 187H41.6123V177.49H43.748V180.514ZM53.3721 187H51.2363V177.49H53.3721V187ZM43.748 182.228V185.295H45.8311C46.3525 185.295 46.7627 185.166 47.0615 184.908C47.3662 184.645 47.5186 184.272 47.5186 183.792C47.5186 183.312 47.3691 182.934 47.0703 182.658C46.7773 182.377 46.3789 182.233 45.875 182.228H43.748ZM60.4121 178.018C61.6074 178.018 62.5654 178.419 63.2861 179.222C64.0068 180.019 64.3672 181.103 64.3672 182.474V182.579C64.3672 183.95 63.9746 185.061 63.1895 185.91C62.4102 186.76 61.3496 187.185 60.0078 187.185C58.7012 187.185 57.6465 186.751 56.8438 185.884C56.041 185.017 55.6396 183.833 55.6396 182.333V181.718C55.6396 179.667 56.0029 178.044 56.7295 176.849C57.4561 175.653 58.54 174.906 59.9814 174.607C60.79 174.443 61.3115 174.271 61.5459 174.089C61.7861 173.901 61.9062 173.649 61.9062 173.333H63.6289C63.6289 173.925 63.5322 174.405 63.3389 174.774C63.1455 175.144 62.8496 175.445 62.4512 175.68C62.0527 175.908 61.3672 176.125 60.3945 176.33C59.5039 176.518 58.8242 176.852 58.3555 177.332C57.8926 177.812 57.582 178.478 57.4238 179.327C58.2734 178.454 59.2695 178.018 60.4121 178.018ZM59.9902 179.731C59.2988 179.731 58.7568 179.966 58.3643 180.435C57.9717 180.897 57.7754 181.612 57.7754 182.579C57.7754 183.493 57.9688 184.205 58.3555 184.715C58.7422 185.225 59.293 185.479 60.0078 185.479C60.7168 185.479 61.2646 185.225 61.6514 184.715C62.0439 184.199 62.2402 183.426 62.2402 182.395C62.2402 181.574 62.0439 180.927 61.6514 180.452C61.2646 179.972 60.7109 179.731 59.9902 179.731ZM70.2295 187.176C68.876 187.176 67.7773 186.751 66.9336 185.901C66.0957 185.046 65.6768 183.909 65.6768 182.491V182.228C65.6768 181.278 65.8584 180.432 66.2217 179.688C66.5908 178.938 67.1064 178.354 67.7686 177.938C68.4307 177.522 69.1689 177.314 69.9834 177.314C71.2783 177.314 72.2773 177.728 72.9805 178.554C73.6895 179.38 74.0439 180.549 74.0439 182.061V182.922H67.8301C67.8945 183.707 68.1553 184.328 68.6123 184.785C69.0752 185.242 69.6553 185.471 70.3525 185.471C71.3311 185.471 72.1279 185.075 72.7432 184.284L73.8945 185.383C73.5137 185.951 73.0039 186.394 72.3652 186.71C71.7324 187.021 71.0205 187.176 70.2295 187.176ZM69.9746 179.028C69.3887 179.028 68.9141 179.233 68.5508 179.644C68.1934 180.054 67.9648 180.625 67.8652 181.357H71.9346V181.199C71.8877 180.484 71.6973 179.945 71.3633 179.582C71.0293 179.213 70.5664 179.028 69.9746 179.028ZM84.0371 182.342C84.0371 183.812 83.7031 184.987 83.0352 185.866C82.3672 186.739 81.4707 187.176 80.3457 187.176C79.3027 187.176 78.4678 186.833 77.8408 186.147V190.656H75.7051V177.49H77.6738L77.7617 178.457C78.3887 177.695 79.2412 177.314 80.3193 177.314C81.4795 177.314 82.3877 177.748 83.0439 178.615C83.7061 179.477 84.0371 180.675 84.0371 182.21V182.342ZM81.9102 182.157C81.9102 181.208 81.7197 180.455 81.3389 179.898C80.9639 179.342 80.4248 179.063 79.7217 179.063C78.8486 179.063 78.2217 179.424 77.8408 180.145V184.363C78.2275 185.102 78.8604 185.471 79.7393 185.471C80.4189 185.471 80.9492 185.198 81.3301 184.653C81.7168 184.103 81.9102 183.271 81.9102 182.157ZM91.7891 177.49H93.916V187H91.7891V180.654L88.0625 187H85.9355V177.49H88.0625V183.836L91.7891 177.49ZM103.672 179.187H100.587V187H98.4512V179.187H95.4014V177.49H103.672V179.187ZM108.726 187.176C107.372 187.176 106.273 186.751 105.43 185.901C104.592 185.046 104.173 183.909 104.173 182.491V182.228C104.173 181.278 104.354 180.432 104.718 179.688C105.087 178.938 105.603 178.354 106.265 177.938C106.927 177.522 107.665 177.314 108.479 177.314C109.774 177.314 110.773 177.728 111.477 178.554C112.186 179.38 112.54 180.549 112.54 182.061V182.922H106.326C106.391 183.707 106.651 184.328 107.108 184.785C107.571 185.242 108.151 185.471 108.849 185.471C109.827 185.471 110.624 185.075 111.239 184.284L112.391 185.383C112.01 185.951 111.5 186.394 110.861 186.71C110.229 187.021 109.517 187.176 108.726 187.176ZM108.471 179.028C107.885 179.028 107.41 179.233 107.047 179.644C106.689 180.054 106.461 180.625 106.361 181.357H110.431V181.199C110.384 180.484 110.193 179.945 109.859 179.582C109.525 179.213 109.062 179.028 108.471 179.028ZM126.752 187H124.616V179.213H120.907V187H118.771V177.49H126.752V187ZM137.352 182.342C137.352 183.812 137.018 184.987 136.35 185.866C135.682 186.739 134.785 187.176 133.66 187.176C132.617 187.176 131.782 186.833 131.155 186.147V190.656H129.02V177.49H130.988L131.076 178.457C131.703 177.695 132.556 177.314 133.634 177.314C134.794 177.314 135.702 177.748 136.358 178.615C137.021 179.477 137.352 180.675 137.352 182.21V182.342ZM135.225 182.157C135.225 181.208 135.034 180.455 134.653 179.898C134.278 179.342 133.739 179.063 133.036 179.063C132.163 179.063 131.536 179.424 131.155 180.145V184.363C131.542 185.102 132.175 185.471 133.054 185.471C133.733 185.471 134.264 185.198 134.645 184.653C135.031 184.103 135.225 183.271 135.225 182.157ZM145.104 177.49H147.23V187H145.104V180.654L141.377 187H139.25V177.49H141.377V183.836L145.104 177.49ZM149.103 182.157C149.103 181.226 149.287 180.388 149.656 179.644C150.025 178.894 150.544 178.319 151.212 177.921C151.88 177.517 152.647 177.314 153.515 177.314C154.798 177.314 155.838 177.728 156.635 178.554C157.438 179.38 157.871 180.476 157.936 181.841L157.944 182.342C157.944 183.279 157.763 184.117 157.399 184.855C157.042 185.594 156.526 186.165 155.853 186.569C155.185 186.974 154.411 187.176 153.532 187.176C152.19 187.176 151.115 186.73 150.307 185.84C149.504 184.943 149.103 183.751 149.103 182.263V182.157ZM151.238 182.342C151.238 183.32 151.44 184.088 151.845 184.645C152.249 185.195 152.812 185.471 153.532 185.471C154.253 185.471 154.812 185.189 155.211 184.627C155.615 184.064 155.817 183.241 155.817 182.157C155.817 181.196 155.609 180.435 155.193 179.872C154.783 179.31 154.224 179.028 153.515 179.028C152.817 179.028 152.264 179.307 151.854 179.863C151.443 180.414 151.238 181.24 151.238 182.342ZM168.078 182.342C168.078 183.812 167.744 184.987 167.076 185.866C166.408 186.739 165.512 187.176 164.387 187.176C163.344 187.176 162.509 186.833 161.882 186.147V190.656H159.746V177.49H161.715L161.803 178.457C162.43 177.695 163.282 177.314 164.36 177.314C165.521 177.314 166.429 177.748 167.085 178.615C167.747 179.477 168.078 180.675 168.078 182.21V182.342ZM165.951 182.157C165.951 181.208 165.761 180.455 165.38 179.898C165.005 179.342 164.466 179.063 163.763 179.063C162.89 179.063 162.263 179.424 161.882 180.145V184.363C162.269 185.102 162.901 185.471 163.78 185.471C164.46 185.471 164.99 185.198 165.371 184.653C165.758 184.103 165.951 183.271 165.951 182.157ZM175.83 177.49H177.957V187H175.83V180.654L172.104 187H169.977V177.49H172.104V183.836L175.83 177.49ZM187.713 179.187H184.628V187H182.492V179.187H179.442V177.49H187.713V179.187ZM192.767 187.176C191.413 187.176 190.314 186.751 189.471 185.901C188.633 185.046 188.214 183.909 188.214 182.491V182.228C188.214 181.278 188.396 180.432 188.759 179.688C189.128 178.938 189.644 178.354 190.306 177.938C190.968 177.522 191.706 177.314 192.521 177.314C193.815 177.314 194.814 177.728 195.518 178.554C196.227 179.38 196.581 180.549 196.581 182.061V182.922H190.367C190.432 183.707 190.692 184.328 191.149 184.785C191.612 185.242 192.192 185.471 192.89 185.471C193.868 185.471 194.665 185.075 195.28 184.284L196.432 185.383C196.051 185.951 195.541 186.394 194.902 186.71C194.27 187.021 193.558 187.176 192.767 187.176ZM192.512 179.028C191.926 179.028 191.451 179.233 191.088 179.644C190.73 180.054 190.502 180.625 190.402 181.357H194.472V181.199C194.425 180.484 194.234 179.945 193.9 179.582C193.566 179.213 193.104 179.028 192.512 179.028ZM205.625 179.187H202.54V187H200.404V179.187H197.354V177.49H205.625V179.187ZM217.473 177.49H219.6V187H217.473V180.654L213.746 187H211.619V177.49H213.746V183.836L217.473 177.49ZM221.911 185.295C222.503 184.633 222.898 184.006 223.098 183.414C223.303 182.816 223.426 182.055 223.467 181.129L223.59 177.49H230.19V185.295H231.509V189.83H229.382V187H223.282V189.83H221.12L221.129 185.295H221.911ZM224.416 185.295H228.063V179.327H225.664L225.603 181.146C225.521 182.893 225.125 184.275 224.416 185.295ZM237.222 187.176C235.868 187.176 234.77 186.751 233.926 185.901C233.088 185.046 232.669 183.909 232.669 182.491V182.228C232.669 181.278 232.851 180.432 233.214 179.688C233.583 178.938 234.099 178.354 234.761 177.938C235.423 177.522 236.161 177.314 236.976 177.314C238.271 177.314 239.27 177.728 239.973 178.554C240.682 179.38 241.036 180.549 241.036 182.061V182.922H234.822C234.887 183.707 235.147 184.328 235.604 184.785C236.067 185.242 236.647 185.471 237.345 185.471C238.323 185.471 239.12 185.075 239.735 184.284L240.887 185.383C240.506 185.951 239.996 186.394 239.357 186.71C238.725 187.021 238.013 187.176 237.222 187.176ZM236.967 179.028C236.381 179.028 235.906 179.233 235.543 179.644C235.186 180.054 234.957 180.625 234.857 181.357H238.927V181.199C238.88 180.484 238.689 179.945 238.355 179.582C238.021 179.213 237.559 179.028 236.967 179.028ZM248.639 177.49H250.766V187H248.639V180.654L244.912 187H242.785V177.49H244.912V183.836L248.639 177.49Z" fill="#484848"/>
<line x1="219" y1="91.5" x2="447" y2="91.5" stroke="#7C8793"/>
<circle cx="225" cy="94" r="19.5" fill="white" stroke="#7C8793"/>
<path d="M225.741 100H223.614V89.7256L220.477 90.7979V88.9961L225.469 87.1592H225.741V100Z" fill="#7C8793"/>
<circle cx="297" cy="94" r="19.5" fill="white" stroke="#7C8793"/>
<path d="M300.562 100H291.958V98.5322L296.221 93.8828C296.836 93.1973 297.272 92.626 297.53 92.1689C297.794 91.7061 297.926 91.2432 297.926 90.7803C297.926 90.1709 297.753 89.6787 297.407 89.3037C297.067 88.9287 296.607 88.7412 296.027 88.7412C295.336 88.7412 294.8 88.9521 294.419 89.374C294.038 89.7959 293.848 90.373 293.848 91.1055H291.712C291.712 90.3262 291.888 89.626 292.239 89.0049C292.597 88.3779 293.104 87.8916 293.76 87.5459C294.422 87.2002 295.184 87.0273 296.045 87.0273C297.287 87.0273 298.266 87.3408 298.98 87.9678C299.701 88.5889 300.062 89.4502 300.062 90.5518C300.062 91.1904 299.88 91.8613 299.517 92.5645C299.159 93.2617 298.57 94.0557 297.75 94.9463L294.621 98.2949H300.562V100Z" fill="#7C8793"/>
<circle cx="369" cy="94" r="19.5" fill="white" stroke="#7C8793"/>
<path d="M366.428 92.626H367.729C368.385 92.6201 368.903 92.4502 369.284 92.1162C369.671 91.7822 369.864 91.2988 369.864 90.666C369.864 90.0566 369.703 89.585 369.381 89.251C369.064 88.9111 368.578 88.7412 367.922 88.7412C367.348 88.7412 366.876 88.9082 366.507 89.2422C366.138 89.5703 365.953 90.001 365.953 90.5342H363.817C363.817 89.8779 363.99 89.2803 364.336 88.7412C364.688 88.2021 365.174 87.7832 365.795 87.4844C366.422 87.1797 367.122 87.0273 367.896 87.0273C369.173 87.0273 370.175 87.3496 370.901 87.9941C371.634 88.6328 372 89.5234 372 90.666C372 91.2402 371.815 91.7822 371.446 92.292C371.083 92.7959 370.611 93.1768 370.031 93.4346C370.734 93.6748 371.268 94.0527 371.631 94.5684C372 95.084 372.185 95.6992 372.185 96.4141C372.185 97.5625 371.789 98.4766 370.998 99.1562C370.213 99.8359 369.179 100.176 367.896 100.176C366.665 100.176 365.657 99.8477 364.872 99.1914C364.087 98.5352 363.694 97.6621 363.694 96.5723H365.83C365.83 97.1348 366.018 97.5918 366.393 97.9434C366.773 98.2949 367.283 98.4707 367.922 98.4707C368.584 98.4707 369.105 98.2949 369.486 97.9434C369.867 97.5918 370.058 97.082 370.058 96.4141C370.058 95.7402 369.858 95.2217 369.46 94.8584C369.062 94.4951 368.47 94.3135 367.685 94.3135H366.428V92.626Z" fill="#7C8793"/>
<circle cx="441" cy="94" r="20" fill="#0057B6"/>
<path d="M443.183 95.4385H444.773V97.1523H443.183V100H441.047V97.1523H435.519L435.457 95.8516L440.977 87.2031H443.183V95.4385ZM437.698 95.4385H441.047V90.0947L440.889 90.376L437.698 95.4385Z" fill="white"/>
<path d="M93.564 234H92.402V225.698H89.448V224.662H96.532V225.698H93.564V234ZM100.177 234.168C99.2249 234.168 98.4643 233.771 97.8949 232.978V236.576H96.8449V227.238H97.8949V228.246C98.1469 227.891 98.4736 227.607 98.8749 227.392C99.2763 227.177 99.7103 227.07 100.177 227.07C101.073 227.07 101.796 227.392 102.347 228.036C102.907 228.671 103.187 229.529 103.187 230.612C103.187 231.695 102.907 232.558 102.347 233.202C101.796 233.846 101.073 234.168 100.177 234.168ZM99.9109 233.23C100.574 233.23 101.101 232.987 101.493 232.502C101.885 232.007 102.081 231.377 102.081 230.612C102.081 229.847 101.885 229.221 101.493 228.736C101.101 228.251 100.574 228.008 99.9109 228.008C99.5096 228.008 99.1176 228.115 98.7349 228.33C98.3616 228.535 98.0816 228.787 97.8949 229.086V232.138C98.0816 232.446 98.3616 232.707 98.7349 232.922C99.1176 233.127 99.5096 233.23 99.9109 233.23ZM107.909 234.168C106.901 234.168 106.075 233.841 105.431 233.188C104.787 232.525 104.465 231.667 104.465 230.612C104.465 229.623 104.782 228.787 105.417 228.106C106.051 227.415 106.845 227.07 107.797 227.07C108.795 227.07 109.584 227.415 110.163 228.106C110.751 228.787 111.045 229.651 111.045 230.696V230.962H105.571C105.617 231.625 105.86 232.18 106.299 232.628C106.737 233.076 107.307 233.3 108.007 233.3C108.847 233.3 109.542 233.015 110.093 232.446L110.597 233.132C109.906 233.823 109.01 234.168 107.909 234.168ZM110.009 230.192C109.999 229.613 109.803 229.095 109.421 228.638C109.038 228.171 108.492 227.938 107.783 227.938C107.111 227.938 106.579 228.167 106.187 228.624C105.804 229.081 105.599 229.604 105.571 230.192H110.009ZM114.047 232.474C114.458 232.978 115.009 233.23 115.699 233.23C116.39 233.23 116.936 232.978 117.337 232.474C117.739 231.961 117.939 231.335 117.939 230.598C117.939 229.879 117.739 229.268 117.337 228.764C116.936 228.26 116.39 228.008 115.699 228.008C115.009 228.008 114.458 228.26 114.047 228.764C113.646 229.268 113.445 229.879 113.445 230.598C113.445 231.335 113.646 231.961 114.047 232.474ZM115.699 234.168C114.682 234.168 113.87 233.809 113.263 233.09C112.657 232.371 112.353 231.443 112.353 230.304C112.353 228.699 112.643 227.513 113.221 226.748C113.8 225.973 114.691 225.507 115.895 225.348C116.614 225.236 117.109 225.129 117.379 225.026C117.659 224.923 117.799 224.802 117.799 224.662H118.821C118.821 224.923 118.742 225.152 118.583 225.348C118.425 225.535 118.196 225.684 117.897 225.796C117.608 225.908 117.333 225.997 117.071 226.062C116.819 226.118 116.516 226.169 116.161 226.216C115.228 226.347 114.551 226.603 114.131 226.986C113.721 227.369 113.45 227.877 113.319 228.512C113.935 227.551 114.785 227.07 115.867 227.07C116.801 227.07 117.561 227.411 118.149 228.092C118.737 228.773 119.031 229.609 119.031 230.598C119.031 231.606 118.728 232.455 118.121 233.146C117.515 233.827 116.707 234.168 115.699 234.168ZM120.447 236.646L120.615 235.694C120.783 235.769 120.975 235.806 121.189 235.806C121.432 235.806 121.633 235.755 121.791 235.652C121.95 235.549 122.085 235.363 122.197 235.092L122.645 234.07L119.817 227.238H120.951L123.205 232.782L125.445 227.238H126.593L123.205 235.372C122.832 236.268 122.169 236.725 121.217 236.744C120.937 236.744 120.681 236.711 120.447 236.646ZM130.741 234.168C129.733 234.168 128.907 233.841 128.263 233.188C127.619 232.525 127.297 231.667 127.297 230.612C127.297 229.623 127.614 228.787 128.249 228.106C128.883 227.415 129.677 227.07 130.629 227.07C131.627 227.07 132.416 227.415 132.995 228.106C133.583 228.787 133.877 229.651 133.877 230.696V230.962H128.403C128.449 231.625 128.692 232.18 129.131 232.628C129.569 233.076 130.139 233.3 130.839 233.3C131.679 233.3 132.374 233.015 132.925 232.446L133.429 233.132C132.738 233.823 131.842 234.168 130.741 234.168ZM132.841 230.192C132.831 229.613 132.635 229.095 132.253 228.638C131.87 228.171 131.324 227.938 130.615 227.938C129.943 227.938 129.411 228.167 129.019 228.624C128.636 229.081 128.431 229.604 128.403 230.192H132.841ZM137.859 234H136.809V228.162H134.849V227.238H139.833V228.162H137.859V234ZM147.802 234.168C146.803 234.168 145.991 233.832 145.366 233.16C144.74 232.479 144.428 231.629 144.428 230.612C144.428 229.595 144.74 228.75 145.366 228.078C145.991 227.406 146.803 227.07 147.802 227.07C148.847 227.07 149.673 227.462 150.28 228.246L149.58 228.89C149.15 228.302 148.576 228.008 147.858 228.008C147.148 228.008 146.579 228.251 146.15 228.736C145.73 229.221 145.52 229.847 145.52 230.612C145.52 231.377 145.73 232.007 146.15 232.502C146.579 232.987 147.148 233.23 147.858 233.23C148.567 233.23 149.141 232.936 149.58 232.348L150.28 232.992C149.673 233.776 148.847 234.168 147.802 234.168ZM155.083 234.168C154.131 234.168 153.371 233.771 152.801 232.978V236.576H151.751V227.238H152.801V228.246C153.053 227.891 153.38 227.607 153.781 227.392C154.183 227.177 154.617 227.07 155.083 227.07C155.979 227.07 156.703 227.392 157.253 228.036C157.813 228.671 158.093 229.529 158.093 230.612C158.093 231.695 157.813 232.558 157.253 233.202C156.703 233.846 155.979 234.168 155.083 234.168ZM154.817 233.23C155.48 233.23 156.007 232.987 156.399 232.502C156.791 232.007 156.987 231.377 156.987 230.612C156.987 229.847 156.791 229.221 156.399 228.736C156.007 228.251 155.48 228.008 154.817 228.008C154.416 228.008 154.024 228.115 153.641 228.33C153.268 228.535 152.988 228.787 152.801 229.086V232.138C152.988 232.446 153.268 232.707 153.641 232.922C154.024 233.127 154.416 233.23 154.817 233.23ZM165.139 233.146C164.532 233.827 163.725 234.168 162.717 234.168C161.709 234.168 160.897 233.827 160.281 233.146C159.674 232.465 159.371 231.62 159.371 230.612C159.371 229.604 159.674 228.764 160.281 228.092C160.897 227.411 161.709 227.07 162.717 227.07C163.725 227.07 164.532 227.411 165.139 228.092C165.755 228.764 166.063 229.604 166.063 230.612C166.063 231.62 165.755 232.465 165.139 233.146ZM161.065 232.474C161.476 232.978 162.026 233.23 162.717 233.23C163.408 233.23 163.954 232.978 164.355 232.474C164.756 231.961 164.957 231.34 164.957 230.612C164.957 229.884 164.756 229.268 164.355 228.764C163.954 228.26 163.408 228.008 162.717 228.008C162.026 228.008 161.476 228.265 161.065 228.778C160.664 229.282 160.463 229.893 160.463 230.612C160.463 231.34 160.664 231.961 161.065 232.474ZM167.635 227.238H168.685V229.142C168.685 229.749 168.825 230.169 169.105 230.402C169.385 230.635 169.819 230.752 170.407 230.752C171.135 230.752 171.732 230.631 172.199 230.388V227.238H173.249V234H172.199V231.242C171.601 231.541 170.915 231.69 170.141 231.69C169.263 231.69 168.624 231.513 168.223 231.158C167.831 230.803 167.635 230.239 167.635 229.464V227.238ZM176.399 234H175.349V227.238H176.399V230.052H179.927V227.238H180.977V234H179.927V230.976H176.399V234ZM188.449 233.146C187.843 233.827 187.035 234.168 186.027 234.168C185.019 234.168 184.207 233.827 183.591 233.146C182.985 232.465 182.681 231.62 182.681 230.612C182.681 229.604 182.985 228.764 183.591 228.092C184.207 227.411 185.019 227.07 186.027 227.07C187.035 227.07 187.843 227.411 188.449 228.092C189.065 228.764 189.373 229.604 189.373 230.612C189.373 231.62 189.065 232.465 188.449 233.146ZM184.375 232.474C184.786 232.978 185.337 233.23 186.027 233.23C186.718 233.23 187.264 232.978 187.665 232.474C188.067 231.961 188.267 231.34 188.267 230.612C188.267 229.884 188.067 229.268 187.665 228.764C187.264 228.26 186.718 228.008 186.027 228.008C185.337 228.008 184.786 228.265 184.375 228.778C183.974 229.282 183.773 229.893 183.773 230.612C183.773 231.34 183.974 231.961 184.375 232.474ZM195.817 227.238V228.162H192.135V234H191.085V227.238H195.817ZM202.559 233.146C201.952 233.827 201.145 234.168 200.137 234.168C199.129 234.168 198.317 233.827 197.701 233.146C197.094 232.465 196.791 231.62 196.791 230.612C196.791 229.604 197.094 228.764 197.701 228.092C198.317 227.411 199.129 227.07 200.137 227.07C201.145 227.07 201.952 227.411 202.559 228.092C203.175 228.764 203.483 229.604 203.483 230.612C203.483 231.62 203.175 232.465 202.559 233.146ZM198.485 232.474C198.895 232.978 199.446 233.23 200.137 233.23C200.827 233.23 201.373 232.978 201.775 232.474C202.176 231.961 202.377 231.34 202.377 230.612C202.377 229.884 202.176 229.268 201.775 228.764C201.373 228.26 200.827 228.008 200.137 228.008C199.446 228.008 198.895 228.265 198.485 228.778C198.083 229.282 197.883 229.893 197.883 230.612C197.883 231.34 198.083 231.961 198.485 232.474ZM212.598 234H208.804V227.238H212.528C213.116 227.238 213.578 227.397 213.914 227.714C214.259 228.031 214.432 228.451 214.432 228.974C214.432 229.357 214.325 229.688 214.11 229.968C213.905 230.239 213.648 230.421 213.34 230.514C213.685 230.598 213.975 230.799 214.208 231.116C214.451 231.433 214.572 231.783 214.572 232.166C214.572 232.717 214.395 233.16 214.04 233.496C213.695 233.832 213.214 234 212.598 234ZM212.388 233.076C212.724 233.076 212.99 232.983 213.186 232.796C213.382 232.609 213.48 232.357 213.48 232.04C213.48 231.751 213.382 231.503 213.186 231.298C212.99 231.093 212.724 230.99 212.388 230.99H209.854V233.076H212.388ZM212.346 230.066C212.663 230.066 212.911 229.982 213.088 229.814C213.265 229.637 213.354 229.408 213.354 229.128C213.354 228.829 213.265 228.596 213.088 228.428C212.911 228.251 212.663 228.162 212.346 228.162H209.854V230.066H212.346ZM217.606 234H216.556V227.238H217.606V230.052H221.134V227.238H222.184V234H221.134V230.976H217.606V234ZM227.332 234.168C226.324 234.168 225.498 233.841 224.854 233.188C224.21 232.525 223.888 231.667 223.888 230.612C223.888 229.623 224.206 228.787 224.84 228.106C225.475 227.415 226.268 227.07 227.22 227.07C228.219 227.07 229.008 227.415 229.586 228.106C230.174 228.787 230.468 229.651 230.468 230.696V230.962H224.994C225.041 231.625 225.284 232.18 225.722 232.628C226.161 233.076 226.73 233.3 227.43 233.3C228.27 233.3 228.966 233.015 229.516 232.446L230.02 233.132C229.33 233.823 228.434 234.168 227.332 234.168ZM229.432 230.192C229.423 229.613 229.227 229.095 228.844 228.638C228.462 228.171 227.916 227.938 227.206 227.938C226.534 227.938 226.002 228.167 225.61 228.624C225.228 229.081 225.022 229.604 224.994 230.192H229.432ZM231.371 235.722V233.132C231.716 233.067 231.987 232.861 232.183 232.516C232.379 232.161 232.538 231.513 232.659 230.57L233.093 227.238H237.797V233.076H238.581V235.722H237.531V234H232.421V235.722H231.371ZM234.017 228.162L233.709 230.696C233.55 231.881 233.224 232.675 232.729 233.076H236.747V228.162H234.017ZM243.349 234.168C242.397 234.168 241.636 233.771 241.067 232.978V236.576H240.017V227.238H241.067V228.246C241.319 227.891 241.645 227.607 242.047 227.392C242.448 227.177 242.882 227.07 243.349 227.07C244.245 227.07 244.968 227.392 245.519 228.036C246.079 228.671 246.359 229.529 246.359 230.612C246.359 231.695 246.079 232.558 245.519 233.202C244.968 233.846 244.245 234.168 243.349 234.168ZM243.083 233.23C243.745 233.23 244.273 232.987 244.665 232.502C245.057 232.007 245.253 231.377 245.253 230.612C245.253 229.847 245.057 229.221 244.665 228.736C244.273 228.251 243.745 228.008 243.083 228.008C242.681 228.008 242.289 228.115 241.907 228.33C241.533 228.535 241.253 228.787 241.067 229.086V232.138C241.253 232.446 241.533 232.707 241.907 232.922C242.289 233.127 242.681 233.23 243.083 233.23ZM251.081 234.168C250.073 234.168 249.247 233.841 248.603 233.188C247.959 232.525 247.637 231.667 247.637 230.612C247.637 229.623 247.954 228.787 248.589 228.106C249.223 227.415 250.017 227.07 250.969 227.07C251.967 227.07 252.756 227.415 253.335 228.106C253.923 228.787 254.217 229.651 254.217 230.696V230.962H248.743C248.789 231.625 249.032 232.18 249.471 232.628C249.909 233.076 250.479 233.3 251.179 233.3C252.019 233.3 252.714 233.015 253.265 232.446L253.769 233.132C253.078 233.823 252.182 234.168 251.081 234.168ZM253.181 230.192C253.171 229.613 252.975 229.095 252.593 228.638C252.21 228.171 251.664 227.938 250.955 227.938C250.283 227.938 249.751 228.167 249.359 228.624C248.976 229.081 248.771 229.604 248.743 230.192H253.181ZM256.967 234H255.917V227.238H256.967V230.052H260.495V227.238H261.545V234H260.495V230.976H256.967V234ZM264.65 234H263.642V227.238H264.692V232.404L268.234 227.238H269.27V234H268.22V228.736L264.65 234ZM272.374 234H271.142L272.948 231.34C272.435 231.275 272.015 231.06 271.688 230.696C271.371 230.332 271.212 229.87 271.212 229.31C271.212 228.713 271.404 228.218 271.786 227.826C272.169 227.434 272.692 227.238 273.354 227.238H276.924V234H275.874V231.382H274.026L272.374 234ZM273.466 230.458H275.874V228.162H273.466C273.102 228.162 272.813 228.269 272.598 228.484C272.393 228.689 272.29 228.965 272.29 229.31C272.29 229.655 272.393 229.935 272.598 230.15C272.804 230.355 273.093 230.458 273.466 230.458Z" fill="#F12114"/>
<path d="M78.348 262H74.092V252.662H78.25C79.0527 252.662 79.6873 252.881 80.154 253.32C80.63 253.759 80.868 254.333 80.868 255.042C80.868 255.602 80.7093 256.078 80.392 256.47C80.0747 256.853 79.6873 257.091 79.23 257.184C79.7247 257.259 80.1493 257.52 80.504 257.968C80.868 258.416 81.05 258.92 81.05 259.48C81.05 260.236 80.8073 260.847 80.322 261.314C79.846 261.771 79.188 262 78.348 262ZM78.054 256.708C78.5673 256.708 78.964 256.568 79.244 256.288C79.524 256.008 79.664 255.649 79.664 255.21C79.664 254.771 79.5193 254.412 79.23 254.132C78.95 253.843 78.558 253.698 78.054 253.698H75.254V256.708H78.054ZM78.11 260.964C78.6513 260.964 79.076 260.819 79.384 260.53C79.692 260.241 79.846 259.849 79.846 259.354C79.846 258.897 79.692 258.514 79.384 258.206C79.0853 257.898 78.6607 257.744 78.11 257.744H75.254V260.964H78.11ZM88.1327 262H87.0827V261.23C86.5134 261.855 85.7667 262.168 84.8427 262.168C84.2174 262.168 83.6667 261.967 83.1907 261.566C82.7147 261.165 82.4767 260.619 82.4767 259.928C82.4767 259.219 82.71 258.673 83.1767 258.29C83.6527 257.898 84.208 257.702 84.8427 257.702C85.804 257.702 86.5507 258.01 87.0827 258.626V257.408C87.0827 256.96 86.924 256.61 86.6067 256.358C86.2894 256.106 85.8787 255.98 85.3747 255.98C84.5814 255.98 83.8907 256.293 83.3027 256.918L82.8127 256.19C83.5314 255.443 84.432 255.07 85.5147 255.07C86.2894 255.07 86.9194 255.257 87.4047 255.63C87.89 256.003 88.1327 256.577 88.1327 257.352V262ZM85.2207 261.412C86.0607 261.412 86.6814 261.132 87.0827 260.572V259.298C86.6814 258.738 86.0607 258.458 85.2207 258.458C84.7354 258.458 84.334 258.598 84.0167 258.878C83.7087 259.149 83.5547 259.503 83.5547 259.942C83.5547 260.371 83.7087 260.726 84.0167 261.006C84.334 261.277 84.7354 261.412 85.2207 261.412ZM90.7275 262H89.3835L92.3935 258.304L89.3975 255.238H90.7275L93.6395 258.22V255.238H94.6895V258.206L97.6015 255.238H98.9315L95.9215 258.304L98.9455 262H97.6015L95.1655 258.962L94.6895 259.438V262H93.6395V259.438L93.1635 258.962L90.7275 262ZM101.241 262H100.191V255.238H101.241V258.052H104.769V255.238H105.819V262H104.769V258.976H101.241V262ZM113.193 262H112.143V261.23C111.574 261.855 110.827 262.168 109.903 262.168C109.278 262.168 108.727 261.967 108.251 261.566C107.775 261.165 107.537 260.619 107.537 259.928C107.537 259.219 107.771 258.673 108.237 258.29C108.713 257.898 109.269 257.702 109.903 257.702C110.865 257.702 111.611 258.01 112.143 258.626V257.408C112.143 256.96 111.985 256.61 111.667 256.358C111.35 256.106 110.939 255.98 110.435 255.98C109.642 255.98 108.951 256.293 108.363 256.918L107.873 256.19C108.592 255.443 109.493 255.07 110.575 255.07C111.35 255.07 111.98 255.257 112.465 255.63C112.951 256.003 113.193 256.577 113.193 257.352V262ZM110.281 261.412C111.121 261.412 111.742 261.132 112.143 260.572V259.298C111.742 258.738 111.121 258.458 110.281 258.458C109.796 258.458 109.395 258.598 109.077 258.878C108.769 259.149 108.615 259.503 108.615 259.942C108.615 260.371 108.769 260.726 109.077 261.006C109.395 261.277 109.796 261.412 110.281 261.412ZM116.306 262H115.074L116.88 259.34C116.367 259.275 115.947 259.06 115.62 258.696C115.303 258.332 115.144 257.87 115.144 257.31C115.144 256.713 115.335 256.218 115.718 255.826C116.101 255.434 116.623 255.238 117.286 255.238H120.856V262H119.806V259.382H117.958L116.306 262ZM117.398 258.458H119.806V256.162H117.398C117.034 256.162 116.745 256.269 116.53 256.484C116.325 256.689 116.222 256.965 116.222 257.31C116.222 257.655 116.325 257.935 116.53 258.15C116.735 258.355 117.025 258.458 117.398 258.458ZM127.572 262H126.564V255.238H127.614V260.404L131.156 255.238H132.192V262H131.142V256.736L127.572 262ZM133.49 263.722V261.132C133.836 261.067 134.106 260.861 134.302 260.516C134.498 260.161 134.657 259.513 134.778 258.57L135.212 255.238H139.916V261.076H140.7V263.722H139.65V262H134.54V263.722H133.49ZM136.136 256.162L135.828 258.696C135.67 259.881 135.343 260.675 134.848 261.076H138.866V256.162H136.136ZM145.188 262.168C144.18 262.168 143.354 261.841 142.71 261.188C142.066 260.525 141.744 259.667 141.744 258.612C141.744 257.623 142.061 256.787 142.696 256.106C143.331 255.415 144.124 255.07 145.076 255.07C146.075 255.07 146.863 255.415 147.442 256.106C148.03 256.787 148.324 257.651 148.324 258.696V258.962H142.85C142.897 259.625 143.139 260.18 143.578 260.628C144.017 261.076 144.586 261.3 145.286 261.3C146.126 261.3 146.821 261.015 147.372 260.446L147.876 261.132C147.185 261.823 146.289 262.168 145.188 262.168ZM147.288 258.192C147.279 257.613 147.083 257.095 146.7 256.638C146.317 256.171 145.771 255.938 145.062 255.938C144.39 255.938 143.858 256.167 143.466 256.624C143.083 257.081 142.878 257.604 142.85 258.192H147.288ZM151.033 262H149.801L151.607 259.34C151.093 259.275 150.673 259.06 150.347 258.696C150.029 258.332 149.871 257.87 149.871 257.31C149.871 256.713 150.062 256.218 150.445 255.826C150.827 255.434 151.35 255.238 152.013 255.238H155.583V262H154.533V259.382H152.685L151.033 262ZM152.125 258.458H154.533V256.162H152.125C151.761 256.162 151.471 256.269 151.257 256.484C151.051 256.689 150.949 256.965 150.949 257.31C150.949 257.655 151.051 257.935 151.257 258.15C151.462 258.355 151.751 258.458 152.125 258.458Z" fill="#333333"/>
<path d="M81.876 292H80.714V287.716H75.254V292H74.092V282.662H75.254V286.68H80.714V282.662H81.876V292ZM89.2948 292H88.2448V291.23C87.6755 291.855 86.9288 292.168 86.0048 292.168C85.3795 292.168 84.8288 291.967 84.3528 291.566C83.8768 291.165 83.6388 290.619 83.6388 289.928C83.6388 289.219 83.8721 288.673 84.3388 288.29C84.8148 287.898 85.3701 287.702 86.0048 287.702C86.9661 287.702 87.7128 288.01 88.2448 288.626V287.408C88.2448 286.96 88.0861 286.61 87.7688 286.358C87.4515 286.106 87.0408 285.98 86.5368 285.98C85.7435 285.98 85.0528 286.293 84.4648 286.918L83.9748 286.19C84.6935 285.443 85.5941 285.07 86.6768 285.07C87.4515 285.07 88.0815 285.257 88.5668 285.63C89.0521 286.003 89.2948 286.577 89.2948 287.352V292ZM86.3828 291.412C87.2228 291.412 87.8435 291.132 88.2448 290.572V289.298C87.8435 288.738 87.2228 288.458 86.3828 288.458C85.8975 288.458 85.4961 288.598 85.1788 288.878C84.8708 289.149 84.7168 289.503 84.7168 289.942C84.7168 290.371 84.8708 290.726 85.1788 291.006C85.4961 291.277 85.8975 291.412 86.3828 291.412ZM100.637 292H99.587V286.162H96.059V292H95.009V285.238H100.637V292ZM105.786 292.168C104.778 292.168 103.952 291.841 103.308 291.188C102.664 290.525 102.342 289.667 102.342 288.612C102.342 287.623 102.659 286.787 103.294 286.106C103.928 285.415 104.722 285.07 105.674 285.07C106.672 285.07 107.461 285.415 108.04 286.106C108.628 286.787 108.922 287.651 108.922 288.696V288.962H103.448C103.494 289.625 103.737 290.18 104.176 290.628C104.614 291.076 105.184 291.3 105.884 291.3C106.724 291.3 107.419 291.015 107.97 290.446L108.474 291.132C107.783 291.823 106.887 292.168 105.786 292.168ZM107.886 288.192C107.876 287.613 107.68 287.095 107.298 286.638C106.915 286.171 106.369 285.938 105.66 285.938C104.988 285.938 104.456 286.167 104.064 286.624C103.681 287.081 103.476 287.604 103.448 288.192H107.886ZM113.954 292.168C113.002 292.168 112.242 291.771 111.672 290.978V294.576H110.622V285.238H111.672V286.246C111.924 285.891 112.251 285.607 112.652 285.392C113.054 285.177 113.488 285.07 113.954 285.07C114.85 285.07 115.574 285.392 116.124 286.036C116.684 286.671 116.964 287.529 116.964 288.612C116.964 289.695 116.684 290.558 116.124 291.202C115.574 291.846 114.85 292.168 113.954 292.168ZM113.688 291.23C114.351 291.23 114.878 290.987 115.27 290.502C115.662 290.007 115.858 289.377 115.858 288.612C115.858 287.847 115.662 287.221 115.27 286.736C114.878 286.251 114.351 286.008 113.688 286.008C113.287 286.008 112.895 286.115 112.512 286.33C112.139 286.535 111.859 286.787 111.672 287.086V290.138C111.859 290.446 112.139 290.707 112.512 290.922C112.895 291.127 113.287 291.23 113.688 291.23ZM121.616 292.168C120.617 292.168 119.805 291.832 119.18 291.16C118.555 290.479 118.242 289.629 118.242 288.612C118.242 287.595 118.555 286.75 119.18 286.078C119.805 285.406 120.617 285.07 121.616 285.07C122.661 285.07 123.487 285.462 124.094 286.246L123.394 286.89C122.965 286.302 122.391 286.008 121.672 286.008C120.963 286.008 120.393 286.251 119.964 286.736C119.544 287.221 119.334 287.847 119.334 288.612C119.334 289.377 119.544 290.007 119.964 290.502C120.393 290.987 120.963 291.23 121.672 291.23C122.381 291.23 122.955 290.936 123.394 290.348L124.094 290.992C123.487 291.776 122.661 292.168 121.616 292.168ZM131.194 292H130.144V286.162H126.616V292H125.566V285.238H131.194V292ZM136.342 292.168C135.334 292.168 134.508 291.841 133.864 291.188C133.22 290.525 132.898 289.667 132.898 288.612C132.898 287.623 133.216 286.787 133.85 286.106C134.485 285.415 135.278 285.07 136.23 285.07C137.229 285.07 138.018 285.415 138.596 286.106C139.184 286.787 139.478 287.651 139.478 288.696V288.962H134.004C134.051 289.625 134.294 290.18 134.732 290.628C135.171 291.076 135.74 291.3 136.44 291.3C137.28 291.3 137.976 291.015 138.526 290.446L139.03 291.132C138.34 291.823 137.444 292.168 136.342 292.168ZM138.442 288.192C138.433 287.613 138.237 287.095 137.854 286.638C137.472 286.171 136.926 285.938 136.216 285.938C135.544 285.938 135.012 286.167 134.62 286.624C134.238 287.081 134.032 287.604 134.004 288.192H138.442ZM147.129 292H145.785L143.349 288.962L142.229 290.068V292H141.179V285.238H142.229V288.836L145.785 285.238H147.115L144.119 288.304L147.129 292ZM150.652 292H149.602V286.162H147.642V285.238H152.626V286.162H150.652V292ZM155.011 292H154.003V285.238H155.053V290.404L158.595 285.238H159.631V292H158.581V286.736L155.011 292ZM165.522 292H161.728V285.238H165.452C166.04 285.238 166.502 285.397 166.838 285.714C167.183 286.031 167.356 286.451 167.356 286.974C167.356 287.357 167.248 287.688 167.034 287.968C166.828 288.239 166.572 288.421 166.264 288.514C166.609 288.598 166.898 288.799 167.132 289.116C167.374 289.433 167.496 289.783 167.496 290.166C167.496 290.717 167.318 291.16 166.964 291.496C166.618 291.832 166.138 292 165.522 292ZM165.312 291.076C165.648 291.076 165.914 290.983 166.11 290.796C166.306 290.609 166.404 290.357 166.404 290.04C166.404 289.751 166.306 289.503 166.11 289.298C165.914 289.093 165.648 288.99 165.312 288.99H162.778V291.076H165.312ZM165.27 288.066C165.587 288.066 165.834 287.982 166.012 287.814C166.189 287.637 166.278 287.408 166.278 287.128C166.278 286.829 166.189 286.596 166.012 286.428C165.834 286.251 165.587 286.162 165.27 286.162H162.778V288.066H165.27ZM169.102 294.646L169.27 293.694C169.438 293.769 169.629 293.806 169.844 293.806C170.086 293.806 170.287 293.755 170.446 293.652C170.604 293.549 170.74 293.363 170.852 293.092L171.3 292.07L168.472 285.238H169.606L171.86 290.782L174.1 285.238H175.248L171.86 293.372C171.486 294.268 170.824 294.725 169.872 294.744C169.592 294.744 169.335 294.711 169.102 294.646Z" fill="#08A89E"/>
<g clip-path="url(#clip0)">
<path d="M78.2669 220.096C77.0603 222.89 80.1473 224.376 82.1849 226.819C83.235 228.079 83.7542 229.71 83.5465 231.336C83.3594 232.802 82.6511 233.926 81.5358 234.785C79.3099 236.5 76.1549 236.409 74.1377 234.453C73.3911 233.729 72.8547 232.806 72.5647 231.65C72.1882 230.149 72.503 228.557 73.382 227.284L73.6021 226.965C73.6841 226.846 73.8658 226.878 73.9044 227.018C74.1611 227.942 74.7332 228.679 75.6688 229.198C75.8201 229.282 75.9966 229.136 75.9419 228.972C74.803 225.553 75.2871 222.51 78.16 220.017C78.2148 219.97 78.2957 220.03 78.2669 220.096Z" fill="#F12114"/>
<path d="M82.1846 226.819C80.147 224.376 77.06 222.89 78.2666 220.096C78.2954 220.03 78.2145 219.97 78.1597 220.017C77.4693 220.616 76.9173 221.247 76.4922 221.907C76.9041 223.655 79.0615 224.96 80.6118 226.819C81.6619 228.079 82.1811 229.71 81.9734 231.336C81.7864 232.801 81.0781 233.926 79.9627 234.785C79.1357 235.422 78.1804 235.81 77.2028 235.945C78.6936 236.153 80.2657 235.763 81.5355 234.785C82.6508 233.926 83.3592 232.801 83.5462 231.336C83.7539 229.71 83.2347 228.079 82.1846 226.819Z" fill="#B61B11"/>
<path d="M80.1678 233.832C80.1678 235.029 79.197 236 77.9994 236C76.8019 236 75.8311 235.029 75.8311 233.832C75.8311 232.989 76.9049 231.278 77.5412 230.338C77.7606 230.014 78.2383 230.014 78.4576 230.338C79.0939 231.278 80.1678 232.989 80.1678 233.832Z" fill="#FEDB41"/>
<path d="M78.4581 230.338C78.2388 230.014 77.7611 230.014 77.5417 230.338C77.4839 230.424 77.4223 230.516 77.3584 230.612C77.9978 231.582 78.8852 233.065 78.8852 233.832C78.8852 234.806 78.2427 235.63 77.3584 235.904C77.5611 235.966 77.7766 236 77.9999 236C79.1975 236 80.1683 235.029 80.1683 233.832C80.1683 232.989 79.0944 231.278 78.4581 230.338Z" fill="#CFB235"/>
</g>
<path d="M60.654 234H59.492V226.202L57.994 227.784L57.294 227.07L59.632 224.662H60.654V234Z" fill="#F12114"/>
<path d="M64.168 262H57.756V261.076C58.7267 260.311 59.478 259.704 60.01 259.256C60.5513 258.799 61.0693 258.318 61.564 257.814C62.068 257.301 62.4227 256.848 62.628 256.456C62.8333 256.055 62.936 255.658 62.936 255.266C62.936 254.706 62.7447 254.281 62.362 253.992C61.9793 253.703 61.522 253.558 60.99 253.558C59.9167 253.558 59.072 253.95 58.456 254.734L57.742 253.992C58.0967 253.525 58.5587 253.166 59.128 252.914C59.7067 252.653 60.3273 252.522 60.99 252.522C61.8393 252.522 62.572 252.76 63.188 253.236C63.8133 253.712 64.126 254.389 64.126 255.266C64.126 256.134 63.7527 257.002 63.006 257.87C62.2593 258.729 61.1207 259.76 59.59 260.964H64.168V262Z" fill="#333333"/>
<path d="M60.724 292.168C59.9773 292.168 59.3147 292.023 58.736 291.734C58.1573 291.445 57.714 291.076 57.406 290.628L58.092 289.9C58.372 290.273 58.7407 290.572 59.198 290.796C59.6553 291.02 60.1547 291.132 60.696 291.132C61.3773 291.132 61.9093 290.978 62.292 290.67C62.684 290.353 62.88 289.923 62.88 289.382C62.88 288.822 62.67 288.407 62.25 288.136C61.8393 287.865 61.2747 287.73 60.556 287.73C60.0053 287.73 59.6833 287.735 59.59 287.744V286.68C59.6927 286.689 60.0147 286.694 60.556 286.694C61.1907 286.694 61.7087 286.568 62.11 286.316C62.5207 286.055 62.726 285.667 62.726 285.154C62.726 284.659 62.5253 284.272 62.124 283.992C61.732 283.703 61.2373 283.558 60.64 283.558C59.6973 283.558 58.876 283.936 58.176 284.692L57.532 283.964C58.3253 283.003 59.3893 282.522 60.724 282.522C61.648 282.522 62.404 282.746 62.992 283.194C63.5893 283.633 63.888 284.239 63.888 285.014C63.888 285.63 63.6827 286.125 63.272 286.498C62.8613 286.862 62.3947 287.091 61.872 287.184C62.3853 287.231 62.8707 287.455 63.328 287.856C63.7947 288.257 64.028 288.799 64.028 289.48C64.028 290.273 63.7293 290.922 63.132 291.426C62.5347 291.921 61.732 292.168 60.724 292.168Z" fill="#08A89E"/>
<defs>
<filter id="filter0_d" x="0" y="138" width="666" height="261" filterUnits="userSpaceOnUse" color-interpolation-filters="sRGB">
<feFlood flood-opacity="0" result="BackgroundImageFix"/>
<feColorMatrix in="SourceAlpha" type="matrix" values="0 0 0 0 0 0 0 0 0 0 0 0 0 0 0 0 0 0 127 0"/>
<feOffset dy="2"/>
<feGaussianBlur stdDeviation="2.5"/>
<feColorMatrix type="matrix" values="0 0 0 0 0.4125 0 0 0 0 0.4125 0 0 0 0 0.4125 0 0 0 0.1 0"/>
<feBlend mode="normal" in2="BackgroundImageFix" result="effect1_dropShadow"/>
<feBlend mode="normal" in="SourceGraphic" in2="effect1_dropShadow" result="shape"/>
</filter>
<clipPath id="clip0">
<rect width="16" height="16" fill="white" transform="translate(70 220)"/>
</clipPath>
</defs>
</svg>
